<svg width="28" height="28" viewBox="0 0 28 28" fill="none" xmlns="http://www.w3.org/2000/svg">
<path d="M21.823 8.40325V3.44336H18.4758V5.72552C17.1978 5.11694 15.7676 4.7518 14.2766 4.7518C8.98202 4.7518 4.66113 9.07268 4.66113 14.3673V25.4434H9.22545H19.0844H23.9225V14.3977C23.8921 12.1156 23.1314 10.0464 21.823 8.40325ZM19.6929 4.66051H20.5754V7.12524C20.3015 6.88181 19.9972 6.63838 19.6929 6.42538V4.66051ZM11.3555 24.2566H10.4122V22.6439H11.3555V24.2566ZM13.5159 24.2566H12.5422V22.6439H13.5159V24.2566ZM15.7068 24.2566H14.7331V22.6439H15.7068V24.2566ZM17.8368 24.2566H16.8935V22.6439H17.8368V24.2566ZM22.675 24.2566H19.0539V21.4268H9.19502V24.2566H5.84785V14.3977C5.87828 9.74211 9.65145 5.96895 14.2766 5.96895C18.9018 5.96895 22.675 9.74211 22.675 14.3977V24.2566Z" fill="white"/>
<path d="M9.80369 10.2285C8.28225 10.2285 7.03467 11.4761 7.03467 12.9975C7.03467 14.519 8.28225 15.7666 9.80369 15.7666C11.3251 15.7666 12.5727 14.519 12.5727 12.9975C12.5727 11.4457 11.3251 10.2285 9.80369 10.2285ZM9.80369 14.519C8.95168 14.519 8.25182 13.8191 8.25182 12.9671C8.25182 12.1151 8.95168 11.4152 9.80369 11.4152C10.6557 11.4152 11.3556 12.1151 11.3556 12.9671C11.3556 13.8191 10.6557 14.519 9.80369 14.519Z" fill="white"/>
<path d="M15.7065 12.9673C15.7065 14.4887 16.9541 15.7363 18.4756 15.7363C19.997 15.7363 21.2446 14.4887 21.2446 12.9673C21.2446 11.4458 19.997 10.1982 18.4756 10.1982C16.9541 10.1982 15.7065 11.4458 15.7065 12.9673ZM19.997 12.9673C19.997 13.8193 19.2971 14.5191 18.4451 14.5191C17.5931 14.5191 16.8933 13.8193 16.8933 12.9673C16.8933 12.1153 17.5931 11.4154 18.4451 11.4154C19.2971 11.4154 19.997 12.1153 19.997 12.9673Z" fill="white"/>
<path d="M12.603 18.9315H15.6459V15.8887H12.603V18.9315ZM13.8202 17.1058H14.4288V17.7144H13.8202V17.1058Z" fill="white"/>
</svg>
