<svg width="28" height="28" viewBox="0 0 28 28" fill="none" xmlns="http://www.w3.org/2000/svg">
<path d="M17.4094 12.5405V13.0731C17.4094 13.1426 17.4557 13.1889 17.5252 13.1889H18.081C18.1504 13.1889 18.1967 13.1426 18.1967 13.0731V12.5405C18.6136 12.471 18.961 12.3089 19.1925 12.0541C19.4473 11.7994 19.5631 11.4752 19.5631 11.0815C19.5631 10.9657 19.5631 10.8731 19.5399 10.7805C19.5167 10.6878 19.4936 10.5952 19.4704 10.5257C19.4473 10.4562 19.401 10.3868 19.3546 10.3173C19.3083 10.2478 19.262 10.2015 19.1925 10.132C19.1462 10.0857 19.0767 10.0394 19.0073 9.99309C18.9378 9.94677 18.8452 9.90045 18.7757 9.85414C18.7062 9.80782 18.6136 9.78467 18.521 9.73835C18.4283 9.69203 18.3125 9.66888 18.2431 9.64572C18.1504 9.62256 18.0578 9.57624 17.9189 9.55309C17.641 9.46045 17.4325 9.36782 17.3167 9.29835C17.201 9.20572 17.1315 9.11309 17.1315 8.97414C17.1315 8.83519 17.1778 8.74256 17.2936 8.67309C17.3862 8.60361 17.5483 8.5573 17.7336 8.5573C18.081 8.5573 18.4283 8.67309 18.7757 8.90466C18.822 8.92782 18.8915 8.92782 18.9146 8.88151L19.3546 8.32572C19.401 8.2794 19.3778 8.20993 19.3315 8.16361C19.1925 8.04782 19.0304 7.95519 18.8452 7.88572C18.6136 7.79309 18.4052 7.70045 18.1736 7.65414V7.02888C18.1736 6.9594 18.1273 6.91309 18.0578 6.91309H17.502C17.4325 6.91309 17.3862 6.9594 17.3862 7.02888V7.63098C16.9694 7.6773 16.622 7.8394 16.3904 8.09414C16.1589 8.34888 16.0199 8.67309 16.0199 9.06677C16.0199 9.1594 16.0199 9.25203 16.0431 9.32151C16.0662 9.41414 16.0662 9.48361 16.1125 9.55309C16.1357 9.62256 16.182 9.69203 16.2052 9.73835C16.2515 9.80782 16.2746 9.85414 16.3441 9.90045C16.3904 9.94677 16.4599 9.99309 16.5062 10.0394C16.5525 10.0857 16.622 10.132 16.6915 10.1552C16.761 10.2015 16.8304 10.2247 16.8999 10.271C16.9694 10.2941 17.0389 10.3405 17.1315 10.3636C17.2241 10.3868 17.2936 10.4331 17.3631 10.4562C17.4325 10.4794 17.5252 10.5026 17.6178 10.5257C17.7336 10.5489 17.8031 10.5952 17.8957 10.6183C17.9652 10.6415 18.0346 10.6878 18.1041 10.711C18.1736 10.7341 18.2199 10.7805 18.2662 10.8036C18.3125 10.8268 18.3357 10.8731 18.382 10.9194C18.4052 10.9657 18.4283 10.9889 18.4515 11.0352C18.4746 11.0815 18.4746 11.1278 18.4746 11.1741C18.4746 11.3131 18.4283 11.4289 18.3125 11.5215C18.1967 11.6141 18.0578 11.6373 17.8725 11.6373C17.6641 11.6373 17.4325 11.591 17.201 11.4983C16.9925 11.4057 16.8073 11.2899 16.6452 11.151C16.5989 11.1047 16.5294 11.1047 16.4831 11.151L16.0199 11.7068C15.9736 11.7531 15.9967 11.8226 16.0199 11.8689C16.4136 12.2394 16.8767 12.471 17.4094 12.5405Z" fill="white"/>
<path d="M9.58216 8.85865H13.9822C14.2832 8.85865 14.5379 8.60391 14.5379 8.30286C14.5379 8.00181 14.2832 7.74707 13.9822 7.74707H9.58216C9.2811 7.74707 9.02637 8.00181 9.02637 8.30286C9.02637 8.62707 9.25795 8.85865 9.58216 8.85865Z" fill="white"/>
<path d="M9.58216 12.3782H13.9822C14.2832 12.3782 14.5379 12.1234 14.5379 11.8224C14.5379 11.5213 14.2832 11.2666 13.9822 11.2666H9.58216C9.2811 11.2666 9.02637 11.5213 9.02637 11.8224C9.02637 12.1234 9.25795 12.3782 9.58216 12.3782Z" fill="white"/>
<path d="M9.58216 15.8987H18.3822C18.6832 15.8987 18.9379 15.644 18.9379 15.3429C18.9379 15.0418 18.6832 14.7871 18.3822 14.7871H9.58216C9.2811 14.7871 9.02637 15.0418 9.02637 15.3429C9.02637 15.644 9.25795 15.8987 9.58216 15.8987Z" fill="white"/>
<path d="M9.58216 19.4192H18.3822C18.6832 19.4192 18.9379 19.1645 18.9379 18.8634C18.9379 18.5624 18.6832 18.3076 18.3822 18.3076H9.58216C9.2811 18.3076 9.02637 18.5624 9.02637 18.8634C9.02637 19.1645 9.25795 19.4192 9.58216 19.4192Z" fill="white"/>
<path d="M22.5272 3.20801H5.43665C5.1356 3.20801 4.88086 3.46274 4.88086 3.7638V24.2122C4.88086 24.5133 5.04296 24.7912 5.32086 24.9301C5.5756 25.0691 5.89981 25.0459 6.15454 24.8838L8.28507 23.4712L10.6703 25.0691C10.9482 25.2543 11.2956 25.2543 11.5735 25.0691L13.9819 23.4712L16.3672 25.0691C16.5061 25.1617 16.6682 25.208 16.8303 25.208C16.9924 25.208 17.1545 25.1617 17.2935 25.0691L19.6788 23.4712L21.8093 24.8838C22.064 25.0459 22.3882 25.0691 22.643 24.9301C22.8977 24.7912 23.083 24.5133 23.083 24.2122V3.7638C23.083 3.46274 22.8282 3.20801 22.5272 3.20801ZM21.9714 23.6796L20.1188 22.4522C19.8409 22.267 19.4935 22.267 19.2156 22.4522L16.8072 24.0501L14.4451 22.4522C14.1672 22.267 13.8198 22.267 13.5419 22.4522L11.1335 24.0501L8.72507 22.4522C8.58612 22.3596 8.42402 22.3133 8.28507 22.3133C8.12296 22.3133 7.96086 22.3596 7.82191 22.4522L5.96928 23.6796V4.31959H21.9482V23.6796H21.9714Z" fill="white"/>
</svg>
