<svg width="17" height="16" viewBox="0 0 17 16" fill="none" xmlns="http://www.w3.org/2000/svg">
<path fill-rule="evenodd" clip-rule="evenodd" d="M5.71967 10.2197C6.01256 9.92678 6.48744 9.92678 6.78033 10.2197L8.5 11.9393L10.2197 10.2197C10.5126 9.92678 10.9874 9.92678 11.2803 10.2197C11.5732 10.5126 11.5732 10.9874 11.2803 11.2803L9.03033 13.5303C8.73744 13.8232 8.26256 13.8232 7.96967 13.5303L5.71967 11.2803C5.42678 10.9874 5.42678 10.5126 5.71967 10.2197Z" fill="#FF4D67"/>
<path fill-rule="evenodd" clip-rule="evenodd" d="M11.2803 5.78033C10.9874 6.07322 10.5126 6.07322 10.2197 5.78033L8.5 4.06066L6.78033 5.78033C6.48744 6.07322 6.01256 6.07322 5.71967 5.78033C5.42678 5.48744 5.42678 5.01256 5.71967 4.71967L7.96967 2.46967C8.26256 2.17678 8.73744 2.17678 9.03033 2.46967L11.2803 4.71967C11.5732 5.01256 11.5732 5.48744 11.2803 5.78033Z" fill="#FF4D67"/>
</svg>
