<svg width="12" height="12" viewBox="0 0 12 12" fill="none" xmlns="http://www.w3.org/2000/svg">
<g clip-path="url(#clip0_1051_5272)">
<path d="M10 9.26855H2C1.73478 9.26855 1.48043 9.37391 1.29289 9.56145C1.10536 9.74898 1 10.0033 1 10.2686C1 10.5338 1.10536 10.7881 1.29289 10.9757C1.48043 11.1632 1.73478 11.2686 2 11.2686H10C10.2652 11.2686 10.5196 11.1632 10.7071 10.9757C10.8946 10.7881 11 10.5338 11 10.2686C11 10.0033 10.8946 9.74898 10.7071 9.56145C10.5196 9.37391 10.2652 9.26855 10 9.26855Z" fill="#FFD300"/>
<path d="M11 2.76749C10.7348 2.76749 10.4804 2.87285 10.2929 3.06038C10.1054 3.24792 10 3.50227 10 3.76749C10.0001 3.83619 10.0071 3.9047 10.021 3.97199L8.205 5.06249L6.6745 2.00149C6.82322 1.86543 6.92735 1.68761 6.97324 1.49133C7.01913 1.29506 7.00463 1.0895 6.93165 0.901607C6.85867 0.713715 6.73062 0.552264 6.56427 0.438425C6.39793 0.324585 6.20107 0.263672 5.9995 0.263672C5.79793 0.263672 5.60107 0.324585 5.43473 0.438425C5.26839 0.552264 5.14033 0.713715 5.06735 0.901607C4.99437 1.0895 4.97987 1.29506 5.02576 1.49133C5.07165 1.68761 5.17578 1.86543 5.3245 2.00149L3.795 5.06249L1.979 3.97199C1.99287 3.9047 1.9999 3.83619 2 3.76749C2 3.56971 1.94135 3.37637 1.83147 3.21192C1.72159 3.04747 1.56541 2.9193 1.38268 2.84361C1.19996 2.76792 0.998891 2.74812 0.80491 2.7867C0.610929 2.82529 0.432746 2.92053 0.292894 3.06038C0.153041 3.20023 0.0578004 3.37842 0.0192152 3.5724C-0.0193701 3.76638 0.000433281 3.96745 0.0761209 4.15017C0.151809 4.3329 0.279981 4.48908 0.44443 4.59896C0.608879 4.70884 0.802219 4.76749 1 4.76749C1.0185 4.76749 1.0355 4.76299 1.0535 4.76199L1.44 8.26749H10.56L10.9465 4.76199C10.9645 4.76199 10.9815 4.76749 11 4.76749C11.2652 4.76749 11.5196 4.66213 11.7071 4.4746C11.8946 4.28706 12 4.03271 12 3.76749C12 3.50227 11.8946 3.24792 11.7071 3.06038C11.5196 2.87285 11.2652 2.76749 11 2.76749Z" fill="#FFD300"/>
</g>
<defs>
<clipPath id="clip0_1051_5272">
<rect width="12" height="12" fill="white"/>
</clipPath>
</defs>
</svg>
