<svg width="28" height="28" viewBox="0 0 28 28" fill="none" xmlns="http://www.w3.org/2000/svg">
<path d="M14 3C6.25333 3 0 9.39545 0 17.3182V21.1364C0 21.7091 0.373333 22.0909 0.933333 22.0909H11.3867C11.76 23.2364 12.7867 24 14 24C15.2133 24 16.24 23.2364 16.6133 22.0909H27.0667C27.6267 22.0909 28 21.7091 28 21.1364V17.3182C28 9.39545 21.7467 3 14 3ZM14 22.0909C13.44 22.0909 13.0667 21.7091 13.0667 21.1364C13.0667 20.5636 13.44 20.1818 14 20.1818C14.56 20.1818 14.9333 20.5636 14.9333 21.1364C14.9333 21.7091 14.56 22.0909 14 22.0909ZM26.1333 20.1818H16.6133C16.3333 19.4182 15.68 18.75 14.9333 18.4636V10.6364C14.9333 10.0636 14.56 9.68182 14 9.68182C13.44 9.68182 13.0667 10.0636 13.0667 10.6364V18.4636C12.32 18.75 11.6667 19.4182 11.3867 20.1818H1.86667V17.3182C1.86667 16.3636 1.96 15.4091 2.24 14.4545H4.66667C5.22667 14.4545 5.6 14.0727 5.6 13.5C5.6 12.9273 5.22667 12.5455 4.66667 12.5455H2.8C4.48 8.34545 8.4 5.29091 13.0667 5.00455V6.81818C13.0667 7.39091 13.44 7.77273 14 7.77273C14.56 7.77273 14.9333 7.39091 14.9333 6.81818V5.00455C19.6 5.38636 23.52 8.34545 25.2 12.5455H23.3333C22.7733 12.5455 22.4 12.9273 22.4 13.5C22.4 14.0727 22.7733 14.4545 23.3333 14.4545H25.76C25.9467 15.4091 26.1333 16.3636 26.1333 17.3182V20.1818Z" fill="white"/>
</svg>
