<svg width="28" height="28" viewBox="0 0 28 28" fill="none" xmlns="http://www.w3.org/2000/svg">
<path d="M3.94971 10.4492C3.94971 10.429 3.96804 10.385 3.94971 10.3594V10.4492Z" fill="white"/>
<path d="M18.1412 4.47274C18.1742 4.4984 18.2072 4.52224 18.2402 4.5479C18.297 4.59007 18.1375 4.46907 18.1412 4.47274Z" fill="white"/>
<path d="M17.168 8.03505C17.696 8.18355 18.1965 8.40905 18.6695 8.68588C19.0068 8.88388 19.4065 9.22304 19.7383 9.38071C19.7713 9.39538 19.7878 9.41738 19.8263 9.39171C20.3415 7.56388 19.7255 5.71221 18.2405 4.54805C18.224 4.53521 18.1891 4.51138 18.1286 4.46555C17.8518 4.25838 17.6831 4.22355 17.6831 4.22355C17.597 4.17588 17.4998 4.26205 17.5365 4.35188C17.7895 4.97338 17.9746 5.62971 17.9233 6.30438C17.872 6.97171 17.5786 7.52171 17.1698 8.03505H17.168Z" fill="white"/>
<path d="M3.96224 10.8127C3.99524 11.9457 4.48291 13.0549 5.28958 13.8891C5.36108 13.9624 5.85424 14.4189 5.90374 14.4299C5.95508 14.4427 5.95508 14.4097 5.96974 14.3767C6.01558 14.2741 6.03941 14.0559 6.07791 13.9312C6.14024 13.7277 6.20441 13.4839 6.27958 13.2932C6.36391 13.0769 7.07158 11.8284 7.03858 11.7386L6.16591 11.3517C5.57741 11.0071 5.07691 10.5011 4.76524 9.88874C4.62224 9.60824 4.55258 9.33141 4.45174 9.03624C4.45174 9.01791 4.47741 8.95374 4.44074 8.92808C4.36008 8.87491 4.24641 9.17924 4.22074 9.24708C4.03558 9.73658 3.95308 10.2426 3.96041 10.7467V10.8219V10.8127H3.96224ZM5.10258 10.8824C5.63424 11.5717 6.85708 11.9182 6.85708 11.9182C6.85708 11.9182 6.08708 12.0081 5.32624 11.3041C4.56358 10.5982 4.42791 9.34058 4.42791 9.34058C4.42791 9.34058 4.57091 10.1931 5.10441 10.8824H5.10258Z" fill="white"/>
<path d="M7.3907 17.5592C8.4687 17.0935 9.1177 16.1329 10.2672 15.724C11.6129 15.2437 12.6102 15.8799 14.0604 15.251C15.186 14.7634 15.9065 13.6194 17.0322 13.1317C18.365 12.5542 19.5714 12.864 20.873 12.5487C21.5092 12.3947 23.1042 11.5275 23.5369 11.0399C23.5607 11.0325 23.5717 11.0307 23.5717 11.0307H23.5185H23.5222C23.4067 10.9995 23.062 10.9977 22.93 10.9775C22.4057 10.8969 21.9144 10.7447 21.4432 10.5504C21.0564 10.3817 20.6805 10.1837 20.3157 9.98936C18.2092 8.86552 15.9689 6.95702 13.7652 8.93336C12.7935 9.99302 12.9915 10.0627 12.293 10.3175C11.7412 10.5174 11.6917 10.4459 10.9914 10.3139C10.8539 10.279 10.7127 10.2497 10.5679 10.2314C10.4927 10.2222 10.4175 10.2149 10.346 10.2094C10.3222 10.2057 10.3002 10.202 10.2745 10.2002C10.1792 10.1965 10.0857 10.1965 9.99587 10.2002C9.61637 10.2075 9.27903 10.2735 8.97837 10.3872C7.13953 11.0564 6.6702 13.3719 5.92587 15.2125C5.50053 16.2649 5.07703 17.3502 4.14937 18.0615L4.08887 18.1092C4.10903 18.1935 4.1952 18.1605 4.24837 18.1642C5.2347 18.2284 6.48503 17.9515 7.3907 17.5592ZM15.186 8.49336C16.5079 7.95252 18.4677 9.36052 18.4677 9.36052C17.5437 8.90036 16.1614 8.40902 15.1732 8.88752C15.0907 8.92969 15.0119 8.97552 14.9385 9.02686C14.8615 9.08002 14.7754 9.13869 14.7002 9.19186C14.4912 9.34219 14.2895 9.49986 14.097 9.67036C13.8752 9.87202 13.6075 10.1159 13.3894 10.3212C13.2922 10.4129 13.1987 10.5009 13.1052 10.5962C13.1052 10.5962 13.866 9.03602 15.186 8.49336ZM8.96187 10.8272C9.47337 10.6329 9.8822 10.5614 11.3544 10.8327C9.7227 10.7832 8.77303 10.9097 7.46587 12.5359C7.7757 11.7879 8.4522 11.0215 8.96187 10.8272Z" fill="white"/>
<path d="M21.3954 12.9477C19.7949 13.6297 19.0469 13.5233 18.2549 13.868C16.6397 14.5702 16.1997 16.233 14.4562 16.8802C12.9401 17.443 11.6494 16.7463 10.1479 17.0433C9.59789 17.1515 9.26606 17.3238 8.77289 17.5347C8.75639 17.542 8.73989 17.5457 8.72339 17.553C8.59872 17.6062 8.44106 17.6465 8.31089 17.7015C8.26506 17.7217 8.22472 17.7473 8.18439 17.7767C8.15872 17.784 8.13489 17.795 8.10922 17.8042C7.94056 17.8592 7.77739 17.9527 7.63439 18.0058L7.21272 18.1598C7.18339 18.1708 7.07706 18.1855 7.01656 18.202C6.13289 18.4587 5.22356 18.6017 4.30322 18.5118C4.30322 18.5118 9.53922 24.0173 15.9724 21.953C22.4056 19.8905 22.8401 15.1495 23.0509 14.2622C23.2617 13.3748 23.5056 12.3867 23.6852 11.3398C23.6852 11.3398 22.9941 12.2638 21.3954 12.9477ZM21.2121 15.331C21.1039 15.9507 20.7849 16.5135 20.3981 17.0012C20.3614 17.0488 20.3101 17.1075 20.2679 17.1533C19.8462 17.6007 19.3274 17.8848 18.7627 18.0828C18.6839 18.1103 18.6051 18.1342 18.5226 18.1543C18.4951 18.1617 18.4657 18.1452 18.4584 18.1158C18.4529 18.092 18.4639 18.0682 18.4841 18.0572C19.0322 17.729 19.5731 17.3385 19.9434 16.8142C20.2221 16.3833 20.4659 15.9232 20.6126 15.4318C20.6199 15.4062 20.6364 15.3512 20.6437 15.3237L20.6731 15.2137C20.7739 14.8782 21.2579 14.9845 21.2102 15.331H21.2121Z" fill="white"/>
</svg>
