<?xml version="1.0" encoding="UTF-8"?>
<svg xmlns="http://www.w3.org/2000/svg" version="1.1" viewBox="0 0 4136.8 2732.2">
  <!-- Generator: Adobe Illustrator 29.6.1, SVG Export Plug-In . SVG Version: 2.1.1 Build 9)  -->
  <defs>
    <style>
      

      .st0, .st1 {
        fill: #ef064e;
      }

     
    </style>
  </defs>
  <g class="st2">
    <g id="Layer_1">
      <g id="Layer_11" data-name="Layer_1">
        <g id="Layer_13">
          <path class="st1" d="M2003.8,1932.3c-2.8-9.8-9.6-18.1-18.5-22.9-8.8-4.7-17.2-9.8-25.2-15.2-37.5-25.5-68.5-58.2-92.1-97.2-20.8-34.3-35.2-72.6-42.8-113.8-13.2-70.7-5.6-147.8,21.4-217,3.9-10.1,8.4-20.2,13.1-30.1,9-18.5,1.3-41.1-17.2-50.2-15.7-7.8-30.9-16.8-45.2-27-11.6-8.2-26.7-9.2-39.2-2.6-74.3,39-153.3,62.1-230.6,67.8,1.6,16.6,1.8,33.3.5,50.1,82.8-5.6,167.3-29.5,246.6-70.1,11.3,7.7,23,14.7,35,21.2-3.4,7.6-6.7,15.2-9.6,22.8-30.3,77.8-38.8,164.6-24,244.3,8.8,47.1,25.3,91.1,49.2,130.5,27.3,45.2,63.3,83.1,106.8,112.7,5.9,4,12.2,7.9,18.5,11.7-15.1,25.2-25.7,39.3-31.5,46.3-30.7,17.7-56.2,40.8-75.9,68.6h0c-30,42.3-44.7,92.8-42.8,146.7l-10.8,2.9c-18.6,5.1-33,19.7-37.6,38.3l-63.5,219.7-.3,1c-2.2,9.2-10.6,15.7-20.3,15.7s-7.5-1-10.8-3l-.6-.3-273.3-144.6c-8.2-4.9-17.6-7.4-27.2-7.4s-9.4.6-14,1.9l-701.9,190.2c-14.7,4-29.7,6-44.8,6-36.3,0-72.4-11.9-101.5-33.7-14.6-10.9-27.3-23.9-37.6-38.7-10.7-15.3-18.6-32.3-23.6-50.4l-224.3-809.2c-11.8-42.6-6.2-87.3,15.7-125.8,10.8-19,25-35.5,42.2-49,17.8-14,38.1-24.1,60.2-30.1l338.1-91.6c3.7,7.3,7.7,14.5,12,21.6,18.8,30.9,42.8,59.1,71.4,83.6,26.6,22.8,55.8,41.4,86.8,55.1,40,17.7,81.1,26.7,122.4,26.7s109.1-16.7,154-48.2l56.1-39.4c8-5.6,13.4-14,15.3-23.6l.6-3.2c25.6,20,53.4,37.3,83,51.7,8.4,4.1,16.9,7.9,25.5,11.5l11.1-13.9c7.8-9.7,14-19,18.9-28-11.5-4.4-22.7-9.3-33.6-14.6-31-15.1-59.8-33.8-85.8-55.6-.9-.8-1.8-1.6-2.8-2.3-10.3-8.8-24-11.4-36.8-7-12.6,4.4-22,15.2-24.6,28.3l-3.7,18.5-52.1,36.5c-36.5,25.6-79.8,39.1-125.3,39.1s-68.6-7.5-102.1-22.4c-26.5-11.8-51.6-27.7-74.5-47.3-24.6-21.1-45.2-45.2-61.3-71.7-5.2-8.5-9.9-17.3-14-26.1-7.8-16.7-26.3-25.3-44-20.5l-348,94.3c-28.6,7.8-54.9,20.9-78,39-22.3,17.5-40.8,38.9-54.9,63.6-28.6,50.2-35.9,108.4-20.4,163.9l224.3,809.1c6.5,23.6,16.9,45.6,30.8,65.6,13.4,19.3,29.8,36.2,48.8,50.3,37.8,28.1,84.4,43.5,131.4,43.5s38.9-2.6,57.9-7.7l701.9-190.2c.9-.2,2,0,2.7.3l.8.5,273.5,144.7c10.9,6.3,23.2,9.7,35.8,9.7,32.7,0,60.8-21.9,68.8-53.3l63.5-219.8.3-1.3c.2-1,1.1-1.8,2.2-2.1l20.5-5.5c17.4-4.7,29-21.2,27.7-39.1-3.4-46,8.1-89,33.1-124.3,15.9-22.3,36.6-40.9,61.7-55.1,3.8-2.2,7.2-5,10.1-8.3,8.8-10.3,23.6-30.1,44.3-66.1h0c5.1-8.9,6.4-19.5,3.6-29.2h0l.5.2h0Z"/>
          <path class="st1" d="M923.6,2348.6c-16.8-10.2-92.1,20.1-111.8,20.1s-19.1,1.3-28.3,3.8l-125.8,30.3c-10,2.7-20.3,4.1-30.5,4.1-24.6,0-49.1-8.1-68.9-22.9-20.2-15-34.5-35.7-41.1-59.9l-191-642.5c-.1,8.5,1,17,3.3,25.4l182.7,659.3c5.5,19.7,17,36.6,33.5,48.8,16.2,12,36.1,18.6,56.2,18.6s16.7-1.1,24.8-3.3l296.8-81.8h0Z"/>
         
          <path class="st1" d="M3465.6,753.8c9.9-41.2.9-71.3-19.7-81.9-16.1-2.8-36.8,3.6-59.9,21.9-66.5,52.7-108.8,164.1-124.4,246.9,86.5-18.4,183.8-102.9,204.1-187h-.1Z"/>
          <polygon class="st1" points="1316.7 1169.3 1316.7 1169.3 1316.7 1169.3 1316.7 1169.3"/>
          <path class="st1" d="M2073.9,1134.2c74.3-44.6,133.6-215.3,155.2-296.9,4.9-18.6,23-81.8,18.1-95.5-4-11.1-38-43.5-49.2-49.7-16.2-9-33.9-13.2-52.5-10.3-79.9,12.2-134,148.8-150.9,217.7-13.5,55-33.2,185.7,4.1,230.7,21.9,26.4,48.6,20,75.1,4.1h0Z"/>
          <path class="st1" d="M1605.3,773c20.2-52.7,17-128.7-59.9-97.8-75.1,30.1-140.5,191.1-148.4,267.6,87-14.6,176.8-87.6,208.3-169.8h0Z"/>
          <path class="st1" d="M3540,1695.3c-7.1-29.7-38.8-35.8-65.1-26.5-77.3,27.3-142.8,193.5-153.9,269.8,97.1-6.6,243.1-142.8,219-243.2h0Z"/>
          <path class="st1" d="M3897.5,2001.6c-8.4-30.7-26.5-57.2-52.4-76.6-19.1-14.4-42.1-24.4-68.3-29.8l-28.3-5.9c17.1-27.6,28.8-56.5,35.2-86.5,10-47.2,9.2-92.2-2.3-133.8-9-32.5-24.3-62.2-45.5-88.3-29.9-36.8-69.7-64.9-118.4-83.2-39.8-15-85.1-23-131.1-23s-83.7,6.5-122.2,18.7c-43.4,13.8-85.3,35.8-124.4,65.3-10.4,7.9-20.6,16.3-30.6,25.2,5.5-23.3,11.2-46.5,17-69.6,1.9-7.6,4.3-15.1,6.9-22.9,8.6-26.4,21.5-66.2,9.7-113.2-.2-.8-.4-1.7-.7-2.6,31.2,7.4,63.8,11.1,97.2,11.1h0c64,0,129.9-13.4,195.7-39.7,58.3-23.3,114.9-56.6,163.6-96.1,12.1-9.8,43.3-36.2,70.7-68.1,17.2-20,30.3-39,40.1-58,9-17.7,15.1-35.7,18.1-53.4,3.2-19.2,2.9-38.2-1.1-56.5-6.6-30.9-22.9-58.3-47.1-79.1-18.5-15.9-41.1-27.6-67.3-34.6l-21-5.6-18.1,1.9c25.7-40.3,40.6-83.5,44.3-128.9,3-37.2-.9-72.8-11.5-105.8-10.9-33.8-28.7-64.1-52.8-90.3-30.3-32.8-69.1-57.6-115.4-73.7-37.6-13.1-80.3-20-123.3-20s-77.3,5.5-112.9,15.8c-44.4,12.8-87.2,34.1-127.2,63.2-17.2,12.5-33.8,26.4-49.7,41.5-5.3-8.2-11.3-16.2-17.8-23.7-30.8-35.6-71.2-63.3-120.2-82.4-46.8-18.2-98.7-27.4-154.3-27.4s-83.3,5.3-123.2,15.9c-42.8,11.3-82,28.1-116.5,49.9-23.7,15-44.7,32.1-62.9,51-3.3-4.8-6.9-9.4-10.8-13.8-12.9-14.6-28.3-26.3-45.9-34.9-22.1-10.8-46.9-16.2-73.7-16.2s-48.6,4.2-76.1,12.7c-20.4-10.6-41.2-19.7-62.1-27-45.4-16-91.3-24.1-136.5-24.1s-69.8,4.9-102.9,14.7c-34.8,10.2-68.1,25.8-99,46.3-32.3,21.4-62.1,47.4-88.9,77.4-4.5-8.2-9.4-16.1-14.8-23.7-18.1-25.5-40.9-47.4-67.9-65.1-25.9-17-55.5-29.9-87.8-38.4-30.8-8.1-64.4-12.2-99.9-12.2s-8.1,0-12.2.2c1.9-4,3.7-8,5.3-12.2,8.2-20.4,13.5-41.8,15.6-63.7,5.1-53.8-9.3-104.2-40.6-141.9-15.8-19.1-34.9-33.2-56.6-41.8-15.4-6.1-32.1-9.4-48.4-9.4-37.4,0-64.2,15.4-79,25.4-8.6,2-26,4.8-57.2,4.8-57.3,0-128.6-9-191.5-17-40.3-5.1-78.3-9.9-110.3-12.1-25.9-1.8-51-2.6-74.5-2.6-83.4,0-155.2,10.8-219.5,33.1-82,28.4-150.2,75.5-202.8,139.9-23.9,29.3-44.2,65.1-58.6,103.5-14.2,37.9-23,78.8-25.2,118.1-2.5,45.2,3.1,88.1,16.8,127.3,16.5,47.4,43.8,87.1,81.1,118,21.7,18,49.1,33.4,79.2,44.4,31.5,11.6,64.5,17.7,95.1,17.7s60.4-6.3,86.3-18.4c0,.6-.2,1.2-.3,1.7-2.2,10.8-5.2,24.5-8.3,39h0c-24.3,111.4-42,201.9-31.6,269.3,3.9,25.2,13.3,50.3,28,74.4,13.9,22.8,31.7,43.7,53.1,62,19.9,17.1,41.6,30.9,64.5,41.1,28.3,12.6,57.2,18.9,85.7,18.9h0c37.1,0,72.5-11,102.1-31.8h0c24.9-17.5,42.1-43.9,48-73.7l24.7-125.2c9.5,20.7,20.8,40.4,33.8,58.8,17.8,25.3,38.9,48.2,62.7,68.2,23.4,19.7,49.4,36.5,77.4,50.1,5.3,2.6,10.8,5.1,16.3,7.4h0c2.9-6.4,5.1-12.8,6.8-19.2h0c.2-.8.4-1.6.6-2.3h0c.2-.8.3-1.5.5-2.3v-.2c.2-.7.3-1.5.4-2.2v-.2c0-.7.2-1.4.4-2.1v-.4c0-.7.2-1.3.3-2v-.5c0-.6.2-1.2.2-1.8v-.6c0-.6,0-1.2.2-1.9v-.6c0-.8.2-1.7.2-2.5,2.9-37.8-11-75.3-25-107.1l-.2.2c-84.4-69.1-121.4-192.2-66-348.3,42-118.4,151.4-246.3,284-259.6,270.8-27,293.1,229.7,64.9,345.7-69.6,35.4-120.3,37.5-190.7,56.5-3.7,1-7.5.7-8.8,5.4,3.2,81.6,46.8,151.5,134,157.9,102.8,7.5,207.3-46.8,274-121.7,4.4-147.6,61.5-318.5,189.4-403.3,104.5-69.3,227.4-44.7,325.1,23.2,13.1-2.9,22.7-11.1,36.1-15.7,42.2-14.6,97.2-22.8,89.4,39.9-6.1,49.1-29,114.1-39.7,165.4-11.9,56.8-26.1,119.8-31.6,177.3-6.5,67.4-10.8,158.1,83.3,98.4,41.1-26.1,28.3-36.2,46.7-71.1,13.2-25.2,64.8-72.4,94.5-57.7,9.5,4.7,20,74.3,28.5,93.1,17.2,38,51.4,70.9,91.5,83.3,91.9,28.4,174.6-35,104.3-123.1-72.6-91-253.5-137.8-247.2-281,8.5-194.8,340.9-242.6,448.8-117.7,54.5,63.1-.4,147-76.1,140.4-17.3-33-27-66.5-54.9-93.2-36.6-35-106-55.2-148-18.2-39.1,34.5-16.2,76,14.5,105.8,93.2,90.3,289.6,151.5,236,322.7-52.1,166.2-297.2,197.6-429.3,113.2-20.3-13-33.7-31.9-53.4-44.6-65.9,60.8-149.3,116-235.7,56-49.8-34.6-69.8-91.6-67.3-151.2l-35,65.6c-84.1,161.6-301.3,149.4-355-27.7-35,30.5-69.3,60.7-109.6,84.2-82.9,48.3-167,66.8-241.6,60.5,11.8,18.3,21.3,37.9,28.4,58.6.8,2.2,1.5,4.4,2.2,6.6.2.6.3,1.1.5,1.7.7,2.1,1.3,4.2,1.9,6.3v.3c.6,2.3,1.2,4.5,1.8,6.8.5,1.9.9,3.8,1.5,5.7.2.7.3,1.5.3,2.2v.2c.5,2.4,1,4.8,1.5,7.2,0,.3,0,.6.2.9.9,4.8,1.7,9.7,2.3,14.6v.4c.3,2.5.6,4.9.9,7.4h0c86.8-2.5,176.2-29.2,259.2-77.5,6.7-3.9,13.5-8.1,20.2-12.4,9.7,9.6,20.1,18.5,31,26.7,25.9,19.3,54.5,34.2,85.1,44.2,15.2,5,30.7,8.7,46.4,11.1-26.3,31.4-47.1,66.2-61.8,104-24.3,62.3-31.2,131.6-19.4,195,6.8,36.4,19.5,70.2,37.7,100.3,20.5,34,47.5,62.4,80.2,84.6,26.8,18.2,60.3,32,95,39.9-12.4,25.4-26.9,53.8-42.6,81.1-31.5,54.6-51.7,76.6-60.1,84.3-12.3,6.5-37.9,19.9-58.2,48.5-22.1,31.2-30.5,69.9-24.2,111.9,7.5,50.3,36.8,97.1,82.6,131.6,19.9,15,41.8,26.8,65.1,35.1,24,8.5,48.1,12.8,71.9,12.8h0c19.8,0,39.1-3,57.2-8.9,29.3-9.5,56.2-27.1,82.2-53.8,22.6-23.2,44.8-53.4,67.6-92.4,22.6-38.6,42.1-79.4,56.4-111.8,4.7,10.5,10.7,20.5,17.8,30,15.6,20.7,36.1,38,61.1,51.3,32.7,17.4,71.4,27,109,27s51.8-4.8,74.2-14.4c24.4-10.4,44.6-25.8,60.3-45.7l6.9-8.8,3.7-7.1c1.1,13.3,3,25.7,5.8,37.1,12.4,51.2,48,99.4,100.4,135.6,22.8,15.7,47,28.1,72.1,36.8,26.3,9.1,52.2,13.8,76.9,13.8s8.9-.1,13.2-.4c60.8-4.1,95.1-33.3,113.1-57,17.7-23.3,27.4-51.5,28.3-82.1,14,15.6,29.4,30.2,46.2,43.4,36.2,28.6,76.8,50.2,120.7,64.3,40.1,12.9,82.9,19.4,127.1,19.4h0c35.6,0,72.3-4.2,109.1-12.6,34-7.7,68.1-18.9,101.6-33.3,63.2-27.2,123-65.6,172.9-111,13-11.8,38.1-35.9,59.5-64,14.5-19,25.3-37.1,33-55.4,7.2-17,11.7-34.3,13.4-51.2,1.8-18.1.3-36-4.4-53.1h0l.8-.5h0ZM1433.2,445.5c-61.2,72.2-202.5,32.3-283.5,22.7l-158,801c-52.2,36.6-140.5-30.4-149.2-86.2-9.6-61.9,25.5-200.1,39-266.8,32.5-160.5,72.8-319.6,112.3-478.3-72.5-9.2-144.9-24-214.4,8.1-118.9,54.9-107.3,222.7-36.8,312.7-27.8,55.9-122.6,30.4-161.5-2-86.1-71.5-62.6-222.7,1.9-301.7,98.1-120.2,251.9-137.1,397.5-127.2,108.8,7.4,322.5,52.3,417.5,14.1,14.8-5.9,26.3-26.3,42.7-6.5,23.9,28.9,15.8,82.5-7.5,110h0ZM3112.1,1485.1c-38.9,153.9-72.1,317.7-94.8,474.9-10.4,72.1-27.8,175.2-23.4,246.1,1.9,30.4,24.2,67-24.9,70.4-50.7,3.5-127.8-45.4-140-95.7-14.9-61.7,17.4-226.8,28.9-296.2,24-143.6,57.3-285.7,86.4-428.2l-339.1,658.2c-24.1,30.8-119.2,11.1-124.8-33.9-8.8-196.2,3.9-405-23.5-599.2-.7-4.8-1.6-20.7-7.1-21.3-40.2,204.2-92.2,419.2-173.3,611.2-22.7,53.7-87,195.2-143.6,213.6-47.3,15.4-116.6-28.3-123.7-75.9-5.3-35.5,17.3-32.9,36.9-48.7,62.6-50.4,126.7-182.9,160.8-257.2,71.8-156.5,128-326.6,159.1-496.1-80.9.6-170.1,53.4-206.1,126.5-28.7,58.3-27.6,137.6,12.2,190.4,13.4,17.8,44.8,30.1,14.9,53-34.2,26.1-105,8.8-138-13.7-77.1-52.3-86.5-158.4-54.9-239.6,68-174.4,316.8-230.5,483-191.5,40.2,9.4,124.1,42.3,132.2,88.3,5.8,33.2,6.1,82.1,8,117.3,2.9,54.2,5,109.3,7.6,163.3l7.5,157.7,271.8-524.1c35-36.5,144.9,4.1,182,27.5,66.4,41.8,41.1,62.5,25.8,122.9h.1ZM3334.3,607.6c52.8-15.3,116-15.4,167.5,3.3,65.4,20,115.4,68.1,108.7,151.4-11.6,144.1-229,233.5-354,241-3.5,68.1,28.2,131.4,89.2,154.5,8.7,2.5,17.9,4.3,27.7,5.1,97.7,8.8,194.9-39.5,264.4-104.3,10.1-9.4,34.6-42.9,43.8-43.8,3.9,1,7.3,2.2,10.4,3.6h.3c82,21.9-25.3,118.3-57.3,144.3-102.4,83.2-255.6,138.7-383.5,93.1-29.3-9.1-57.4-23.3-83.4-43.4-206.3-159.7-59.8-539.3,166.2-604.7h0ZM3716.7,2138c-123.4,112-334.4,182.2-479.1,68-201.6-159-58.2-530.1,162.4-600.4,126.2-40.2,302.7,10,268.3,172.8-26.6,125.8-234.8,213.1-351.2,217.2,8.6,237.5,261.1,178.8,386.3,64.7,17.3-15.8,31.6-36.1,49.5-49.6,77.4,16-7.5,101.3-36.2,127.4h0Z"/>
          <path class="st1" d="M3261.5,940.7c86.5-18.4,183.8-102.9,204.1-187,9.9-41.2.9-71.3-19.7-81.9-16.1-2.8-36.8,3.6-59.9,21.9-66.5,52.7-108.8,164.1-124.4,246.9h-.1ZM1397,942.8c87-14.6,176.8-87.6,208.3-169.9,20.2-52.7,17-128.7-59.9-97.8-75.1,30.1-140.5,191.1-148.4,267.6h0ZM1998.7,1130.2c21.9,26.4,48.6,20,75.1,4.1,74.3-44.6,133.6-215.3,155.2-296.9,4.9-18.6,23-81.8,18.1-95.5-4-11.1-38-43.5-49.2-49.7-16.2-9-33.9-13.2-52.5-10.3-79.9,12.2-134,148.8-150.9,217.7-13.5,55-33.2,185.7,4.1,230.7h0Z"/>
          <path class="st1" d="M1362.2,1239.8c-4.7-2.6-10,2.2-8,7.1,13.8,33.9,23.9,69.7,21.1,106.5-2.8,36.4-18.8,66.4-41.1,94.4,28.8,8.1,56.1,20.4,81.9,35.5,18.4,10.8,40.2,29.3,58.3,37.9,1.8.8,2.7,1.9,4.8.6,28.7-101.9-7.1-205.2-91.9-268.3-.2-.2,14.3,10.8-.7-.4-15.1-11.3-24.3-13.2-24.3-13.2h-.1Z"/>
          
          <path class="st1" d="M1680.9,1611.3c-6.3-1.7-25.1-1.8-32.3-2.9-28.6-4.4-55.4-12.7-81.1-23.3-21.1-9.2-41.6-20-61.5-30.6-114.9-61.3-237.1-165.3-357.3-57.7-53,57.8-42.2,61.7-80.3,75.5-30.1,10.9-32.8,7.1-71-.2-7.5-1.9-15.2-3.5-23.1-4.5-4.1-.5-8.2-.9-12.1-1.2-1.3-.2-2.5-.3-3.9-.5-5.2-.2-10.3-.2-15.2,0-20.7.4-39.1,3.9-55.5,10.2-100.3,36.5-125.8,162.8-166.5,263.2-23.2,57.4-46.3,116.6-96.9,155.4l-3.3,2.6c1.1,4.6,5.8,2.8,8.7,2.9,53.8,3.5,122-11.6,171.4-33,58.8-25.4,94.2-77.8,156.9-100.1,73.4-26.2,127.8,8.5,206.9-25.8,61.4-26.6,100.7-89,162.1-115.6,72.7-31.5,138.5-14.6,209.5-31.8,34.7-8.4,121.7-55.7,145.3-82.3,1.3-.3,1.9-.6,1.9-.6h-2.9l.2.3h0ZM805,1693.5c16.9-40.9,53.8-82.8,81.7-93.3,27.8-10.6,50.2-14.5,130.5.3-89-2.7-140.8,4.2-212.2,93h0ZM1225.5,1494.4c-4.5,2.2-8.8,4.7-12.8,7.5-4.2,2.9-8.9,6.1-13,9.1-11.4,8.2-22.4,16.8-32.9,26.1-12.1,11-26.7,24.3-38.6,35.5-5.3,4.9-10.4,9.8-15.5,15.1,0,0,41.5-85.2,113.5-114.7,72.1-29.5,179,47.3,179,47.3-50.4-25.1-125.8-51.9-179.7-25.8h0Z"/>
          <path class="st1" d="M781.8,1649.8l-47.6-21.1c-32.1-18.8-59.4-46.4-76.4-79.8-7.8-15.3-11.6-30.4-17.1-46.5,0-1.1,1.4-4.5-.6-5.9-4.4-2.9-10.6,13.7-12,17.4-33.2,88-6.1,186.6,58.3,253.2,3.9,4,30.8,28.9,33.5,29.5,2.8.7,2.8-1.1,3.6-2.9,2.5-5.6,3.8-17.5,5.9-24.3,3.4-11.1,6.9-24.4,11-34.8,4.6-11.8,43.2-79.9,41.4-84.8h0ZM688.3,1626c-41.6-38.4-49-107.1-49-107.1,0,0,7.8,46.5,36.9,84.1,29,37.6,95.7,56.5,95.7,56.5,0,0-42,4.9-83.5-33.5h-.1Z"/>
          <path class="st1" d="M1564.9,1715.7c-87.3,37.3-128.1,31.5-171.3,50.3-88.1,38.3-112.1,129.1-207.2,164.3-82.7,30.7-153.1-7.3-235,8.9-30,5.9-48.1,15.3-75,26.8-.9.4-1.8.6-2.7,1-6.8,2.9-15.4,5.1-22.5,8.1-2.5,1.1-4.7,2.5-6.9,4.1-1.4.4-2.7,1-4.1,1.5-9.2,3-18.1,8.1-25.9,10.9l-23,8.4c-1.6.6-7.4,1.4-10.7,2.3-48.2,14-97.8,21.8-148,16.9,0,0,285.6,300.3,636.5,187.7,350.9-112.5,374.6-371.1,386.1-419.5s24.8-102.3,34.6-159.4c0,0-37.7,50.4-124.9,87.7h0ZM1554.9,1845.8c-5.9,33.8-23.3,64.5-44.4,91.1-2,2.6-4.8,5.8-7.1,8.3-23,24.4-51.3,39.9-82.1,50.7-4.3,1.5-8.6,2.8-13.1,3.9-1.5.4-3.1-.6-3.5-2.1-.3-1.3.3-2.6,1.4-3.2,29.9-17.9,59.4-39.2,79.6-67.8,15.2-23.5,28.5-48.6,36.5-75.4.4-1.4,1.3-4.4,1.7-5.9l1.6-6c5.5-18.3,31.9-12.5,29.3,6.4h0Z"/>
        </g>
      </g>
    </g>
  </g>
</svg>