<?xml version="1.0" encoding="UTF-8"?>
<svg id="Layer_1" xmlns="http://www.w3.org/2000/svg" xmlns:xlink="http://www.w3.org/1999/xlink" version="1.1" viewBox="0 0 4136.8 2732.2">
  <!-- Generator: Adobe Illustrator 29.6.1, SVG Export Plug-In . SVG Version: 2.1.1 Build 9)  -->
  <defs>
    <style>
      .st0, .st1, .st2, .st3, .st4 {
        fill: none;
      }

      .st5, .st1, .st6, .st7, .st8, .st9, .st10, .st11, .st12, .st13, .st14, .st15, .st16, .st17, .st18, .st19, .st3, .st20, .st21, .st22, .st23, .st24, .st25, .st26, .st27, .st28, .st29 {
        isolation: isolate;
      }

      .st5, .st9, .st20, .st21, .st22, .st23, .st24 {
        mix-blend-mode: overlay;
      }

      .st5, .st30, .st28, .st29 {
        fill: #fff;
      }

      .st1 {
        stroke-width: 80px;
      }

      .st1, .st2, .st31, .st32, .st33, .st34, .st35, .st3, .st4 {
        stroke-miterlimit: 10;
      }

      .st1, .st2, .st3 {
        stroke: #fff;
      }

      .st1, .st26, .st27 {
        opacity: .7;
      }

      .st2, .st3 {
        stroke-width: 100px;
      }

      .st36 {
        fill: #54032e;
      }

      .st37 {
        fill: url(#linear-gradient2);
      }

      .st38 {
        fill: url(#linear-gradient1);
      }

      .st39 {
        fill: url(#linear-gradient9);
      }

      .st6 {
        fill: url(#radial-gradient);
      }

      .st6, .st11, .st12, .st15 {
        opacity: .6;
      }

      .st31 {
        fill: url(#linear-gradient11);
        stroke: url(#linear-gradient12);
      }

      .st31, .st32, .st33, .st34, .st35 {
        stroke-width: 18px;
      }

      .st32 {
        fill: url(#linear-gradient13);
        stroke: url(#linear-gradient14);
      }

      .st40 {
        fill: url(#radial-gradient23);
      }

      .st41 {
        fill: url(#radial-gradient22);
      }

      .st42 {
        fill: url(#radial-gradient20);
      }

      .st43 {
        fill: url(#radial-gradient26);
      }

      .st44 {
        fill: url(#radial-gradient25);
      }

      .st45 {
        fill: url(#radial-gradient24);
      }

      .st46 {
        fill: url(#radial-gradient21);
      }

      .st47 {
        fill: url(#radial-gradient16);
      }

      .st48 {
        fill: url(#radial-gradient17);
      }

      .st49 {
        fill: url(#radial-gradient15);
      }

      .st50 {
        fill: url(#radial-gradient18);
      }

      .st51 {
        fill: url(#radial-gradient19);
      }

      .st52 {
        fill: url(#radial-gradient13);
      }

      .st53 {
        fill: url(#radial-gradient14);
      }

      .st54 {
        fill: #7a0442;
      }

      .st7 {
        fill: url(#linear-gradient17);
      }

      .st7, .st8, .st13, .st14 {
        mix-blend-mode: darken;
        opacity: .6;
      }

      .st8 {
        fill: url(#linear-gradient18);
      }

      .st55 {
        fill: url(#linear-gradient16);
      }

      .st56 {
        fill: url(#linear-gradient10);
      }

      .st57 {
        fill: #bf0000;
      }

      .st9 {
        fill: #f02;
      }

      .st58 {
        fill: url(#linear-gradient);
      }

      .st59 {
        fill: #ef064e;
      }

      .st33 {
        fill: url(#linear-gradient7);
        stroke: url(#linear-gradient8);
      }

      .st34 {
        fill: url(#linear-gradient5);
        stroke: url(#linear-gradient6);
      }

      .st35 {
        fill: url(#linear-gradient3);
        stroke: url(#linear-gradient4);
      }

      .st60 {
        fill: #c40054;
      }

      .st61 {
        mix-blend-mode: multiply;
      }

      .st62 {
        clip-path: url(#clippath-1);
      }

      .st63 {
        clip-path: url(#clippath-4);
      }

      .st64 {
        clip-path: url(#clippath-2);
      }

      .st65 {
        clip-path: url(#clippath-7);
      }

      .st66 {
        clip-path: url(#clippath-6);
      }

      .st67 {
        clip-path: url(#clippath-5);
      }

      .st11 {
        fill: url(#linear-gradient15);
      }

      .st11, .st12 {
        mix-blend-mode: soft-light;
      }

      .st12 {
        fill: url(#radial-gradient27);
      }

      .st68 {
        fill: #ff004d;
      }

      .st13 {
        fill: url(#radial-gradient29);
      }

      .st14 {
        fill: url(#radial-gradient28);
      }

      .st15 {
        fill: url(#radial-gradient5);
      }

      .st16 {
        fill: url(#radial-gradient6);
      }

      .st16, .st17, .st20, .st21 {
        opacity: .2;
      }

      .st17 {
        fill: url(#radial-gradient1);
      }

      .st18 {
        fill: url(#radial-gradient3);
      }

      .st18, .st19, .st28 {
        opacity: .1;
      }

      .st19 {
        fill: url(#radial-gradient8);
      }

      .st69 {
        fill: #1c0106;
      }

      .st3, .st25 {
        opacity: .5;
      }

      .st70 {
        fill: #6b043a;
      }

      .st71 {
        opacity: .3;
      }

      .st72 {
        opacity: .6;
      }

      .st73 {
        opacity: .6;
      }

      .st74 {
        opacity: .5;
      }

      .st75, .st22, .st23 {
        opacity: .3;
      }

      .st76 {
        opacity: .2;
      }

      .st77 {
        opacity: .2;
      }

      .st20 {
        fill: url(#radial-gradient2);
      }

      .st21 {
        fill: url(#radial-gradient7);
      }

      .st22 {
        fill: url(#radial-gradient9);
      }

      .st23 {
        fill: url(#radial-gradient4);
      }

      .st4 {
        stroke: #000;
        stroke-width: 60px;
      }

      .st78 {
        fill: #3d0214;
      }

      .st24 {
        fill: #780010;
      }

      .st79 {
        fill: #4f0310;
      }

      .st25 {
        fill: url(#radial-gradient12);
      }

      .st26 {
        fill: url(#radial-gradient11);
      }

      .st27 {
        fill: url(#radial-gradient10);
      }

      .st80 {
        clip-path: url(#clippath);
      }

      .st29 {
        opacity: .2;
      }
    </style>
    <radialGradient id="radial-gradient" cx="-1117.2" cy="1814.4" fx="-1117.2" fy="1814.4" r="289.5" gradientTransform="translate(1457 2913.4) scale(.5 -.9)" gradientUnits="userSpaceOnUse">
      <stop offset="0" stop-color="#ad065e"/>
      <stop offset=".4" stop-color="#ad065e" stop-opacity=".7"/>
      <stop offset="1" stop-color="#ad065e" stop-opacity="0"/>
    </radialGradient>
    <radialGradient id="radial-gradient1" cx="1903.6" cy="-2453.7" fx="1903.6" fy="-2453.7" r="289.5" gradientTransform="translate(1885.5 16.1) rotate(90) scale(.7 -.4)" gradientUnits="userSpaceOnUse">
      <stop offset="0" stop-color="#ad065e"/>
      <stop offset=".4" stop-color="#ad065e" stop-opacity=".7"/>
      <stop offset="1" stop-color="#ad065e" stop-opacity="0"/>
    </radialGradient>
    <clipPath id="clippath">
      <path class="st0" d="M2159.9,1934.4l-222.4-802.4c-26.8-96.6-127.7-153.5-225.4-127l-1364.7,369.8c-97.7,26.5-155.2,126.3-128.4,222.9l222.4,802.4c26.8,96.6,127.7,153.5,225.4,127l696.1-188.6c9.8-2.6,20.2-1.2,28.8,4l271,143.4c21.3,12.9,49.1,1.4,54.8-22.6l63.1-218.4c3.1-12.9,13.1-23.1,26-26.7l224.8-60.9c97.7-26.5,155.2-126.3,128.4-222.9h0ZM2081.9,2036.7c-14.9,26.2-39.3,45-68.7,52.9l-224.8,60.9c-37.8,10.2-66.8,40.2-75.9,78.1l-33.8,141.7c-6.6,27.5-38,40.6-62.2,26l-188.5-113.8c-16.7-10.1-35.9-15.4-55.4-15.4s-18.9,1.3-28.1,3.7l-696,188.6c-9.9,2.7-20.1,4.1-30.2,4.1-24.4,0-48.7-8.1-68.4-22.7-20.1-14.9-34.2-35.5-40.8-59.4l-222.4-802.4c-7.8-28.3-4.1-57.9,10.5-83.5,14.9-26.2,39.3-45,68.7-52.9l1364.7-369.8c9.9-2.7,20.1-4.1,30.2-4.1,24.4,0,48.7,8.1,68.4,22.7,20.1,14.9,34.2,35.5,40.8,59.4l222.4,802.4c7.8,28.3,4.1,57.9-10.4,83.5h0Z"/>
    </clipPath>
    <radialGradient id="radial-gradient2" cx="443.7" cy="2076" fx="443.7" fy="2076" r="507.7" gradientTransform="translate(228.6 2638.2) scale(.9 -.6)" gradientUnits="userSpaceOnUse">
      <stop offset="0" stop-color="#db4494"/>
      <stop offset=".1" stop-color="#db4494" stop-opacity=".9"/>
      <stop offset=".4" stop-color="#db4494" stop-opacity=".6"/>
      <stop offset=".8" stop-color="#db4494" stop-opacity=".3"/>
      <stop offset="1" stop-color="#db4494" stop-opacity="0"/>
    </radialGradient>
    <radialGradient id="radial-gradient3" cx="2647" cy="-11445.3" fx="2647" fy="-11445.3" r="289.5" gradientTransform="translate(2310.1 421.9) rotate(90) scale(.3 -.1)" gradientUnits="userSpaceOnUse">
      <stop offset="0" stop-color="#40152b"/>
      <stop offset=".2" stop-color="#44132c" stop-opacity=".9"/>
      <stop offset=".6" stop-color="#500d2f" stop-opacity=".6"/>
      <stop offset="1" stop-color="#630535" stop-opacity="0"/>
      <stop offset="1" stop-color="#660436" stop-opacity="0"/>
    </radialGradient>
    <radialGradient id="radial-gradient4" cx="2657.1" cy="-2789.4" fx="2657.1" fy="-2789.4" r="289.5" gradientTransform="translate(1924 -9.1) rotate(90) scale(.5 -.4)" gradientUnits="userSpaceOnUse">
      <stop offset=".3" stop-color="#fc9b9b"/>
      <stop offset=".4" stop-color="#fc9b9b" stop-opacity="1"/>
      <stop offset=".5" stop-color="#fc9b9b" stop-opacity=".9"/>
      <stop offset=".6" stop-color="#fc9b9b" stop-opacity=".8"/>
      <stop offset=".7" stop-color="#fc9b9b" stop-opacity=".6"/>
      <stop offset=".8" stop-color="#fc9b9b" stop-opacity=".3"/>
      <stop offset="1" stop-color="#fc9b9b" stop-opacity="0"/>
      <stop offset="1" stop-color="#fc9b9b" stop-opacity="0"/>
    </radialGradient>
    <radialGradient id="radial-gradient5" cx="-1117.2" cy="1814.4" fx="-1117.2" fy="1814.4" r="289.5" gradientTransform="translate(1457 2913.4) scale(.5 -.9)" gradientUnits="userSpaceOnUse">
      <stop offset="0" stop-color="#ad065e"/>
      <stop offset=".4" stop-color="#ad065e" stop-opacity=".7"/>
      <stop offset="1" stop-color="#ad065e" stop-opacity="0"/>
    </radialGradient>
    <radialGradient id="radial-gradient6" cx="1903.6" cy="-2453.7" fx="1903.6" fy="-2453.7" r="289.5" gradientTransform="translate(1885.5 16.1) rotate(90) scale(.7 -.4)" gradientUnits="userSpaceOnUse">
      <stop offset="0" stop-color="#ad065e"/>
      <stop offset=".4" stop-color="#ad065e" stop-opacity=".7"/>
      <stop offset="1" stop-color="#ad065e" stop-opacity="0"/>
    </radialGradient>
    <clipPath id="clippath-1">
      <path class="st0" d="M2159.9,1934.4l-222.4-802.4c-26.8-96.6-127.7-153.5-225.4-127l-1364.7,369.8c-97.7,26.5-155.2,126.3-128.4,222.9l222.4,802.4c26.8,96.6,127.7,153.5,225.4,127l696.1-188.6c9.8-2.6,20.2-1.2,28.8,4l271,143.4c21.3,12.9,49.1,1.4,54.8-22.6l63.1-218.4c3.1-12.9,13.1-23.1,26-26.7l224.8-60.9c97.7-26.5,155.2-126.3,128.4-222.9h0ZM2081.9,2036.7c-14.9,26.2-39.3,45-68.7,52.9l-224.8,60.9c-37.8,10.2-66.8,40.2-75.9,78.1l-33.8,141.7c-6.6,27.5-38,40.6-62.2,26l-188.5-113.8c-16.7-10.1-35.9-15.4-55.4-15.4s-18.9,1.3-28.1,3.7l-696,188.6c-9.9,2.7-20.1,4.1-30.2,4.1-24.4,0-48.7-8.1-68.4-22.7-20.1-14.9-34.2-35.5-40.8-59.4l-222.4-802.4c-7.8-28.3-4.1-57.9,10.5-83.5,14.9-26.2,39.3-45,68.7-52.9l1364.7-369.8c9.9-2.7,20.1-4.1,30.2-4.1,24.4,0,48.7,8.1,68.4,22.7,20.1,14.9,34.2,35.5,40.8,59.4l222.4,802.4c7.8,28.3,4.1,57.9-10.4,83.5h0Z"/>
    </clipPath>
    <radialGradient id="radial-gradient7" cx="443.7" cy="2076" fx="443.7" fy="2076" r="507.7" gradientTransform="translate(228.6 2638.2) scale(.9 -.6)" gradientUnits="userSpaceOnUse">
      <stop offset="0" stop-color="#db4494"/>
      <stop offset=".1" stop-color="#db4494" stop-opacity=".9"/>
      <stop offset=".4" stop-color="#db4494" stop-opacity=".6"/>
      <stop offset=".8" stop-color="#db4494" stop-opacity=".3"/>
      <stop offset="1" stop-color="#db4494" stop-opacity="0"/>
    </radialGradient>
    <radialGradient id="radial-gradient8" cx="2647" cy="-11445.3" fx="2647" fy="-11445.3" r="289.5" gradientTransform="translate(2310.1 421.9) rotate(90) scale(.3 -.1)" gradientUnits="userSpaceOnUse">
      <stop offset="0" stop-color="#40152b"/>
      <stop offset=".2" stop-color="#44132c" stop-opacity=".9"/>
      <stop offset=".6" stop-color="#500d2f" stop-opacity=".6"/>
      <stop offset="1" stop-color="#630535" stop-opacity="0"/>
      <stop offset="1" stop-color="#660436" stop-opacity="0"/>
    </radialGradient>
    <radialGradient id="radial-gradient9" cx="2657.1" cy="-2789.4" fx="2657.1" fy="-2789.4" r="289.5" gradientTransform="translate(1924 -9.1) rotate(90) scale(.5 -.4)" gradientUnits="userSpaceOnUse">
      <stop offset=".3" stop-color="#fc9b9b"/>
      <stop offset=".4" stop-color="#fc9b9b" stop-opacity="1"/>
      <stop offset=".5" stop-color="#fc9b9b" stop-opacity=".9"/>
      <stop offset=".6" stop-color="#fc9b9b" stop-opacity=".8"/>
      <stop offset=".7" stop-color="#fc9b9b" stop-opacity=".6"/>
      <stop offset=".8" stop-color="#fc9b9b" stop-opacity=".3"/>
      <stop offset="1" stop-color="#fc9b9b" stop-opacity="0"/>
      <stop offset="1" stop-color="#fc9b9b" stop-opacity="0"/>
    </radialGradient>
    <clipPath id="clippath-2">
      <path class="st0" d="M618.6,2462.4c-24.4,0-48.7-8.1-68.4-22.7-20.1-14.9-34.2-35.5-40.8-59.4l-222.4-802.4c-7.8-28.3-4.1-57.9,10.5-83.5,14.9-26.2,39.3-45,68.7-52.9l1364.7-369.8c9.9-2.7,20.1-4.1,30.2-4.1,24.4,0,48.7,8.1,68.4,22.7,20.1,14.9,34.2,35.5,40.8,59.4l222.4,802.4c7.8,28.3,4.1,57.9-10.4,83.5-14.9,26.2-39.3,45-68.7,52.9l-224.8,60.9c-37.8,10.2-66.8,40.2-75.9,78.1l-33.8,141.7c-6.6,27.5-38,40.6-62.2,26l-188.5-113.8c-16.7-10.1-35.9-15.4-55.4-15.4s-18.9,1.3-28.1,3.7l-696,188.6c-9.9,2.7-20.1,4.1-30.2,4.1h0Z"/>
    </clipPath>
    <radialGradient id="radial-gradient10" cx="1049.4" cy="805.1" fx="1049.4" fy="805.1" r="495" gradientTransform="translate(0 2732) scale(1 -1)" gradientUnits="userSpaceOnUse">
      <stop offset="0" stop-color="#ab0000"/>
      <stop offset=".2" stop-color="#740000" stop-opacity=".7"/>
      <stop offset=".5" stop-color="#420000" stop-opacity=".4"/>
      <stop offset=".7" stop-color="#1e0000" stop-opacity=".2"/>
      <stop offset=".9" stop-color="#080000" stop-opacity="0"/>
      <stop offset="1" stop-color="#000" stop-opacity="0"/>
    </radialGradient>
    <radialGradient id="radial-gradient11" cx="2182.2" cy="-442.1" fx="2182.2" fy="-442.1" r="852.6" gradientTransform="translate(1553.9 -2708.4) rotate(90) scale(2.6 -1.6)" gradientUnits="userSpaceOnUse">
      <stop offset="0" stop-color="#fe006e"/>
      <stop offset="1" stop-color="#ff00b6" stop-opacity="0"/>
    </radialGradient>
    <radialGradient id="radial-gradient12" cx="1417.1" cy="214" fx="1417.1" fy="214" r="852.8" gradientTransform="translate(224.1 2666.1) scale(1 -.9)" gradientUnits="userSpaceOnUse">
      <stop offset="0" stop-color="#ef4351"/>
      <stop offset=".2" stop-color="#ef4351" stop-opacity=".8"/>
      <stop offset=".5" stop-color="#ef4351" stop-opacity=".5"/>
      <stop offset=".7" stop-color="#ef4351" stop-opacity=".2"/>
      <stop offset=".9" stop-color="#ef4351" stop-opacity="0"/>
      <stop offset="1" stop-color="#ef4351" stop-opacity="0"/>
    </radialGradient>
    <radialGradient id="radial-gradient13" cx="501.8" cy="221.1" fx="501.8" fy="221.1" r="470.2" gradientTransform="translate(0 2732) scale(1 -1)" gradientUnits="userSpaceOnUse">
      <stop offset="0" stop-color="#ef064e"/>
      <stop offset="1" stop-color="#efd5dd" stop-opacity="0"/>
    </radialGradient>
    <radialGradient id="radial-gradient14" cx="-2769" cy="11995.3" fx="-2769" fy="11995.3" r="339.2" gradientTransform="translate(-3678.2 -10193.6) rotate(-31.8)" gradientUnits="userSpaceOnUse">
      <stop offset="0" stop-color="#ef064e"/>
      <stop offset="1" stop-color="#efd5dd" stop-opacity="0"/>
    </radialGradient>
    <clipPath id="clippath-4">
      <path class="st0" d="M2122.8,2429.3c-27.5,0-55.5-5-83-14.8-26.4-9.4-51.3-22.8-73.9-39.9-52.8-39.8-86.7-94.3-95.5-153.4-7.6-50.9,2.8-98.1,30.1-136.5,22.4-31.6,50.2-48.2,65.4-56.4,7.3-7.6,24.1-27.5,50.1-72.5,7.3-12.6,14.8-26.3,22.5-41.1-23.2-8.5-44.8-19.4-63.7-32.2-36.6-24.9-66.9-56.8-89.9-94.8-20.3-33.5-34.3-70.9-41.8-111.2-12.9-69.2-5.4-144.7,21-212.5,9.3-24,21-47,34.8-68.8-33.2-11.1-64.2-27.3-92.3-48.3-4.7-3.5-9.3-7.2-13.8-10.9-91.5,52.9-190.4,80.9-286.3,80.9-35.2,0-69.9-3.8-103.1-11.2-33.4-7.4-65.5-18.6-95.5-33.2-30.3-14.8-58.6-33.1-84-54.4-20.6-17.3-39.4-36.8-56-57.9l-18.9,96-50,35.1c-35.4,24.8-77.3,37.9-121.4,37.9s-66.7-7.3-99.2-21.8c-25.8-11.5-50.3-27-72.6-46.2-24-20.6-44.1-44.1-59.7-69.9-16.9-27.9-27.9-57-32.5-86.6-10.8-69.1,5-156.4,27.9-262.6-12.7,2-25.8,3-38.9,3-34.5,0-71.3-6.8-106.4-19.7-33.6-12.3-64.3-29.6-88.8-50-41.9-34.8-72.5-79.4-91.1-132.5-15.1-43.3-21.4-90.3-18.6-139.8,2.4-42.5,11.8-86.6,27.1-127.5,15.6-41.6,37.7-80.4,63.8-112.4,56.4-69.1,129.3-119.5,216.8-149.8,67.5-23.3,142.4-34.7,229.1-34.7s49.8.9,76.3,2.7c32.8,2.2,71,7.1,111.4,12.2,61.3,7.8,130.9,16.6,185.5,16.6s35.8-1.5,43.3-2.7c28.8-18,59.6-27.2,91.8-27.2s41.7,4.1,61,11.8c27.1,10.8,50.7,28.2,70.2,51.7,37,44.7,54.1,103.8,48.2,166.5-1.2,12.9-3.4,25.6-6.5,38.1,24.7,2,48.5,5.9,70.9,11.8,35.7,9.4,68.5,23.8,97.4,42.7,26.3,17.2,49.1,38,68,61.9,20-18.8,41.3-35.7,63.6-50.5,33.6-22.3,69.8-39.2,107.7-50.4,36.1-10.6,73.7-16,111.9-16s98.3,8.7,147.1,25.9c17.9,6.3,35.9,13.8,53.5,22.4,25.4-6.8,49.1-10.1,72-10.1s61.8,6.6,88.5,19.7c16,7.8,30.5,17.7,43.4,29.6,12.8-10.7,26.5-20.8,41.1-30,37.2-23.6,79.4-41.6,125.3-53.8,42.5-11.2,86.6-16.9,131.1-16.9s115.3,9.9,165.7,29.5c51.9,20.2,95.2,49.4,129,86.8,7.8-6.5,15.8-12.6,23.9-18.5,43-31.2,89.1-54.1,137-68,38.4-11.1,80.5-17,121.7-17s92.8,7.5,133.8,21.7c51.4,17.9,94.8,45.6,128.8,82.4,27.4,29.7,47.6,64.2,59.9,102.5,12,37.1,16.4,77,13,118.5-2.7,33.4-10.8,65.8-24.2,96.8,28.2,8.5,52.9,21.8,73.6,39.6,29.9,25.7,50,59.5,58.1,97.7,4.8,22.6,5.3,45.9,1.3,69.2-3.6,21.2-10.7,42.4-21.3,63.1-10.9,21.3-25.4,42.4-44.4,64.4-29.1,33.8-61.9,61.5-74.6,71.9-51,41.4-110.2,76.2-171.3,100.7-69.5,27.8-139.1,41.9-207.1,41.9s-37.6-1.1-56-3.3c-.3,31.8-8.2,58.7-14.4,78,27.2-15.7,55.4-28.2,84.4-37.4,41.6-13.2,87.1-20.2,131.8-20.2s99,8.7,142.4,25c54.2,20.4,98.7,51.8,132.2,93.3,24.1,29.7,41.4,63.4,51.6,100.3,12.9,46.7,13.9,96.9,2.8,149.3-3.9,18.4-9.6,36.5-17.1,54.1,24.2,6.9,45.9,17.6,64.8,31.7,31.9,24,54.3,56.8,64.7,94.8,5.8,21.1,7.6,43.1,5.4,65.3-2,20.4-7.3,40.9-15.9,61.1-8.8,20.8-21,41.2-37.1,62.4-22.9,30.1-49.5,55.7-63.4,68.2-52.4,47.6-115,87.8-181.2,116.3-35.1,15.2-71.1,27-106.9,35.1-39,8.8-78,13.3-115.9,13.3-47.6,0-93.6-7-136.8-20.9-47.5-15.2-91.4-38.7-130.7-69.6-1.2-1-2.5-1.9-3.7-2.9-5.4,12.4-12.3,24.2-20.5,35-13.7,18.1-30.7,33.1-50.4,44.6-25.4,14.8-54.7,23.5-87.3,25.7-5.1.4-10.3.5-15.5.5-28.5,0-58-5.2-87.8-15.6-27.8-9.7-54.7-23.4-79.9-40.8-49.7-34.4-86.2-78.8-105-127.3-11.2,8.1-23.5,15-36.8,20.6-26.6,11.3-56,17.1-87.4,17.1s-87.2-11-124.6-30.9c-21.4-11.4-40.1-25.4-55.8-41.6-10.5,21-21,40.6-31.6,58.7-24.1,41.2-47.7,73.4-72.2,98.4-29.9,30.6-61.2,50.9-95.8,62.2-21.5,7-44.3,10.6-67.6,10.6h0Z"/>
    </clipPath>
    <radialGradient id="radial-gradient15" cx="3754.1" cy="741.8" fx="3754.1" fy="741.8" r="180.5" gradientTransform="translate(237.5 2679.4) scale(1 -1)" gradientUnits="userSpaceOnUse">
      <stop offset="0" stop-color="#ff9191"/>
      <stop offset=".7" stop-color="#f5bae7" stop-opacity="0"/>
    </radialGradient>
    <radialGradient id="radial-gradient16" cx="3698.2" cy="1229.2" fx="3698.2" fy="1229.2" r="455.7" gradientTransform="translate(214 -243) rotate(45) scale(1 -1)" gradientUnits="userSpaceOnUse">
      <stop offset="0" stop-color="#ff9191"/>
      <stop offset=".7" stop-color="#f5bae7" stop-opacity="0"/>
    </radialGradient>
    <radialGradient id="radial-gradient17" cx="3619.1" cy="2176.7" fx="3619.1" fy="2176.7" r="363.6" gradientTransform="translate(0 2732) scale(1 -1)" gradientUnits="userSpaceOnUse">
      <stop offset="0" stop-color="#ff9191"/>
      <stop offset=".7" stop-color="#f5bae7" stop-opacity="0"/>
    </radialGradient>
    <radialGradient id="radial-gradient18" cx="3835.1" cy="1412.6" fx="3835.1" fy="1412.6" r="359.4" gradientTransform="translate(0 2732) scale(1 -1)" gradientUnits="userSpaceOnUse">
      <stop offset="0" stop-color="#ff9191"/>
      <stop offset=".7" stop-color="#f5bae7" stop-opacity="0"/>
    </radialGradient>
    <radialGradient id="radial-gradient19" cx="3844.7" cy="1754.9" fx="3844.7" fy="1754.9" r="363.6" gradientTransform="translate(0 2732) scale(1 -1)" gradientUnits="userSpaceOnUse">
      <stop offset="0" stop-color="#ff9191"/>
      <stop offset=".7" stop-color="#f5bae7" stop-opacity="0"/>
    </radialGradient>
    <radialGradient id="radial-gradient20" cx="2924" cy="2260.8" fx="2924" fy="2260.8" r="363.6" gradientTransform="translate(0 2732) scale(1 -1)" gradientUnits="userSpaceOnUse">
      <stop offset="0" stop-color="#ff9191"/>
      <stop offset=".7" stop-color="#f5bae7" stop-opacity="0"/>
    </radialGradient>
    <radialGradient id="radial-gradient21" cx="2238.3" cy="2092.6" fx="2238.3" fy="2092.6" r="230.9" gradientTransform="translate(363.4 2481) scale(.9 -.9)" gradientUnits="userSpaceOnUse">
      <stop offset="0" stop-color="#ff9191"/>
      <stop offset=".7" stop-color="#f5bae7" stop-opacity="0"/>
    </radialGradient>
    <radialGradient id="radial-gradient22" cx="1839.2" cy="2162.2" fx="1839.2" fy="2162.2" r="371.8" gradientTransform="translate(370.1 2476.8) scale(.9 -.9)" gradientUnits="userSpaceOnUse">
      <stop offset="0" stop-color="#ff9191"/>
      <stop offset=".7" stop-color="#f5bae7" stop-opacity="0"/>
    </radialGradient>
    <radialGradient id="radial-gradient23" cx="1535.3" cy="-531.3" fx="1535.3" fy="-531.3" r="282.3" gradientTransform="translate(1966.2 -594.4) rotate(90) scale(.7 -.5)" gradientUnits="userSpaceOnUse">
      <stop offset="0" stop-color="#ff9191"/>
      <stop offset="1" stop-color="#f5bae7" stop-opacity="0"/>
    </radialGradient>
    <radialGradient id="radial-gradient24" cx="2714.5" cy="740.6" fx="2714.5" fy="740.6" r="271" gradientTransform="translate(1005.9 -2383.1) rotate(90) scale(1 -.7)" gradientUnits="userSpaceOnUse">
      <stop offset="0" stop-color="#ff9191"/>
      <stop offset=".7" stop-color="#f5bae7" stop-opacity="0"/>
    </radialGradient>
    <radialGradient id="radial-gradient25" cx="3129.6" cy="-5758.5" fx="3129.6" fy="-5758.5" r="271" gradientTransform="translate(3083.2 -2816) rotate(90) scale(1 -.3)" gradientUnits="userSpaceOnUse">
      <stop offset="0" stop-color="#ff9191"/>
      <stop offset=".7" stop-color="#f5bae7" stop-opacity="0"/>
    </radialGradient>
    <radialGradient id="radial-gradient26" cx="3717.3" cy="497" fx="3717.3" fy="497" r="260.7" gradientTransform="translate(959.9 -32.9) rotate(45) scale(1 -1)" gradientUnits="userSpaceOnUse">
      <stop offset="0" stop-color="#ff9191"/>
      <stop offset=".7" stop-color="#f5bae7" stop-opacity="0"/>
    </radialGradient>
    <clipPath id="clippath-5">
      <path class="st0" d="M3893.2,1993.2c-8.3-30.5-26.3-56.8-51.9-76-19-14.3-41.8-24.2-67.7-29.6l-28.1-5.8c16.9-27.3,28.6-56,34.9-85.8,9.9-46.8,9.1-91.4-2.3-132.7-8.9-32.2-24.1-61.7-45.1-87.6-29.6-36.6-69.1-64.3-117.4-82.5-39.5-14.9-84.4-22.8-130-22.8s-83,6.4-121.2,18.6c-43.1,13.7-84.6,35.5-123.3,64.8-10.4,7.8-20.5,16.2-30.3,24.9,5.5-23.1,11.1-46.1,16.9-69,1.9-7.6,4.3-14.9,6.8-22.7,8.5-26.2,21.3-65.7,9.6-112.3-.2-.8-.4-1.7-.7-2.5,30.9,7.3,63.3,11.1,96.4,11.1h0c63.5,0,128.8-13.2,194.1-39.4,57.9-23.2,113.9-56.1,162.2-95.3,12-9.8,42.9-35.9,70.1-67.5,17.1-19.9,30.1-38.7,39.7-57.5,9-17.5,15-35.3,18-52.9,3.2-19,2.8-37.9-1.1-56.1-6.6-30.7-22.7-57.8-46.7-78.5-18.4-15.8-40.8-27.3-66.7-34.3l-20.8-5.6-17.9,1.8c25.5-39.9,40.3-82.8,43.9-127.8,3-36.9-.9-72.2-11.4-104.9-10.8-33.5-28.4-63.6-52.4-89.5-30-32.5-68.5-57.1-114.5-73-37.3-13-79.6-19.8-122.2-19.8s-76.6,5.4-112,15.6c-44,12.7-86.4,33.8-126.1,62.6-17.1,12.4-33.5,26.2-49.3,41.2-5.3-8.2-11.2-16-17.7-23.5-30.5-35.3-70.7-62.8-119.2-81.7-46.4-18-97.9-27.2-153-27.2s-82.6,5.3-122.2,15.7c-42.5,11.2-81.3,27.8-115.5,49.5-23.5,14.9-44.3,31.8-62.3,50.6-3.3-4.8-6.9-9.3-10.7-13.7-12.8-14.4-28.1-26.1-45.6-34.6-21.9-10.7-46.5-16.1-73.1-16.1s-48.2,4.1-75.5,12.5c-20.2-10.5-40.8-19.5-61.6-26.8-45-15.9-90.6-23.9-135.4-23.9s-69.2,4.9-102,14.6c-34.5,10.1-67.5,25.6-98.2,45.9-32,21.2-61.6,47-88.1,76.8-4.4-8.1-9.3-15.9-14.7-23.5-17.9-25.3-40.6-47-67.3-64.5-25.7-16.9-55-29.7-87.1-38.1-30.6-8-63.9-12.1-99.1-12.1s-8,0-12.1.2c1.9-3.9,3.6-8,5.3-12.1,8.2-20.2,13.4-41.5,15.4-63.2,5.1-53.3-9.2-103.3-40.2-140.8-15.7-19-34.6-32.9-56.2-41.5-15.3-6.1-31.9-9.3-48.1-9.3-37.1,0-63.7,15.2-78.3,25.2-8.5,2-25.7,4.7-56.8,4.7-56.8,0-127.5-8.9-189.9-16.8-39.9-5.1-77.6-9.8-109.4-12-25.7-1.7-50.5-2.6-73.9-2.6-82.7,0-153.9,10.7-217.7,32.8-81.3,28.1-149,74.8-201.1,138.8-23.7,29.1-43.8,64.5-58.1,102.6-14.1,37.6-22.8,78.1-25,117.1-2.5,44.9,3.1,87.3,16.7,126.3,16.4,47,43.5,86.3,80.4,117,21.5,17.9,48.7,33.1,78.5,44,31.3,11.5,63.9,17.5,94.3,17.5s59.9-6.3,85.5-18.2c-.1.6-.2,1.1-.3,1.7-2.2,10.7-5.1,24.3-8.3,38.7h0c-24.1,110.5-41.7,200.2-31.3,267.1,3.9,25,13.2,49.9,27.8,73.8,13.7,22.6,31.5,43.3,52.6,61.5,19.7,16.9,41.3,30.7,64,40.7,28.1,12.5,56.7,18.8,85,18.8s71.8-10.9,101.3-31.6l38.5-27,33.6-170.3c9.4,20.5,20.6,40.1,33.5,58.4,17.7,25.1,38.6,47.8,62.1,67.6,23.2,19.5,49,36.2,76.8,49.7,27.5,13.4,57,23.6,87.8,30.5,30.7,6.8,62.9,10.3,95.5,10.3,90.2,0,183.7-26.7,270.3-77.1,6.7-3.9,13.3-8,20.1-12.3,9.7,9.5,19.9,18.3,30.8,26.4,25.6,19.1,54,33.9,84.4,43.8,15.1,4.9,30.4,8.6,46,11.1-26.1,31.1-46.7,65.7-61.3,103.2-24.1,61.8-30.9,130.5-19.2,193.4,6.7,36.1,19.3,69.6,37.4,99.5,20.4,33.7,47.1,61.9,79.6,83.9,26.6,18,59.8,31.8,94.2,39.6-12.3,25.2-26.7,53.4-42.3,80.4-31.3,54.2-51.3,75.9-59.6,83.6-12.2,6.4-37.6,19.8-57.7,48.1-21.9,30.9-30.3,69.3-24,111,7.4,49.9,36.5,96.2,81.9,130.5,19.7,14.9,41.4,26.6,64.5,34.8,23.8,8.4,47.7,12.7,71.3,12.7s38.7-3,56.8-8.8c29-9.4,55.7-26.9,81.6-53.3,22.5-23,44.4-52.9,67-91.6,22.4-38.3,41.7-78.7,56-110.9,4.7,10.4,10.6,20.3,17.7,29.8,15.4,20.6,35.8,37.7,60.6,50.9,32.4,17.2,70.8,26.8,108.1,26.7,26.6,0,51.4-4.8,73.6-14.3,24.2-10.3,44.3-25.5,59.8-45.3l6.8-8.7,3.6-7c1.1,13.2,3,25.5,5.7,36.8,12.2,50.8,47.6,98.5,99.6,134.4,22.6,15.6,46.6,27.9,71.5,36.5,26.1,9.1,51.7,13.7,76.3,13.7s8.8-.1,13.1-.4c60.3-4.1,94.3-33,112.1-56.6,17.6-23.1,27.2-51.1,28.1-81.4,13.9,15.5,29.2,29.9,45.8,43,35.9,28.4,76.2,49.8,119.6,63.8,39.8,12.8,82.2,19.2,126.1,19.2h0c35.3,0,71.7-4.2,108.2-12.5,33.7-7.6,67.6-18.8,100.7-33.1,62.6-27,121.9-65.1,171.5-110.1,12.9-11.7,37.8-35.6,59-63.5,14.4-18.9,25.1-36.8,32.7-54.9,7.2-16.9,11.6-34,13.3-50.8,1.7-17.9.3-35.7-4.4-52.7h0ZM839.9,658.9c-2.9-7.2-5.3-14.8-7.2-22.5-4.5-19.3-5.1-39.1-1.4-54.2,1.7-7,4.3-12.9,7.4-17,2-2.6,4.8-5.6,11.2-8.5,5-2.3,10.4-4.2,16.1-5.5-9,36.5-17.8,72.4-26.2,107.7h0ZM1283.8,607.3c-10,9.9-19.7,20.2-29.1,31l6.7-33.9c7.6.9,15.2,1.7,22.9,2.3-.2.2-.4.4-.6.5h0ZM2731,1396.9c-.8-4.7-1.8-9.3-3.1-13.9,2.2,0,4.5,0,6.8,0,5.1,0,10.3,0,15.4-.2l-16.5,31.8c-.8-6-1.6-11.9-2.6-17.7h0Z"/>
    </clipPath>
    <linearGradient id="linear-gradient" x1="947.3" y1="2382.2" x2="1936.6" y2="21" gradientTransform="translate(0 2732) scale(1 -1)" gradientUnits="userSpaceOnUse">
      <stop offset="0" stop-color="#fff"/>
      <stop offset="1" stop-color="#fe8484"/>
    </linearGradient>
    <linearGradient id="linear-gradient1" x1="2797.7" y1="3157.5" x2="3787" y2="796.3" gradientTransform="translate(0 2732) scale(1 -1)" gradientUnits="userSpaceOnUse">
      <stop offset="0" stop-color="#fff"/>
      <stop offset="1" stop-color="#fe8484"/>
    </linearGradient>
    <linearGradient id="linear-gradient2" x1="1778.9" y1="2730.6" x2="2768.1" y2="369.4" gradientTransform="translate(0 2732) scale(1 -1)" gradientUnits="userSpaceOnUse">
      <stop offset="0" stop-color="#fff"/>
      <stop offset="1" stop-color="#fe8484"/>
    </linearGradient>
    <linearGradient id="linear-gradient3" x1="1028.6" y1="2391.7" x2="927" y2="1508.9" gradientTransform="translate(0 2732) scale(1 -1)" gradientUnits="userSpaceOnUse">
      <stop offset="0" stop-color="#ffccea"/>
      <stop offset=".2" stop-color="#fff"/>
      <stop offset=".3" stop-color="#ff8fd2"/>
      <stop offset="1" stop-color="#fe8484"/>
    </linearGradient>
    <linearGradient id="linear-gradient4" x1="680.2" y1="1806.4" x2="1524.3" y2="2293.7" gradientTransform="translate(0 2732) scale(1 -1)" gradientUnits="userSpaceOnUse">
      <stop offset="0" stop-color="#fff"/>
      <stop offset="1" stop-color="#fe8484"/>
    </linearGradient>
    <linearGradient id="linear-gradient5" x1="3442.3" y1="2122.4" x2="3369.9" y2="1493.1" gradientTransform="translate(0 2732) scale(1 -1)" gradientUnits="userSpaceOnUse">
      <stop offset="0" stop-color="#ffccea"/>
      <stop offset=".2" stop-color="#fff"/>
      <stop offset=".3" stop-color="#ff8fd2"/>
      <stop offset="1" stop-color="#fe8484"/>
    </linearGradient>
    <linearGradient id="linear-gradient6" x1="3728.8" y1="1797.2" x2="3062.9" y2="1797.2" gradientTransform="translate(0 2732) scale(1 -1)" gradientUnits="userSpaceOnUse">
      <stop offset="0" stop-color="#fff"/>
      <stop offset="1" stop-color="#fe8484"/>
    </linearGradient>
    <linearGradient id="linear-gradient7" x1="2162.8" y1="2132.6" x2="2087.3" y2="1389.9" gradientTransform="translate(0 2732) scale(1 -1)" gradientUnits="userSpaceOnUse">
      <stop offset="0" stop-color="#ffccea"/>
      <stop offset=".2" stop-color="#fff"/>
      <stop offset=".3" stop-color="#ff8fd2"/>
      <stop offset="1" stop-color="#fe8484"/>
    </linearGradient>
    <linearGradient id="linear-gradient8" x1="2215" y1="2269.3" x2="2054" y2="1356.3" gradientTransform="translate(0 2732) scale(1 -1)" gradientUnits="userSpaceOnUse">
      <stop offset="0" stop-color="#fff"/>
      <stop offset="1" stop-color="#fe8484"/>
    </linearGradient>
    <linearGradient id="linear-gradient9" x1="3010.9" y1="44.8" x2="2338.9" y2="1426.1" gradientTransform="translate(0 2732) scale(1 -1)" gradientUnits="userSpaceOnUse">
      <stop offset="0" stop-color="#fff"/>
      <stop offset=".3" stop-color="#ff8fd2"/>
      <stop offset="1" stop-color="#fe8484"/>
    </linearGradient>
    <linearGradient id="linear-gradient10" x1="3653.8" y1="357.6" x2="2981.8" y2="1738.8" gradientTransform="translate(0 2732) scale(1 -1)" gradientUnits="userSpaceOnUse">
      <stop offset="0" stop-color="#fff"/>
      <stop offset=".3" stop-color="#ff8fd2"/>
      <stop offset="1" stop-color="#fe8484"/>
    </linearGradient>
    <linearGradient id="linear-gradient11" x1="2560.4" y1="1491.1" x2="2560.4" y2="532.4" gradientTransform="translate(0 2732) scale(1 -1)" gradientUnits="userSpaceOnUse">
      <stop offset="0" stop-color="#fff"/>
      <stop offset=".3" stop-color="#ff8fd2"/>
      <stop offset="1" stop-color="#fe8484"/>
    </linearGradient>
    <linearGradient id="linear-gradient12" x1="1971.2" y1="1144.5" x2="3103" y2="732.6" gradientTransform="translate(0 2732) scale(1 -1)" gradientUnits="userSpaceOnUse">
      <stop offset="0" stop-color="#fff"/>
      <stop offset="1" stop-color="#fe8484"/>
    </linearGradient>
    <linearGradient id="linear-gradient13" x1="3462.2" y1="1491.1" x2="3462.2" y2="532.4" gradientTransform="translate(0 2732) scale(1 -1)" gradientUnits="userSpaceOnUse">
      <stop offset="0" stop-color="#fff"/>
      <stop offset=".3" stop-color="#ff8fd2"/>
      <stop offset="1" stop-color="#fe8484"/>
    </linearGradient>
    <linearGradient id="linear-gradient14" x1="3168.8" y1="912.2" x2="3788.4" y2="686.7" gradientTransform="translate(0 2732) scale(1 -1)" gradientUnits="userSpaceOnUse">
      <stop offset="0" stop-color="#fff"/>
      <stop offset="1" stop-color="#fe8484"/>
    </linearGradient>
    <clipPath id="clippath-6">
      <path class="st0" d="M1168.3,472.5l-156.7,794.4c-51.7,36.3-139.4-30.2-148-85.5-9.5-61.3,25.3-198.5,38.7-264.6,32.2-159.2,72.2-316.9,111.3-474.4-71.9-9.2-143.7-23.8-212.6,8-117.9,54.4-106.4,220.8-36.5,310.1-27.5,55.5-121.5,30.1-160.2-2-85.4-70.9-62-220.8,1.9-299.2,97.3-119.2,249.8-136,394.1-126.2,107.9,7.3,319.8,51.9,414,14,14.6-5.9,26.1-26.1,42.4-6.4,23.8,28.7,15.7,81.8-7.4,109.1-60.7,71.6-200.9,32-281.1,22.5h0ZM3334.8,610.8c52.4-15.2,115-15.2,166.1,3.3,64.9,19.8,114.4,67.6,107.8,150.1-11.5,142.9-227.1,231.6-351,239-3.5,67.5,28,130.3,88.5,153.3,8.6,2.5,17.8,4.2,27.5,5.1,96.9,8.7,193.3-39.2,262.2-103.4,10-9.3,34.3-42.5,43.5-43.5,3.8,1,7.2,2.2,10.3,3.5,0,0,.2,0,.3,0,81.3,21.8-25.1,117.3-56.8,143.1-101.5,82.5-253.5,137.5-380.4,92.3-29.1-9-56.9-23.1-82.7-43.1-204.6-158.3-59.4-534.8,164.9-599.7h0ZM3262.5,941.1c85.7-18.2,182.3-102,202.4-185.4,9.8-40.9.9-70.7-19.5-81.2-16-2.8-36.5,3.6-59.4,21.8-65.9,52.2-107.9,162.8-123.4,244.8h0ZM1826.6,1120.2c-34.7,30.2-68.7,60.2-108.7,83.5-280.8,163.6-575.5-17.4-459.1-345.2,41.7-117.4,150.1-244.3,281.6-257.4,268.6-26.8,290.7,227.8,64.4,342.9-69,35.1-119.3,37.2-189.1,56-3.7,1-7.4.6-8.7,5.3,3.2,80.9,46.4,150.3,132.9,156.6,102,7.4,205.6-46.4,271.7-120.7,4.4-146.4,61-315.8,187.9-399.9,103.7-68.7,225.6-44.4,322.4,23,13-2.8,22.5-11,35.8-15.6,41.8-14.5,96.4-22.6,88.7,39.6-6,48.7-28.7,113.1-39.4,164-11.8,56.3-25.8,118.8-31.3,175.8-6.4,66.8-10.7,156.8,82.6,97.5,40.7-25.8,28.1-35.9,46.3-70.5,13.1-25,64.3-71.8,93.7-57.2,9.5,4.7,19.8,73.7,28.2,92.3,17,37.7,50.9,70.3,90.8,82.6,91.2,28.1,173.2-34.7,103.5-122.1-72-90.3-251.4-136.7-245.1-278.6,8.4-193.2,338.1-240.5,445.1-116.7,54.1,62.5-.4,145.8-75.4,139.3-17.1-32.7-26.8-66-54.5-92.5-36.2-34.7-105.1-54.8-146.7-18.1-38.8,34.2-16.1,75.4,14.4,104.9,92.5,89.5,287.2,150.2,234,320-51.6,164.9-294.7,195.9-425.7,112.3-20.1-12.9-33.4-31.6-53-44.3-65.4,60.3-148.1,115-233.7,55.5-49.3-34.3-69.2-90.8-66.8-149.9l-34.7,65.1c-83.4,160.2-298.8,148.2-352-27.5h0ZM1413.5,943.2c86.3-14.5,175.3-86.8,206.6-168.4,20-52.2,16.8-127.6-59.4-97-74.4,29.9-139.3,189.5-147.1,265.4h0ZM2010.2,1129c21.7,26.2,48.2,19.8,74.5,4,73.7-44.2,132.4-213.5,153.9-294.4,4.9-18.5,22.8-81.1,18-94.7-3.9-11-37.7-43.1-48.8-49.3-16.1-9-33.6-13.1-52.1-10.3-79.3,12.2-132.9,147.6-149.7,215.9-13.4,54.5-33,184.1,4.1,228.8h0ZM3088.8,1359.1c-36.8-23.2-145.8-63.5-180.5-27.3l-269.5,519.8-7.4-156.4c-2.5-53.5-4.6-108.2-7.6-161.9-1.9-35-2.2-83.4-7.9-116.3-7.9-45.6-91.2-78.2-131.1-87.6-164.9-38.6-411.6,16.9-479,189.9-31.4,80.5-22,185.7,54.4,237.6,32.7,22.2,102.9,39.4,136.8,13.5,29.7-22.7-1.5-34.9-14.7-52.5-39.4-52.4-40.5-131-12.1-188.8,35.7-72.5,124.2-124.9,204.4-125.4-30.8,168.2-86.6,336.8-157.8,492-33.8,73.7-97.4,205-159.4,255.1-19.5,15.7-41.8,13.1-36.6,48.3,7,47.2,75.8,90.5,122.7,75.3,56.1-18.2,119.9-158.6,142.4-211.9,80.4-190.3,131.9-403.6,171.8-606.1,5.5.7,6.4,16.4,7,21.2,27.3,192.6,14.6,399.6,23.4,594.2,5.6,44.6,99.9,64.1,123.8,33.6l336.3-652.8c-28.8,141.4-61.9,282.2-85.6,424.7-11.5,68.9-43.5,232.6-28.7,293.8,12,49.9,88.6,98.4,138.8,94.9,48.7-3.3,26.6-39.7,24.7-69.8-4.4-70.3,12.9-172.6,23.2-244.1,22.5-155.9,55.4-318.4,94-471,15.2-60,40.2-80.4-25.6-121.9h0ZM3714,2128.4c-122.4,111.1-331.6,180.7-475.1,67.4-199.9-157.7-57.7-525.7,161.1-595.4,125.1-39.9,300.2,9.9,266,171.4-26.4,124.7-232.9,211.3-348.2,215.4,8.5,235.5,258.9,177.3,383.1,64.1,17.1-15.6,31.4-35.8,49.1-49.2,76.7,15.9-7.5,100.5-35.9,126.3h0ZM3321.6,1930.7c96.2-6.6,241-141.6,217.2-241.2-7.1-29.5-38.5-35.5-64.6-26.3-76.6,27.1-141.6,191.9-152.6,267.5h0Z"/>
    </clipPath>
    <radialGradient id="radial-gradient27" cx="2789" cy="825.5" fx="2789" fy="825.5" r="1808.6" gradientTransform="translate(0 2732) scale(1 -1)" gradientUnits="userSpaceOnUse">
      <stop offset="0" stop-color="#fff"/>
      <stop offset="1" stop-color="#fe8484"/>
    </radialGradient>
    <linearGradient id="linear-gradient15" x1="1030.1" y1="2292.4" x2="2037.2" y2="2292.4" gradientTransform="translate(0 2732) scale(1 -1)" gradientUnits="userSpaceOnUse">
      <stop offset="0" stop-color="#fff"/>
      <stop offset=".3" stop-color="#ff8fd2"/>
      <stop offset="1" stop-color="#fe8484"/>
    </linearGradient>
    <linearGradient id="linear-gradient16" x1="1224.9" y1="2288.5" x2="918.2" y2="3587.9" gradientTransform="translate(0 2732) scale(1 -1)" gradientUnits="userSpaceOnUse">
      <stop offset="0" stop-color="#fff"/>
      <stop offset=".3" stop-color="#ff8fd2"/>
      <stop offset="1" stop-color="#fe8484"/>
    </linearGradient>
    <clipPath id="clippath-7">
      <path class="st0" d="M1566.9,1671.4c-86.6,37-127,31.2-169.9,49.9-87.4,38-111.1,128-205.4,163-82,30.4-151.8-7.2-233,8.8-29.8,5.9-47.7,15.2-74.3,26.5-.9.4-1.8.6-2.7,1-6.7,2.9-15.3,5.1-22.3,8-2.5,1.1-4.7,2.4-6.8,4.1-1.4.4-2.7,1-4,1.5-9.1,3-17.9,8-25.7,10.9l-22.8,8.3c-1.6.6-7.4,1.4-10.6,2.3-47.8,13.9-96.9,21.6-146.8,16.8,0,0,283.2,297.8,631.2,186.2,347.9-111.6,371.4-368,382.9-416.1s24.6-101.5,34.3-158.1c0,0-37.3,50-123.9,87h0ZM1556.9,1800.4c-5.9,33.5-23.1,64-44,90.3-2,2.6-4.8,5.8-7,8.2-22.8,24.2-50.9,39.5-81.4,50.3-4.3,1.4-8.5,2.8-13,3.9-1.5.4-3.1-.6-3.4-2.1-.3-1.3.3-2.6,1.4-3.2,29.6-17.7,58.9-38.8,78.9-67.2,15.1-23.3,28.2-48.2,36.2-74.8.4-1.4,1.3-4.4,1.7-5.8l1.6-6c5.5-18.1,31.6-12.4,29.1,6.3h0Z"/>
    </clipPath>
    <linearGradient id="linear-gradient17" x1="623.9" y1="1077.6" x2="747.1" y2="1077.6" gradientTransform="translate(0 2732) scale(1 -1)" gradientUnits="userSpaceOnUse">
      <stop offset="0" stop-color="#7d1414" stop-opacity="0"/>
      <stop offset=".2" stop-color="#7d1414" stop-opacity=".1"/>
      <stop offset=".6" stop-color="#7d1414" stop-opacity=".4"/>
      <stop offset=".7" stop-color="#7d1414" stop-opacity=".5"/>
      <stop offset="1" stop-color="#7d1414"/>
    </linearGradient>
    <linearGradient id="linear-gradient18" x1="1407.8" y1="1378.7" x2="1491.4" y2="1378.7" gradientTransform="translate(0 2732) scale(1 -1)" gradientUnits="userSpaceOnUse">
      <stop offset="0" stop-color="#7d1414" stop-opacity="0"/>
      <stop offset=".2" stop-color="#7d1414" stop-opacity=".1"/>
      <stop offset=".6" stop-color="#7d1414" stop-opacity=".4"/>
      <stop offset=".7" stop-color="#7d1414" stop-opacity=".5"/>
      <stop offset="1" stop-color="#7d1414"/>
    </linearGradient>
    <radialGradient id="radial-gradient28" cx="1165.2" cy="813.9" fx="1165.2" fy="813.9" r="489" gradientTransform="translate(0 2732) scale(1 -1)" gradientUnits="userSpaceOnUse">
      <stop offset="0" stop-color="#7d1414" stop-opacity="0"/>
      <stop offset=".7" stop-color="#000" stop-opacity=".5"/>
      <stop offset=".9" stop-color="#030000"/>
    </radialGradient>
    <radialGradient id="radial-gradient29" cx="1157.8" cy="1046.3" fx="1157.8" fy="1046.3" r="417.1" gradientTransform="translate(0 2732) scale(1 -1)" gradientUnits="userSpaceOnUse">
      <stop offset="0" stop-color="#7d1414" stop-opacity="0"/>
      <stop offset=".6" stop-color="#3b0909" stop-opacity=".4"/>
      <stop offset=".7" stop-color="#260606" stop-opacity=".5"/>
      <stop offset="1" stop-color="#0d0202"/>
    </radialGradient>
  </defs>
  <g class="st10">
    <g id="chatBox">
      <path class="st78" d="M618.6,2541.4c-41.3,0-82.3-13.6-115.5-38.3-16.6-12.4-31.1-27.2-42.8-44.1-12.2-17.5-21.2-36.9-27-57.5l-222.4-802.4c-13.5-48.7-7.1-99.7,17.9-143.7,12.3-21.7,28.5-40.4,48.1-55.8,20.3-15.9,43.4-27.4,68.5-34.2l1364.7-369.8c16.7-4.5,33.8-6.8,50.9-6.8,41.3,0,82.3,13.6,115.5,38.3,16.7,12.4,31.1,27.2,42.8,44.2,12.2,17.5,21.2,36.8,27,57.5l222.4,802.4c13.5,48.7,7.1,99.7-17.9,143.7-12.3,21.6-28.5,40.4-48.1,55.8-20.3,15.9-43.4,27.4-68.5,34.2l-224.8,60.9c-9.9,2.7-17.4,10.4-19.8,20.2v.2c0,0-63.2,218.4-63.2,218.4-4.9,20.3-23.1,34.5-44.2,34.5h0c-8.2,0-16.3-2.2-23.4-6.5l-271-143.4h-.2c-4.4-2.8-9.4-4.2-14.6-4.2s-5,.3-7.4,1l-696,188.6c-16.7,4.5-33.8,6.8-50.9,6.8h0Z"/>
      <path class="st68" d="M1761,997.4c80.6,0,154.5,52.9,176.8,133.5l222.4,802.4c26.8,96.6-30.7,196.4-128.4,222.9l-224.8,60.9c-12.9,3.5-22.9,13.7-26,26.7l-63.1,218.4c-4.1,17.2-19.5,28-35.8,28s-13-1.7-19.1-5.3l-271-143.4c-5.8-3.5-12.4-5.3-19.1-5.3s-6.5.4-9.7,1.3l-696,188.6c-16.2,4.4-32.5,6.5-48.6,6.5-80.6,0-154.5-52.9-176.8-133.5l-222.4-802.4c-26.8-96.6,30.7-196.4,128.4-222.9l1364.7-369.8c16.2-4.4,32.5-6.5,48.6-6.5M1761,979.9c-17.9,0-35.8,2.4-53.2,7.1l-1364.7,369.8c-26.3,7.1-50.4,19.2-71.6,35.8-20.5,16.1-37.4,35.7-50.4,58.3-12.8,22.4-20.9,46.6-24.3,71.9-3.5,26.3-1.6,52.7,5.5,78.4l222.4,802.4c6,21.6,15.5,41.9,28.2,60.2,12.3,17.7,27.4,33.2,44.8,46.2,17.2,12.8,36.3,22.8,56.7,29.6,20.7,6.9,42.3,10.4,64,10.4s35.8-2.4,53.2-7.1l696-188.6c1.7-.4,3.4-.7,5.1-.7,3.6,0,7,1,10.1,2.8l.4.3.4.2,270.6,143.2c8.4,5,18,7.6,27.7,7.6s23.6-3.9,33-11.1c9.9-7.5,16.7-17.8,19.7-29.9l63-218v-.4c.1,0,.2-.4.2-.4,1.6-6.7,6.8-12,13.5-13.8l224.8-60.9c26.3-7.1,50.4-19.2,71.6-35.8,20.5-16.1,37.4-35.7,50.4-58.4,12.8-22.4,20.9-46.6,24.3-71.9,3.5-26.3,1.6-52.7-5.5-78.4l-222.4-802.4c-6-21.6-15.5-41.9-28.2-60.2-12.3-17.7-27.4-33.2-44.8-46.2-17.2-12.8-36.3-22.8-56.7-29.6-20.7-6.9-42.3-10.4-64.1-10.4h0Z"/>
      <ellipse class="st6" cx="921.5" cy="1251.2" rx="138.6" ry="267.6" transform="translate(-434.4 492.2) rotate(-24.4)"/>
      <ellipse class="st17" cx="896.4" cy="1325" rx="117.3" ry="199.3" transform="translate(-683 1070.6) rotate(-46.8)"/>
      <path d="M618.6,2462.4c-24.4,0-48.7-8.1-68.4-22.7-20.1-14.9-34.2-35.5-40.8-59.4l-222.4-802.4c-7.8-28.3-4.1-57.9,10.5-83.5,14.9-26.2,39.3-45,68.7-52.9l1364.7-369.8c9.9-2.7,20.1-4.1,30.2-4.1,24.4,0,48.7,8.1,68.4,22.7,20.1,14.9,34.2,35.5,40.8,59.4l222.4,802.4c7.8,28.3,4.1,57.9-10.4,83.5-14.9,26.2-39.3,45-68.7,52.9l-224.8,60.9c-37.8,10.2-66.8,40.2-75.9,78.1l-33.8,141.7c-6.6,27.5-38,40.6-62.2,26l-188.5-113.8c-16.7-10.1-35.9-15.4-55.4-15.4s-18.9,1.3-28.1,3.7l-696,188.6c-9.9,2.7-20.1,4.1-30.2,4.1h0Z"/>
      <g class="st80">
        <g>
          <ellipse class="st20" cx="641.3" cy="1333.5" rx="472.6" ry="320.6" transform="translate(-556 464) rotate(-28.3)"/>
          <ellipse class="st18" cx="743.1" cy="1313.7" rx="39.4" ry="98" transform="translate(-610.8 646.7) rotate(-34.3)"/>
          <ellipse class="st23" cx="755.2" cy="1315" rx="121.3" ry="144.4" transform="translate(-609.5 653.8) rotate(-34.3)"/>
        </g>
      </g>
    </g>
    <g id="chatBoxHighlight">
      <ellipse class="st15" cx="921.5" cy="1251.2" rx="138.6" ry="267.6" transform="translate(-434.4 492.2) rotate(-24.4)"/>
      <ellipse class="st16" cx="896.4" cy="1325" rx="117.3" ry="199.3" transform="translate(-683 1070.6) rotate(-46.8)"/>
      <g class="st62">
        <g>
          <ellipse class="st21" cx="641.3" cy="1333.5" rx="472.6" ry="320.6" transform="translate(-556 464) rotate(-28.3)"/>
          <ellipse class="st19" cx="743.1" cy="1313.7" rx="39.4" ry="98" transform="translate(-610.8 646.7) rotate(-34.3)"/>
          <ellipse class="st22" cx="755.2" cy="1315" rx="121.3" ry="144.4" transform="translate(-609.5 653.8) rotate(-34.3)"/>
        </g>
      </g>
      <g class="st64">
        <g>
          <circle class="st27" cx="1049.4" cy="1926.9" r="495"/>
          <ellipse class="st26" cx="855.4" cy="3024.7" rx="1347.2" ry="2239.1" transform="translate(-2246.8 2517.8) rotate(-64.9)"/>
          <ellipse class="st25" cx="1653.6" cy="2480" rx="859.8" ry="796.8" transform="translate(-682.2 628.3) rotate(-17.9)"/>
        </g>
      </g>
      <g class="st76">
        <path class="st52" d="M944,2337.4c-16.7-10.1-91.3,19.9-110.8,19.9s-18.9,1.3-28,3.7l-124.8,30.1c-9.9,2.7-20.1,4.1-30.2,4.1-24.4,0-48.7-8.1-68.4-22.7-20.1-14.9-34.2-35.4-40.8-59.4l-189.4-637.1c-.1,8.4,1,16.8,3.3,25.2l181.2,653.8c5.4,19.5,16.9,36.2,33.3,48.4,16,11.9,35.8,18.5,55.7,18.5s16.6-1.1,24.6-3.3l294.3-81.1h0Z"/>
      </g>
      <g class="st72">
        <path class="st53" d="M617.5,1390.7c-4.7,9.1,4.1,5.5-4.7,10.9-4.2,2.6,7.9-1.4,3.1,0l-245.8,81.1c-5.2,1.5-10.1,3.8-14.6,6.6-10.9,6.8-19.5,17.1-24.3,29-4.8,12.2-5.5,25.3-1.8,37.8l91.6,337c-2.4-3.7-4.2-7.8-5.5-12.1l-99.9-342.2c-3-10.2-2.5-20.9,1.5-30.8,3.9-9.8,10.9-18.2,19.8-23.7,3.7-2.3,7.7-4.1,11.9-5.3l268.6-88.2h0Z"/>
      </g>
    </g>
    <g id="highlightStroke">
      <path class="st4" d="M2122.8,2429.3c-27.5,0-55.5-5-83-14.8-26.4-9.4-51.3-22.8-73.9-39.9-52.8-39.8-86.7-94.3-95.5-153.4-7.6-50.9,2.8-98.1,30.1-136.5,22.4-31.6,50.2-48.2,65.4-56.4,7.3-7.6,24.1-27.5,50.1-72.5,7.3-12.6,14.8-26.3,22.5-41.1-23.2-8.5-44.8-19.4-63.7-32.2-36.6-24.9-66.9-56.8-89.9-94.8-20.3-33.5-34.3-70.9-41.8-111.2-12.9-69.2-5.4-144.7,21-212.5,9.3-24,21-47,34.8-68.8-33.2-11.1-64.2-27.3-92.3-48.3-4.7-3.5-9.3-7.2-13.8-10.9-91.5,52.9-190.4,80.9-286.3,80.9-35.2,0-69.9-3.8-103.1-11.2-33.4-7.4-65.5-18.6-95.5-33.2-30.3-14.8-58.6-33.1-84-54.4-20.6-17.3-39.4-36.8-56-57.9l-18.9,96-50,35.1c-35.4,24.8-77.3,37.9-121.4,37.9s-66.7-7.3-99.2-21.8c-25.8-11.5-50.3-27-72.6-46.2-24-20.6-44.1-44.1-59.7-69.9-16.9-27.9-27.9-57-32.5-86.6-10.8-69.1,5-156.4,27.9-262.6-12.7,2-25.8,3-38.9,3-34.5,0-71.3-6.8-106.4-19.7-33.6-12.3-64.3-29.6-88.8-50-41.9-34.8-72.5-79.4-91.1-132.5-15.1-43.3-21.4-90.3-18.6-139.8,2.4-42.5,11.8-86.6,27.1-127.5,15.6-41.6,37.7-80.4,63.8-112.4,56.4-69.1,129.3-119.4,216.8-149.8,67.5-23.4,142.4-34.7,229.1-34.7s49.8.9,76.3,2.7c32.8,2.2,71,7.1,111.4,12.2,61.3,7.8,130.9,16.6,185.5,16.6s35.8-1.5,43.3-2.7c28.8-18,59.6-27.2,91.8-27.2s41.7,4.1,61,11.8c27.1,10.8,50.7,28.2,70.2,51.7,37,44.7,54.1,103.8,48.2,166.5-1.2,12.9-3.4,25.6-6.5,38.1,24.7,2,48.5,5.9,70.9,11.8,35.7,9.4,68.5,23.8,97.4,42.7,26.3,17.2,49.1,38,68,61.9,20-18.8,41.3-35.7,63.6-50.5,33.6-22.3,69.8-39.2,107.7-50.4,36.1-10.6,73.7-16,111.9-16s98.3,8.7,147.1,25.9c17.9,6.3,35.9,13.8,53.5,22.4,25.4-6.8,49.1-10.1,72-10.1s61.8,6.6,88.5,19.7c16,7.8,30.5,17.7,43.4,29.6,12.8-10.7,26.5-20.8,41.1-30,37.2-23.6,79.4-41.6,125.3-53.8,42.5-11.2,86.6-16.9,131.1-16.9s115.3,9.9,165.7,29.5c51.9,20.2,95.2,49.4,129,86.8,7.8-6.5,15.8-12.6,23.9-18.5,43-31.2,89.1-54.1,137-68,38.4-11.1,80.5-17,121.7-17s92.8,7.5,133.8,21.7c51.4,17.9,94.8,45.6,128.8,82.4,27.4,29.7,47.6,64.2,59.9,102.5,12,37.1,16.4,77,13,118.5-2.7,33.4-10.8,65.8-24.2,96.8,28.2,8.5,52.9,21.8,73.6,39.6,29.9,25.7,50,59.5,58.1,97.7,4.8,22.6,5.3,45.9,1.3,69.2-3.6,21.2-10.7,42.4-21.3,63.1-10.9,21.3-25.4,42.4-44.4,64.4-29.1,33.8-61.9,61.5-74.6,71.9-51,41.4-110.2,76.2-171.3,100.7-69.5,27.8-139.1,41.9-207.1,41.9s-37.6-1.1-56-3.3c-.3,31.8-8.2,58.7-14.4,78,27.2-15.7,55.4-28.2,84.4-37.4,41.6-13.2,87.1-20.2,131.8-20.2s99,8.7,142.4,25c54.2,20.4,98.7,51.8,132.2,93.3,24.1,29.7,41.4,63.4,51.6,100.3,12.9,46.7,13.9,96.9,2.8,149.3-3.9,18.4-9.6,36.5-17.1,54.1,24.2,6.9,45.9,17.6,64.8,31.7,31.9,24,54.3,56.8,64.7,94.8,5.8,21.1,7.6,43.1,5.4,65.3-2,20.4-7.3,40.9-15.9,61.1-8.8,20.8-21,41.2-37.1,62.4-22.9,30.1-49.5,55.7-63.4,68.2-52.4,47.6-115,87.8-181.2,116.3-35.1,15.2-71.1,27-106.9,35.1-39,8.8-78,13.3-115.9,13.3-47.6,0-93.6-7-136.8-20.9-47.5-15.2-91.4-38.7-130.7-69.6-1.2-1-2.5-1.9-3.7-2.9-5.4,12.4-12.3,24.2-20.5,35-13.7,18.1-30.7,33.1-50.4,44.6-25.4,14.8-54.7,23.5-87.3,25.7-5.1.4-10.3.5-15.5.5-28.5,0-58-5.2-87.8-15.6-27.8-9.7-54.7-23.4-79.9-40.8-49.7-34.4-86.2-78.8-105-127.3-11.2,8.1-23.5,15-36.8,20.6-26.6,11.3-56,17.1-87.4,17.1s-87.2-11-124.6-30.9c-21.4-11.4-40.1-25.4-55.8-41.6-10.5,21-21,40.6-31.6,58.7-24.1,41.2-47.7,73.4-72.2,98.4-29.9,30.6-61.2,50.9-95.8,62.2-21.5,7-44.3,10.6-67.6,10.6h0Z"/>
      <path class="st54" d="M3893.2,1993.2c-8.3-30.5-26.3-56.8-51.9-76-19-14.3-41.8-24.2-67.7-29.6l-28.1-5.8c16.9-27.3,28.6-56,34.9-85.8,9.9-46.8,9.1-91.4-2.3-132.7-8.9-32.2-24.1-61.7-45.1-87.6-29.6-36.6-69.1-64.3-117.4-82.5-39.5-14.9-84.4-22.8-130-22.8s-83,6.4-121.2,18.6c-43.1,13.7-84.6,35.5-123.3,64.8-10.4,7.8-20.5,16.2-30.3,24.9,5.5-23.1,11.1-46.1,16.9-69,1.9-7.6,4.3-14.9,6.8-22.7,8.5-26.2,21.3-65.7,9.6-112.3-.2-.8-.4-1.7-.7-2.5,30.9,7.3,63.3,11.1,96.4,11.1h0c63.5,0,128.8-13.2,194.1-39.4,57.9-23.2,113.9-56.1,162.2-95.3,12-9.8,42.9-35.9,70.1-67.5,17.1-19.9,30.1-38.7,39.7-57.5,9-17.5,15-35.3,18-52.9,3.2-19,2.8-37.9-1.1-56.1-6.6-30.7-22.7-57.8-46.7-78.5-18.4-15.8-40.8-27.3-66.7-34.3l-20.8-5.6-17.9,1.8c25.5-39.9,40.3-82.8,43.9-127.8,3-36.9-.9-72.2-11.4-104.9-10.8-33.5-28.4-63.6-52.4-89.5-30-32.5-68.5-57.1-114.5-73-37.3-13-79.6-19.8-122.2-19.8s-76.6,5.4-112,15.6c-44,12.7-86.4,33.8-126.1,62.6-17.1,12.4-33.5,26.2-49.3,41.2-5.3-8.2-11.2-16-17.7-23.5-30.5-35.3-70.7-62.8-119.2-81.7-46.4-18-97.9-27.2-153-27.2s-82.6,5.3-122.2,15.7c-42.5,11.2-81.3,27.8-115.5,49.5-23.5,14.9-44.3,31.8-62.3,50.6-3.3-4.8-6.9-9.3-10.7-13.7-12.8-14.4-28.1-26.1-45.6-34.6-21.9-10.7-46.5-16.1-73.1-16.1s-48.2,4.1-75.5,12.5c-20.2-10.5-40.8-19.5-61.6-26.8-45-15.9-90.6-23.9-135.4-23.9s-69.2,4.9-102,14.6c-34.5,10.1-67.5,25.6-98.2,45.9-32,21.2-61.6,47-88.1,76.8-4.4-8.1-9.3-15.9-14.7-23.5-17.9-25.3-40.6-47-67.3-64.5-25.7-16.9-55-29.7-87.1-38.1-30.6-8-63.9-12.1-99.1-12.1s-8,0-12.1.2c1.9-3.9,3.6-8,5.3-12.1,8.2-20.2,13.4-41.5,15.4-63.2,5.1-53.3-9.2-103.3-40.2-140.8-15.7-18.9-34.6-32.9-56.2-41.5-15.3-6.1-31.9-9.3-48.1-9.3-37.1,0-63.7,15.2-78.3,25.2-8.5,2-25.7,4.7-56.8,4.7-56.8,0-127.5-8.9-189.9-16.8-39.9-5.1-77.6-9.8-109.4-12-25.7-1.7-50.5-2.6-73.9-2.6-82.7,0-153.9,10.7-217.7,32.8-81.3,28.1-149,74.8-201.1,138.8-23.7,29.1-43.8,64.5-58.1,102.6-14.1,37.6-22.8,78.1-25,117.1-2.5,44.9,3.1,87.3,16.7,126.3,16.4,47,43.5,86.3,80.4,117,21.5,17.9,48.7,33.1,78.5,44,31.3,11.5,63.9,17.5,94.3,17.5s59.9-6.3,85.5-18.2c-.1.6-.2,1.1-.3,1.7-2.2,10.7-5.1,24.3-8.3,38.7h0c-24.1,110.5-41.7,200.2-31.3,267.1,3.9,25,13.2,49.9,27.8,73.8,13.7,22.6,31.5,43.3,52.6,61.5,19.7,16.9,41.3,30.7,64,40.7,28.1,12.5,56.7,18.8,85,18.8h0c36.8,0,71.8-10.9,101.3-31.6l38.5-27,33.6-170.3c9.4,20.5,20.6,40.1,33.5,58.4,17.7,25.1,38.6,47.8,62.1,67.6,23.2,19.5,49,36.2,76.8,49.7,27.5,13.4,57,23.6,87.8,30.5,30.7,6.8,62.9,10.3,95.5,10.3,90.2,0,183.7-26.7,270.3-77.1,6.7-3.9,13.3-8,20.1-12.3,9.7,9.5,19.9,18.3,30.8,26.4,25.6,19.1,54,33.9,84.4,43.8,15.1,4.9,30.4,8.6,46,11.1-26.1,31.1-46.7,65.7-61.3,103.2-24.1,61.8-30.9,130.5-19.2,193.4,6.7,36.1,19.3,69.6,37.4,99.5,20.4,33.7,47.1,61.9,79.6,83.9,26.6,18,59.8,31.8,94.2,39.6-12.3,25.2-26.7,53.4-42.3,80.4-31.3,54.2-51.3,75.9-59.6,83.6-12.2,6.4-37.6,19.8-57.7,48.1-21.9,30.9-30.3,69.3-24,111,7.4,49.9,36.5,96.2,81.9,130.5,19.7,14.9,41.4,26.6,64.5,34.8,23.8,8.4,47.7,12.7,71.3,12.7h0c19.6,0,38.7-3,56.8-8.8,29-9.4,55.7-26.9,81.6-53.3,22.5-23,44.4-52.9,67-91.6,22.4-38.3,41.7-78.7,56-110.9,4.7,10.4,10.6,20.3,17.7,29.8,15.4,20.6,35.8,37.7,60.6,50.9,32.4,17.2,70.8,26.8,108.1,26.7,26.6,0,51.4-4.8,73.6-14.3,24.2-10.3,44.3-25.5,59.8-45.3l6.8-8.7,3.6-7c1.1,13.2,3,25.5,5.7,36.8,12.2,50.8,47.6,98.5,99.6,134.4,22.6,15.6,46.6,27.9,71.5,36.5,26.1,9.1,51.7,13.7,76.3,13.7s8.8-.1,13.1-.4c60.3-4.1,94.3-33,112.1-56.6,17.6-23.1,27.2-51.1,28.1-81.4,13.9,15.5,29.2,29.9,45.8,43,35.9,28.4,76.2,49.8,119.6,63.8,39.8,12.8,82.2,19.2,126.1,19.2h0c35.3,0,71.7-4.2,108.2-12.5,33.7-7.6,67.6-18.8,100.7-33.1,62.6-27,121.9-65.1,171.5-110.1,12.9-11.7,37.8-35.6,59-63.5,14.4-18.9,25.1-36.8,32.7-54.9,7.2-16.9,11.6-34,13.3-50.8,1.7-17.9.3-35.7-4.4-52.7h0ZM839.9,658.9c-2.9-7.2-5.3-14.8-7.2-22.5-4.5-19.3-5.1-39.1-1.4-54.2,1.7-7,4.3-12.9,7.4-17,2-2.6,4.8-5.6,11.2-8.5,5-2.3,10.4-4.2,16.1-5.5-9,36.5-17.8,72.4-26.2,107.7h0ZM1283.8,607.3c-10,9.9-19.7,20.2-29.1,31l6.7-33.9c7.6.9,15.2,1.7,22.9,2.3-.2.2-.4.4-.6.5h0ZM2731,1396.9c-.8-4.7-1.8-9.3-3.1-13.9,2.2,0,4.5,0,6.8,0h0c5.1,0,10.3,0,15.4-.2l-16.5,31.8c-.8-6-1.6-11.9-2.6-17.7h0Z"/>
    </g>
    <g id="textBG">
      <path class="st60" d="M2122.8,2429.3c-27.5,0-55.5-5-83-14.8-26.4-9.4-51.3-22.8-73.9-39.9-52.8-39.8-86.7-94.3-95.5-153.4-7.6-50.9,2.8-98.1,30.1-136.5,22.4-31.6,50.2-48.2,65.4-56.4,7.3-7.6,24.1-27.5,50.1-72.5,7.3-12.6,14.8-26.3,22.5-41.1-23.2-8.5-44.8-19.4-63.7-32.2-36.6-24.9-66.9-56.8-89.9-94.8-20.3-33.5-34.3-70.9-41.8-111.2-12.9-69.2-5.4-144.7,21-212.5,9.3-24,21-47,34.8-68.8-33.2-11.1-64.2-27.3-92.3-48.3-4.7-3.5-9.3-7.2-13.8-10.9-91.5,52.9-190.4,80.9-286.3,80.9-35.2,0-69.9-3.8-103.1-11.2-33.4-7.4-65.5-18.6-95.5-33.2-30.3-14.8-58.6-33.1-84-54.4-20.6-17.3-39.4-36.8-56-57.9l-18.9,96-50,35.1c-35.4,24.8-77.3,37.9-121.4,37.9s-66.7-7.3-99.2-21.8c-25.8-11.5-50.3-27-72.6-46.2-24-20.6-44.1-44.1-59.7-69.9-16.9-27.9-27.9-57-32.5-86.6-10.8-69.1,5-156.4,27.9-262.6-12.7,2-25.8,3-38.9,3-34.5,0-71.3-6.8-106.4-19.7-33.6-12.3-64.3-29.6-88.8-50-41.9-34.8-72.5-79.4-91.1-132.5-15.1-43.3-21.4-90.3-18.6-139.8,2.4-42.5,11.8-86.6,27.1-127.5,15.6-41.6,37.7-80.4,63.8-112.4,56.4-69.1,129.3-119.4,216.8-149.8,67.5-23.4,142.4-34.7,229.1-34.7s49.8.9,76.3,2.7c32.8,2.2,71,7.1,111.4,12.2,61.3,7.8,130.9,16.6,185.5,16.6s35.8-1.5,43.3-2.7c28.8-18,59.6-27.2,91.8-27.2s41.7,4.1,61,11.8c27.1,10.8,50.7,28.2,70.2,51.7,37,44.7,54.1,103.8,48.2,166.5-1.2,12.9-3.4,25.6-6.5,38.1,24.7,2,48.5,5.9,70.9,11.8,35.7,9.4,68.5,23.8,97.4,42.7,26.3,17.2,49.1,38,68,61.9,20-18.8,41.3-35.7,63.6-50.5,33.6-22.3,69.8-39.2,107.7-50.4,36.1-10.6,73.7-16,111.9-16s98.3,8.7,147.1,25.9c17.9,6.3,35.9,13.8,53.5,22.4,25.4-6.8,49.1-10.1,72-10.1s61.8,6.6,88.5,19.7c16,7.8,30.5,17.7,43.4,29.6,12.8-10.7,26.5-20.8,41.1-30,37.2-23.6,79.4-41.6,125.3-53.8,42.5-11.2,86.6-16.9,131.1-16.9s115.3,9.9,165.7,29.5c51.9,20.2,95.2,49.4,129,86.8,7.8-6.5,15.8-12.6,23.9-18.5,43-31.2,89.1-54.1,137-68,38.4-11.1,80.5-17,121.7-17s92.8,7.5,133.8,21.7c51.4,17.9,94.8,45.6,128.8,82.4,27.4,29.7,47.6,64.2,59.9,102.5,12,37.1,16.4,77,13,118.5-2.7,33.4-10.8,65.8-24.2,96.8,28.2,8.5,52.9,21.8,73.6,39.6,29.9,25.7,50,59.5,58.1,97.7,4.8,22.6,5.3,45.9,1.3,69.2-3.6,21.2-10.7,42.4-21.3,63.1-10.9,21.3-25.4,42.4-44.4,64.4-29.1,33.8-61.9,61.5-74.6,71.9-51,41.4-110.2,76.2-171.3,100.7-69.5,27.8-139.1,41.9-207.1,41.9s-37.6-1.1-56-3.3c-.3,31.8-8.2,58.7-14.4,78,27.2-15.7,55.4-28.2,84.4-37.4,41.6-13.2,87.1-20.2,131.8-20.2s99,8.7,142.4,25c54.2,20.4,98.7,51.8,132.2,93.3,24.1,29.7,41.4,63.4,51.6,100.3,12.9,46.7,13.9,96.9,2.8,149.3-3.9,18.4-9.6,36.5-17.1,54.1,24.2,6.9,45.9,17.6,64.8,31.7,31.9,24,54.3,56.8,64.7,94.8,5.8,21.1,7.6,43.1,5.4,65.3-2,20.4-7.3,40.9-15.9,61.1-8.8,20.8-21,41.2-37.1,62.4-22.9,30.1-49.5,55.7-63.4,68.2-52.4,47.6-115,87.8-181.2,116.3-35.1,15.2-71.1,27-106.9,35.1-39,8.8-78,13.3-115.9,13.3-47.6,0-93.6-7-136.8-20.9-47.5-15.2-91.4-38.7-130.7-69.6-1.2-1-2.5-1.9-3.7-2.9-5.4,12.4-12.3,24.2-20.5,35-13.7,18.1-30.7,33.1-50.4,44.6-25.4,14.8-54.7,23.5-87.3,25.7-5.1.4-10.3.5-15.5.5-28.5,0-58-5.2-87.8-15.6-27.8-9.7-54.7-23.4-79.9-40.8-49.7-34.4-86.2-78.8-105-127.3-11.2,8.1-23.5,15-36.8,20.6-26.6,11.3-56,17.1-87.4,17.1s-87.2-11-124.6-30.9c-21.4-11.4-40.1-25.4-55.8-41.6-10.5,21-21,40.6-31.6,58.7-24.1,41.2-47.7,73.4-72.2,98.4-29.9,30.6-61.2,50.9-95.8,62.2-21.5,7-44.3,10.6-67.6,10.6h0Z"/>
      <g class="st73">
        <g class="st63">
          <g>
            <circle class="st49" cx="3863.3" cy="1951.5" r="174.3"/>
            <circle class="st47" cx="3698.1" cy="1502.8" r="455.7" transform="translate(20.5 3055.1) rotate(-45)"/>
            <circle class="st48" cx="3619.1" cy="555.3" r="363.6"/>
            <path class="st50" d="M4224.3,1457.6c0,251.7,65.6,164.8-186.1,164.8s-374.1-71.2-519.5-187.5c-196.6-157.2-1.8-433,249.9-433s455.7,204,455.7,455.7h0Z"/>
            <circle class="st51" cx="3844.7" cy="977.1" r="363.6"/>
            <circle class="st42" cx="2924" cy="471.2" r="363.6"/>
            <circle class="st46" cx="2443.2" cy="534.3" r="214.6"/>
            <circle class="st41" cx="2074.9" cy="464.1" r="344.7"/>
            <ellipse class="st40" cx="1713.5" cy="499.7" rx="140" ry="200.9" transform="translate(720.8 1983.1) rotate(-72.5)"/>
            <ellipse class="st45" cx="1543" cy="253.1" rx="194.1" ry="263.1" transform="translate(447.5 1368.8) rotate(-54.8)"/>
            <ellipse class="st44" cx="1561.5" cy="223.2" rx="71.5" ry="263.1" transform="translate(319.3 1195.3) rotate(-46.2)"/>
            <circle class="st43" cx="3855.6" cy="2196.5" r="254.2" transform="translate(-423.9 3369.7) rotate(-45)"/>
          </g>
        </g>
      </g>
      <path d="M3893.2,1993.2c-8.3-30.5-26.3-56.8-51.9-76-19-14.3-41.8-24.2-67.7-29.6l-28.1-5.8c16.9-27.3,28.6-56,34.9-85.8,9.9-46.8,9.1-91.4-2.3-132.7-8.9-32.2-24.1-61.7-45.1-87.6-29.6-36.6-69.1-64.3-117.4-82.5-39.5-14.9-84.4-22.8-130-22.8s-83,6.4-121.2,18.6c-43.1,13.7-84.6,35.5-123.3,64.8-10.4,7.8-20.5,16.2-30.3,24.9,5.5-23.1,11.1-46.1,16.9-69,1.9-7.6,4.3-14.9,6.8-22.7,8.5-26.2,21.3-65.7,9.6-112.3-.2-.8-.4-1.7-.7-2.5,30.9,7.3,63.3,11.1,96.4,11.1h0c63.5,0,128.8-13.2,194.1-39.4,57.9-23.2,113.9-56.1,162.2-95.3,12-9.8,42.9-35.9,70.1-67.5,17.1-19.9,30.1-38.7,39.7-57.5,9-17.5,15-35.3,18-52.9,3.2-19,2.8-37.9-1.1-56.1-6.6-30.7-22.7-57.8-46.7-78.5-18.4-15.8-40.8-27.3-66.7-34.3l-20.8-5.6-17.9,1.8c25.5-39.9,40.3-82.8,43.9-127.8,3-36.9-.9-72.2-11.4-104.9-10.8-33.5-28.4-63.6-52.4-89.5-30-32.5-68.5-57.1-114.5-73-37.3-13-79.6-19.8-122.2-19.8s-76.6,5.4-112,15.6c-44,12.7-86.4,33.8-126.1,62.6-17.1,12.4-33.5,26.2-49.3,41.2-5.3-8.2-11.2-16-17.7-23.5-30.5-35.3-70.7-62.8-119.2-81.7-46.4-18-97.9-27.2-153-27.2s-82.6,5.3-122.2,15.7c-42.5,11.2-81.3,27.8-115.5,49.5-23.5,14.9-44.3,31.8-62.3,50.6-3.3-4.8-6.9-9.3-10.7-13.7-12.8-14.4-28.1-26.1-45.6-34.6-21.9-10.7-46.5-16.1-73.1-16.1s-48.2,4.1-75.5,12.5c-20.2-10.5-40.8-19.5-61.6-26.8-45-15.9-90.6-23.9-135.4-23.9s-69.2,4.9-102,14.6c-34.5,10.1-67.5,25.6-98.2,45.9-32,21.2-61.6,47-88.1,76.8-4.4-8.1-9.3-15.9-14.7-23.5-17.9-25.3-40.6-47-67.3-64.5-25.7-16.9-55-29.7-87.1-38.1-30.6-8-63.9-12.1-99.1-12.1s-8,0-12.1.2c1.9-3.9,3.6-8,5.3-12.1,8.2-20.2,13.4-41.5,15.4-63.2,5.1-53.3-9.2-103.3-40.2-140.8-15.7-18.9-34.6-32.9-56.2-41.5-15.3-6.1-31.9-9.3-48.1-9.3-37.1,0-63.7,15.2-78.3,25.2-8.5,2-25.7,4.7-56.8,4.7-56.8,0-127.5-8.9-189.9-16.8-39.9-5.1-77.6-9.8-109.4-12-25.7-1.7-50.5-2.6-73.9-2.6-82.7,0-153.9,10.7-217.7,32.8-81.3,28.1-149,74.8-201.1,138.8-23.7,29.1-43.8,64.5-58.1,102.6-14.1,37.6-22.8,78.1-25,117.1-2.5,44.9,3.1,87.3,16.7,126.3,16.4,47,43.5,86.3,80.4,117,21.5,17.9,48.7,33.1,78.5,44,31.3,11.5,63.9,17.5,94.3,17.5s59.9-6.3,85.5-18.2c-.1.6-.2,1.1-.3,1.7-2.2,10.7-5.1,24.3-8.3,38.7h0c-24.1,110.5-41.7,200.2-31.3,267.1,3.9,25,13.2,49.9,27.8,73.8,13.7,22.6,31.5,43.3,52.6,61.5,19.7,16.9,41.3,30.7,64,40.7,28.1,12.5,56.7,18.8,85,18.8h0c36.8,0,71.8-10.9,101.3-31.6l38.5-27,33.6-170.3c9.4,20.5,20.6,40.1,33.5,58.4,17.7,25.1,38.6,47.8,62.1,67.6,23.2,19.5,49,36.2,76.8,49.7,27.5,13.4,57,23.6,87.8,30.5,30.7,6.8,62.9,10.3,95.5,10.3,90.2,0,183.7-26.7,270.3-77.1,6.7-3.9,13.3-8,20.1-12.3,9.7,9.5,19.9,18.3,30.8,26.4,25.6,19.1,54,33.9,84.4,43.8,15.1,4.9,30.4,8.6,46,11.1-26.1,31.1-46.7,65.7-61.3,103.2-24.1,61.8-30.9,130.5-19.2,193.4,6.7,36.1,19.3,69.6,37.4,99.5,20.4,33.7,47.1,61.9,79.6,83.9,26.6,18,59.8,31.8,94.2,39.6-12.3,25.2-26.7,53.4-42.3,80.4-31.3,54.2-51.3,75.9-59.6,83.6-12.2,6.4-37.6,19.8-57.7,48.1-21.9,30.9-30.3,69.3-24,111,7.4,49.9,36.5,96.2,81.9,130.5,19.7,14.9,41.4,26.6,64.5,34.8,23.8,8.4,47.7,12.7,71.3,12.7h0c19.6,0,38.7-3,56.8-8.8,29-9.4,55.7-26.9,81.6-53.3,22.5-23,44.4-52.9,67-91.6,22.4-38.3,41.7-78.7,56-110.9,4.7,10.4,10.6,20.3,17.7,29.8,15.4,20.6,35.8,37.7,60.6,50.9,32.4,17.2,70.8,26.8,108.1,26.7,26.6,0,51.4-4.8,73.6-14.3,24.2-10.3,44.3-25.5,59.8-45.3l6.8-8.7,3.6-7c1.1,13.2,3,25.5,5.7,36.8,12.2,50.8,47.6,98.5,99.6,134.4,22.6,15.6,46.6,27.9,71.5,36.5,26.1,9.1,51.7,13.7,76.3,13.7s8.8-.1,13.1-.4c60.3-4.1,94.3-33,112.1-56.6,17.6-23.1,27.2-51.1,28.1-81.4,13.9,15.5,29.2,29.9,45.8,43,35.9,28.4,76.2,49.8,119.6,63.8,39.8,12.8,82.2,19.2,126.1,19.2h0c35.3,0,71.7-4.2,108.2-12.5,33.7-7.6,67.6-18.8,100.7-33.1,62.6-27,121.9-65.1,171.5-110.1,12.9-11.7,37.8-35.6,59-63.5,14.4-18.9,25.1-36.8,32.7-54.9,7.2-16.9,11.6-34,13.3-50.8,1.7-17.9.3-35.7-4.4-52.7h0ZM839.9,658.9c-2.9-7.2-5.3-14.8-7.2-22.5-4.5-19.3-5.1-39.1-1.4-54.2,1.7-7,4.3-12.9,7.4-17,2-2.6,4.8-5.6,11.2-8.5,5-2.3,10.4-4.2,16.1-5.5-9,36.5-17.8,72.4-26.2,107.7h0ZM1283.8,607.3c-10,9.9-19.7,20.2-29.1,31l6.7-33.9c7.6.9,15.2,1.7,22.9,2.3-.2.2-.4.4-.6.5h0ZM2731,1396.9c-.8-4.7-1.8-9.3-3.1-13.9,2.2,0,4.5,0,6.8,0h0c5.1,0,10.3,0,15.4-.2l-16.5,31.8c-.8-6-1.6-11.9-2.6-17.7h0Z"/>
    </g>
    <g id="lipShadows">
      <g class="st77">
        <g class="st61">
          <image class="st10" width="233" height="359" transform="translate(571.9 1531.9)" xlink:href="LogoTeaseMeDarkMode copy-1.png"/>
        </g>
        <path class="st9" d="M613.8,1616.5c0,1.6,0,3.2,0,4.8.1-1.1.9-3.5,0-4.8Z"/>
        <g class="st61">
          <image class="st10" width="1082" height="650" transform="translate(589.9 1656.9)" xlink:href="LogoTeaseMeDarkMode copy-2.png"/>
        </g>
      </g>
      <path class="st79" d="M726.2,1790.5c2.6.6,2.7-1,3.5-2.8,2.4-5.4,3.6-16.7,5.6-23.2,3.3-10.6,6.6-23.3,10.5-33.2,4.4-11.2,41.2-76.3,39.5-80.9l-45.4-20.1c-30.6-17.9-56.6-44.3-72.9-76.2-7.4-14.6-11-29-16.3-44.4,0-1,1.4-4.3-.6-5.6-4.2-2.8-10.1,13.1-11.5,16.6-31.7,83.9-5.8,178.1,55.6,241.5,3.7,3.8,29.4,27.6,31.9,28.2h0Z"/>
      <path class="st79" d="M631.8,1982.1c1,4.3,5.6,2.6,8.3,2.8,51.4,3.3,116.4-11.1,163.5-31.5,56.1-24.2,89.9-74.2,149.7-95.5,70-25,121.9,8.1,197.4-24.6,58.6-25.4,96.1-84.9,154.7-110.3,69.4-30.1,132.2-13.9,199.9-30.3,33.1-8,116.2-53.2,138.7-78.6,1.2-.3,1.8-.5,1.8-.5-.9,0-1.8,0-2.7,0-6.1-1.6-23.9-1.7-30.8-2.8-27.3-4.2-52.8-12.1-77.4-22.2-20.2-8.8-39.7-19.1-58.7-29.2-109.6-58.5-226.2-157.8-340.9-55-50.5,55.1-40.3,58.8-76.6,72-28.7,10.4-31.3,6.7-67.7-.2-7.2-1.8-14.5-3.4-22-4.3-3.9-.5-7.8-.9-11.6-1.1-1.2-.2-2.4-.3-3.7-.5-5-.2-9.8-.2-14.5,0-19.7.3-37.3,3.8-53,9.7-95.7,34.8-120.1,155.4-158.9,251.2-22.2,54.8-44.2,111.2-92.4,148.3l-3.2,2.5h0Z"/>
      <path class="st24" d="M636.3,1569.8c0,1.6,0,3.2,0,4.8.1-1.1.9-3.5,0-4.8Z"/>
      <path class="st79" d="M1532.5,1713.3c-83.3,35.6-122.2,30.1-163.5,48-84.1,36.6-106.9,123.1-197.7,156.8-78.9,29.3-146.1-6.9-224.2,8.5-28.7,5.7-45.9,14.6-71.5,25.5-.8.4-1.8.6-2.6.9-6.5,2.8-14.7,4.9-21.4,7.7-2.4,1-4.5,2.3-6.6,3.9-1.3.4-2.6,1-3.9,1.4-8.8,2.9-17.2,7.7-24.8,10.4l-22,8c-1.5.6-7.1,1.3-10.2,2.2-46,13.4-93.3,20.8-141.2,16.2,0,0,272.5,286.5,607.3,179.1,334.8-107.4,357.4-354.1,368.4-400.3,11-46.2,23.6-97.7,33-152.1,0,0-35.9,48.1-119.2,83.7h0Z"/>
    </g>
    <g id="textBGHighlights">
      <g class="st67">
        <g>
          <g class="st75">
            <path class="st30" d="M3543.2,1493.6c57.4,10,111.3,38.4,152.8,79.3,21.1,20.7,38.6,45.1,52.2,71.3,13.5,26.4,23.3,54.7,29.5,83.6,5.6,31.9-39.7,41.8-47.9,10.3-6.5-49.8-24.4-98.4-56.8-137.1-25.9-31.4-59.6-56.1-96.9-72.4-11.9-5.2-24.1-9.7-36.7-12.8-14.3-3.2-10.9-23.8,3.7-22.1h0Z"/>
          </g>
          <g class="st75">
            <path class="st30" d="M3468,517c51.4,3.3,100.9,25.5,139,60.2,4.7,4.2,10.3,10,14.7,14.6,1.1,1.2,3.5,4,4.5,5.2,7.1,8,13.5,16.8,19.5,25.6,14.3,21.8,25.6,45.5,33.8,70,4.4,12.8-2.5,26.8-15.3,31.1-12.8,4.3-26.7-2.6-31-15.4-7.7-33-20.5-64.7-40.9-91.9-5-6.4-10.6-13.3-16.4-19.1-21.6-22.5-49.4-39.8-79.1-50.2-9.8-3.4-19.9-6.2-30.2-7.8-14.5-1.8-13.3-22.5,1.4-22.4h0Z"/>
          </g>
          <g class="st75">
            <path class="st30" d="M3694.6,942.2c34.6.6,68,18.1,89.7,45,10.1,12.6,18.1,27.1,23.7,42,10.5,30.9-33,47.7-46,17.7-.6-1.6-1.1-3.3-1.3-4.9-1.6-10.1-4.4-19.8-8.6-29-3.3-7.1-7.5-13.8-12.5-19.7-11.6-13.9-28.6-24.3-46.4-28.7-14.8-1.5-13.6-22.7,1.4-22.4h0Z"/>
          </g>
          <g class="st75">
            <path class="st30" d="M3744.4,1913.8c33.4-9,70.4-1.6,98.7,18.3,13.2,9.3,24.9,21,34.5,33.8,18.7,26.8-18.4,55-39.2,29.8-1-1.3-1.9-2.9-2.6-4.4-4.4-9.3-9.7-17.8-16.4-25.4-5.1-5.9-11-11.2-17.5-15.5-15-10.1-34.3-15.4-52.5-14.7-14.6,2.7-19.3-18.1-4.9-21.9h0Z"/>
          </g>
          <g class="st75">
            <path class="st30" d="M1415.1,249.3c27.9-8.5,59.1-5.1,84.5,9.5,12.9,7.3,23.9,17.3,33.4,28.5,20.7,25.1,33.2,57.1,40.9,88.1,3.4,13.1-4.6,26.5-17.7,29.8-14.2,3.7-28.8-6.4-30.3-20.9-2.8-22.9-7.4-45-17.6-65.4-.5-.9-1.4-2.8-1.8-3.7-.4-.7-2.9-5-3.4-5.8-1.9-2.9-3.9-6-6.1-8.7-12.9-17.1-32.6-28-54-30.3-6.9-.7-14.1-.8-21,.3h-.3c-.1,0,0,0-.1,0h-2.8c-12.7,0-15.4-17.5-3.4-21.5h0Z"/>
          </g>
          <g class="st75">
            <path class="st30" d="M1560.5,500.1c37.8-3.9,76-1.1,113.1,6.9,47.4,10.3,93.3,31.4,129.8,63.9,2.3,1.9,5.2,4.6,7.3,6.8,4.4,4,9.9,9.9,13.9,14.4,4.1,4.3,9.1,10.8,12.8,15.4,8.5,10.5,6.9,25.9-3.6,34.5-11.1,9-27.8,6.5-35.7-5.4-1.9-2.8-5.7-8.4-7.5-11.2-1.5-2-5.8-7.7-7.4-9.8-2.5-3-5.4-6.4-8-9.4-1.8-1.9-6.7-6.9-8.5-8.9-2.3-2.1-6.9-6.5-9.1-8.4-3-2.5-6.5-5.6-9.6-7.9-2.4-1.8-7.6-5.9-10.1-7.4-22-15.4-46.9-27-72.6-35.1-30.4-9.6-62.4-15-94.4-15.8-2.9,0-6.1,0-8.8,0-14.2-.2-15.6-20.2-1.5-22.4h0Z"/>
          </g>
          <g class="st75">
            <path class="st30" d="M2329.4,550.4c64.5-23,152.2-30.3,199.5,29.6,3.3,4.2,6.3,8.5,9,13,16.6,28.4-23.1,53.5-41.5,26.2-17.9-45-67.5-54.8-112.1-53.3-16.1.6-32.3,2.5-48.1,6h-.6c-13.7,2.7-19.2-16.3-6.2-21.4h0Z"/>
          </g>
          <g class="st75">
            <path class="st30" d="M1861.1,626.7c-5,.9-8.5-4.5-5.5-8.9,1.6-2.4,3.5-4.3,5.4-6.2,5.5-5.5,11.4-10.5,17.5-15.4,106.6-83.5,265.7-128.6,394.4-72.2,14.2,6.3,27.9,13.7,40.6,22.5,2.4,1.7,2.9,4.9,1.3,7.3-1.3,1.8-3.6,2.6-5.6,2-14.5-3.9-28.6-7.7-43.2-10.9-51.9-11.5-105.2-15.3-158-9.7-77.3,8.5-152.6,35.8-220.4,74.2-7.8,4.5-15.6,9.1-22.7,14.5-.2.1-.3.2-.3.2,0,0,0,0,.1-.2,1.1-2.1.9-5.1-1.8-6.9-1.9-1-2.4-.9-3.6-.7,7.1-1,8.7,9.1,1.8,10.5h0Z"/>
          </g>
          <g class="st75">
            <path class="st30" d="M2747.7,496.8c79.8-17.5,169.9-17.7,247,12.8,49.1,19.3,92.1,53.5,120.9,97.9,16.8,27.7-21.7,53.4-40.8,27-11-19.4-24.5-37.4-41-52.4-72.4-66.1-184.6-76.6-278.5-63.9l-2.7.4h-.4c-14.2,1.9-18.3-18-4.4-21.9h0Z"/>
          </g>
        </g>
      </g>
    </g>
    <g id="text">
      <path class="st70" d="M3043.3,1441.6c-36.8-23.2-145.8-63.5-180.5-27.3l-269.5,519.8-7.4-156.4c-2.5-53.5-4.6-108.2-7.6-161.9-1.9-35-2.2-83.4-7.9-116.3-7.9-45.6-91.2-78.2-131.1-87.6-164.9-38.6-411.6,16.9-479,189.9-31.4,80.5-22,185.7,54.4,237.6,32.7,22.2,102.9,39.4,136.8,13.5,29.7-22.7-1.5-34.9-14.7-52.5-39.4-52.4-40.5-131-12.1-188.8,35.7-72.5,124.2-124.9,204.4-125.4-30.8,168.2-86.6,336.8-157.8,492-33.8,73.7-97.4,205-159.4,255.1-19.5,15.7-41.8,13.1-36.6,48.3,7,47.2,75.8,90.5,122.7,75.3,56.1-18.2,119.9-158.6,142.4-211.9,80.4-190.3,131.9-403.6,171.8-606.1,5.5.7,6.4,16.4,7,21.2,27.3,192.6,14.6,399.6,23.4,594.2,5.6,44.6,99.9,64.1,123.8,33.6l336.3-652.8c-28.8,141.4-61.9,282.2-85.6,424.7-11.5,68.9-43.5,232.6-28.7,293.8,12,49.9,88.6,98.4,138.8,94.9,48.7-3.3,26.6-39.7,24.7-69.8-4.4-70.3,12.9-172.6,23.2-244.1,22.5-155.9,55.4-318.4,94-471,15.2-60,40.2-80.4-25.6-121.9h0Z"/>
      <path class="st70" d="M3704.5,2084.6c-17.7,13.4-31.9,33.6-49.1,49.2-124.2,113.1-374.6,171.4-383.1-64.1,115.4-4.1,321.9-90.7,348.2-215.4,34.2-161.4-140.9-211.2-266-171.4-218.8,69.7-361,437.7-161.1,595.4,143.6,113.3,352.8,43.7,475.1-67.4,28.4-25.8,112.6-110.4,35.9-126.3h0ZM3428.7,1745.7c26.1-9.2,57.6-3.2,64.6,26.3,23.8,99.7-120.9,234.7-217.2,241.2,11-75.6,75.9-240.4,152.6-267.5h0Z"/>
      <path class="st36" d="M3048.8,1410.8c-36.8-23.2-145.8-63.5-180.5-27.3l-269.5,519.8-7.4-156.4c-2.5-53.5-4.6-108.2-7.6-161.9-1.9-35-2.2-83.4-7.9-116.3-7.9-45.6-91.2-78.2-131.1-87.6-164.9-38.6-411.6,16.9-479,189.9-31.4,80.5-22,185.7,54.4,237.6,32.7,22.2,102.9,39.4,136.8,13.5,29.7-22.7-1.5-34.9-14.7-52.5-39.4-52.4-40.5-131-12.1-188.8,35.7-72.5,124.2-124.9,204.4-125.4-30.8,168.2-86.6,336.8-157.8,492-33.8,73.7-97.4,205-159.4,255.1-19.5,15.7-41.8,13.1-36.6,48.3,7,47.2,75.8,90.5,122.7,75.3,56.1-18.2,119.9-158.6,142.4-211.9,80.4-190.3,131.9-403.6,171.8-606.1,5.5.7,6.4,16.4,7,21.2,27.3,192.6,14.6,399.6,23.4,594.2,5.6,44.6,99.9,64.1,123.8,33.6l336.3-652.8c-28.8,141.4-61.9,282.2-85.6,424.7-11.5,68.9-43.5,232.6-28.7,293.8,12,49.9,88.6,98.4,138.8,94.9,48.7-3.3,26.6-39.7,24.7-69.8-4.4-70.3,12.9-172.6,23.2-244.1,22.5-155.9,55.4-318.4,94-471,15.2-60,40.2-80.4-25.6-121.9h0Z"/>
      <path class="st36" d="M3709.9,2053.8c-17.7,13.4-31.9,33.6-49.1,49.2-124.2,113.1-374.6,171.4-383.1-64.1,115.4-4.1,321.9-90.7,348.2-215.4,34.2-161.4-140.9-211.2-266-171.4-218.8,69.7-361,437.7-161.1,595.4,143.6,113.3,352.8,43.7,475.1-67.4,28.4-25.8,112.6-110.4,35.9-126.3h0ZM3434.1,1714.8c26.1-9.2,57.6-3.2,64.6,26.3,23.8,99.7-120.9,234.7-217.2,241.2,11-75.6,75.9-240.4,152.6-267.5h0Z"/>
      <path class="st70" d="M1375.5,523.7c23.1-27.3,31.2-80.4,7.4-109.1-16.3-19.7-27.8.5-42.4,6.4-94.2,37.9-306.1-6.7-414-14-144.4-9.8-296.9,7-394.1,126.2-63.9,78.3-87.2,228.2-1.9,299.2,38.6,32.1,132.6,57.4,160.2,2-69.9-89.2-81.5-255.6,36.5-310.1,68.9-31.8,140.7-17.2,212.6-8-39.1,157.5-79.1,315.2-111.3,474.4-13.4,66.1-48.2,203.2-38.7,264.6,8.6,55.3,96.3,121.8,148,85.5l156.7-794.3c80.2,9.5,220.4,49.1,281.1-22.5h0Z"/>
      <path class="st36" d="M1402.7,505.2c23.1-27.3,31.2-80.4,7.4-109.1-16.3-19.7-27.8.5-42.4,6.4-94.2,37.9-306.1-6.7-414-14-144.4-9.8-296.9,7-394.1,126.2-63.9,78.3-87.2,228.2-1.9,299.2,38.6,32.1,132.6,57.4,160.2,2-69.9-89.2-81.5-255.6,36.5-310.1,68.9-31.8,140.7-17.2,212.6-8-39.1,157.5-79.1,315.2-111.3,474.4-13.4,66.1-48.2,203.3-38.7,264.6,8.6,55.3,96.3,121.8,148,85.5l156.7-794.3c80.2,9.5,220.4,49.1,281.1-22.5h0Z"/>
      <path class="st70" d="M3615.9,1091.8c0,0-.2,0-.3,0-3-1.3-6.4-2.5-10.3-3.6-9.1.9-33.4,34.1-43.5,43.5-69,64.3-165.3,112.2-262.2,103.4-9.7-.9-18.8-2.6-27.5-5.1-60.5-23-92-85.7-88.5-153.3,124-7.3,339.5-96.1,351-239,6.7-82.6-42.9-130.4-107.8-150.1-51.1-18.5-113.8-18.5-166.1-3.3-224.2,64.9-369.4,441.3-164.9,599.7,25.8,20,53.7,34,82.7,43.1,126.8,45.2,278.9-9.8,380.4-92.3,31.7-25.8,138.1-121.3,56.8-143.1h0ZM3391,829.4c-20.1,83.4-116.6,167.2-202.4,185.4,15.5-82.1,57.5-192.6,123.4-244.8,22.9-18.2,43.5-24.6,59.4-21.8,20.4,10.5,29.3,40.3,19.5,81.2h0Z"/>
      <path class="st36" d="M3657.5,1081.2c0,0-.2,0-.3,0-3-1.3-6.4-2.5-10.3-3.6-9.1.9-33.4,34.1-43.5,43.5-69,64.3-165.3,112.2-262.2,103.4-9.7-.9-18.8-2.6-27.5-5.1-60.5-23-92-85.7-88.5-153.3,124-7.3,339.5-96.1,351-239,6.7-82.6-42.9-130.4-107.8-150.1-51.1-18.5-113.8-18.5-166.1-3.3-224.2,64.9-369.4,441.3-164.9,599.7,25.8,20,53.7,34,82.7,43.1,126.8,45.2,278.9-9.8,380.4-92.3,31.7-25.8,138.1-121.3,56.8-143.1h0ZM3432.6,818.7c-20.1,83.4-116.6,167.2-202.4,185.4,15.5-82.1,57.5-192.6,123.4-244.8,22.9-18.2,43.5-24.6,59.4-21.8,20.4,10.5,29.3,40.3,19.5,81.2h0Z"/>
      <path class="st70" d="M2501.7,845.7c-6.2,142,173.2,188.3,245.1,278.6,69.7,87.4-12.3,150.2-103.5,122.1-39.8-12.3-73.7-44.9-90.8-82.6-8.4-18.6-18.8-87.6-28.2-92.3-29.5-14.6-80.6,32.2-93.7,57.2-18.2,34.7-5.6,44.7-46.3,70.5-93.4,59.2-89.1-30.7-82.6-97.5,5.5-57,19.5-119.5,31.3-175.8,10.6-50.9,33.3-115.4,39.4-164,7.7-62.2-46.9-54.1-88.7-39.6-13.3,4.6-22.8,12.8-35.8,15.6-96.9-67.3-218.8-91.7-322.4-23-126.9,84.1-183.4,253.5-187.9,399.9-66.2,74.2-169.8,128.1-271.7,120.7-86.5-6.3-129.7-75.7-132.9-156.6,1.2-4.7,5-4.3,8.7-5.3,69.9-18.8,120.1-20.9,189.1-56,226.3-115.1,204.2-369.7-64.4-342.9-131.5,13.1-239.9,140-281.6,257.4-116.3,327.8,178.3,508.8,459.1,345.2,40-23.3,74-53.3,108.7-83.5,53.3,175.7,268.6,187.7,352,27.5l34.7-65.1c-2.4,59.1,17.4,115.6,66.8,149.9,85.7,59.5,168.4,4.8,233.7-55.5,19.6,12.7,32.8,31.4,53,44.3,131,83.7,374,52.6,425.7-112.3,53.2-169.8-141.6-230.5-234-320-30.5-29.5-53.2-70.7-14.4-104.9,41.6-36.7,110.5-16.6,146.7,18.1,27.7,26.5,37.4,59.7,54.5,92.5,75,6.5,129.5-76.7,75.4-139.3-107-123.8-436.7-76.4-445.1,116.7h0ZM1486.8,751.5c76.3-30.6,79.5,44.8,59.4,97-31.3,81.6-120.3,154-206.6,168.4,7.8-75.9,72.7-235.5,147.1-265.4ZM2164.8,912.3c-21.5,80.9-80.3,250.2-153.9,294.4-26.4,15.8-52.8,22.2-74.5-4-37.1-44.7-17.5-174.3-4.1-228.8,16.7-68.3,70.4-203.7,149.7-215.9,18.4-2.8,35.9,1.3,52.1,10.3,11.1,6.2,44.9,38.3,48.8,49.3,4.9,13.6-13.1,76.3-18,94.7h0Z"/>
      <path class="st36" d="M2527.4,825.1c-6.2,142,173.2,188.3,245.1,278.6,69.7,87.4-12.3,150.2-103.5,122.1-39.8-12.3-73.7-44.9-90.8-82.6-8.4-18.6-18.8-87.6-28.2-92.3-29.5-14.6-80.6,32.2-93.7,57.2-18.2,34.7-5.6,44.7-46.3,70.5-93.4,59.2-89.1-30.7-82.6-97.5,5.5-57,19.5-119.5,31.3-175.8,10.6-50.9,33.3-115.4,39.4-164,7.7-62.2-46.9-54.1-88.7-39.6-13.3,4.6-22.8,12.8-35.8,15.6-96.9-67.3-218.8-91.7-322.4-23-126.9,84.1-183.4,253.5-187.9,399.9-66.2,74.2-169.8,128.1-271.7,120.7-86.5-6.3-129.7-75.7-132.9-156.6,1.2-4.7,5-4.3,8.7-5.3,69.9-18.8,120.1-20.9,189.1-56,226.3-115.1,204.2-369.7-64.4-342.9-131.5,13.1-239.9,140-281.6,257.4-116.3,327.8,178.3,508.8,459.1,345.2,40-23.3,74-53.3,108.7-83.5,53.3,175.7,268.6,187.7,352,27.5l34.7-65.1c-2.4,59.1,17.4,115.6,66.8,149.9,85.7,59.5,168.4,4.8,233.7-55.5,19.6,12.7,32.8,31.4,53,44.3,131,83.7,374,52.6,425.7-112.3,53.2-169.8-141.6-230.5-234-320-30.5-29.5-53.2-70.7-14.4-104.9,41.6-36.7,110.5-16.6,146.7,18.1,27.7,26.5,37.4,59.7,54.5,92.5,75,6.5,129.5-76.7,75.4-139.3-107-123.8-436.7-76.4-445.1,116.7h0ZM1512.4,730.9c76.3-30.6,79.5,44.8,59.4,97-31.3,81.6-120.3,154-206.6,168.4,7.8-75.9,72.7-235.5,147.1-265.4ZM2190.5,891.7c-21.5,80.9-80.3,250.2-153.9,294.4-26.4,15.8-52.8,22.2-74.5-4-37.1-44.7-17.5-174.3-4.1-228.8,16.7-68.3,70.4-203.7,149.7-215.9,18.4-2.8,35.9,1.3,52.1,10.3,11.1,6.2,44.9,38.3,48.8,49.3,4.9,13.6-13.1,76.3-18,94.7h0Z"/>
      <path class="st58" d="M1468.7,476.9c23.1-27.3,31.2-80.4,7.4-109.1-16.3-19.7-27.8.5-42.4,6.4-94.2,37.9-306.1-6.7-414-14-144.4-9.8-296.9,7-394.1,126.2-63.9,78.3-87.2,228.2-1.9,299.2,38.6,32.1,132.6,57.4,160.2,2-69.9-89.2-81.5-255.6,36.5-310.1,68.9-31.8,140.7-17.2,212.6-8-39.1,157.5-79.1,315.2-111.3,474.4-13.4,66.1-48.2,203.2-38.7,264.6,8.6,55.3,96.3,121.8,148,85.5l156.7-794.3c80.2,9.5,220.4,49.1,281.1-22.5h0Z"/>
      <path class="st38" d="M3709.1,1045.1c0,0-.2,0-.3,0-3-1.3-6.4-2.5-10.3-3.6-9.1.9-33.4,34.1-43.5,43.5-69,64.3-165.3,112.2-262.2,103.4-9.7-.9-18.8-2.6-27.5-5.1-60.5-23-92-85.7-88.5-153.3,124-7.3,339.5-96.1,351-239,6.7-82.6-42.9-130.4-107.8-150.1-51.1-18.5-113.8-18.5-166.1-3.3-224.2,64.9-369.4,441.3-164.9,599.7,25.8,20,53.7,34,82.7,43.1,126.8,45.2,278.9-9.8,380.4-92.3,31.7-25.8,138.1-121.3,56.8-143.1h0ZM3484.2,782.6c-20.1,83.4-116.6,167.2-202.4,185.4,15.5-82.1,57.5-192.6,123.4-244.8,22.9-18.2,43.5-24.6,59.4-21.8,20.4,10.5,29.3,40.3,19.5,81.2h0Z"/>
      <path class="st37" d="M2594.9,798.9c-6.2,142,173.2,188.3,245.1,278.6,69.7,87.4-12.3,150.2-103.5,122.1-39.8-12.3-73.7-44.9-90.8-82.6-8.4-18.6-18.8-87.6-28.2-92.3-29.5-14.6-80.6,32.2-93.7,57.2-18.2,34.7-5.6,44.7-46.3,70.5-93.4,59.2-89.1-30.7-82.6-97.5,5.5-57,19.5-119.5,31.3-175.8,10.6-50.9,33.3-115.4,39.4-164,7.7-62.2-46.9-54.1-88.7-39.6-13.3,4.6-22.8,12.8-35.8,15.6-96.9-67.3-218.8-91.7-322.4-23-126.9,84.1-183.4,253.5-187.9,399.9-66.2,74.2-169.8,128.1-271.7,120.7-86.5-6.3-129.7-75.7-132.9-156.6,1.2-4.7,5-4.3,8.7-5.3,69.9-18.8,120.1-20.9,189.1-56,226.3-115.1,204.2-369.7-64.4-342.9-131.5,13.1-239.9,140-281.6,257.4-116.3,327.8,178.3,508.8,459.1,345.2,40-23.3,74-53.3,108.7-83.5,53.3,175.7,268.6,187.7,352,27.5l34.7-65.1c-2.4,59.1,17.4,115.6,66.8,149.9,85.7,59.5,168.4,4.8,233.7-55.5,19.6,12.7,32.8,31.4,53,44.3,131,83.7,374,52.6,425.7-112.3,53.2-169.8-141.6-230.5-234-320-30.5-29.5-53.2-70.7-14.4-104.9,41.6-36.7,110.5-16.6,146.7,18.1,27.7,26.5,37.4,59.7,54.5,92.5,75,6.5,129.5-76.7,75.4-139.3-107-123.8-436.7-76.4-445.1,116.7h0ZM1580,704.7c76.3-30.6,79.5,44.8,59.4,97-31.3,81.6-120.3,154-206.6,168.4,7.8-75.9,72.7-235.5,147.1-265.4h0ZM2258,865.5c-21.5,80.9-80.3,250.2-153.9,294.4-26.4,15.8-52.8,22.2-74.5-4-37.1-44.7-17.5-174.3-4.1-228.8,16.7-68.3,70.4-203.7,149.7-215.9,18.4-2.8,35.9,1.3,52.1,10.3,11.1,6.2,44.9,38.3,48.8,49.3,4.9,13.6-13.1,76.3-18,94.7h0Z"/>
      <path class="st35" d="M1449.4,450c23.1-27.3,31.2-80.4,7.4-109.1-16.3-19.7-27.8.5-42.4,6.4-94.2,37.9-306.1-6.7-414-14-144.4-9.8-296.9,7-394.1,126.2-63.9,78.3-87.2,228.2-1.9,299.2,38.6,32.1,132.6,57.4,160.2,2-69.9-89.2-81.5-255.6,36.5-310.1,68.9-31.8,140.7-17.2,212.6-8-39.1,157.5-79.1,315.2-111.3,474.4-13.4,66.1-48.2,203.3-38.7,264.6,8.6,55.3,96.3,121.8,148,85.5l156.7-794.3c80.2,9.5,220.4,49.1,281.1-22.5h0Z"/>
      <path class="st34" d="M3689.8,1018.2c0,0-.2,0-.3,0-3-1.3-6.4-2.5-10.3-3.5-9.1.9-33.4,34.1-43.5,43.5-69,64.3-165.3,112.2-262.2,103.4-9.7-.9-18.8-2.6-27.5-5.1-60.5-23-92-85.7-88.5-153.3,124-7.3,339.5-96.1,351-239,6.7-82.6-42.9-130.4-107.8-150.1-51.1-18.5-113.8-18.5-166.1-3.3-224.2,64.9-369.4,441.3-164.9,599.7,25.8,20,53.7,34,82.7,43.1,126.8,45.2,278.9-9.8,380.4-92.3,31.7-25.8,138.1-121.3,56.8-143.1h0ZM3464.9,755.7c-20.1,83.4-116.6,167.2-202.4,185.4,15.5-82.1,57.5-192.6,123.4-244.8,22.9-18.2,43.5-24.6,59.4-21.8,20.4,10.5,29.3,40.3,19.5,81.2h0Z"/>
      <path class="st33" d="M2575.6,772c-6.2,142,173.2,188.3,245.1,278.6,69.7,87.4-12.3,150.2-103.5,122.1-39.8-12.3-73.7-44.9-90.8-82.6-8.4-18.6-18.8-87.6-28.2-92.3-29.5-14.6-80.6,32.1-93.7,57.2-18.2,34.7-5.6,44.7-46.3,70.5-93.4,59.2-89.1-30.7-82.6-97.5,5.5-57,19.5-119.5,31.3-175.8,10.6-50.9,33.3-115.4,39.4-164,7.7-62.2-46.9-54.1-88.7-39.6-13.3,4.6-22.8,12.8-35.8,15.6-96.9-67.3-218.8-91.7-322.4-23-126.9,84.1-183.4,253.5-187.9,399.9-66.2,74.2-169.8,128.1-271.7,120.7-86.5-6.3-129.7-75.7-132.9-156.6,1.2-4.7,5-4.3,8.7-5.3,69.9-18.8,120.1-20.9,189.1-56,226.3-115.1,204.2-369.7-64.4-342.9-131.5,13.1-239.9,140-281.6,257.4-116.3,327.8,178.3,508.8,459.1,345.2,40-23.3,74-53.3,108.7-83.5,53.3,175.7,268.6,187.7,352,27.5l34.7-65.1c-2.4,59.1,17.4,115.6,66.8,149.9,85.7,59.5,168.4,4.8,233.7-55.5,19.6,12.7,32.8,31.4,53,44.3,131,83.7,374,52.6,425.7-112.3,53.2-169.8-141.6-230.5-234-320-30.5-29.5-53.2-70.7-14.4-104.9,41.6-36.7,110.5-16.6,146.7,18.1,27.7,26.5,37.4,59.7,54.5,92.5,75,6.5,129.5-76.7,75.4-139.3-107-123.8-436.7-76.4-445.1,116.7h0ZM1560.7,677.8c76.3-30.6,79.5,44.8,59.4,97-31.3,81.6-120.3,154-206.6,168.4,7.8-75.9,72.7-235.5,147.1-265.4h0ZM2238.7,838.6c-21.5,80.9-80.3,250.2-153.9,294.4-26.4,15.8-52.8,22.2-74.5-4-37.1-44.7-17.5-174.3-4.1-228.8,16.7-68.3,70.4-203.7,149.7-215.9,18.4-2.8,35.9,1.3,52.1,10.3,11.1,6.2,44.9,38.3,48.8,49.3,4.9,13.6-13.1,76.3-18,94.7h0Z"/>
      <path class="st39" d="M3109.1,1390.1c-36.8-23.2-145.8-63.5-180.5-27.3l-269.5,519.8-7.4-156.4c-2.5-53.5-4.6-108.2-7.6-161.9-1.9-35-2.2-83.4-7.9-116.3-7.9-45.6-91.2-78.2-131.1-87.6-164.9-38.6-411.6,16.9-479,189.9-31.4,80.5-22,185.7,54.4,237.6,32.7,22.2,102.9,39.4,136.8,13.5,29.7-22.7-1.5-34.9-14.7-52.5-39.4-52.4-40.5-131-12.1-188.8,35.7-72.5,124.2-124.9,204.4-125.4-30.8,168.2-86.6,336.8-157.8,492-33.8,73.7-97.4,205-159.4,255.1-19.5,15.7-41.8,13.1-36.6,48.3,7,47.2,75.8,90.5,122.7,75.3,56.1-18.2,119.9-158.6,142.4-211.9,80.4-190.3,131.9-403.6,171.8-606.1,5.5.7,6.4,16.4,7,21.2,27.3,192.6,14.6,399.6,23.4,594.2,5.6,44.6,99.9,64.1,123.8,33.6l336.3-652.8c-28.8,141.4-61.9,282.2-85.6,424.7-11.5,68.9-43.5,232.6-28.7,293.8,12,49.9,88.6,98.4,138.8,94.9,48.7-3.3,26.6-39.7,24.7-69.8-4.4-70.3,12.9-172.6,23.2-244.1,22.5-155.9,55.4-318.4,94-471,15.2-60,40.2-80.4-25.6-121.9h0Z"/>
      <path class="st56" d="M3770.2,2033.1c-17.7,13.4-31.9,33.5-49.1,49.2-124.2,113.1-374.6,171.4-383.1-64.1,115.4-4.1,321.9-90.7,348.2-215.4,34.2-161.4-140.9-211.2-266-171.4-218.8,69.7-361,437.7-161.1,595.4,143.6,113.3,352.8,43.7,475.1-67.4,28.4-25.8,112.6-110.4,35.9-126.3h0ZM3494.4,1694.2c26.1-9.2,57.6-3.2,64.6,26.3,23.8,99.7-120.9,234.7-217.2,241.2,11-75.6,75.9-240.4,152.6-267.5h0Z"/>
      <path class="st31" d="M2638.7,1851.6l269.5-519.8c34.7-36.2,143.7,4.1,180.5,27.3,65.8,41.5,40.7,61.9,25.6,121.9-38.6,152.6-71.5,315.1-94,471-10.3,71.5-27.6,173.8-23.2,244.1,1.9,30.1,24,66.5-24.7,69.8-50.2,3.4-126.8-45-138.8-94.9-14.8-61.2,17.2-224.9,28.7-293.8,23.8-142.4,56.8-283.3,85.6-424.7l-336.3,652.7c-23.9,30.5-118.2,11-123.8-33.6-8.7-194.6,3.9-401.6-23.4-594.2-.7-4.8-1.5-20.5-7-21.2-39.9,202.5-91.4,415.8-171.8,606.1-22.5,53.3-86.3,193.6-142.4,211.9-46.9,15.2-115.6-28.1-122.7-75.3-5.2-35.2,17.1-32.6,36.6-48.3,62.1-50,125.6-181.3,159.4-255.1,71.1-155.2,127-323.8,157.8-492-80.2.6-168.7,53-204.4,125.4-28.4,57.8-27.3,136.4,12.1,188.8,13.2,17.6,44.4,29.9,14.7,52.5-33.9,25.9-104.1,8.7-136.8-13.5-76.4-51.9-85.8-157.1-54.4-237.6,67.4-173,314.2-228.5,479-189.9,39.9,9.3,123.1,42,131.1,87.6,5.7,33,6,81.4,7.9,116.3,2.9,53.8,5,108.4,7.6,161.9l7.4,156.4h0Z"/>
      <path class="st32" d="M3317.7,1987.2c8.5,235.5,258.9,177.3,383.1,64.1,17.1-15.6,31.4-35.8,49.1-49.2,76.7,15.9-7.5,100.5-35.9,126.3-122.4,111.1-331.6,180.7-475.1,67.4-199.9-157.7-57.7-525.7,161.1-595.4,125.1-39.9,300.2,9.9,266,171.4-26.4,124.7-232.9,211.3-348.2,215.4h0ZM3321.6,1930.7c96.2-6.6,241-141.6,217.2-241.2-7.1-29.5-38.5-35.5-64.6-26.3-76.6,27.1-141.6,191.9-152.6,267.5h0Z"/>
      <g class="st75">
        <path class="st30" d="M2996.1,1241.8c51.5-1.3,102.8,16.4,143.8,47.7,5,3.7,11.2,9.1,15.9,13.2,1.2,1.1,3.8,3.7,5,4.8,7.8,7.3,14.9,15.5,21.7,23.8,16.1,20.4,29.5,43.1,39.8,66.7,5.5,12.4-.1,26.9-12.5,32.4-12.4,5.4-26.8-.2-32.3-12.6-10.6-32.2-26.1-62.7-48.9-87.9-5.6-6-11.8-12.3-18-17.6-23.5-20.5-52.7-35.3-83.2-43-10.1-2.5-20.4-4.4-30.8-5.1-14.6-.5-15.2-21.2-.6-22.4h0Z"/>
      </g>
      <path class="st69" d="M1396.3,1450.7c17.6,10.3,38.4,27.9,55.6,36.1,1.7.8,2.6,1.9,4.5.6,27.4-97.4-6.8-196-88-256.3-8-5.9-24.9-17.9-34.2-19.9-.5-.1-.9-2-3.1-.3,16.1,36.5,29.3,75.5,26.2,115.9-2.7,34.8-17.9,63.3-39.2,90.1,27.4,7.8,53.6,19.5,78.1,33.8h0Z"/>
    </g>
    <g id="textHighlights">
      <g class="st66">
        <g>
          <circle class="st12" cx="2310.7" cy="1129.6" r="771.8"/>
          <circle class="st11" cx="1533.7" cy="439.6" r="503.6"/>
          <ellipse class="st55" cx="1138.3" cy="76.5" rx="794.3" ry="322"/>
          <path class="st2" d="M2903.5,1269.8s192.1,104.5,209,135.6c16.9,31.1,3.7,235.6-16.6,308.7"/>
          <path class="st3" d="M3372.2,1578.3s161.7-11.6,271,108.8,49.6,135.4,49.6,135.4"/>
          <path class="st1" d="M3409.4,1571.3s154.4-18.6,238.2,79.1c83.8,97.7,29.7,162.7,29.7,162.7"/>
          <path class="st3" d="M3292.1,589.1s161.7-11.6,271,108.8,49.6,135.4,49.6,135.4"/>
          <path class="st1" d="M3329.3,582.2s154.4-18.5,238.2,79.1c83.8,97.7,29.7,162.7,29.7,162.7"/>
          <path class="st3" d="M3499.5,1033.9s155.6-28.5,244,35c88.4,63.5,29.6,80.9,29.6,80.9"/>
          <path class="st1" d="M3535.8,1024.5s149.5-32,216.6,20.1,7.2,101.1,7.2,101.1"/>
        </g>
      </g>
    </g>
    <g id="lips">
      <g id="Layer_11">
        <g class="st65">
          <g>
            <circle class="st29" cx="686.1" cy="1733.7" r="256.6"/>
            <path class="st28" d="M1227.1,1747.5c-12.3-31.5,220.7-226.8,352.8-278.2,132.1-51.5,113.2,60.3,125.5,91.8,12.3,31.5-84.8,98.8-216.9,150.3-132.1,51.5-249.1,67.7-261.4,36.2h0Z"/>
            <g class="st71">
              <path class="st30" d="M631.2,1954.9c77.6-36.5,151.6-79.6,232.9-107.9,33.5-11.7,67.8-21,103.2-26,4.8-.6,9.8-1.3,14.6-1.8,5.6-.5,13.6-1.2,19-2,21-2.6,42.1-4,63.4-4.3,20.9-.5,47.8,1.4,66.8,1.9,6.1,0,9.2,0,14-1.1,5-1,12.9-3.8,18.1-5.5,18-6.1,31.2-10.7,46.8-19.4,21.1-12.1,39.7-27.3,58.8-43.3,3.2-2.7,9.3-7.9,12.5-10.6,4.8-5.1,9.9-10.2,15.1-14.8,40.4-36.6,92.4-57.7,145.2-67.4,46.7-8.8,94.3-9.6,141.2-7.3,11.6.6,23.1,1.3,34.8,2.5l2.3,9.7c-71.5,45.4-189.7,84.7-231.7,159-29.6,55.4-72.5,106.9-131.2,135.3-16.9,8.4-31.5,13.8-47.5,19.2-20.4,7-43.8,11.5-65.6,11.5-31.8.1-61.4-7.1-90.8-11.8-19.8-3.3-41.2-6.9-61.2-9.9-29.1-3.3-59-3-88.5-1.7-54.5,2.4-110.5,8.8-165.8,10.9-35.1,1.2-70.6,1.4-105.3-5.2l-1.2-9.9h0Z"/>
            </g>
            <g class="st74">
              <path class="st30" d="M618.7,1931.5c77.6-36.5,151.7-79.6,232.9-107.9,33.5-11.7,67.8-21,103.2-26,4.8-.6,9.8-1.3,14.6-1.8,5.6-.5,13.6-1.2,19-2,21-2.6,42.1-4,63.4-4.3,20.9-.5,47.8,1.4,66.8,1.9,6.1,0,9.2,0,14-1.1,5-1,12.9-3.8,18.1-5.5,18-6.1,31.2-10.7,46.8-19.4,21.1-12.1,39.7-27.3,58.8-43.3,3.2-2.7,9.3-7.9,12.5-10.6,4.8-5.1,9.9-10.2,15.1-14.8,40.4-36.6,92.4-57.7,145.2-67.4,46.7-8.8,94.3-9.6,141.2-7.3,11.6.6,23.1,1.3,34.8,2.5l2.3,9.7c-71.5,45.4-189.7,84.7-231.7,159-29.6,55.4-72.5,106.9-131.2,135.3-16.9,8.4-31.5,13.8-47.5,19.2-20.4,7-43.8,11.5-65.6,11.5-31.8.1-61.4-7.1-90.8-11.8-19.8-3.3-41.2-6.9-61.2-9.9-29.1-3.3-59-3-88.5-1.7-54.5,2.4-110.5,8.8-165.8,10.9-35.1,1.2-70.6,1.4-105.3-5.2l-1.2-9.9h0Z"/>
            </g>
          </g>
        </g>
      </g>
      <path class="st59" d="M1419.3,1441c18.3,10.7,39.9,29,57.8,37.6,1.7.8,2.7,1.9,4.7.6,28.5-101.2-7.1-203.7-91.4-266.3-8.3-6.2-25.9-18.6-35.5-20.7-.5-.1-.9-2-3.2-.4,16.7,37.9,30.4,78.5,27.2,120.4-2.8,36.1-18.6,65.8-40.8,93.6,28.5,8.1,55.7,20.3,81.2,35.2h0Z"/>
      <path class="st59" d="M728.8,1751.7c2.7.7,2.8-1.1,3.6-2.9,2.5-5.6,3.8-17.4,5.8-24.1,3.4-11,6.8-24.2,10.9-34.5,4.6-11.7,42.8-79.3,41-84.1l-47.2-20.9c-31.8-18.6-58.9-46-75.7-79.2-7.7-15.2-11.5-30.2-16.9-46.1,0-1,1.4-4.5-.6-5.8-4.3-2.9-10.5,13.6-11.9,17.3-32.9,87.2-6,185.1,57.8,251,3.8,4,30.5,28.7,33.2,29.3h0Z"/>
      <path class="st59" d="M630.7,1950.8c1.1,4.5,5.8,2.7,8.7,2.9,53.4,3.4,121-11.5,170-32.7,58.3-25.2,93.5-77.1,155.6-99.2,72.8-25.9,126.7,8.4,205.2-25.6,60.9-26.4,99.8-88.3,160.8-114.7,72.1-31.3,137.4-14.5,207.8-31.5,34.4-8.3,120.7-55.3,144.1-81.6,1.3-.3,1.9-.5,1.9-.5-.9,0-1.9,0-2.8,0-6.3-1.7-24.9-1.8-32.1-2.9-28.4-4.4-54.9-12.6-80.4-23.1-20.9-9.2-41.3-19.8-61-30.3-113.9-60.8-235.1-164-354.3-57.2-52.5,57.3-41.9,61.1-79.6,74.8-29.8,10.8-32.5,7-70.4-.2-7.5-1.9-15-3.5-22.9-4.5-4.1-.5-8.1-.9-12-1.2-1.3-.2-2.5-.3-3.8-.5-5.2-.2-10.2-.2-15.1,0-20.5.4-38.7,3.9-55,10.1-99.5,36.2-124.8,161.5-165.1,261.1-23,56.9-45.9,115.6-96.1,154.1l-3.3,2.6h0Z"/>
      <path class="st7" d="M716.5,1682.1c-31.8-18.6-58.9-46-75.7-79.2-7.7-15.1-11.5-30.1-16.9-46.1,2,61,28.3,120.6,71.8,165.5,3.8,4,30.5,28.7,33.2,29.3,2.7.7,2.8-1.1,3.6-2.9,2.5-5.6,3.8-17.4,5.8-24.1,2.8-9.2,5.7-19.8,8.9-29.1l-30.7-13.6h0Z"/>
      <path class="st5" d="M623.8,1551.5c0,1.7,0,3.3,0,5,.1-1.1,1-3.6,0-5Z"/>
      <path class="st8" d="M1407.8,1226.9c16.7,37.9,35.4,90.7,32.2,132.6-2.2,29-12.9,53.9-28.5,77,2.6,1.4,5.2,2.9,7.8,4.4,18.3,10.7,39.9,29,57.8,37.6,1.7.8,2.7,1.9,4.7.6,24.3-86.5,1.9-173.9-57.8-236.6l-16.2-15.6Z"/>
      <path class="st59" d="M1566.9,1671.4c-86.6,37-127,31.2-169.9,49.9-87.4,38-111.1,128-205.4,163-82,30.4-151.8-7.2-233,8.8-29.8,5.9-47.7,15.2-74.3,26.5-.9.4-1.8.6-2.7,1-6.7,2.9-15.3,5.1-22.3,8-2.5,1.1-4.7,2.4-6.8,4.1-1.4.4-2.7,1-4,1.5-9.1,3-17.9,8-25.7,10.9l-22.8,8.3c-1.6.6-7.4,1.4-10.6,2.3-47.8,13.9-96.9,21.6-146.8,16.8,0,0,283.2,297.8,631.2,186.2,347.9-111.6,371.4-368,382.9-416.1s24.6-101.5,34.3-158.1c0,0-37.3,50-123.9,87h0ZM1556.9,1800.4c-5.9,33.5-23.1,64-44,90.3-2,2.6-4.8,5.8-7,8.2-22.8,24.2-50.9,39.5-81.4,50.3-4.3,1.4-8.5,2.8-13,3.9-1.5.4-3.1-.6-3.4-2.1-.3-1.3.3-2.6,1.4-3.2,29.6-17.7,58.9-38.8,78.9-67.2,15.1-23.3,28.2-48.2,36.2-74.8.4-1.4,1.3-4.4,1.7-5.8l1.6-6c5.5-18.1,31.6-12.4,29.1,6.3h0Z"/>
      <path class="st14" d="M722.6,1995.2c-4.5,14.4,137.1,96.4,234,120.9,96.9,24.5,226.7,30,376.6-33.5,149.9-63.5,208.9-156.7,243.1-229.8,34.2-73.1,58.3-173.9-25.2-144.6-65.9,23.1-76.7,3-158.4,67s-135.7,150.5-212.7,169.2c-77,18.7-138.8-14-208.2-11.7-69.4,2.3-244.8,48.2-249.3,62.6h0ZM1556.9,1800.4c-5.9,33.5-23.1,64-44,90.3-2,2.6-4.8,5.8-7,8.2-22.8,24.2-50.9,39.5-81.4,50.3-4.3,1.4-8.5,2.8-13,3.9-1.5.4-3.1-.6-3.4-2.1-.3-1.3.3-2.6,1.4-3.2,29.6-17.7,58.9-38.8,78.9-67.2,15.1-23.3,28.2-48.2,36.2-74.8.4-1.4,1.3-4.4,1.7-5.8l1.6-6c5.5-18.1,31.6-12.4,29.1,6.3h0Z"/>
      <path class="st13" d="M1510.2,1516.6c-112.4-56.7-231.5-154-351.6-49.8-53.1,55.8-42.6,59.3-80.3,73-37.8,13.7-31.9,4.2-108.4-4.5-159.1-2.9-166.8,140.5-216.7,256.1-23.8,55-71.9,121.6-122.4,159.3,0,0,163.9-71.5,271.4-182.3s237.4-59.8,237.4-59.8c0,0,67-122.4,220.5-106.3s324.8-34.3,324.8-34.3c-62.9,3.4-121.1-24.4-174.6-51.4h0Z"/>
      <path class="st30" d="M1230.9,1430.7c71.5-29.3,177.6,46.9,177.6,46.9h0c-50-24.9-124.7-51.4-178.2-25.6-4.4,2.1-8.7,4.6-12.7,7.4-4.2,2.8-8.8,6-12.9,9-11.3,8.1-22.2,16.7-32.7,25.9-12,10.9-26.4,24.1-38.2,35.2-5.2,4.9-10.3,9.7-15.4,14.9,0,0,41.1-84.4,112.6-113.7h0Z"/>
      <path class="st30" d="M1023.7,1557.2c-88.2-2.7-139.6,4.2-210.4,92.2,16.8-40.6,53.4-82.1,81-92.6s49.8-14.4,129.4.3h0Z"/>
      <path class="st57" d="M648.1,1947.8s134.2-4.7,191.3-58.3c57.2-53.7,112-103.8,186.7-98,74.7,5.8,129.5,7,129.5,7,0,0-121.3,4.7-162.2,14-40.8,9.3-113.2,73.5-151.7,93.3s-193.7,42-193.7,42h0Z"/>
      <path class="st30" d="M780.3,1615.7s-66.1-18.7-94.9-56c-28.8-37.3-36.5-83.4-36.5-83.4,0,0,7.4,68.1,48.6,106.2s82.8,33.2,82.8,33.2h0Z"/>
    </g>
  </g>
</svg>