<?xml version="1.0" encoding="UTF-8"?>
<svg id="Layer_1" xmlns="http://www.w3.org/2000/svg" xmlns:v="https://vecta.io/nano" version="1.1" viewBox="0 0 1280 339.3">
  <!-- Generator: Adobe Illustrator 29.7.0, SVG Export Plug-In . SVG Version: 2.1.1 Build 138)  -->
  <defs>
    <style>
      .st0 {
        fill: #001c64;
      }

      .st1 {
        fill: #fff;
      }

      .st2 {
        fill: #003087;
      }

      .st3 {
        fill: #0070e0;
      }
    </style>
  </defs>
  <path class="st1" d="M409.3,67.9c-2.6,0-4.9,1.9-5.3,4.5l-30.5,193.4c-.4,2.7,1.4,5.2,4.1,5.7.3,0,.5,0,.8,0h36.2c2.6,0,4.9-1.9,5.3-4.5l9-56.8c.4-2.6,2.6-4.5,5.3-4.5h32.9c38.4,0,71-28,77-66,6-38.3-23.9-71.7-66.3-71.8h-68.3ZM444.5,111h26.3c21.7,0,28.7,12.8,26.5,26.9-2.2,14.2-13.2,24.6-34.1,24.6h-26.8l8.1-51.5ZM617.5,124.2c-9.1,0-19.6,1.9-31.4,6.8-27.1,11.3-40.1,34.6-45.6,51.6,0,0-17.6,51.8,22.1,80.3,0,0,36.8,27.4,78.2-1.7l-.7,4.5c-.4,2.7,1.4,5.2,4.1,5.7.3,0,.5,0,.8,0h34.3c2.6,0,4.9-1.9,5.3-4.5l20.9-132.4c.4-2.7-1.4-5.2-4.1-5.7-.3,0-.5,0-.8,0h-34.3c-2.6,0-4.9,1.9-5.3,4.5l-1.1,7.1s-15-16.4-42.4-16.3h0ZM618.6,166c3.9,0,7.5.5,10.8,1.6,14.8,4.8,23.2,19,20.8,34.4-3,19-18.6,33-38.5,33s-7.5-.5-10.8-1.6c-14.8-4.8-23.3-19-20.8-34.4,3-19,18.6-33,38.6-33h0Z"/>
  <path class="st3" d="M903.7,67.9c-2.6,0-4.9,1.9-5.3,4.5l-30.5,193.4c-.4,2.7,1.4,5.2,4.1,5.7.3,0,.5,0,.8,0h36.2c2.6,0,4.9-1.9,5.3-4.5l9-56.8c.4-2.6,2.6-4.5,5.3-4.5h32.9c38.4,0,71-28,77-66,6-38.3-23.9-71.7-66.3-71.8h-68.3ZM938.8,111h26.3c21.7,0,28.7,12.8,26.5,26.9-2.2,14.2-13.2,24.6-34.1,24.6h-26.8l8.1-51.5ZM1111.9,124.2c-9.1,0-19.6,1.9-31.4,6.8-27.1,11.3-40.1,34.6-45.6,51.6,0,0-17.6,51.8,22.1,80.3,0,0,36.8,27.4,78.2-1.7l-.7,4.5c-.4,2.7,1.4,5.2,4.1,5.7.3,0,.5,0,.8,0h34.3c2.6,0,4.9-1.9,5.3-4.5l20.9-132.4c.4-2.7-1.4-5.2-4.1-5.7-.3,0-.5,0-.8,0h-34.3c-2.6,0-4.9,1.9-5.3,4.5l-1.1,7.1s-15-16.4-42.4-16.3h0ZM1113,166c3.9,0,7.5.5,10.8,1.6,14.8,4.8,23.2,19,20.8,34.4-3,19-18.6,33-38.5,33s-7.5-.5-10.8-1.6c-14.8-4.8-23.3-19-20.8-34.4,3-19,18.6-33,38.6-33h0Z"/>
  <path class="st1" d="M721.8,128.8c-2.7,0-4.7,2.7-3.8,5.2l37.6,116.8-34,55c-1.7,2.7.3,6.1,3.4,6.1h40.2c2.3,0,4.5-1.2,5.7-3.2l105.1-173.9c1.6-2.7-.3-6.1-3.4-6.1h-40.2c-2.4,0-4.5,1.3-5.8,3.3l-41.4,69.9-21-69.3c-.7-2.3-2.8-3.8-5.1-3.8h-37.3Z"/>
  <path class="st3" d="M1238.9,67.9c-2.6,0-4.9,1.9-5.3,4.5l-30.5,193.4c-.4,2.7,1.4,5.2,4.1,5.7.3,0,.5,0,.8,0h36.2c2.6,0,4.9-1.9,5.3-4.5l30.5-193.4c.4-2.7-1.4-5.2-4.1-5.7-.3,0-.5,0-.8,0h-36.2Z"/>
  <path class="st0" d="M107.8,67.9c-4.8,0-8.9,3.5-9.7,8.3l-16.1,101.8c.7-4.8,4.8-8.3,9.7-8.3h47c47.3,0,87.5-34.5,94.8-81.3.5-3.5.9-7,.9-10.6-12-6.3-26.2-9.9-41.6-9.9h-85.1Z"/>
  <path class="st3" d="M234.6,77.8c0,3.5-.4,7.1-.9,10.6-7.3,46.8-47.5,81.3-94.8,81.3h-47c-4.8,0-8.9,3.5-9.7,8.3l-14.8,93.6-9.2,58.7c-.7,4.3,2.3,8.4,6.6,9.1.4,0,.8,0,1.3,0h51.1c4.8,0,8.9-3.5,9.7-8.3l13.4-85.3c.8-4.8,4.9-8.3,9.7-8.3h30.1c47.3,0,87.5-34.5,94.8-81.3,5.2-33.2-11.5-63.4-40.1-78.4h0Z"/>
  <path class="st2" d="M49.8,0C45,0,40.9,3.5,40.2,8.3L0,262.3c-.8,4.8,3,9.2,7.9,9.2h59.4l14.8-93.6,16.1-101.8c.8-4.8,4.8-8.3,9.7-8.3h85.1c15.5,0,29.6,3.6,41.6,9.9C235.4,35.2,200.2,0,151.9,0H49.8Z"/>
</svg>