<svg width="25" height="25" viewBox="0 0 25 25" fill="none" xmlns="http://www.w3.org/2000/svg">
<path d="M24.9106 18.2845C24.7369 17.8046 24.406 17.5478 24.0292 17.3351C23.9583 17.2929 23.8931 17.2592 23.8375 17.2333C23.7251 17.1742 23.6101 17.1172 23.4958 17.0569C22.3212 16.4245 21.4039 15.6269 20.7677 14.6813C20.5871 14.4151 20.4304 14.133 20.2995 13.8382C20.2453 13.6806 20.2478 13.5911 20.2868 13.5094C20.3254 13.4465 20.3765 13.3924 20.4369 13.3505C20.6387 13.215 20.847 13.0775 20.9881 12.9848C21.2398 12.8194 21.4391 12.6884 21.5674 12.5957C22.0497 12.2532 22.387 11.8894 22.5977 11.4828C22.7448 11.2019 22.8306 10.8921 22.8492 10.5745C22.8678 10.2569 22.8189 9.93894 22.7057 9.64227C22.3863 8.78881 21.5924 8.25897 20.6304 8.25897C20.4275 8.25877 20.2252 8.28051 20.0268 8.32382C19.9738 8.3355 19.9208 8.34782 19.869 8.36144C19.878 7.77776 19.8652 7.16166 19.8141 6.55529C19.6327 4.42359 18.8975 3.30618 18.131 2.41511C17.6402 1.85672 17.062 1.38432 16.4198 1.01689C15.2567 0.342421 13.9377 0 12.4999 0C11.0621 0 9.74945 0.342421 8.58503 1.01689C7.94125 1.38443 7.36194 1.85778 6.87064 2.4177C6.10415 3.30878 5.36896 4.42813 5.18756 6.55789C5.13646 7.16426 5.12369 7.7836 5.13199 8.36403C5.08025 8.35041 5.02788 8.33809 4.97486 8.32642C4.77649 8.28311 4.57415 8.26137 4.37125 8.26156C3.40867 8.26156 2.61343 8.79141 2.29534 9.64487C2.18164 9.94166 2.1322 10.2598 2.15039 10.5778C2.16857 10.8957 2.25396 11.2059 2.40073 11.4873C2.61215 11.894 2.94941 12.2578 3.43166 12.6002C3.55941 12.691 3.75933 12.822 4.011 12.9893C4.14705 13.0788 4.3457 13.2098 4.54052 13.3408C4.60868 13.3856 4.66661 13.4446 4.71042 13.514C4.7513 13.5989 4.75258 13.6904 4.6919 13.859C4.56283 14.1475 4.40871 14.4238 4.23137 14.6846C3.60923 15.6087 2.71882 16.3921 1.58186 17.0192C0.979531 17.3435 0.353565 17.5601 0.0891257 18.2897C-0.110162 18.8403 0.0201415 19.4668 0.526664 19.9947C0.712561 20.1917 0.928175 20.3574 1.16541 20.4856C1.65902 20.761 2.1839 20.9743 2.72841 21.1205C2.84077 21.1499 2.94745 21.1984 3.04394 21.2638C3.22854 21.4279 3.20235 21.675 3.44827 22.0369C3.57171 22.2239 3.72857 22.3858 3.91072 22.5142C4.42682 22.8761 5.0068 22.8988 5.62127 22.9228C6.17633 22.9442 6.80549 22.9688 7.52408 23.2094C7.82173 23.3093 8.13088 23.5026 8.48922 23.7282C9.3496 24.2652 10.5274 25 12.4986 25C14.4698 25 15.6559 24.2613 16.5227 23.7224C16.8784 23.5006 17.1857 23.3093 17.475 23.212C18.1936 22.9708 18.8228 22.9468 19.3778 22.9254C19.9923 22.9014 20.5723 22.8787 21.0884 22.5168C21.3041 22.3641 21.4839 22.1647 21.6147 21.9331C21.7916 21.6277 21.7872 21.4143 21.9532 21.2651C22.0438 21.2028 22.144 21.1563 22.2496 21.1277C22.8016 20.9809 23.3336 20.7657 23.8337 20.4869C24.0857 20.3496 24.3126 20.1693 24.5044 19.9538L24.5108 19.946C24.986 19.4298 25.1054 18.8215 24.9106 18.2845ZM23.1586 19.2404C22.0899 19.8397 21.3797 19.7755 20.8271 20.1367C20.3577 20.4435 20.6355 21.105 20.2944 21.3436C19.8754 21.6374 18.6369 21.3229 17.0369 21.8592C15.7172 22.3021 14.8754 23.5758 12.5018 23.5758C10.1282 23.5758 9.30617 22.3047 7.96481 21.8559C6.36796 21.3196 5.12688 21.6342 4.70723 21.3404C4.36678 21.1017 4.64335 20.4402 4.17452 20.1335C3.62137 19.7722 2.91109 19.8364 1.84311 19.2404C1.16285 18.8591 1.54865 18.6231 1.7754 18.5115C5.64618 16.6087 6.26384 13.6709 6.29131 13.453C6.32452 13.1891 6.36157 12.9815 6.07541 12.713C5.79884 12.4536 4.57181 11.6825 4.23137 11.4413C3.66799 11.0418 3.42016 10.6429 3.60284 10.1527C3.73059 9.81348 4.0423 9.68573 4.36933 9.68573C4.47269 9.68605 4.57571 9.69779 4.67657 9.72075C5.29487 9.85694 5.89529 10.1715 6.24212 10.2564C6.28389 10.2673 6.32676 10.2732 6.36987 10.2739C6.55511 10.2739 6.62026 10.1793 6.60748 9.96394C6.56788 9.27715 6.47207 7.9386 6.57874 6.68759C6.72501 4.96641 7.27114 4.1136 7.9201 3.35936C8.2318 2.99684 9.69644 1.42546 12.4973 1.42546C15.2982 1.42546 16.7667 2.99035 17.0784 3.35158C17.728 4.10581 18.2747 4.95862 18.4197 6.67981C18.5264 7.93082 18.4344 9.27002 18.391 9.95616C18.3763 10.1825 18.4434 10.2662 18.6286 10.2662C18.6717 10.2655 18.7146 10.2596 18.7563 10.2486C19.1038 10.1637 19.7042 9.84915 20.3225 9.71296C20.4234 9.69001 20.5264 9.67826 20.6298 9.67794C20.9587 9.67794 21.2685 9.80765 21.3963 10.1449C21.5789 10.6352 21.3324 11.034 20.7684 11.4335C20.4279 11.6748 19.2009 12.4452 18.9243 12.7053C18.6375 12.9737 18.6752 13.1813 18.7084 13.4452C18.7359 13.6664 19.3529 16.6042 23.2243 18.5037C23.453 18.6198 23.8388 18.8559 23.1586 19.2404Z" fill="white"/>
</svg>
