<?xml version="1.0" encoding="UTF-8"?>
<svg id="Layer_1" xmlns="http://www.w3.org/2000/svg" version="1.1" viewBox="0 0 25 25">
  <!-- Generator: Adobe Illustrator 30.0.0, SVG Export Plug-In . SVG Version: 2.1.1 Build 123)  -->
  <defs>
    <style>
      .st0 {
        fill: #fff;
        fill-rule: evenodd;
      }
    </style>
  </defs>
  <path class="st0" d="M21.4,3.6C19,1.3,15.9,0,12.6,0,5.7,0,.1,5.6.1,12.4c0,2.2.6,4.3,1.7,6.2l-1.8,6.4,6.6-1.7c1.8,1,3.9,1.5,5.9,1.5h0c6.9,0,12.4-5.6,12.4-12.4,0-3.3-1.3-6.4-3.6-8.8h0ZM12.6,22.7h0c-1.9,0-3.7-.5-5.3-1.4l-.4-.2-3.9,1,1-3.8-.2-.4c-1-1.6-1.6-3.5-1.6-5.5,0-5.7,4.6-10.3,10.4-10.3,2.8,0,5.4,1.1,7.3,3,2,1.9,3,4.5,3,7.3,0,5.7-4.6,10.3-10.3,10.3h0ZM18.2,15c-.3-.2-1.8-.9-2.1-1-.3-.1-.5-.2-.7.2-.2.3-.8,1-1,1.2-.2.2-.4.2-.7,0-.3-.2-1.3-.5-2.5-1.5-.9-.8-1.5-1.8-1.7-2.1-.2-.3,0-.5.1-.6.1-.1.3-.4.5-.5.2-.2.2-.3.3-.5.1-.2,0-.4,0-.5,0-.2-.7-1.7-1-2.3-.3-.6-.5-.5-.7-.5-.2,0-.4,0-.6,0s-.5,0-.8.4c-.3.3-1.1,1.1-1.1,2.6s1.1,3,1.3,3.2c.2.2,2.2,3.3,5.3,4.7.7.3,1.3.5,1.8.7.7.2,1.4.2,2,.1.6,0,1.8-.7,2.1-1.5.3-.7.3-1.3.2-1.5,0-.1-.3-.2-.6-.4h0Z"/>
</svg>