<svg width="28" height="28" viewBox="0 0 28 28" fill="none" xmlns="http://www.w3.org/2000/svg">
<path d="M8.93 24C8.66614 24.0004 8.40478 23.9491 8.16083 23.849C7.77817 23.6991 7.44986 23.4377 7.21887 23.099C6.98788 22.7603 6.86498 22.36 6.86625 21.9506V20.8396C6.86508 20.637 6.78327 20.443 6.63875 20.3003C6.51475 20.1777 6.34765 20.1081 6.17292 20.1061H6.12417C4.76747 20.1047 3.46658 19.5682 2.50623 18.6141C1.54589 17.6599 1.0043 16.3658 1 15.015V10.0965C1.00144 8.74433 1.54194 7.44803 2.50275 6.4924C3.46356 5.53678 4.76609 5 6.12417 5H21.8758C23.2339 5 24.5364 5.53678 25.4973 6.4924C26.4581 7.44803 26.9986 8.74433 27 10.0965V15.015C26.9986 16.3677 26.4582 17.6646 25.4976 18.621C24.5369 19.5775 23.2344 20.1155 21.8758 20.1169H14.7312C14.3484 20.1176 13.9697 20.1953 13.6178 20.3454C13.2659 20.4956 12.9482 20.715 12.6838 20.9906L10.4196 23.3744C10.2264 23.5731 9.99484 23.731 9.73888 23.8385C9.48292 23.946 9.2078 24.0009 8.93 24ZM6.17292 18.4828C6.47459 18.4795 6.77386 18.5364 7.053 18.6504C7.33214 18.7643 7.58545 18.9329 7.79792 19.1462C8.02293 19.3676 8.20152 19.6313 8.32333 19.922C8.44515 20.2127 8.50775 20.5246 8.5075 20.8396V21.9506C8.50586 22.0376 8.53104 22.1231 8.57966 22.1955C8.62827 22.2678 8.69798 22.3236 8.77941 22.3553C8.86084 22.3871 8.95007 22.3932 9.0351 22.3729C9.12013 22.3526 9.19687 22.3069 9.255 22.2418L11.5029 19.8689C11.9213 19.4301 12.4255 19.0812 12.9845 18.8438C13.5434 18.6064 14.1452 18.4853 14.7529 18.4882H21.8758C22.8016 18.4868 23.6891 18.1208 24.3447 17.47C25.0003 16.8193 25.3707 15.9367 25.375 15.015V10.0965C25.3736 9.17344 25.0043 8.28866 24.3482 7.63646C23.6921 6.98426 22.8029 6.61794 21.8758 6.61794H6.12417C5.19707 6.61794 4.30786 6.98426 3.6518 7.63646C2.99573 8.28866 2.62644 9.17344 2.625 10.0965V15.015C2.62391 15.4746 2.71485 15.9297 2.89249 16.3538C3.07013 16.7779 3.33091 17.1625 3.65958 17.4851C3.98765 17.8088 4.37656 18.0649 4.80409 18.2389C5.23162 18.4129 5.6894 18.5012 6.15125 18.499L6.17292 18.4828ZM21.3667 15.1013H20.0938C19.8783 15.1013 19.6716 15.0161 19.5192 14.8644C19.3669 14.7127 19.2812 14.5069 19.2812 14.2924C19.2812 14.0778 19.3669 13.872 19.5192 13.7203C19.6716 13.5686 19.8783 13.4834 20.0938 13.4834H21.3667C21.5822 13.4834 21.7888 13.5686 21.9412 13.7203C22.0936 13.872 22.1792 14.0778 22.1792 14.2924C22.1792 14.5069 22.0936 14.7127 21.9412 14.8644C21.7888 15.0161 21.5822 15.1013 21.3667 15.1013ZM15.5329 15.1013H5.71792C5.50243 15.1013 5.29577 15.0161 5.14339 14.8644C4.99102 14.7127 4.90542 14.5069 4.90542 14.2924C4.90542 14.0778 4.99102 13.872 5.14339 13.7203C5.29577 13.5686 5.50243 13.4834 5.71792 13.4834H15.5329C15.7484 13.4834 15.9551 13.5686 16.1074 13.7203C16.2598 13.872 16.3454 14.0778 16.3454 14.2924C16.3454 14.5069 16.2598 14.7127 16.1074 14.8644C15.9551 15.0161 15.7484 15.1013 15.5329 15.1013ZM21.3667 11.2398H5.71792C5.50243 11.2398 5.29577 11.1546 5.14339 11.0029C4.99102 10.8512 4.90542 10.6454 4.90542 10.4309C4.90542 10.2163 4.99102 10.0106 5.14339 9.85885C5.29577 9.70714 5.50243 9.62191 5.71792 9.62191H21.3667C21.5822 9.62191 21.7888 9.70714 21.9412 9.85885C22.0936 10.0106 22.1792 10.2163 22.1792 10.4309C22.1792 10.6454 22.0936 10.8512 21.9412 11.0029C21.7888 11.1546 21.5822 11.2398 21.3667 11.2398Z" fill="white"/>
</svg>
