<svg width="13" height="12" viewBox="0 0 13 12" fill="none" xmlns="http://www.w3.org/2000/svg">
<path d="M6.12549 8.13484C6.12549 7.92784 6.29349 7.75684 6.50049 7.75684C6.70749 7.75684 6.87549 7.92234 6.87549 8.12934V8.13484C6.87549 8.34184 6.70749 8.50984 6.50049 8.50984C6.29349 8.50984 6.12549 8.34184 6.12549 8.13484Z" fill="currentColor"/>
<path d="M2.89816 10.209H10.1392C10.7127 10.179 11.1537 9.69049 11.1242 9.11699C11.1177 9.00099 11.0927 8.88649 11.0487 8.77949L7.41016 2.41149C7.13216 1.90899 6.49966 1.72699 5.99716 2.00549C5.82616 2.09949 5.68516 2.24049 5.59066 2.41149L1.95216 8.77949C1.73616 9.31149 1.99216 9.91749 2.52366 10.134C2.63166 10.1775 2.74566 10.2025 2.86166 10.209" stroke="currentColor" stroke-width="1.5" stroke-linecap="round" stroke-linejoin="round"/>
<path d="M6.49512 6.69844V5.14844" stroke="currentColor" stroke-width="1.5" stroke-linecap="round" stroke-linejoin="round"/>
</svg>
