<svg width="28" height="28" viewBox="0 0 28 28" fill="none" xmlns="http://www.w3.org/2000/svg">
<path fill-rule="evenodd" clip-rule="evenodd" d="M13.9679 23.7634C10.1891 23.7634 6.96094 23.1918 6.96094 20.9028C6.96094 18.6138 10.1681 16.6211 13.9679 16.6211C17.7468 16.6211 20.9749 18.5951 20.9749 20.8829C20.9749 23.1708 17.7678 23.7634 13.9679 23.7634Z" stroke="white" stroke-width="1.5" stroke-linecap="round" stroke-linejoin="round"/>
<path fill-rule="evenodd" clip-rule="evenodd" d="M13.9678 13.3572C16.4481 13.3572 18.4594 11.347 18.4594 8.86667C18.4594 6.38633 16.4481 4.375 13.9678 4.375C11.4874 4.375 9.47609 6.38633 9.47609 8.86667C9.46909 11.3377 11.4641 13.349 13.9363 13.3572H13.9678Z" stroke="white" stroke-width="1.5" stroke-linecap="round" stroke-linejoin="round"/>
<path d="M21.4227 12.1235C22.8658 11.7374 23.9298 10.4214 23.9298 8.85454C23.9298 7.22004 22.7713 5.85504 21.229 5.54004" stroke="white" stroke-width="1.5" stroke-linecap="round" stroke-linejoin="round"/>
<path d="M22.1006 15.8018C24.1469 15.8018 25.8946 17.1889 25.8946 18.4279C25.8946 19.1571 25.2914 19.9516 24.3768 20.1663" stroke="white" stroke-width="1.5" stroke-linecap="round" stroke-linejoin="round"/>
<path d="M6.51419 12.1235C5.06986 11.7374 4.00586 10.4214 4.00586 8.85454C4.00586 7.22004 5.16553 5.85504 6.70669 5.54004" stroke="white" stroke-width="1.5" stroke-linecap="round" stroke-linejoin="round"/>
<path d="M5.8355 15.8018C3.78917 15.8018 2.0415 17.1889 2.0415 18.4279C2.0415 19.1571 2.64467 19.9516 3.5605 20.1663" stroke="white" stroke-width="1.5" stroke-linecap="round" stroke-linejoin="round"/>
</svg>
