<?xml version="1.0" encoding="UTF-8"?>
<svg id="Layer_1" xmlns="http://www.w3.org/2000/svg" version="1.1" viewBox="0 0 28 26">
  <!-- Generator: Adobe Illustrator 30.2.1, SVG Export Plug-In . SVG Version: 2.1.1 Build 1)  -->
  <defs>
    <style>
      .st0 {
        stroke-linecap: round;
        stroke-width: 1.2px;
      }

      .st0, .st1 {
        fill: none;
        stroke: #b85cff;
      }

      .st2 {
        fill: #fff;
      }

      .st1 {
        stroke-miterlimit: 10;
        stroke-width: 2px;
      }
    </style>
  </defs>
  <path class="st2" d="M18.2,9.4v-1.6h-1.6v-1h1.6v-1.6h1v1.6h1.6v1h-1.6v1.6s-1,0-1,0Z"/>
  <path class="st2" d="M9.5,16.6v-7.2h-1.1l.4-1.5h2.2v8.7h-1.6Z"/>
  <path class="st2" d="M14.6,16.7c-.5,0-1,0-1.5-.4-.4-.2-.7-.6-1.1-1-.2-.4-.4-.9-.4-1.4s0-.7.2-1.1c.2-.3.4-.7.7-.9-.2-.2-.4-.5-.6-.7-.2-.3-.2-.7-.2-1s0-.9.3-1.3.6-.7,1-.9c.4-.2.9-.3,1.3-.3s.9,0,1.3.3.7.5,1,.9c.2.4.4.8.4,1.3s0,.7-.2,1c-.2.3-.3.6-.6.7.3.2.6.5.7.9.2.3.2.7.2,1.1s-.2,1-.4,1.4-.6.7-1.1,1c-.4.2-.9.4-1.5.4h.2ZM14.6,15.2c.2,0,.5,0,.7-.2.2,0,.3-.2.5-.4,0-.2.2-.4.2-.6s0-.4-.2-.6c0-.2-.2-.3-.5-.4-.2,0-.4-.2-.7-.2s-.5,0-.7.2-.3.2-.5.4c0,.2-.2.4-.2.6s0,.4.2.6c0,.2.2.3.5.4.2,0,.4.2.7.2ZM14.6,11.3c.2,0,.4,0,.6-.2.2,0,.3-.2.4-.3,0-.2.2-.3.2-.5s0-.3-.2-.5c0-.2-.2-.2-.4-.3-.2,0-.3-.2-.6-.2s-.4,0-.6.2c-.2,0-.3.2-.4.3s-.2.3-.2.5,0,.3.2.5c0,.2.2.2.4.3s.3.2.6.2Z"/>
  <path class="st0" d="M3.9,9.2c0-1.4.5-4.7,4-4.7"/>
  <path class="st1" d="M25.7,12.3c-.9,2.4-2.2,4.5-3.9,6.3-2.5,2.4-5.2,4.5-8,6.5-2.9-1.9-5.6-4-8.1-6.5-1.7-1.7-3-3.9-3.9-6.3C-.8,3.8,7.4-1.7,13.7,4c6.3-5.7,14.4-.2,11.9,8.2h.1Z"/>
</svg>