<svg width="19" height="14" viewBox="0 0 19 14" fill="none" xmlns="http://www.w3.org/2000/svg">
<path d="M1.33568 13.2108C1.07475 13.2108 0.819703 13.1334 0.60277 12.9884C0.385837 12.8434 0.216762 12.6373 0.116918 12.3963C0.0170741 12.1552 -0.00905554 11.89 0.0418329 11.634C0.0927214 11.3781 0.218343 11.143 0.402817 10.9585L4.74781 6.61353L0.402817 2.26854C0.276795 2.14682 0.176275 2.00122 0.107123 1.84025C0.0379713 1.67927 0.00157224 1.50613 4.9819e-05 1.33093C-0.0014726 1.15573 0.0319118 0.981984 0.0982555 0.819827C0.164599 0.65767 0.262574 0.510349 0.386461 0.386461C0.510349 0.262574 0.65767 0.164599 0.819827 0.0982555C0.981984 0.0319118 1.15573 -0.0014726 1.33093 4.9819e-05C1.50613 0.00157224 1.67927 0.0379713 1.84025 0.107123C2.00122 0.176275 2.14682 0.276795 2.26854 0.402817L7.54639 5.68067C7.79375 5.9281 7.93271 6.26365 7.93271 6.61353C7.93271 6.9634 7.79375 7.29895 7.54639 7.54639L2.26854 12.8242C2.02115 13.0717 1.68559 13.2108 1.33568 13.2108ZM18.1021 12.8242C18.3495 12.5768 18.4884 12.2413 18.4884 11.8914C18.4884 11.5415 18.3495 11.206 18.1021 10.9585L13.7571 6.61353L18.1021 2.26854C18.2281 2.14682 18.3286 2.00122 18.3978 1.84025C18.4669 1.67927 18.5033 1.50613 18.5049 1.33093C18.5064 1.15573 18.473 0.981984 18.4067 0.819827C18.3403 0.65767 18.2423 0.510349 18.1184 0.386461C17.9946 0.262574 17.8472 0.164599 17.6851 0.0982555C17.5229 0.0319118 17.3492 -0.0014726 17.174 4.9819e-05C16.9988 0.00157224 16.8256 0.0379713 16.6647 0.107123C16.5037 0.176275 16.3581 0.276795 16.2364 0.402817L10.9585 5.68067C10.7112 5.9281 10.5722 6.26365 10.5722 6.61353C10.5722 6.9634 10.7112 7.29895 10.9585 7.54639L16.2364 12.8242C16.4838 13.0716 16.8194 13.2106 17.1692 13.2106C17.5191 13.2106 17.8547 13.0716 18.1021 12.8242Z" fill="#9E9E9E"/>
</svg>
