<svg width="26" height="26" viewBox="0 0 26 26" fill="none" xmlns="http://www.w3.org/2000/svg">
<path fill-rule="evenodd" clip-rule="evenodd" d="M12.416 25.753H3.82324C1.71641 25.753 0.00114674 24.0524 0.000976562 21.9622V13.4753H12.416V25.753ZM8.58398 17.1645C8.34901 16.9309 7.96559 16.9308 7.72949 17.1645L6.16895 18.7131L4.60938 17.1645C4.37437 16.9306 3.99008 16.9306 3.75391 17.1645C3.5178 17.3972 3.51779 17.7779 3.75391 18.0118L5.31445 19.5605L3.75391 21.1091C3.5179 21.3419 3.51777 21.7225 3.75391 21.9564C3.87202 22.0722 4.02362 22.1286 4.18066 22.1286C4.33876 22.1286 4.49231 22.0732 4.61035 21.9564L6.1709 20.4068L7.73047 21.9564C7.84856 22.0721 8.00259 22.1286 8.15723 22.1286C8.31176 22.1285 8.46891 22.0732 8.58691 21.9564C8.82309 21.7237 8.82305 21.343 8.58691 21.1091H8.58398L7.02051 19.5605L8.58398 18.0118C8.82018 17.7791 8.82018 17.3984 8.58398 17.1645Z" fill="white" fill-opacity="0.9"/>
<path fill-rule="evenodd" clip-rule="evenodd" d="M25.9668 21.9622C25.9666 24.0524 24.2513 25.753 22.1445 25.753H13.625V13.4753H25.9668V21.9622ZM16.9834 20.2492C16.6506 20.2493 16.3791 20.5183 16.3789 20.8479C16.3789 21.1777 16.6505 21.4475 16.9834 21.4476H22.6074C22.9405 21.4476 23.2119 21.1801 23.2119 20.8479C23.2117 20.5159 22.9404 20.2492 22.6074 20.2492H16.9834ZM16.9834 17.6742C16.6505 17.6744 16.3789 17.9418 16.3789 18.274C16.3791 18.6059 16.6506 18.8726 16.9834 18.8727H22.6074C22.9403 18.8727 23.2117 18.6037 23.2119 18.274C23.2119 17.9441 22.9405 17.6742 22.6074 17.6742H16.9834Z" fill="white" fill-opacity="0.9"/>
<path fill-rule="evenodd" clip-rule="evenodd" d="M12.4131 12.2778H0V3.79079C0.00015888 1.70078 1.71473 0.00021997 3.82129 0H12.4141L12.4131 12.2778ZM6.1709 2.73452C5.83563 2.73452 5.56563 3.00356 5.56543 3.33327V5.52224H3.3584C3.02554 5.52237 2.75399 5.79126 2.75391 6.12099C2.75391 6.45077 3.02547 6.7196 3.3584 6.71974H5.56543V8.9087C5.56547 9.23854 5.83788 9.50745 6.1709 9.50745C6.50373 9.50725 6.77535 9.23842 6.77539 8.9087V6.71974H8.98242C9.31544 6.71972 9.58691 6.45085 9.58691 6.12099C9.58683 5.7912 9.3154 5.52225 8.98242 5.52224H6.77539V3.33327C6.77519 3.00369 6.50599 2.73472 6.1709 2.73452Z" fill="white" fill-opacity="0.9"/>
<path fill-rule="evenodd" clip-rule="evenodd" d="M22.1436 0C24.2502 0.00017363 25.9647 1.7007 25.9648 3.79079V12.2778H13.624V0H22.1436ZM16.9824 5.52224C16.6494 5.52224 16.378 5.79117 16.3779 6.12099C16.3779 6.45085 16.6494 6.71974 16.9824 6.71974H22.6064C22.9393 6.71958 23.2109 6.45077 23.2109 6.12099C23.2109 5.79128 22.9393 5.52239 22.6064 5.52224H16.9824Z" fill="white" fill-opacity="0.9"/>
</svg>
