<svg width="40" height="40" viewBox="0 0 40 40" fill="none" xmlns="http://www.w3.org/2000/svg">
<path d="M24.0305 9.15025C23.2371 9.00368 22.5085 9.51 22.3574 10.2845C22.2064 11.0589 22.7143 11.8151 23.4861 11.9666C25.8099 12.4197 27.6041 14.2184 28.0589 16.5502V16.5518C28.1884 17.223 28.7793 17.711 29.4598 17.711C29.5511 17.711 29.6424 17.7027 29.7354 17.6861C30.5072 17.5312 31.0151 16.7767 30.8641 16.0005C30.1852 12.5179 27.5046 9.82812 24.0305 9.15025Z" fill="currentColor"/>
<path d="M23.9267 3.34622C23.5549 3.29293 23.1814 3.40285 22.8843 3.63936C22.5789 3.87919 22.388 4.22562 22.3465 4.61369C22.2586 5.39815 22.8246 6.10766 23.608 6.19593C29.0108 6.79885 33.2102 11.0076 33.8177 16.4272C33.899 17.1534 34.5082 17.7014 35.2352 17.7014C35.2899 17.7014 35.3431 17.698 35.3978 17.6914C35.7779 17.6497 36.1165 17.4615 36.3556 17.1617C36.5929 16.8619 36.7008 16.4889 36.6576 16.1075C35.9008 9.34544 30.6673 4.09737 23.9267 3.34622Z" fill="currentColor"/>
<path fill-rule="evenodd" clip-rule="evenodd" d="M18.3863 21.6206C25.0347 28.2673 26.543 20.5779 30.7761 24.808C34.8572 28.8879 37.2027 29.7053 32.0321 34.8745C31.3844 35.395 27.2694 41.6571 12.8077 27.1994C-1.65576 12.74 4.60268 8.62074 5.12332 7.97325C10.3065 2.78974 11.1098 5.14897 15.1909 9.22888C19.424 13.4608 11.7378 14.974 18.3863 21.6206Z" fill="currentColor"/>
</svg>
