<svg width="25" height="25" viewBox="0 0 25 25" fill="none" xmlns="http://www.w3.org/2000/svg">
<path fill-rule="evenodd" clip-rule="evenodd" d="M0 12.5188C0 5.9339 5.2625 0 12.525 0C19.625 0 25 5.82123 25 12.4812C25 20.2053 18.7 25 12.5 25C10.45 25 8.175 24.4492 6.35 23.3726C5.7125 22.9845 5.175 22.6965 4.4875 22.9219L1.9625 23.673C1.325 23.8733 0.75 23.3726 0.9375 22.6965L1.775 19.8923C1.9125 19.5043 1.8875 19.0911 1.6875 18.7656C0.6125 16.7877 0 14.6219 0 12.5188ZM10.875 12.5188C10.875 13.4076 11.5875 14.1212 12.475 14.1337C13.3625 14.1337 14.075 13.4076 14.075 12.5313C14.075 11.6425 13.3625 10.9289 12.475 10.9289C11.6 10.9164 10.875 11.6425 10.875 12.5188ZM16.6375 12.5313C16.6375 13.4076 17.35 14.1337 18.2375 14.1337C19.125 14.1337 19.8375 13.4076 19.8375 12.5313C19.8375 11.6425 19.125 10.9289 18.2375 10.9289C17.35 10.9289 16.6375 11.6425 16.6375 12.5313ZM6.7125 14.1337C5.8375 14.1337 5.1125 13.4076 5.1125 12.5313C5.1125 11.6425 5.825 10.9289 6.7125 10.9289C7.6 10.9289 8.3125 11.6425 8.3125 12.5313C8.3125 13.4076 7.6 14.1212 6.7125 14.1337Z" fill="#FF4D67"/>
</svg>
