<?xml version="1.0" encoding="UTF-8"?>
<svg id="Layer_1" xmlns="http://www.w3.org/2000/svg" version="1.1" viewBox="0 0 25.8 17">
  <!-- Generator: Adobe Illustrator 30.2.1, SVG Export Plug-In . SVG Version: 2.1.1 Build 1)  -->
  <defs>
    <style>
      .st0 {
        fill: #fff;
      }
    </style>
  </defs>
  <rect class="st0" x="6.9" y="4.7" width=".8" height=".6"/>
  <rect class="st0" x="4.9" y="6.3" width="1" height="1.6"/>
  <rect class="st0" x="8.8" y="6.3" width="1" height="1.6"/>
  <rect class="st0" x="6.9" y="6.3" width=".8" height="1.6"/>
  <rect class="st0" x="4.9" y="4.7" width="1" height=".6"/>
  <rect class="st0" x="8.8" y="4.7" width="1" height=".6"/>
  <path class="st0" d="M20.7,10.4c.2.4.4.8.4,1.2s-.1.9-.4,1.2c.6,0,1.1-.6,1.1-1.2s-.5-1.1-1.1-1.2Z"/>
  <ellipse class="st0" cx="19.7" cy="11.6" rx=".4" ry=".9"/>
  <path class="st0" d="M23.7.3H2.3C1.2.3.3,1.2.3,2.3v12.2c0,1.1.9,2,2,2h21.4c1.1,0,2-.9,2-2V2.3c0-1.1-.9-2-2-2ZM5.7,13.9h-1.3c-.3,0-.5-.2-.5-.5s.2-.5.5-.5h1.3c.3,0,.5.2.5.5s-.2.5-.5.5ZM9.3,13.9h-1.3c-.3,0-.5-.2-.5-.5s.2-.5.5-.5h1.3c.3,0,.5.2.5.5s-.2.5-.5.5ZM10.8,8.4c0,.3-.2.5-.5.5h-5.9c-.3,0-.5-.2-.5-.5v-4.3c0-.3.2-.5.5-.5h5.8c.3,0,.5.2.5.5v4.3h0ZM12.8,13.9h-1.3c-.3,0-.5-.2-.5-.5s.2-.5.5-.5h1.3c.3,0,.5.2.5.5s-.2.5-.5.5ZM20.6,13.9c-.3,0-.6,0-.9-.2-.3.1-.6.2-.9.2-1.2,0-2.3-1-2.3-2.3s1-2.3,2.3-2.3.6,0,.9.2c.3-.1.6-.2.9-.2,1.2,0,2.3,1,2.3,2.3s-1,2.3-2.3,2.3Z"/>
  <path class="st0" d="M17.5,11.6c0,.6.5,1.2,1.1,1.2-.2-.4-.4-.8-.4-1.2s.1-.9.4-1.2c-.6,0-1.1.6-1.1,1.2Z"/>
</svg>