<svg width="18" height="18" viewBox="0 0 18 18" fill="none" xmlns="http://www.w3.org/2000/svg">
<path d="M16.802 17.6C16.6968 17.6002 16.5927 17.5797 16.4955 17.5396C16.3983 17.4995 16.31 17.4407 16.2355 17.3664L8.80195 9.93123L1.36836 17.3648C1.21834 17.5148 1.01487 17.599 0.802734 17.599C0.590603 17.599 0.387132 17.5148 0.237109 17.3648C0.0871325 17.2148 0.00292969 17.0114 0.00292969 16.7992C0.00292969 16.5871 0.0871325 16.3836 0.237109 16.2336L8.80352 7.66724L17.3699 16.2336C17.5199 16.3836 17.6042 16.5871 17.6042 16.7992C17.6042 17.0114 17.5199 17.2148 17.3699 17.3648C17.2954 17.4395 17.207 17.4988 17.1095 17.5392C17.012 17.5795 16.9075 17.6002 16.802 17.6Z" fill="#757575"/>
<path d="M0.80254 7.34329e-05C0.907667 -0.000114441 1.0118 0.0204153 1.10899 0.0604982C1.20617 0.10058 1.29452 0.159424 1.36895 0.233666L8.80254 7.66887L16.2361 0.235278C16.3862 0.0853014 16.5896 0.00105 16.8018 0.00105C17.0139 0.00105 17.2174 0.0853014 17.3674 0.235278C17.5174 0.385301 17.6016 0.588747 17.6016 0.800879C17.6016 1.01301 17.5174 1.21646 17.3674 1.36648L8.80098 9.93286L0.234571 1.36648C0.0845947 1.21646 0.000293732 1.01301 0.000293732 0.800879C0.000293732 0.588747 0.0845947 0.385301 0.234571 0.235278C0.309061 0.160555 0.397539 0.101303 0.49502 0.0609369C0.592503 0.0205717 0.697031 -0.000115395 0.80254 7.34329e-05Z" fill="#757575"/>
</svg>
