<svg width="26" height="26" viewBox="0 0 26 26" fill="none" xmlns="http://www.w3.org/2000/svg">
<path fill-rule="evenodd" clip-rule="evenodd" d="M15.8191 5.58638L23.3414 18.6415C23.507 19.0311 23.5794 19.348 23.6001 19.6772C23.6415 20.4463 23.3725 21.1938 22.8448 21.7691C22.3171 22.3423 21.6031 22.6807 20.8271 22.7217H5.67907C5.35832 22.7023 5.03756 22.6294 4.7375 22.5166C3.23718 21.9116 2.51289 20.2094 3.12336 18.7337L10.6974 5.57715C10.956 5.11467 11.3492 4.71577 11.8355 4.4594C13.2427 3.67903 15.0328 4.19176 15.8191 5.58638ZM14.1533 14.1899C14.1533 14.6822 13.7497 15.0934 13.2531 15.0934C12.7564 15.0934 12.3425 14.6822 12.3425 14.1899V11.2889C12.3425 10.7957 12.7564 10.3968 13.2531 10.3968C13.7497 10.3968 14.1533 10.7957 14.1533 11.2889V14.1899ZM13.2531 18.6004C12.7564 18.6004 12.3425 18.1892 12.3425 17.698C12.3425 17.2048 12.7564 16.7946 13.2531 16.7946C13.7497 16.7946 14.1533 17.1956 14.1533 17.6867C14.1533 18.1892 13.7497 18.6004 13.2531 18.6004Z" fill="currentColor"/>
</svg>
