<svg width="17" height="17" viewBox="0 0 17 17" fill="none" xmlns="http://www.w3.org/2000/svg">
<path d="M11.3325 3.32053C11.7909 3.44944 12.2254 3.6452 12.636 3.88552C12.9288 4.0574 13.2757 4.35183 13.5638 4.4887C13.5925 4.50143 13.6068 4.52053 13.6402 4.49824C14.0874 2.91151 13.5527 1.30409 12.2635 0.293489C12.2492 0.282348 12.219 0.261659 12.1665 0.221871C11.9262 0.0420312 11.7797 0.0117925 11.7797 0.0117925C11.7049 -0.0295866 11.6206 0.0452141 11.6524 0.123198C11.872 0.662718 12.0328 1.23248 11.9882 1.81815C11.9437 2.39746 11.689 2.87491 11.3341 3.32053H11.3325Z" fill="#CC68FF"/>
<path d="M0.00184518 5.93649C0.0285343 6.85281 0.42294 7.74986 1.07534 8.42451C1.13317 8.48381 1.53202 8.85301 1.57205 8.86191C1.61357 8.87229 1.61357 8.8456 1.62543 8.81891C1.6625 8.73588 1.68178 8.55943 1.71291 8.45861C1.76333 8.29402 1.81522 8.09682 1.87601 7.94262C1.94422 7.76766 2.51655 6.75792 2.48986 6.68526L1.78409 6.37241C1.30813 6.09366 0.903344 5.68442 0.65128 5.18919C0.535627 4.96233 0.479284 4.73844 0.397734 4.49972C0.397734 4.4849 0.418492 4.433 0.388837 4.41224C0.323597 4.36924 0.231668 4.61538 0.21091 4.67024C0.0611543 5.06612 -0.0055685 5.47536 0.000362414 5.88311V5.9439C0.000362414 5.94242 0.000362414 5.93945 0.000362414 5.93649H0.00184518ZM0.924102 5.99283C1.35409 6.55034 2.34307 6.83057 2.34307 6.83057C2.34307 6.83057 1.72033 6.90323 1.105 6.33386C0.48818 5.76301 0.378458 4.74586 0.378458 4.74586C0.378458 4.74586 0.494111 5.43532 0.925585 5.99283H0.924102Z" fill="#CC68FF"/>
<path d="M2.77879 11.7586C3.68602 11.3667 4.23222 10.5583 5.19962 10.2142C6.33212 9.80994 7.17147 10.3453 8.39192 9.81612C9.33927 9.4057 9.94563 8.44292 10.893 8.03251C12.0147 7.54649 13.0299 7.80724 14.1254 7.54186C14.6608 7.41225 16.0031 6.68246 16.3672 6.27204C16.3873 6.26587 16.3966 6.26433 16.3966 6.26433H16.3518H16.3549C16.2577 6.2381 15.9676 6.23655 15.8565 6.21958C15.4153 6.15169 15.0018 6.02363 14.6052 5.86008C14.2797 5.71813 13.9634 5.5515 13.6563 5.38795C11.8835 4.44214 9.99809 2.83597 8.14351 4.49923C7.32576 5.39104 7.4924 5.44967 6.90455 5.66413C6.44013 5.83231 6.39847 5.77214 5.80908 5.66105C5.69336 5.63173 5.57455 5.60704 5.45266 5.59161C5.3894 5.5839 5.32614 5.57773 5.26597 5.5731C5.24591 5.57001 5.2274 5.56693 5.2058 5.56539C5.12556 5.5623 5.04688 5.5623 4.97127 5.56539C4.65189 5.57156 4.36799 5.6271 4.11495 5.72276C2.56741 6.28593 2.17242 8.23463 1.546 9.78371C1.18804 10.6693 0.831631 11.5828 0.0509161 12.1814L0 12.2215C0.0169721 12.2925 0.089489 12.2647 0.134234 12.2678C0.964322 12.3218 2.01659 12.0888 2.77879 11.7586ZM9.33926 4.12893C10.4517 3.67377 12.1011 4.85873 12.1011 4.85873C11.3235 4.47146 10.1601 4.05796 9.32847 4.46066C9.25903 4.49614 9.19269 4.53472 9.13097 4.57792C9.06617 4.62266 8.99365 4.67204 8.93039 4.71678C8.7545 4.8433 8.58478 4.97599 8.42277 5.11948C8.23608 5.2892 8.01081 5.49441 7.82721 5.66722C7.74543 5.74436 7.66675 5.81842 7.58806 5.89865C7.58806 5.89865 8.22837 4.58563 9.33926 4.12893ZM4.10107 6.09306C4.53154 5.92951 4.87561 5.86934 6.11457 6.09769C4.74138 6.05603 3.94215 6.16249 2.84205 7.53106C3.1028 6.90155 3.67214 6.25661 4.10107 6.09306Z" fill="#CC68FF"/>
<path d="M15.0195 8.18111C13.6352 8.77095 12.9883 8.67899 12.3033 8.97708C10.9064 9.58437 10.5258 11.0225 9.01792 11.5822C7.70662 12.069 6.59035 11.4665 5.29174 11.7234C4.81606 11.8169 4.52906 11.966 4.10253 12.1483C4.08826 12.1546 4.07399 12.1578 4.05972 12.1642C3.9519 12.2101 3.81554 12.245 3.70296 12.2926C3.66332 12.31 3.62844 12.3322 3.59355 12.3576C3.57135 12.3639 3.55074 12.3735 3.52854 12.3814C3.38267 12.429 3.24155 12.5098 3.11787 12.5558L2.75318 12.689C2.72781 12.6985 2.63584 12.7112 2.58352 12.7255C1.81925 12.9475 1.03279 13.0711 0.236816 12.9934C0.236816 12.9934 4.76532 17.755 10.3292 15.9696C15.8931 14.1858 16.2689 10.0854 16.4513 9.31799C16.6336 8.55055 16.8445 7.69591 16.9999 6.79053C16.9999 6.79053 16.4021 7.58967 15.0195 8.18111ZM14.8609 10.2424C14.7673 10.7783 14.4914 11.2651 14.1569 11.6869C14.1252 11.7281 14.0808 11.7789 14.0443 11.8185C13.6796 12.2054 13.2309 12.4512 12.7425 12.6224C12.6743 12.6462 12.6062 12.6668 12.5348 12.6842C12.511 12.6906 12.4857 12.6763 12.4793 12.6509C12.4746 12.6303 12.4841 12.6097 12.5015 12.6002C12.9756 12.3164 13.4434 11.9786 13.7637 11.5252C14.0047 11.1525 14.2156 10.7546 14.3424 10.3296C14.3487 10.3074 14.363 10.2598 14.3694 10.2361L14.3947 10.1409C14.4819 9.85075 14.9005 9.94272 14.8593 10.2424H14.8609Z" fill="#CC68FF"/>
</svg>
