<svg width="18" height="18" viewBox="0 0 18 18" fill="none" xmlns="http://www.w3.org/2000/svg">
<path fill-rule="evenodd" clip-rule="evenodd" d="M12.8116 0.446465C14.0253 0.370606 15.2222 0.792044 16.1241 1.61806C16.9501 2.51994 17.3716 3.71683 17.3042 4.939V12.8115C17.38 14.0337 16.9501 15.2305 16.1325 16.1324C15.2307 16.9584 14.0253 17.3799 12.8116 17.304H4.93904C3.71686 17.3799 2.51996 16.9584 1.61807 16.1324C0.792047 15.2305 0.370605 14.0337 0.446465 12.8115V4.939C0.370605 3.71683 0.792047 2.51994 1.61807 1.61806C2.51996 0.792044 3.71686 0.370606 4.93904 0.446465H12.8116ZM8.01568 12.9634L13.6883 7.27393C14.2024 6.75135 14.2024 5.90847 13.6883 5.39431L12.5925 4.29857C12.07 3.77599 11.2271 3.77599 10.7045 4.29857L10.1397 4.87173C10.0555 4.95602 10.0555 5.09931 10.1397 5.18359C10.1397 5.18359 11.4799 6.51534 11.5052 6.54906C11.5979 6.6502 11.6569 6.78506 11.6569 6.93678C11.6569 7.24022 11.4125 7.49308 11.1006 7.49308C10.9573 7.49308 10.8225 7.43408 10.7298 7.34136L9.32215 5.94218C9.25472 5.87475 9.13671 5.87475 9.06928 5.94218L5.04872 9.96271C4.77057 10.2409 4.61042 10.6117 4.60199 11.0079L4.55142 13.0055C4.55142 13.1151 4.58513 13.2162 4.66099 13.2921C4.73685 13.3679 4.838 13.4101 4.94758 13.4101H6.92835C7.33294 13.4101 7.72067 13.2499 8.01568 12.9634Z" fill="currentColor"/>
</svg>
