<svg width="40" height="40" viewBox="0 0 40 40" fill="none" xmlns="http://www.w3.org/2000/svg">
<path fill-rule="evenodd" clip-rule="evenodd" d="M19.995 18.8914C10.594 18.8927 14.9647 25.3965 8.98026 25.3986C3.2096 25.3994 0.973029 26.4799 0.974046 19.1686C1.06397 18.3426 -0.454202 11.0048 19.9949 11.002C40.4464 10.9991 38.9338 18.3373 39.0235 19.1633C39.0238 26.4936 36.7875 25.3934 31.0168 25.3942C25.0311 25.3951 29.3961 18.8901 19.995 18.8914Z" fill="currentColor"/>
<path opacity="0.4" d="M22 23.4307V28.5693C22 28.8071 21.328 29 20.5 29C19.672 29 19 28.8071 19 28.5693V23.4307C19 23.1929 19.672 23 20.5 23C21.328 23 22 23.1929 22 23.4307Z" fill="currentColor"/>
<mask id="mask0_1062_5313" style="mask-type:luminance" maskUnits="userSpaceOnUse" x="14" y="27" width="12" height="10">
<path fill-rule="evenodd" clip-rule="evenodd" d="M14.9999 27.4775H25.8963V36.417H14.9999V27.4775Z" fill="white"/>
</mask>
<g mask="url(#mask0_1062_5313)">
<path d="M25.8966 28.1881C25.8966 28.3207 25.8596 28.4514 25.7876 28.567L21.0498 36.0853C20.9191 36.2919 20.6927 36.4179 20.4482 36.4179C20.2038 36.4179 19.9774 36.2919 19.8467 36.0853L15.1089 28.567C14.9715 28.3482 14.963 28.0715 15.089 27.8451C15.214 27.6177 15.4518 27.4775 15.7105 27.4775H25.186C25.4447 27.4775 25.6825 27.6177 25.8075 27.8451C25.8672 27.9522 25.8966 28.0706 25.8966 28.1881Z" fill="currentColor"/>
</g>
</svg>
