<svg width="18" height="18" viewBox="0 0 18 18" fill="none" xmlns="http://www.w3.org/2000/svg">
<path d="M10.3215 3.21755C9.45478 3.21923 8.60413 3.45159 7.85691 3.89077C7.1097 4.32995 6.49286 4.96012 6.06975 5.71655C5.70542 5.54009 5.30607 5.44781 4.90125 5.44655C4.26629 5.44801 3.65252 5.67507 3.16949 6.08721C2.68647 6.49935 2.36563 7.06974 2.26425 7.69655C1.5939 7.97737 1.0214 8.4499 0.618587 9.05486C0.215772 9.65981 0.000577233 10.3703 0 11.097C0.00119252 12.0749 0.390486 13.0123 1.08237 13.7034C1.77425 14.3944 2.71213 14.7825 3.69 14.7825C3.8448 14.7809 3.99934 14.7696 4.15275 14.7488H14.9678C16.6965 14.5448 17.9985 13.0553 18 11.307V11.3003C17.9994 10.4998 17.7201 9.72443 17.21 9.10746C16.6999 8.49048 15.9909 8.07038 15.2048 7.9193C15.1581 6.6557 14.6231 5.45946 13.7123 4.58237C12.8015 3.70528 11.586 3.21649 10.3215 3.21755Z" fill="white"/>
</svg>
