<?xml version="1.0" encoding="UTF-8"?><svg id="Layer_1" xmlns="http://www.w3.org/2000/svg" viewBox="0 0 63 63"><defs><style>.cls-1{fill-rule:evenodd;}</style></defs><path class="cls-1" d="M31.5,59.19c15.29,0,27.69-12.4,27.69-27.69S46.79,3.81,31.5,3.81,3.81,16.21,3.81,31.5s12.4,27.69,27.69,27.69ZM44.72,39.99c.92,1.04.82,2.63-.22,3.55-1.04.92-2.63.82-3.55-.22-1.18-1.34-2.64-2.41-4.26-3.15-1.63-.73-3.39-1.11-5.18-1.11s-3.55.38-5.18,1.11c-1.63.74-3.08,1.81-4.26,3.15-.92,1.04-2.51,1.14-3.55.22-1.04-.92-1.14-2.51-.22-3.55,1.65-1.88,3.69-3.38,5.97-4.41,2.28-1.03,4.75-1.56,7.25-1.56s4.97.53,7.25,1.56c2.28,1.03,4.31,2.53,5.97,4.41h0ZM25.93,24.83c.34.24.55.62.48,1.02-.31,1.78-1.85,3.13-3.72,3.13-2.09,0-3.78-1.69-3.78-3.78,0-1.41.77-2.64,1.92-3.29.36-.2.79-.13,1.13.11l3.97,2.81ZM40.31,28.98c2.09,0,3.78-1.69,3.78-3.78,0-1.41-.78-2.64-1.92-3.29-.36-.2-.79-.13-1.13.11l-3.97,2.81c-.34.24-.55.62-.48,1.02.31,1.78,1.85,3.13,3.72,3.13h0Z"/></svg>