<?xml version="1.0" encoding="UTF-8" standalone="no"?>
<!DOCTYPE svg PUBLIC "-//W3C//DTD SVG 1.1//EN" "http://www.w3.org/Graphics/SVG/1.1/DTD/svg11.dtd">
<svg width="100%" height="100%" viewBox="0 0 25 17" version="1.1" xmlns="http://www.w3.org/2000/svg" xmlns:xlink="http://www.w3.org/1999/xlink" xml:space="preserve" xmlns:serif="http://www.serif.com/" style="fill-rule:evenodd;clip-rule:evenodd;stroke-linejoin:round;stroke-miterlimit:2;">
    <path d="M8.146,11.663C6.241,11.663 4.702,10.11 4.702,8.202C4.702,6.294 6.241,4.741 8.146,4.741C9.06,4.741 9.889,5.1 10.504,5.684C11.029,4.237 11.54,3.097 12.098,2.204C10.966,1.444 9.608,1 8.146,1C4.201,1 1,4.222 1,8.202C1,11.936 3.816,15.001 7.421,15.367L8.587,11.635C8.445,11.653 8.3,11.663 8.152,11.663L8.146,11.663L8.151,10.663C8.502,10.663 8.834,10.586 9.134,10.453L10.145,10.002L8.142,16.412L7.757,16.394C3.443,16.19 0,12.605 0,8.202C0,3.667 3.651,0 8.146,0C10.003,0 11.714,0.628 13.085,1.683L13.465,1.975L13.189,2.367C12.455,3.408 11.831,4.862 11.151,6.86L10.8,7.893L10.247,6.953C9.822,6.23 9.043,5.741 8.145,5.741C6.792,5.741 5.702,6.847 5.702,8.202C5.702,9.558 6.792,10.663 8.146,10.663L8.146,11.663Z" style="fill:rgb(255,103,103);"/>
    <path d="M16.178,11.72L16.17,11.721L15.719,12.023L15.262,11.321L15.375,11.056L15.838,11.744L15.808,10.745L16.096,10.724L16.134,11.552L16.135,11.551L16.105,10.723C17.514,10.62 18.685,10.153 19.576,9.388C20.119,8.921 20.565,8.335 20.9,7.642C19.962,7.716 18.735,7.707 17.586,7.374L17.209,7.264L17.287,5.507L17.673,5.432C20.772,4.827 22.726,3.299 23.623,1.262L20.909,1.262C18.068,1.262 16.528,1.358 15.376,2.31C14.807,2.78 14.31,3.483 13.8,4.545C13.258,5.676 12.724,7.168 12.107,9.143L10.112,15.525C12.378,15.069 14.32,13.521 15.259,11.327L15.719,12.023L16.178,11.72C14.99,14.497 12.391,16.365 9.444,16.632L8.698,16.699L11.153,8.845C11.788,6.812 12.34,5.277 12.899,4.113C13.489,2.884 14.081,2.083 14.739,1.539C16.028,0.474 17.73,0.262 20.909,0.262L25.029,0.262L24.822,0.913C24.004,3.491 21.879,5.518 18.251,6.332L18.243,6.509C19.184,6.716 20.151,6.703 20.897,6.639C21.16,6.616 21.401,6.583 21.607,6.553L22.413,6.435L22.154,7.207C21.747,8.42 21.088,9.407 20.227,10.147C19.187,11.04 17.824,11.6 16.178,11.72Z" style="fill:rgb(255,103,103);"/>
</svg>
