<svg width="32" height="25" viewBox="0 0 32 25" fill="none" xmlns="http://www.w3.org/2000/svg">
<path d="M30.1986 1.74035C27.8781 -0.580117 24.106 -0.580117 21.7745 1.74035C19.4541 4.06082 19.4541 7.83295 21.7745 10.1644C24.095 12.4959 27.8671 12.4849 30.1986 10.1644C31.3093 9.04267 31.9362 7.53602 31.9362 5.95238C31.9362 4.36875 31.3093 2.85109 30.1986 1.74035ZM29.2638 9.22963C27.4492 11.0442 24.5239 11.0332 22.7093 9.22963C20.8947 7.41504 20.9057 4.48972 22.7093 2.67513C24.5239 0.87155 27.4492 0.87155 29.2638 2.67513C31.0674 4.47872 31.0674 7.41504 29.2638 9.22963Z" fill="#EF064E"/>
<path d="M28.3844 5.29259H26.6468V3.55499C26.6468 3.19207 26.3499 2.89514 25.987 2.89514C25.6241 2.89514 25.3271 3.19207 25.3271 3.55499V5.29259H23.5895C23.2266 5.29259 22.9297 5.58952 22.9297 5.95244C22.9297 6.31536 23.2266 6.61229 23.5895 6.61229H25.3271V8.34989C25.3271 8.7128 25.6241 9.00974 25.987 9.00974C26.3499 9.00974 26.6468 8.7128 26.6468 8.34989V6.61229H28.3844C28.7473 6.61229 29.0443 6.31536 29.0443 5.95244C29.0443 5.58952 28.7473 5.29259 28.3844 5.29259Z" fill="#EF064E"/>
<path d="M25.987 13.6945C25.6241 13.6945 25.3272 13.9915 25.3272 14.3544V22.9544C25.3272 23.3503 24.9972 23.6803 24.6013 23.6803H2.05653C1.66062 23.6803 1.33069 23.3503 1.33069 22.9544V20.293L5.91664 15.7181C6.24656 15.3882 6.78544 15.3882 7.11536 15.7181L10.7885 19.3912C11.6353 20.238 13.01 20.238 13.8568 19.3912L21.0052 12.2429C21.2581 11.9899 21.2581 11.572 21.0052 11.3081C20.7522 11.0552 20.3343 11.0552 20.0704 11.3081L12.922 18.4565C12.5921 18.7864 12.0532 18.7864 11.7233 18.4565L8.05015 14.7833C7.20334 13.9365 5.82866 13.9365 4.98185 14.7833L1.33069 18.4345V7.33801C1.33069 6.9421 1.66062 6.61218 2.05653 6.61218H17.574C17.9369 6.61218 18.2338 6.31525 18.2338 5.95233C18.2338 5.58941 17.9369 5.29248 17.574 5.29248H2.04553C0.912789 5.29248 0 6.20527 0 7.33801V22.9544C0 24.0872 0.912789 24.9999 2.04553 24.9999H24.6013C25.7341 24.9999 26.6469 24.0872 26.6469 22.9544V14.3544C26.6469 13.9805 26.3499 13.6945 25.987 13.6945Z" fill="white"/>
<path d="M7.75293 11.2311C7.75293 12.9137 9.11662 14.2884 10.8102 14.2884C12.5038 14.2884 13.8675 12.9247 13.8675 11.2311C13.8675 9.54851 12.5038 8.17383 10.8102 8.17383C9.11662 8.17383 7.75293 9.54851 7.75293 11.2311ZM12.5368 11.2311C12.5368 12.1879 11.756 12.9687 10.7992 12.9687C9.84245 12.9687 9.06163 12.1879 9.06163 11.2311C9.06163 10.2743 9.83145 9.49352 10.7882 9.49352C11.756 9.49352 12.5368 10.2743 12.5368 11.2311Z" fill="white"/>
</svg>
