<?xml version="1.0" encoding="UTF-8"?>
<svg id="Layer_1" xmlns="http://www.w3.org/2000/svg" version="1.1" viewBox="0 0 20 20">
  <!-- Generator: Adobe Illustrator 30.2.1, SVG Export Plug-In . SVG Version: 2.1.1 Build 1)  -->
  <defs>
    <style>
      .st0 {
        fill: #fff;
      }
    </style>
  </defs>
  <path class="st0" d="M16.2,4.8h-1.5v-1.8c0-.3-.3-.6-.6-.6s-.6.3-.6.6v1.9h-7v-1.9c0-.3-.3-.6-.6-.6s-.6.3-.6.6v1.9h-1.5c-1.4,0-2.5,1.1-2.5,2.5v.6h17.4v-.6c0-1.4-1.1-2.5-2.5-2.5,0,0,0,0,0,0Z"/>
  <path class="st0" d="M1.3,15.2c0,1.4,1.1,2.5,2.5,2.5h12.5c1.4,0,2.5-1.1,2.5-2.5v-6.1H1.3v6.1ZM9.5,13.4h1.9c.3,0,.6.3.6.6s-.3.6-.6.6h-1.9c-.3,0-.6-.3-.6-.6s.3-.6.6-.6ZM4,10.6h1.8c.3,0,.6.3.6.6s-.3.6-.6.6h-1.8c-.3,0-.6-.3-.6-.6s.3-.6.6-.6ZM4,13.4h1.8c.3,0,.6.3.6.6s-.3.6-.6.6h-1.8c-.3,0-.6-.3-.6-.6s.3-.6.6-.6Z"/>
</svg>