<?xml version="1.0" encoding="UTF-8"?><svg id="Layer_1" xmlns="http://www.w3.org/2000/svg" viewBox="0 0 63 63"><path d="M9.71,31.19c.62-.01,1.17-.05,1.67-.09,2.54-.49,4.5-1.48,6.24-2.36,2.46-1.26,4.79-2.45,7.94-1.7,1.17.28,2,.72,2.73,1.11,1.01.53,1.82.96,3.34.96h0c1.53,0,2.33-.42,3.34-.96.73-.39,1.56-.82,2.73-1.11.71-.17,1.37-.25,1.99-.25,2.17,0,3.96.9,5.96,1.91,1.79.91,3.82,1.92,6.51,2.42.42.03.87.05,1.38.06,2.45.06,4.93-.17,7.38-.64-.81-.57-1.61-1.16-2.4-1.76-4.88-3.7-8.15-6.77-10.78-9.24-3.7-3.48-5.73-5.39-8.56-5.45-1.36-.05-2.74.79-4.09,1.58-1.3.76-2.49,1.48-3.71,1.43-1.08-.04-2.09-.68-3.16-1.36-1.36-.86-2.78-1.75-4.53-1.66-3.94.19-8.42,4.65-12.76,8.97-2.98,2.96-5.82,5.79-8.59,7.42.31.09.61.18.91.26,2.14.35,4.29.52,6.44.46h0Z"/><path d="M31.62,48.92c9.17-.13,22.15-3.94,28.55-14.23.51-.82.96-1.67,1.37-2.54-2.07.56-4.1.85-6.06.85-1.06,0-2.11-.08-3.13-.25-.13-.02-.25-.05-.37-.07-1.65-.12-2.77-.35-3.78-.56-1.23-.26-2.29-.47-4.03-.41-3.26.11-4.95,1.06-6.58,1.97-1.6.9-3.27,1.84-6.16,1.81-2.83-.03-4.43-.94-5.98-1.83-1.57-.9-3.19-1.82-6.36-1.95-1.76-.07-2.84.15-4.09.41-.94.19-1.97.4-3.4.53-.14.03-.28.06-.43.08-2.63.43-5.4.26-8.26-.48-.48-.08-.96-.16-1.45-.26.43,1.32.98,2.58,1.65,3.77,7.53,13.3,27.65,13.17,28.51,13.16h0Z"/></svg>