<?xml version="1.0" encoding="UTF-8"?>
<svg id="Layer_1" xmlns="http://www.w3.org/2000/svg" xmlns:serif="http://www.serif.com/" version="1.1" viewBox="0 0 91 91">
  <!-- Generator: Adobe Illustrator 30.0.0, SVG Export Plug-In . SVG Version: 2.1.1 Build 123)  -->
  <defs>
    <style>
      .st0 {
        fill: #ff6767;
        fill-rule: evenodd;
      }
    </style>
  </defs>
  <path class="st0" d="M77.7,13.2C69.2,4.7,57.8,0,45.7,0,20.7,0,.4,20.2.4,45.1c0,7.9,2.1,15.7,6,22.5L0,90.9l24-6.3c6.6,3.6,14.1,5.5,21.7,5.5h0c25,0,45.3-20.2,45.3-45.1,0-12-4.7-23.4-13.3-31.9h0ZM45.7,82.5h0c-6.8,0-13.4-1.8-19.2-5.2l-1.4-.8-14.3,3.7,3.8-13.8-.9-1.4c-3.8-6-5.8-12.9-5.8-19.9,0-20.6,16.9-37.4,37.7-37.4,10.1,0,19.5,3.9,26.6,11,7.1,7.1,11,16.5,11,26.5,0,20.7-16.9,37.5-37.7,37.5h0ZM66.3,54.5c-1.1-.6-6.7-3.3-7.7-3.7-1-.4-1.8-.6-2.5.6-.8,1.1-2.9,3.7-3.6,4.4-.7.7-1.3.8-2.5.3-1.1-.6-4.8-1.8-9.1-5.6-3.4-3-5.6-6.7-6.3-7.8-.7-1.1,0-1.7.5-2.3.5-.5,1.1-1.3,1.7-2,.6-.7.8-1.1,1.1-1.9.4-.7.2-1.4,0-2-.3-.6-2.5-6.1-3.5-8.4-.9-2.2-1.9-1.9-2.5-1.9-.7,0-1.4,0-2.2,0s-2,.3-3,1.4c-1,1.1-4,3.9-4,9.4s4.1,10.9,4.6,11.6c.6.8,8,12.1,19.3,17,2.7,1.2,4.8,1.9,6.5,2.4,2.7.9,5.2.7,7.1.4,2.2-.3,6.7-2.7,7.6-5.4.9-2.6.9-4.9.7-5.4-.3-.5-1-.8-2.2-1.3h0Z"/>
</svg>