<?xml version="1.0" encoding="UTF-8"?><svg id="Layer_1" xmlns="http://www.w3.org/2000/svg" viewBox="0 0 63 63"><path d="M20.87.46c-.59,0-1.07.48-1.07,1.07v19.29c0,6.09,4.67,11.09,10.63,11.64v9.65c-1.12-1.81-2.81-3.63-5.38-5.1-2.07-1.19-4.04-1.78-5.84-2-.51-.06-1-.09-1.48-.1-4.62-.07-7.78,2.15-7.78,2.15-.23.17-.38.42-.43.69,0,0-.34,2.09.45,4.73.79,2.64,2.72,5.92,7.05,8.41,4.33,2.49,8.14,2.54,10.82,1.89,1.02-.24,1.89-.59,2.57-.92v9.57c0,.59.48,1.07,1.07,1.07h0c.59,0,1.07-.48,1.07-1.07v-9.57c.69.33,1.55.68,2.57.92,2.68.64,6.5.6,10.82-1.89,4.33-2.49,6.27-5.77,7.05-8.41s.45-4.73.45-4.73c-.05-.28-.2-.53-.43-.69,0,0-3.16-2.22-7.78-2.15-.48,0-.97.04-1.48.1-1.8.22-3.78.81-5.84,2-2.56,1.48-4.26,3.29-5.37,5.1v-9.65c5.95-.54,10.61-5.52,10.63-11.6,0,0,0,0,0,0,0-.01,0-.02,0-.03,0-.07.05-.68,0-1.53-.06-.89-.17-1.99-.74-2.95C37.99,8.76,30.02.46,20.87.45h0ZM42.13.46c-2.61,0-5.14.7-7.51,1.86,3.39,2.59,6.27,5.9,8.57,9.24V1.53c0-.59-.47-1.07-1.07-1.07Z"/></svg>