<svg width="19" height="24" viewBox="0 0 19 24" fill="none" xmlns="http://www.w3.org/2000/svg">
<path d="M8.66032 0.351468C9.12404 -0.117156 9.87596 -0.117156 10.3397 0.351468L15.0897 5.15147C15.5534 5.6201 15.5534 6.3799 15.0897 6.84853C14.626 7.31716 13.874 7.31716 13.4103 6.84853L10.6875 4.09705V16.8C10.6875 17.4628 10.1559 18 9.5 18C8.84414 18 8.3125 17.4628 8.3125 16.8V4.09705L5.58969 6.84853C5.12594 7.31716 4.37406 7.31716 3.91031 6.84853C3.44656 6.3799 3.44656 5.6201 3.91031 5.15147L8.66032 0.351468ZM1.1875 18C1.84333 18 2.375 18.5372 2.375 19.2V21.6H16.625V19.2C16.625 18.5372 17.1566 18 17.8125 18C18.4684 18 19 18.5372 19 19.2V21.6C19 22.9255 17.9367 24 16.625 24H2.375C1.06332 24 0 22.9255 0 21.6V19.2C0 18.5372 0.531667 18 1.1875 18Z" fill="white"/>
</svg>
