<?xml version="1.0" encoding="UTF-8"?>
<svg id="Layer_1" xmlns="http://www.w3.org/2000/svg" version="1.1" viewBox="0 0 63 63" fill="currentColor">
  <defs>
    <style>
      .st0 {
        fill-rule: evenodd;
      }
    </style>
  </defs>
  <path class="st0" d="M19.3,41.1v-16h0v-5.1c0-2.1-1.4-2.8-3.1-1.5L2.4,29.2c-1.7,1.3-1.7,3.4,0,4.7l13.9,10.6c1.7,1.3,3.1.6,3.1-1.5v-1.8h0Z"/>
  <rect x="23.2" y="27" width="15" height="9"/>
  <path class="st0" d="M60.6,29.2h0l-13.9-10.6c-1.7-1.3-3.1-.6-3.1,1.5v5.1h0v16h0v1.8c0,2.1,1.4,2.8,3.1,1.5l13.9-10.6c1.7-1.3,1.7-3.4,0-4.7Z"/>
</svg>