<?xml version="1.0" encoding="UTF-8"?>
<svg id="Layer_1" xmlns="http://www.w3.org/2000/svg" xmlns:serif="http://www.serif.com/" version="1.1" viewBox="0 0 91 91">
  <!-- Generator: Adobe Illustrator 30.0.0, SVG Export Plug-In . SVG Version: 2.1.1 Build 123)  -->
  <defs>
    <style>
      .st0 {
        fill: #ff6767;
      }
    </style>
  </defs>
  <path class="st0" d="M62.6,13c-3-2-5.2-5.1-5.9-8.7-.1-.8-.2-1.6-.2-2.4h-9.7v38.4c-.2,4.3-3.8,7.8-8.1,7.8s-2.6-.3-3.8-.9c-2.6-1.4-4.4-4-4.4-7.1,0-4.4,3.7-8.1,8.1-8.1s1.6.1,2.4.4v-9.8c-.8-.1-1.6-.2-2.4-.2-9.8,0-17.8,7.9-17.8,17.7s3,11.3,7.6,14.5c2.9,2,6.4,3.2,10.2,3.2,9.8,0,17.8-7.9,17.8-17.6v-19.5c3.8,2.7,8.5,4.3,13.5,4.3v-9.6c-2.7,0-5.2-.8-7.3-2.2h0Z"/>
  <path class="st0" d="M0,68.4h15.6l-1.4,4.4h-4s0,16.3,0,16.3h-5v-16.3H0s0-4.4,0-4.4h0Z"/>
  <path class="st0" d="M41.2,68.4h16l-1.4,4.4h-4.4s0,16.3,0,16.3h-5v-16.3h-5.1s0-4.4,0-4.4h0Z"/>
  <path class="st0" d="M16.6,75h5v14.2h-5v-14.2Z"/>
  <path class="st0" d="M23.5,68.4h5v9.7l5-4.8h6l-6.3,6,7,9.9h-5.5l-4.7-6.9-1.5,1.4v5.5h-5v-20.8Z"/>
  <path class="st0" d="M74.3,68.4h5v9.7l5-4.8h6l-6.3,6,7,9.9h-5.5l-4.7-6.9-1.5,1.4v5.5h-5v-20.8Z"/>
  <path class="st0" d="M19.1,73.4c1.4,0,2.5-1.1,2.5-2.5s-1.1-2.5-2.5-2.5-2.5,1.1-2.5,2.5,1.1,2.5,2.5,2.5Z"/>
  <path class="st0" d="M63.8,72.2c-4.7,0-8.6,3.8-8.6,8.5s3.8,8.5,8.6,8.5,8.6-3.8,8.6-8.5-3.8-8.5-8.6-8.5ZM63.8,84.8c-2.3,0-4.2-1.8-4.2-4.1s1.9-4.1,4.2-4.1,4.2,1.8,4.2,4.1-1.9,4.1-4.2,4.1Z"/>
</svg>