<?xml version="1.0" encoding="UTF-8" standalone="no"?>
<!DOCTYPE svg PUBLIC "-//W3C//DTD SVG 1.1//EN" "http://www.w3.org/Graphics/SVG/1.1/DTD/svg11.dtd">
<svg width="100%" height="100%" viewBox="0 0 25 25" version="1.1" xmlns="http://www.w3.org/2000/svg" xmlns:xlink="http://www.w3.org/1999/xlink" xml:space="preserve" xmlns:serif="http://www.serif.com/" style="fill-rule:evenodd;clip-rule:evenodd;stroke-linejoin:round;stroke-miterlimit:2;">
    <path d="M24.911,18.285C24.737,17.805 24.406,17.548 24.029,17.335C23.958,17.293 23.893,17.259 23.837,17.233C23.725,17.174 23.61,17.117 23.496,17.057C22.321,16.424 21.404,15.627 20.768,14.681C20.587,14.415 20.43,14.133 20.299,13.838C20.245,13.681 20.248,13.591 20.287,13.509C20.325,13.447 20.377,13.392 20.437,13.351C20.639,13.215 20.847,13.078 20.988,12.985C21.24,12.819 21.439,12.688 21.567,12.596C22.05,12.253 22.387,11.889 22.598,11.483C22.745,11.202 22.831,10.892 22.849,10.575C22.868,10.257 22.819,9.939 22.706,9.642C22.386,8.789 21.592,8.259 20.63,8.259C20.427,8.259 20.225,8.281 20.027,8.324C19.974,8.335 19.921,8.348 19.869,8.361C19.878,7.778 19.865,7.162 19.814,6.555C19.633,4.424 18.898,3.306 18.131,2.415C17.64,1.857 17.062,1.384 16.42,1.017C15.257,0.342 13.938,0 12.5,0C11.062,0 9.749,0.342 8.585,1.017C7.941,1.384 7.362,1.858 6.871,2.418C6.104,3.309 5.369,4.428 5.188,6.558C5.136,7.164 5.124,7.784 5.132,8.364C5.08,8.35 5.028,8.338 4.975,8.326C4.776,8.283 4.574,8.261 4.371,8.262C3.409,8.262 2.613,8.791 2.295,9.645C2.182,9.942 2.132,10.26 2.15,10.578C2.169,10.896 2.254,11.206 2.401,11.487C2.612,11.894 2.949,12.258 3.432,12.6C3.559,12.691 3.759,12.822 4.011,12.989C4.147,13.079 4.346,13.21 4.541,13.341C4.609,13.386 4.667,13.445 4.71,13.514C4.751,13.599 4.753,13.69 4.692,13.859C4.563,14.148 4.409,14.424 4.231,14.685C3.609,15.609 2.719,16.392 1.582,17.019C0.98,17.343 0.354,17.56 0.089,18.29C-0.11,18.84 0.02,19.467 0.527,19.995C0.713,20.192 0.928,20.357 1.165,20.486C1.659,20.761 2.184,20.974 2.728,21.12C2.841,21.15 2.947,21.198 3.044,21.264C3.229,21.428 3.202,21.675 3.448,22.037C3.572,22.224 3.729,22.386 3.911,22.514C4.427,22.876 5.007,22.899 5.621,22.923C6.176,22.944 6.805,22.969 7.524,23.209C7.822,23.309 8.131,23.503 8.489,23.728C9.35,24.265 10.527,25 12.499,25C14.47,25 15.656,24.261 16.523,23.722C16.878,23.501 17.186,23.309 17.475,23.212C18.194,22.971 18.823,22.947 19.378,22.925C19.992,22.901 20.572,22.879 21.088,22.517C21.304,22.364 21.484,22.165 21.615,21.933C21.792,21.628 21.787,21.414 21.953,21.265C22.044,21.203 22.144,21.156 22.25,21.128C22.802,20.981 23.334,20.766 23.834,20.487C24.086,20.35 24.313,20.169 24.504,19.954L24.511,19.946C24.986,19.43 25.105,18.822 24.911,18.285ZM23.159,19.24C22.09,19.84 21.38,19.776 20.827,20.137C20.358,20.444 20.636,21.105 20.294,21.344C19.875,21.637 18.637,21.323 17.037,21.859C15.717,22.302 14.875,23.576 12.502,23.576C10.128,23.576 9.306,22.305 7.965,21.856C6.368,21.32 5.127,21.634 4.707,21.34C4.367,21.102 4.643,20.44 4.175,20.134C3.621,19.772 2.911,19.836 1.843,19.24C1.163,18.859 1.549,18.623 1.775,18.512C5.646,16.609 6.264,13.671 6.291,13.453C6.325,13.189 6.362,12.982 6.075,12.713C5.799,12.454 4.572,11.682 4.231,11.441C3.668,11.042 3.42,10.643 3.603,10.153C3.731,9.813 4.042,9.686 4.369,9.686C4.473,9.686 4.576,9.698 4.677,9.721C5.295,9.857 5.895,10.171 6.242,10.256C6.284,10.267 6.327,10.273 6.37,10.274C6.555,10.274 6.62,10.179 6.607,9.964C6.568,9.277 6.472,7.939 6.579,6.688C6.725,4.966 7.271,4.114 7.92,3.359C8.232,2.997 9.696,1.425 12.497,1.425C15.298,1.425 16.767,2.99 17.078,3.352C17.728,4.106 18.275,4.959 18.42,6.68C18.526,7.931 18.434,9.27 18.391,9.956C18.376,10.182 18.443,10.266 18.629,10.266C18.672,10.265 18.715,10.26 18.756,10.249C19.104,10.164 19.704,9.849 20.323,9.713C20.423,9.69 20.526,9.678 20.63,9.678C20.959,9.678 21.268,9.808 21.396,10.145C21.579,10.635 21.332,11.034 20.768,11.434C20.428,11.675 19.201,12.445 18.924,12.705C18.637,12.974 18.675,13.181 18.708,13.445C18.736,13.666 19.353,16.604 23.224,18.504C23.453,18.62 23.839,18.856 23.159,19.24Z" style="fill:rgb(255,103,103);fill-rule:nonzero;"/>
</svg>
