<?xml version="1.0" encoding="UTF-8" standalone="no"?>
<!DOCTYPE svg PUBLIC "-//W3C//DTD SVG 1.1//EN" "http://www.w3.org/Graphics/SVG/1.1/DTD/svg11.dtd">
<svg width="100%" height="100%" viewBox="0 0 28 25" version="1.1" xmlns="http://www.w3.org/2000/svg" xmlns:xlink="http://www.w3.org/1999/xlink" xml:space="preserve" xmlns:serif="http://www.serif.com/" style="fill-rule:evenodd;clip-rule:evenodd;stroke-linejoin:round;stroke-miterlimit:2;">
    <path d="M26.214,1.629L26.639,0.606L26.769,0.733L26.351,1.764L26.798,0.764C27.185,1.197 27.292,1.695 27.334,1.955C27.365,2.142 27.401,2.496 27.4,2.852L26.8,3.449L27.399,2.882L27.387,3.179L26.787,3.762L27.385,3.215C27.035,7.121 25.527,16.551 24.763,20.891C24.574,21.962 24.27,22.747 23.883,23.294C23.41,23.962 22.795,24.317 22.125,24.383C21.125,24.481 20.275,24.137 19.534,23.675C19.203,23.468 18.879,23.229 18.566,22.993C18.268,22.768 17.981,22.547 17.676,22.335C16.655,21.624 15.855,21.047 15.066,20.477C14.675,20.194 14.286,19.912 13.873,19.616L12.533,18.667C11.834,18.178 11.347,17.673 11.084,17.137C10.754,16.465 10.78,15.813 11.025,15.22C11.218,14.751 11.558,14.329 11.896,13.964C12.048,13.799 12.214,13.631 12.374,13.466C12.529,13.308 12.682,13.151 12.839,12.977L13.226,12.585L13.228,12.583C13.268,12.544 13.31,12.502 13.354,12.458C12.477,13.084 11.515,13.772 10.469,14.522C9.378,15.317 8.29,15.75 7.245,15.727C6.719,15.714 6.006,15.567 5.308,15.381C4.631,15.201 3.912,14.972 3.303,14.762C2.602,14.52 1.85,14.293 1.323,14.023C0.987,13.85 0.647,13.615 0.398,13.29C0.093,12.892 -0.048,12.414 0.014,11.881C0.087,11.265 0.476,10.77 0.93,10.411C1.309,10.113 1.821,9.832 2.442,9.569C9.142,6.47 13.616,4.424 15.859,3.433C19.066,2.016 21.018,1.179 22.278,0.693C23.625,0.174 24.316,0.012 24.909,0C25.094,-0.003 25.36,0.017 25.64,0.088C25.93,0.162 26.293,0.305 26.605,0.574L26.214,1.629ZM26.2,2.847L26.2,2.834C26.2,2.561 26.173,2.291 26.15,2.146C26.13,2.023 26.092,1.783 25.914,1.576L25.809,1.472C25.658,1.348 25.483,1.286 25.345,1.251C25.186,1.211 25.035,1.198 24.93,1.2C24.429,1.21 23.85,1.373 22.71,1.813C21.46,2.294 19.524,3.126 16.344,4.531C14.103,5.52 9.632,7.565 2.928,10.667L2.919,10.671C2.409,10.886 1.984,11.109 1.673,11.354C1.459,11.523 1.241,11.732 1.206,12.022C1.182,12.225 1.234,12.408 1.35,12.56C1.489,12.74 1.685,12.859 1.872,12.955C2.356,13.204 3.05,13.406 3.695,13.628C4.278,13.829 4.967,14.049 5.616,14.222C6.214,14.381 6.822,14.516 7.273,14.527C8.085,14.545 8.917,14.169 9.768,13.549L9.77,13.547C12.906,11.299 15.283,9.607 16.899,8.473C17.45,8.086 17.913,7.765 18.286,7.508L19.064,8.413C18.494,9.021 17.741,9.789 16.976,10.556C15.846,11.689 14.671,12.841 14.076,13.432L13.719,13.793C13.561,13.968 13.398,14.136 13.233,14.305C13.08,14.461 12.922,14.622 12.776,14.779C12.532,15.043 12.274,15.339 12.134,15.678C12.015,15.965 12.001,16.282 12.161,16.607C12.35,16.992 12.721,17.334 13.225,17.687L14.57,18.639L14.571,18.64C14.986,18.937 15.376,19.22 15.77,19.505C16.553,20.071 17.347,20.644 18.361,21.35C18.679,21.571 18.978,21.801 19.289,22.035C19.574,22.25 19.868,22.469 20.169,22.657C20.697,22.986 21.295,23.258 22.008,23.189C22.355,23.155 22.659,22.947 22.904,22.6C23.212,22.166 23.431,21.534 23.581,20.683C24.34,16.376 25.836,7.027 26.188,3.13L26.2,2.847Z" style="fill:rgb(255,103,103);"/>
</svg>
