<?xml version="1.0" encoding="UTF-8"?><svg id="Layer_1" xmlns="http://www.w3.org/2000/svg" viewBox="0 0 63 63"><defs><style>.cls-1{fill-rule:evenodd;}</style></defs><path class="cls-1" d="M56.42,16.35v17.01c0,5.39-4.38,9.77-9.77,9.77h-17.07l-12.34,12.9c-.36.38-.91.49-1.39.3-.48-.19-.8-.66-.79-1.18l.02-12.1c-4.79-.62-8.5-4.73-8.5-9.69v-17.01c0-5.39,4.38-9.77,9.77-9.77h30.3c5.39,0,9.77,4.38,9.77,9.77h0ZM14.61,26.01c-.7,0-1.27-.57-1.27-1.27s.57-1.27,1.27-1.27h23.65c.7,0,1.27.57,1.27,1.27s-.57,1.27-1.27,1.27H14.61ZM14.61,19.25c-.7,0-1.27-.57-1.27-1.27s.57-1.27,1.27-1.27h33.79c.7,0,1.27.57,1.27,1.27s-.57,1.27-1.27,1.27H14.61ZM14.61,32.77c-.7,0-1.27-.57-1.27-1.27s.57-1.27,1.27-1.27h16.9c.7,0,1.27.57,1.27,1.27s-.57,1.27-1.27,1.27H14.61Z"/></svg>