<?xml version="1.0" encoding="UTF-8"?><svg id="Layer_1" xmlns="http://www.w3.org/2000/svg" viewBox="0 0 63 63"><path d="M56.45,9.79c-.35-.34-.86-.54-1.38-.56-.53.02-1.05.17-1.44.49l-4.03,3.54c-.49.43-.66,1.04-.51,1.62l1.66,5.79-6.37,4.77,2.55-5.19c.21-.46.21-.97-.04-1.41-.25-.46-.72-.78-1.29-.9l-5.32-1.16,5.2-8.22c.35-.56.33-1.23-.06-1.75-.39-.53-1.07-.83-1.77-.78-5.16.34-9.48,2.32-12.15,5.47-3.43-4-9-5.52-13.59-5.52-3.84,0-7.46.97-9.93,2.66-2.69,1.82-5.61,5.82-5.69,11.61-.1,7.49,4.67,19.91,27.98,36.44.35.26.8.37,1.23.37s.88-.12,1.23-.37c21.89-15.53,27.26-27.38,27.9-34.57.6-6.85-2.73-10.9-4.19-12.31Z"/></svg>