<svg width="28" height="25" viewBox="0 0 28 25" fill="none" xmlns="http://www.w3.org/2000/svg">
<path d="M24.9199 0.600342C25.065 0.597768 25.2727 0.614061 25.4922 0.669678C25.7089 0.724622 25.9809 0.828664 26.2139 1.02905L26.3506 1.16382C26.6374 1.48537 26.711 1.85798 26.7422 2.05054C26.7693 2.21784 26.801 2.53265 26.7998 2.84937L26.7871 3.16187C26.4383 7.05595 24.9344 16.4595 24.1719 20.7869C24.0026 21.7478 23.741 22.4562 23.3936 22.947C23.0346 23.4542 22.5753 23.736 22.0664 23.7859C21.2099 23.8695 20.4858 23.5613 19.8516 23.1658C19.5355 22.9686 19.2263 22.7396 18.9277 22.5144C18.6233 22.2848 18.33 22.0592 18.0186 21.8425C17.0008 21.134 16.2036 20.559 15.418 19.991C15.0253 19.707 14.6357 19.4245 14.2217 19.1277L12.8799 18.1775C12.2782 17.7565 11.8486 17.3326 11.6221 16.8718C11.377 16.3735 11.3972 15.8892 11.5791 15.449C11.7459 15.0452 12.0454 14.6857 12.3359 14.3718C12.485 14.2107 12.6469 14.0462 12.8037 13.8855C12.9632 13.7221 13.1216 13.5591 13.2754 13.3894L13.6514 13.0085C14.2451 12.4184 15.4211 11.2655 16.5508 10.1326C17.3113 9.36988 18.0598 8.60633 18.626 8.00269C18.2539 8.25848 17.7932 8.57823 17.2441 8.96362C15.6284 10.0977 13.2536 11.7881 10.1191 14.0349C9.14832 14.7422 8.18791 15.148 7.25879 15.1267C6.77076 15.1154 6.11025 14.9741 5.46191 14.8015C4.79885 14.625 4.09522 14.4009 3.49902 14.1951C2.82616 13.9629 2.1027 13.7487 1.59766 13.489C1.33629 13.3546 1.06783 13.1773 0.874023 12.9246C0.663842 12.6503 0.566989 12.3194 0.610352 11.9519C0.663972 11.4984 0.967564 11.1462 1.30176 10.8826C1.64734 10.61 2.11796 10.3575 2.68555 10.1179C9.38516 7.01806 13.8592 4.97277 16.1016 3.98218V3.9812C19.2952 2.57064 21.239 1.73638 22.4941 1.25269C23.7375 0.773518 24.3719 0.61058 24.9189 0.600342H24.9199Z" stroke="white" stroke-width="1.2"/>
</svg>
