<?xml version="1.0" encoding="UTF-8"?><svg id="Layer_1" xmlns="http://www.w3.org/2000/svg" viewBox="0 0 63 63" fill="currentColor"><path d="M14.72,19.2c2.24-2.24,5.22-3.48,8.39-3.48s6.15,1.24,8.39,3.48c2.24-2.24,5.22-3.48,8.39-3.48s6.15,1.24,8.39,3.48c4.63,4.63,4.63,12.15,0,16.78l-15.58,15.58c-.33.33-.77.5-1.2.5s-.87-.16-1.2-.5l-15.58-15.58c-4.63-4.63-4.63-12.15,0-16.78h0ZM31.5,7.77c.94,0,1.7-.76,1.7-1.7v-3.39c0-.94-.76-1.7-1.7-1.7s-1.7.76-1.7,1.7v3.39c0,.94.76,1.7,1.7,1.7ZM50.67,9.93l-2.4,2.4c-.66.66-.66,1.73,0,2.4.33.33.77.5,1.2.5s.87-.17,1.2-.5l2.4-2.4c.66-.66.66-1.73,0-2.4-.66-.66-1.73-.66-2.4,0ZM60.31,29.81h-3.39c-.94,0-1.7.76-1.7,1.7s.76,1.7,1.7,1.7h3.39c.94,0,1.7-.76,1.7-1.7s-.76-1.7-1.7-1.7ZM50.67,48.28c-.66-.66-1.73-.66-2.4,0-.66.66-.66,1.73,0,2.4l2.4,2.4c.33.33.77.5,1.2.5s.87-.16,1.2-.5c.66-.66.66-1.73,0-2.4l-2.4-2.4ZM31.5,55.23c-.94,0-1.7.76-1.7,1.7v3.39c0,.94.76,1.7,1.7,1.7s1.7-.76,1.7-1.7v-3.39c0-.94-.76-1.7-1.7-1.7ZM12.33,48.28l-2.4,2.4c-.66.66-.66,1.73,0,2.4.33.33.77.5,1.2.5s.87-.16,1.2-.5l2.4-2.4c.66-.66.66-1.73,0-2.4-.66-.66-1.73-.66-2.4,0ZM6.08,29.81h-3.39c-.94,0-1.7.76-1.7,1.7s.76,1.7,1.7,1.7h3.39c.94,0,1.7-.76,1.7-1.7s-.76-1.7-1.7-1.7ZM12.33,14.72c.33.33.77.5,1.2.5s.87-.16,1.2-.5c.66-.66.66-1.73,0-2.4l-2.4-2.4c-.66-.66-1.73-.66-2.4,0s-.66,1.73,0,2.4l2.4,2.4Z"/></svg>