<svg width="18" height="10" viewBox="0 0 18 10" fill="currentColor" xmlns="http://www.w3.org/2000/svg">
<path d="M17.6477 3.24903C17.3043 2.44037 16.7337 1.75402 16.0144 1.26819C15.6564 1.02674 15.2604 0.834749 14.8354 0.703682C14.4133 0.569917 13.9622 0.5 13.4964 0.5C12.8995 0.5 12.326 0.616454 11.8019 0.828904C11.7581 0.846214 11.7176 0.863525 11.6768 0.883983C11.2052 1.09059 10.7741 1.3815 10.4047 1.72771C10.2852 1.84102 10.1718 1.9604 10.0582 2.09416C9.85748 2.32392 9.6507 2.58875 9.44977 2.85628C9.40905 2.91136 9.3654 2.96959 9.32468 3.02512C9.21397 3.17619 8.15715 4.72382 7.97085 5.00011C7.8777 5.1395 7.767 5.29664 7.64753 5.46818C7.62143 5.50595 7.5924 5.54686 7.56337 5.58755C7.36515 5.8697 7.14398 6.16645 6.94013 6.42836C6.83843 6.55898 6.73628 6.68128 6.64898 6.78312C6.55898 6.88766 6.4773 6.97196 6.41903 7.02749C6.16883 7.2631 5.87453 7.45509 5.55165 7.58593C5.22833 7.71677 4.8762 7.78961 4.50338 7.78961C4.24732 7.78961 3.99983 7.75454 3.76695 7.69069C3.64748 7.65854 3.53093 7.61808 3.41753 7.56862C2.91668 7.35909 2.48873 7.00411 2.1888 6.55898C2.0376 6.33506 1.91813 6.09091 1.83668 5.829C1.75815 5.56709 1.71158 5.29102 1.71158 5.00011C1.71158 4.61321 1.79033 4.24968 1.92982 3.91493C2.14245 3.41472 2.4975 2.99005 2.943 2.68745C3.1671 2.53615 3.41145 2.41992 3.67358 2.33831C3.93548 2.2567 4.212 2.21061 4.50315 2.21061C4.87598 2.21354 5.2281 2.28323 5.55142 2.41407C5.8743 2.54784 6.1686 2.73713 6.4188 2.97251C6.47708 3.02781 6.55875 3.11504 6.64875 3.21711C6.80603 3.40033 6.9921 3.63571 7.17863 3.88323C7.2513 3.98215 7.3242 4.08085 7.39688 4.18269C7.67633 3.77555 8.16525 3.05996 8.42153 2.69059C8.3781 2.63237 8.33423 2.57436 8.2908 2.51614C8.17425 2.36753 8.0577 2.22523 7.94138 2.09438C7.82483 1.96062 7.71413 1.84124 7.59487 1.72794C7.19325 1.34957 6.71873 1.04135 6.19763 0.829128C5.67383 0.616454 5.1003 0.5 4.5036 0.5C3.9069 0.5 3.28973 0.625222 2.74838 0.854982C1.93905 1.19535 1.2546 1.76548 0.7686 2.48376C0.52695 2.84167 0.335025 3.24004 0.20115 3.66179C0.069975 4.08669 0 4.53475 0 5.00034C0 5.61993 0.1251 6.21321 0.35235 6.75119C0.6957 7.56277 1.2663 8.24643 1.98248 8.73226C2.3436 8.97371 2.7396 9.16548 3.16462 9.29924C3.58672 9.43008 4.03808 9.5 4.5036 9.5C5.1003 9.5 5.67405 9.38355 6.19808 9.17132C6.71918 8.95887 7.19078 8.65065 7.59263 8.27543L7.59555 8.27251C7.71502 8.1619 7.8255 8.03961 7.94205 7.90584C8.14275 7.67608 8.34953 7.41147 8.55045 7.14394C8.59118 7.08864 8.63482 7.03311 8.67555 6.97803C8.78625 6.82381 10.2332 4.70336 10.3523 4.5316C10.3788 4.49383 10.4076 4.45314 10.4366 4.41222C10.6349 4.133 10.856 3.83333 11.0599 3.57164C11.1616 3.4408 11.2637 3.3185 11.351 3.21688C11.4412 3.11212 11.5227 3.02759 11.581 2.97229C11.8312 2.7369 12.1255 2.54761 12.4484 2.41385C12.5271 2.38192 12.6056 2.35584 12.6871 2.32954C12.9431 2.254 13.2138 2.21331 13.4964 2.21061C13.8836 2.21354 14.2504 2.28907 14.582 2.43161C15.0827 2.64091 15.5108 2.99567 15.8105 3.4408C15.962 3.66494 16.0814 3.90931 16.1627 4.17077C16.2443 4.43268 16.288 4.70898 16.288 4.99989C16.288 5.38679 16.2092 5.75324 16.0697 6.08462C15.8571 6.58483 15.5021 7.01265 15.0566 7.31211C14.8325 7.46341 14.5881 7.58278 14.326 7.66124C14.067 7.74285 13.7876 7.78939 13.4964 7.78939C13.1236 7.78939 12.7715 7.71677 12.4481 7.5857C12.1253 7.45486 11.831 7.26265 11.5808 7.02727C11.5225 6.97196 11.4408 6.88473 11.3508 6.78289C11.1935 6.60259 11.007 6.36384 10.8209 6.11677C10.7453 6.01785 10.6724 5.91601 10.5998 5.81417C10.5764 5.84901 10.5532 5.88408 10.5271 5.92185C10.0467 6.62575 9.74385 7.07088 9.57803 7.31211C9.62145 7.37033 9.66533 7.42564 9.70875 7.48409C9.8253 7.63247 9.94185 7.775 10.0582 7.90562C10.1718 8.03938 10.2854 8.1619 10.4047 8.27229C10.8063 8.65043 11.2808 8.95865 11.8019 9.1711C12.326 9.38332 12.8993 9.49977 13.4964 9.49977C14.0936 9.49977 14.7103 9.37478 15.2487 9.14794C16.0609 8.80487 16.745 8.23474 17.2314 7.51601C17.4728 7.15833 17.6681 6.76266 17.7989 6.33798C17.93 5.91623 18 5.46525 18 5.00011C18 4.38052 17.8749 3.78724 17.6477 3.24881V3.24903Z" fill="currentColor"/>
</svg>
