<svg width="17" height="17" viewBox="0 0 17 17" fill="none" xmlns="http://www.w3.org/2000/svg">
<path d="M8.5 0C3.79667 0 0 3.79667 0 8.5C0 13.2033 3.79667 17 8.5 17C13.2033 17 17 13.2033 17 8.5C17 3.79667 13.2033 0 8.5 0ZM9.84111 13.2222C9.84111 13.6378 9.48222 13.9967 9.06667 13.9967H7.89556C7.48 13.9967 7.12111 13.6378 7.12111 13.2222V8.27333C7.12111 7.83889 7.48 7.49889 7.89556 7.49889H9.06667C9.48222 7.49889 9.84111 7.85778 9.84111 8.27333V13.2222ZM8.48111 6.21444C7.61222 6.21444 6.89444 5.49667 6.89444 4.60889C6.89444 3.72111 7.61222 3.00333 8.48111 3.00333C9.36889 3.00333 10.0867 3.72111 10.0867 4.60889C10.0867 5.49667 9.36889 6.21444 8.48111 6.21444Z" fill="#7A7A7A"/>
</svg>
