<svg width="23" height="22" viewBox="0 0 23 22" fill="none" xmlns="http://www.w3.org/2000/svg">
<g clip-path="url(#clip0_1456_4536)" filter="url(#filter0_dd_1456_4536)">
<path d="M10.5026 0C7.16269 0 6.18588 0.00344688 5.99601 0.0192C5.3106 0.0761892 4.8841 0.184139 4.41944 0.415536C4.06136 0.593404 3.77895 0.799573 3.50023 1.08858C2.99264 1.61564 2.685 2.26406 2.57364 3.03484C2.5195 3.40903 2.50374 3.48534 2.50055 5.39664C2.49932 6.03374 2.50055 6.87221 2.50055 7.99686C2.50055 11.335 2.50423 12.3111 2.52024 12.5006C2.57561 13.1678 2.6802 13.5875 2.9017 14.0466C3.32501 14.9254 4.13346 15.5852 5.08591 15.8314C5.41569 15.9163 5.77993 15.9631 6.24753 15.9852C6.44565 15.9938 8.46496 16 10.4855 16C12.5061 16 14.5266 15.9975 14.7198 15.9877C15.2612 15.9622 15.5756 15.92 15.9233 15.8301C16.8818 15.5827 17.6755 14.9328 18.1075 14.0417C18.3246 13.5936 18.4348 13.1579 18.4846 12.5256C18.4954 12.3878 18.5 10.1898 18.5 7.99477C18.5 5.79938 18.4951 3.60547 18.4842 3.46761C18.4338 2.8251 18.3237 2.39306 18.0995 1.93641C17.9155 1.56259 17.7112 1.28342 17.4147 0.997995C16.8854 0.492348 16.2382 0.184628 15.4668 0.0733592C15.0931 0.019321 15.0187 0.00331994 13.1064 0H10.5026Z" fill="url(#paint0_radial_1456_4536)"/>
<path d="M10.5026 0C7.16269 0 6.18588 0.00344688 5.99601 0.0192C5.3106 0.0761892 4.8841 0.184139 4.41944 0.415536C4.06136 0.593404 3.77895 0.799573 3.50023 1.08858C2.99264 1.61564 2.685 2.26406 2.57364 3.03484C2.5195 3.40903 2.50374 3.48534 2.50055 5.39664C2.49932 6.03374 2.50055 6.87221 2.50055 7.99686C2.50055 11.335 2.50423 12.3111 2.52024 12.5006C2.57561 13.1678 2.6802 13.5875 2.9017 14.0466C3.32501 14.9254 4.13346 15.5852 5.08591 15.8314C5.41569 15.9163 5.77993 15.9631 6.24753 15.9852C6.44565 15.9938 8.46496 16 10.4855 16C12.5061 16 14.5266 15.9975 14.7198 15.9877C15.2612 15.9622 15.5756 15.92 15.9233 15.8301C16.8818 15.5827 17.6755 14.9328 18.1075 14.0417C18.3246 13.5936 18.4348 13.1579 18.4846 12.5256C18.4954 12.3878 18.5 10.1898 18.5 7.99477C18.5 5.79938 18.4951 3.60547 18.4842 3.46761C18.4338 2.8251 18.3237 2.39306 18.0995 1.93641C17.9155 1.56259 17.7112 1.28342 17.4147 0.997995C16.8854 0.492348 16.2382 0.184628 15.4668 0.0733592C15.0931 0.019321 15.0187 0.00331994 13.1064 0H10.5026Z" fill="url(#paint1_radial_1456_4536)"/>
<path d="M10.5026 0C7.16269 0 6.18588 0.00344688 5.99601 0.0192C5.3106 0.0761892 4.8841 0.184139 4.41944 0.415536C4.06136 0.593404 3.77895 0.799573 3.50023 1.08858C2.99264 1.61564 2.685 2.26406 2.57364 3.03484C2.5195 3.40903 2.50374 3.48534 2.50055 5.39664C2.49932 6.03374 2.50055 6.87221 2.50055 7.99686C2.50055 11.335 2.50423 12.3111 2.52024 12.5006C2.57561 13.1678 2.6802 13.5875 2.9017 14.0466C3.32501 14.9254 4.13346 15.5852 5.08591 15.8314C5.41569 15.9163 5.77993 15.9631 6.24753 15.9852C6.44565 15.9938 8.46496 16 10.4855 16C12.5061 16 14.5266 15.9975 14.7198 15.9877C15.2612 15.9622 15.5756 15.92 15.9233 15.8301C16.8818 15.5827 17.6755 14.9328 18.1075 14.0417C18.3246 13.5936 18.4348 13.1579 18.4846 12.5256C18.4954 12.3878 18.5 10.1898 18.5 7.99477C18.5 5.79938 18.4951 3.60547 18.4842 3.46761C18.4338 2.8251 18.3237 2.39306 18.0995 1.93641C17.9155 1.56259 17.7112 1.28342 17.4147 0.997995C16.8854 0.492348 16.2382 0.184628 15.4668 0.0733592C15.0931 0.019321 15.0187 0.00331994 13.1064 0H10.5026Z" fill="url(#paint2_radial_1456_4536)"/>
<path d="M10.5026 0C7.16269 0 6.18588 0.00344688 5.99601 0.0192C5.3106 0.0761892 4.8841 0.184139 4.41944 0.415536C4.06136 0.593404 3.77895 0.799573 3.50023 1.08858C2.99264 1.61564 2.685 2.26406 2.57364 3.03484C2.5195 3.40903 2.50374 3.48534 2.50055 5.39664C2.49932 6.03374 2.50055 6.87221 2.50055 7.99686C2.50055 11.335 2.50423 12.3111 2.52024 12.5006C2.57561 13.1678 2.6802 13.5875 2.9017 14.0466C3.32501 14.9254 4.13346 15.5852 5.08591 15.8314C5.41569 15.9163 5.77993 15.9631 6.24753 15.9852C6.44565 15.9938 8.46496 16 10.4855 16C12.5061 16 14.5266 15.9975 14.7198 15.9877C15.2612 15.9622 15.5756 15.92 15.9233 15.8301C16.8818 15.5827 17.6755 14.9328 18.1075 14.0417C18.3246 13.5936 18.4348 13.1579 18.4846 12.5256C18.4954 12.3878 18.5 10.1898 18.5 7.99477C18.5 5.79938 18.4951 3.60547 18.4842 3.46761C18.4338 2.8251 18.3237 2.39306 18.0995 1.93641C17.9155 1.56259 17.7112 1.28342 17.4147 0.997995C16.8854 0.492348 16.2382 0.184628 15.4668 0.0733592C15.0931 0.019321 15.0187 0.00331994 13.1064 0H10.5026Z" fill="url(#paint3_radial_1456_4536)"/>
<path d="M10.5006 2C8.87105 2 8.66655 2.00712 8.02653 2.03625C7.38778 2.0655 6.95178 2.16662 6.57027 2.31501C6.17564 2.46825 5.84089 2.67325 5.50739 3.00687C5.17364 3.34038 4.96863 3.67512 4.81488 4.06963C4.66612 4.45125 4.56487 4.88737 4.53613 5.52588C4.5075 6.16587 4.5 6.3705 4.5 8C4.5 9.62951 4.50725 9.83337 4.53625 10.4734C4.56563 11.1121 4.66675 11.5481 4.815 11.9296C4.96838 12.3243 5.17338 12.659 5.50701 12.9925C5.84039 13.3263 6.17514 13.5318 6.56952 13.685C6.95127 13.8334 7.38741 13.9345 8.02603 13.9638C8.66605 13.9929 8.87042 14 10.4998 14C12.1295 14 12.3333 13.9929 12.9733 13.9637C13.6121 13.9345 14.0486 13.8334 14.4304 13.685C14.8249 13.5318 15.1591 13.3263 15.4925 12.9925C15.8262 12.659 16.0312 12.3243 16.185 11.9298C16.3325 11.5481 16.4338 11.112 16.4638 10.4735C16.4925 9.8335 16.5 9.6295 16.5 8C16.5 6.3705 16.4925 6.166 16.4638 5.526C16.4338 4.88725 16.3325 4.45125 16.185 4.06975C16.0312 3.67512 15.8262 3.34037 15.4925 3.00687C15.1587 2.67312 14.825 2.46812 14.43 2.315C14.0475 2.16663 13.6112 2.0655 12.9725 2.03625C12.3325 2.00712 12.1287 2 10.4987 2H10.5006ZM9.9623 3.08125C10.1221 3.081 10.3003 3.08125 10.5006 3.08125C12.1026 3.08125 12.2925 3.087 12.9251 3.11575C13.5101 3.1425 13.8276 3.24025 14.0391 3.32237C14.3191 3.43112 14.5187 3.56113 14.7286 3.77112C14.9386 3.98113 15.0686 4.18113 15.1776 4.46112C15.2597 4.67237 15.3576 4.98987 15.3842 5.57488C15.413 6.20737 15.4192 6.39738 15.4192 7.99863C15.4192 9.59987 15.413 9.78988 15.3842 10.4224C15.3575 11.0074 15.2597 11.3249 15.1776 11.5361C15.0689 11.8161 14.9386 12.0155 14.7286 12.2254C14.5186 12.4354 14.3192 12.5654 14.0391 12.6741C13.8278 12.7566 13.5101 12.8541 12.9251 12.8809C12.2926 12.9096 12.1026 12.9159 10.5006 12.9159C8.89842 12.9159 8.70855 12.9096 8.07604 12.8809C7.49103 12.8539 7.17353 12.7561 6.9619 12.674C6.6819 12.5653 6.48189 12.4352 6.27189 12.2253C6.06189 12.0153 5.93189 11.8158 5.82289 11.5356C5.74076 11.3244 5.64289 11.0069 5.61626 10.4219C5.58751 9.78937 5.58176 9.59938 5.58176 7.99713C5.58176 6.39488 5.58751 6.20587 5.61626 5.57338C5.64301 4.98837 5.74076 4.67088 5.82289 4.45938C5.93164 4.17938 6.06189 3.97938 6.27189 3.76938C6.48189 3.55937 6.6819 3.42938 6.9619 3.32038C7.1734 3.23787 7.49103 3.14038 8.07604 3.1135C8.62954 3.0885 8.84405 3.081 9.96231 3.07974L9.9623 3.08125ZM13.7033 4.0775C13.3058 4.0775 12.9833 4.39963 12.9833 4.79725C12.9833 5.19475 13.3058 5.51725 13.7033 5.51725C14.1008 5.51725 14.4234 5.19475 14.4234 4.79725C14.4234 4.39975 14.1008 4.07725 13.7033 4.07725L13.7033 4.0775ZM10.5006 4.91875C8.79892 4.91875 7.41928 6.29837 7.41928 8C7.41928 9.70163 8.79892 11.0806 10.5006 11.0806C12.2022 11.0806 13.5813 9.70163 13.5813 8C13.5813 6.29837 12.2021 4.91875 10.5004 4.91875H10.5006ZM10.5006 6C11.6051 6 12.5006 6.89538 12.5006 8C12.5006 9.1045 11.6051 10 10.5006 10C9.39593 10 8.50054 9.1045 8.50054 8C8.50054 6.89538 9.39593 6 10.5006 6Z" fill="white"/>
</g>
<defs>
<filter id="filter0_dd_1456_4536" x="0.5" y="0" width="22" height="22" filterUnits="userSpaceOnUse" color-interpolation-filters="sRGB">
<feFlood flood-opacity="0" result="BackgroundImageFix"/>
<feColorMatrix in="SourceAlpha" type="matrix" values="0 0 0 0 0 0 0 0 0 0 0 0 0 0 0 0 0 0 127 0" result="hardAlpha"/>
<feOffset dx="1" dy="3"/>
<feGaussianBlur stdDeviation="1.5"/>
<feComposite in2="hardAlpha" operator="out"/>
<feColorMatrix type="matrix" values="0 0 0 0 0 0 0 0 0 0 0 0 0 0 0 0 0 0 0.1 0"/>
<feBlend mode="normal" in2="BackgroundImageFix" result="effect1_dropShadow_1456_4536"/>
<feColorMatrix in="SourceAlpha" type="matrix" values="0 0 0 0 0 0 0 0 0 0 0 0 0 0 0 0 0 0 127 0" result="hardAlpha"/>
<feOffset dx="1" dy="1"/>
<feComposite in2="hardAlpha" operator="out"/>
<feColorMatrix type="matrix" values="0 0 0 0 0 0 0 0 0 0 0 0 0 0 0 0 0 0 0.1 0"/>
<feBlend mode="normal" in2="effect1_dropShadow_1456_4536" result="effect2_dropShadow_1456_4536"/>
<feBlend mode="normal" in="SourceGraphic" in2="effect2_dropShadow_1456_4536" result="shape"/>
</filter>
<radialGradient id="paint0_radial_1456_4536" cx="0" cy="0" r="1" gradientUnits="userSpaceOnUse" gradientTransform="translate(17.9834 7.4994) rotate(164.25) scale(10.2231 7.36525)">
<stop stop-color="#FF005F"/>
<stop offset="1" stop-color="#FC01D8"/>
</radialGradient>
<radialGradient id="paint1_radial_1456_4536" cx="0" cy="0" r="1" gradientUnits="userSpaceOnUse" gradientTransform="translate(6.74988 17.2323) rotate(-90) scale(12.7715 13.5503)">
<stop stop-color="#FFCC00"/>
<stop offset="0.1242" stop-color="#FFCC00"/>
<stop offset="0.5672" stop-color="#FE4A05"/>
<stop offset="0.6942" stop-color="#FF0F3F"/>
<stop offset="1" stop-color="#FE0657" stop-opacity="0"/>
</radialGradient>
<radialGradient id="paint2_radial_1456_4536" cx="0" cy="0" r="1" gradientUnits="userSpaceOnUse" gradientTransform="translate(10.9043 15.7744) rotate(-59.8703) scale(5.28113 6.87543)">
<stop stop-color="#FFCC00"/>
<stop offset="1" stop-color="#FFCC00" stop-opacity="0"/>
</radialGradient>
<radialGradient id="paint3_radial_1456_4536" cx="0" cy="0" r="1" gradientUnits="userSpaceOnUse" gradientTransform="translate(4.67086 0.651515) rotate(164.274) scale(10.1097 3.44437)">
<stop stop-color="#780CFF"/>
<stop offset="1" stop-color="#820BFF" stop-opacity="0"/>
</radialGradient>
<clipPath id="clip0_1456_4536">
<rect width="16" height="16" fill="white" transform="translate(2.5)"/>
</clipPath>
</defs>
</svg>
