<svg width="20" height="18" viewBox="0 0 20 18" fill="none" xmlns="http://www.w3.org/2000/svg">
<path d="M0 6.14523C0 6.12537 0.0180556 6.08204 0 6.05676V6.14523Z" fill="#9E9E9E"/>
<path d="M13.9776 0.25887C14.0101 0.284147 14.0426 0.30762 14.0751 0.332897C14.1311 0.374425 13.974 0.255259 13.9776 0.25887Z" fill="#9E9E9E"/>
<path d="M13.0195 3.76713C13.5395 3.91338 14.0324 4.13546 14.4983 4.4081C14.8305 4.6031 15.2241 4.93713 15.5509 5.09241C15.5834 5.10685 15.5997 5.12852 15.6376 5.10324C16.1449 3.3031 15.5383 1.47949 14.0758 0.332962C14.0595 0.320323 14.0252 0.296851 13.9656 0.251712C13.693 0.0476842 13.5269 0.0133785 13.5269 0.0133785C13.442 -0.0335659 13.3463 0.0512952 13.3824 0.139767C13.6316 0.751851 13.814 1.39824 13.7634 2.06268C13.7129 2.71991 13.424 3.26157 13.0213 3.76713H13.0195Z" fill="#9E9E9E"/>
<path d="M0.0139657 6.50248C0.0464657 7.61831 0.526743 8.71067 1.32119 9.5322C1.3916 9.60442 1.8773 10.054 1.92605 10.0648C1.9766 10.0775 1.9766 10.045 1.99105 10.0125C2.03619 9.91137 2.05966 9.6965 2.09758 9.57373C2.15897 9.37331 2.22216 9.13317 2.29619 8.94539C2.37924 8.73234 3.07619 7.50275 3.04369 7.41428L2.18424 7.03331C1.60466 6.69387 1.11174 6.19553 0.804799 5.59248C0.663966 5.31623 0.595355 5.04359 0.496049 4.75289C0.496049 4.73484 0.521327 4.67164 0.485216 4.64637C0.405771 4.594 0.293827 4.89373 0.268549 4.96053C0.0861879 5.44262 0.00493785 5.94095 0.0121601 6.43748V6.5115C0.0121601 6.5097 0.0121601 6.50609 0.0121601 6.50248H0.0139657ZM1.13702 6.57109C1.66063 7.24998 2.86494 7.59123 2.86494 7.59123C2.86494 7.59123 2.1066 7.6797 1.3573 6.98637C0.606188 6.29123 0.472577 5.05262 0.472577 5.05262C0.472577 5.05262 0.61341 5.8922 1.13883 6.57109H1.13702Z" fill="#9E9E9E"/>
<path d="M3.39048 13.1471C4.45214 12.6885 5.09131 11.7424 6.22339 11.3397C7.54867 10.8667 8.53089 11.4932 9.95909 10.8739C11.0677 10.3936 11.7773 9.26694 12.8859 8.78666C14.1985 8.21791 15.3866 8.52305 16.6685 8.21249C17.2951 8.06083 18.8659 7.2068 19.292 6.72652C19.3155 6.7193 19.3263 6.71749 19.3263 6.71749H19.2739H19.2776C19.1638 6.6868 18.8244 6.68499 18.6944 6.66513C18.178 6.58569 17.6941 6.43583 17.2301 6.24444C16.8491 6.07833 16.4789 5.88333 16.1196 5.69194C14.0451 4.58513 11.8387 2.70555 9.66839 4.65194C8.71145 5.69555 8.90645 5.76416 8.21853 6.01513C7.67506 6.21194 7.62631 6.14152 6.93659 6.01152C6.80117 5.97721 6.66214 5.94833 6.51951 5.93027C6.44548 5.92124 6.37145 5.91402 6.30103 5.9086C6.27756 5.90499 6.25589 5.90138 6.23062 5.89958C6.13673 5.89596 6.04464 5.89596 5.95617 5.89958C5.58242 5.9068 5.2502 5.9718 4.95409 6.08374C3.14312 6.74277 2.68089 9.02319 1.94784 10.836C1.52895 11.8724 1.11187 12.9412 0.198255 13.6418L0.138672 13.6887C0.158533 13.7718 0.243394 13.7393 0.295755 13.7429C1.26714 13.8061 2.49853 13.5335 3.39048 13.1471ZM11.0677 4.2186C12.3695 3.68596 14.2996 5.07263 14.2996 5.07263C13.3896 4.61944 12.0283 4.13555 11.0551 4.6068C10.9738 4.64833 10.8962 4.69346 10.8239 4.74402C10.7481 4.79638 10.6633 4.85416 10.5892 4.90652C10.3834 5.05458 10.1848 5.20985 9.9952 5.37777C9.77673 5.57638 9.51312 5.81652 9.29825 6.01874C9.20256 6.10902 9.11048 6.19569 9.01839 6.28958C9.01839 6.28958 9.7677 4.75305 11.0677 4.2186ZM4.93784 6.51708C5.44159 6.32569 5.84423 6.25527 7.29409 6.52249C5.68714 6.47374 4.75187 6.59833 3.4645 8.19985C3.76964 7.46319 4.43589 6.70846 4.93784 6.51708Z" fill="#9E9E9E"/>
<path d="M17.1828 8.60618C15.6066 9.27784 14.8699 9.17312 14.0899 9.51257C12.4992 10.2041 12.0659 11.8417 10.3488 12.4791C8.85558 13.0334 7.58447 12.3473 6.10572 12.6398C5.56405 12.7463 5.23725 12.916 4.75155 13.1237C4.7353 13.1309 4.71905 13.1345 4.7028 13.1417C4.58003 13.1941 4.42475 13.2338 4.29655 13.288C4.25141 13.3078 4.21169 13.3331 4.17197 13.362C4.14669 13.3692 4.12322 13.3801 4.09794 13.3891C3.93183 13.4433 3.77114 13.5353 3.6303 13.5877L3.21503 13.7394C3.18614 13.7502 3.08141 13.7647 3.02183 13.7809C2.15155 14.0337 1.256 14.1745 0.349609 14.086C0.349609 14.086 5.50628 19.5081 11.842 17.4751C18.1777 15.4438 18.6056 10.7746 18.8132 9.90076C19.0209 9.02687 19.261 8.05368 19.4379 7.02271C19.4379 7.02271 18.7572 7.9327 17.1828 8.60618ZM17.0022 10.9534C16.8957 11.5637 16.5816 12.118 16.2006 12.5983C16.1645 12.6452 16.1139 12.703 16.0724 12.7481C15.6571 13.1887 15.1461 13.4685 14.59 13.6635C14.5124 13.6906 14.4347 13.7141 14.3535 13.734C14.3264 13.7412 14.2975 13.7249 14.2903 13.696C14.2849 13.6726 14.2957 13.6491 14.3156 13.6383C14.8554 13.3151 15.3881 12.9305 15.7528 12.4141C16.0272 11.9898 16.2674 11.5366 16.4118 11.0527C16.4191 11.0274 16.4353 10.9733 16.4425 10.9462L16.4714 10.8378C16.5707 10.5074 17.0474 10.6121 17.0004 10.9534H17.0022Z" fill="#9E9E9E"/>
</svg>
