<svg width="14" height="14" viewBox="0 0 14 14" fill="none" xmlns="http://www.w3.org/2000/svg">
<path d="M6.86302 0C3.06427 0 0 3.1321 0 7.00191C0 10.8718 3.06427 14 6.86302 14C10.6618 14 13.7209 10.8718 13.7209 7.00191C13.7209 3.1321 10.6618 0 6.86302 0ZM6.86302 0.649859C10.304 0.649859 13.0698 3.47481 13.0698 7.00191C13.0698 10.5291 10.304 13.3489 6.86302 13.3489C3.42202 13.3489 0.654956 10.5291 0.654956 7.00191C0.654956 3.47481 3.42202 0.649859 6.86302 0.649859ZM10.1161 5.21161C10.1038 5.21222 10.0914 5.21353 10.0792 5.21553C10.0169 5.22427 9.95851 5.25082 9.91098 5.29198L6.22718 8.36543L4.47893 6.61718C4.44981 6.58235 4.41373 6.55398 4.37302 6.53389C4.33231 6.5138 4.28785 6.50244 4.24249 6.50051C4.19713 6.49859 4.15187 6.50615 4.1096 6.52272C4.06733 6.53929 4.02899 6.5645 3.99702 6.59674C3.96505 6.62897 3.94016 6.66752 3.92394 6.70993C3.90773 6.75233 3.90054 6.79766 3.90284 6.843C3.90515 6.88834 3.91689 6.93271 3.93732 6.97325C3.95774 7.0138 3.98641 7.04963 4.02148 7.07846L5.97615 9.0344C6.03376 9.09152 6.11058 9.12512 6.19163 9.12866C6.27267 9.13219 6.35213 9.1054 6.41449 9.05352L10.3302 5.79275C10.3838 5.75 10.4225 5.69146 10.4409 5.62545C10.4594 5.55944 10.4565 5.4893 10.4328 5.42499C10.4091 5.36068 10.3658 5.30547 10.3089 5.26718C10.2521 5.2289 10.1846 5.20939 10.1161 5.21161Z" fill="#EF064E"/>
</svg>
