<svg width="20" height="20" viewBox="0 0 20 20" fill="none" xmlns="http://www.w3.org/2000/svg">
<path d="M9.98697 1.6665C12.5443 1.6665 14.6022 3.67923 14.6022 6.16357V7.44092C16.0374 7.88889 17.0835 9.18805 17.0836 10.7397V14.854C17.0836 16.7752 15.4906 18.3334 13.527 18.3335H6.47427C4.50974 18.3335 2.91666 16.7752 2.91666 14.854V10.7397C2.91685 9.18805 3.96378 7.88889 5.3981 7.44092V6.16357C5.40657 3.67933 7.4637 1.66667 9.98697 1.6665ZM9.99576 11.1538C9.58942 11.1538 9.25961 11.4762 9.25943 11.8735V13.7124C9.2595 14.1181 9.58934 14.4409 9.99576 14.4409C10.4106 14.4409 10.7408 14.1181 10.7409 13.7124V11.8735C10.7407 11.4762 10.4106 11.1538 9.99576 11.1538ZM10.0045 3.11572C8.28558 3.11572 6.88802 4.47418 6.87955 6.14697V7.26123H13.1208V6.16357C13.1208 4.4826 11.7234 3.11589 10.0045 3.11572Z" fill="currentColor"/>
</svg>
