<svg width="31" height="33" viewBox="0 0 31 33" fill="none" xmlns="http://www.w3.org/2000/svg">
<g filter="url(#filter0_dd_1456_3113)">
<path d="M26.875 13.125V4.375H18.125L21.6162 7.86625L16.2137 13.2687C14.9485 12.3625 13.4313 11.8751 11.875 11.875C7.73875 11.875 4.375 15.2387 4.375 19.375C4.375 23.5112 7.73875 26.875 11.875 26.875C16.0112 26.875 19.375 23.5112 19.375 19.375C19.375 17.7575 18.855 16.2625 17.9812 15.0362L23.3837 9.63375L26.875 13.125ZM11.875 24.375C9.1175 24.375 6.875 22.1325 6.875 19.375C6.875 16.6175 9.1175 14.375 11.875 14.375C14.6325 14.375 16.875 16.6175 16.875 19.375C16.875 22.1325 14.6325 24.375 11.875 24.375Z" fill="white"/>
</g>
<defs>
<filter id="filter0_dd_1456_3113" x="-2" y="0" width="36" height="36" filterUnits="userSpaceOnUse" color-interpolation-filters="sRGB">
<feFlood flood-opacity="0" result="BackgroundImageFix"/>
<feColorMatrix in="SourceAlpha" type="matrix" values="0 0 0 0 0 0 0 0 0 0 0 0 0 0 0 0 0 0 127 0" result="hardAlpha"/>
<feOffset dx="1" dy="3"/>
<feGaussianBlur stdDeviation="1.5"/>
<feComposite in2="hardAlpha" operator="out"/>
<feColorMatrix type="matrix" values="0 0 0 0 0 0 0 0 0 0 0 0 0 0 0 0 0 0 0.1 0"/>
<feBlend mode="normal" in2="BackgroundImageFix" result="effect1_dropShadow_1456_3113"/>
<feColorMatrix in="SourceAlpha" type="matrix" values="0 0 0 0 0 0 0 0 0 0 0 0 0 0 0 0 0 0 127 0" result="hardAlpha"/>
<feOffset dx="1" dy="1"/>
<feComposite in2="hardAlpha" operator="out"/>
<feColorMatrix type="matrix" values="0 0 0 0 0 0 0 0 0 0 0 0 0 0 0 0 0 0 0.1 0"/>
<feBlend mode="normal" in2="effect1_dropShadow_1456_3113" result="effect2_dropShadow_1456_3113"/>
<feBlend mode="normal" in="SourceGraphic" in2="effect2_dropShadow_1456_3113" result="shape"/>
</filter>
</defs>
</svg>
