<svg width="24" height="24" viewBox="0 0 24 24" fill="none" xmlns="http://www.w3.org/2000/svg">
<path fill-rule="evenodd" clip-rule="evenodd" d="M0 12C0 5.37231 5.37231 0 12 0C18.6277 0 24 5.37231 24 12C24 18.6277 18.6277 24 12 24C5.37231 24 0 18.6277 0 12ZM8.30769 7.38462C8.06288 7.38462 7.82809 7.48187 7.65498 7.65498C7.48187 7.82809 7.38462 8.06288 7.38462 8.30769V15.6923C7.38462 16.2018 7.79815 16.6154 8.30769 16.6154H9.23077C9.47558 16.6154 9.71037 16.5181 9.88348 16.345C10.0566 16.1719 10.1538 15.9371 10.1538 15.6923V8.30769C10.1538 8.06288 10.0566 7.82809 9.88348 7.65498C9.71037 7.48187 9.47558 7.38462 9.23077 7.38462H8.30769ZM14.7692 7.38462C14.5244 7.38462 14.2896 7.48187 14.1165 7.65498C13.9434 7.82809 13.8462 8.06288 13.8462 8.30769V15.6923C13.8462 16.2018 14.2597 16.6154 14.7692 16.6154H15.6923C15.9371 16.6154 16.1719 16.5181 16.345 16.345C16.5181 16.1719 16.6154 15.9371 16.6154 15.6923V8.30769C16.6154 8.06288 16.5181 7.82809 16.345 7.65498C16.1719 7.48187 15.9371 7.38462 15.6923 7.38462H14.7692Z" fill="currentColor"/>
</svg>
