<?xml version="1.0" encoding="UTF-8"?><svg id="Layer_1" xmlns="http://www.w3.org/2000/svg" xmlns:xlink="http://www.w3.org/1999/xlink" viewBox="0 0 70 19"><defs><style>.cls-1{mask:url(#mask);}.cls-2{fill:#002991;}.cls-3{mask:url(#mask-1);}.cls-4{fill:#008cff;}.cls-5{fill:#fff;}.cls-6{fill:#60cdff;}</style><mask id="mask" x="2.5" y="1.06" width="13.23" height="15.94" maskUnits="userSpaceOnUse"><g id="mask0_4824_8330"><path class="cls-5" d="M2.5,1.06h13.23v15.94H2.5V1.06Z"/></g></mask><mask id="mask-1" x="23" y="4" width="44.7" height="15" maskUnits="userSpaceOnUse"><g id="mask1_4824_8330"><path class="cls-5" d="M23,4h44.7v15H23V4Z"/></g></mask></defs><g class="cls-1"><path class="cls-2" d="M13.78,4.73c0,1.97-1.82,4.3-4.58,4.3h-2.66l-.13.82-.62,3.96h-3.3L4.48,1.06h5.35c1.8,0,3.22,1,3.74,2.4.15.41.22.84.21,1.27Z"/><path class="cls-6" d="M15.68,8.39c-.18,1.07-.73,2.04-1.56,2.74-.83.7-1.88,1.08-2.96,1.08h-1.84l-.77,4.78h-3.28l.53-3.19.62-3.96.13-.82h2.66c2.75,0,4.58-2.33,4.58-4.3,1.35.7,2.14,2.11,1.9,3.67Z"/><path class="cls-4" d="M13.78,4.73c-.57-.3-1.26-.48-2.01-.48h-4.48l-.75,4.78h2.66c2.75,0,4.58-2.33,4.58-4.3Z"/></g><g class="cls-3"><path class="cls-5" d="M67.7,4v11.2h-2.55V4h2.55ZM64.21,7.78v7.44h-2.27v-.64c-.29.28-.61.49-.98.64-.37.16-.76.24-1.18.24-.53,0-1.03-.1-1.48-.3-.45-.21-.85-.49-1.18-.85-.34-.36-.6-.77-.8-1.25-.19-.48-.28-1.01-.28-1.56s.09-1.07.28-1.55c.2-.48.46-.91.8-1.27.33-.36.74-.64,1.18-.83.45-.21.95-.31,1.48-.31.42,0,.82.08,1.18.24.37.15.69.36.98.64v-.64h2.27ZM60.2,13.2c.46,0,.84-.16,1.14-.48.31-.32.46-.72.46-1.22s-.15-.9-.46-1.22c-.3-.32-.68-.48-1.14-.48s-.85.16-1.16.48c-.3.32-.44.72-.44,1.22s.15.9.44,1.22c.31.32.69.48,1.16.48ZM52.4,4c.67,0,1.25.1,1.72.28.47.19.87.45,1.2.79.33.35.6.74.78,1.19.19.45.28.93.28,1.44s-.09,1-.28,1.44c-.18.44-.45.85-.78,1.19-.32.34-.73.6-1.2.79-.47.19-1.05.28-1.72.28h-1.23v3.81h-2.59V4h3.82ZM52.03,9.1c.35,0,.61-.03.8-.11.2-.08.36-.18.49-.3.27-.25.4-.58.4-1s-.13-.75-.4-1c-.13-.12-.29-.21-.49-.28-.19-.08-.45-.12-.8-.12h-.86v2.8h.86ZM39.03,7.78h2.81l1.91,3.57h.03l1.7-3.57h2.61l-5.59,11.22h-2.59l2.55-5.13-3.44-6.09ZM38.53,7.78v7.44h-2.27v-.64c-.29.28-.61.49-.98.64-.37.16-.76.24-1.18.24-.53,0-1.03-.1-1.48-.3-.45-.21-.85-.49-1.18-.85-.33-.36-.6-.77-.8-1.25-.19-.48-.28-1.01-.28-1.56s.09-1.07.28-1.55c.2-.48.46-.91.8-1.27.33-.36.74-.64,1.18-.83.45-.21.95-.31,1.48-.31.42,0,.82.08,1.18.24.37.15.69.36.98.64v-.64h2.27ZM34.51,13.2c.46,0,.84-.16,1.14-.48.31-.32.46-.72.46-1.22s-.15-.9-.46-1.22c-.3-.32-.68-.48-1.14-.48s-.85.16-1.16.48c-.3.32-.44.72-.44,1.22s.15.9.44,1.22c.31.32.69.48,1.16.48ZM26.82,4c.67,0,1.25.1,1.72.28.47.19.87.45,1.2.79.33.35.6.74.78,1.19.19.45.28.93.28,1.44s-.09,1-.28,1.44c-.18.44-.45.85-.78,1.19-.32.34-.73.6-1.2.79-.47.19-1.05.28-1.72.28h-1.23v3.81h-2.59V4h3.82ZM26.45,9.1c.35,0,.61-.03.8-.11.2-.08.36-.18.49-.3.27-.25.4-.58.4-1s-.13-.75-.4-1c-.13-.12-.29-.21-.49-.28-.19-.08-.45-.12-.8-.12h-.86v2.8h.86Z"/></g></svg>