<svg width="34" height="34" viewBox="0 0 34 34" fill="none" xmlns="http://www.w3.org/2000/svg">
<path fill-rule="evenodd" clip-rule="evenodd" d="M0 17.0099C0 7.62665 7.63033 0 17 0C26.3698 0 34.0001 7.62665 34.0001 17.0099C34.0001 26.3734 26.3698 34.0001 17 34.0001C7.63033 34.0001 0 26.3734 0 17.0099ZM23.2359 18.7303C23.4164 18.5499 23.6461 18.2711 23.6953 18.2055C23.9579 17.8611 24.0891 17.4346 24.0891 17.0098C24.0891 16.5326 23.9415 16.0897 23.6625 15.7289C23.6396 15.706 23.5949 15.6573 23.5365 15.5938C23.4274 15.475 23.2707 15.3045 23.121 15.1548C21.7754 13.7115 18.2638 11.3497 16.426 10.6281C16.147 10.5149 15.4414 10.2672 15.064 10.2508C14.703 10.2508 14.3584 10.3328 14.0302 10.4968C13.62 10.7265 13.2918 11.0873 13.1113 11.5137C12.9964 11.809 12.8159 12.6946 12.8159 12.711C12.6354 13.6787 12.537 15.2532 12.537 16.9918C12.537 18.65 12.6354 20.1573 12.7831 21.1413C12.7872 21.1454 12.8013 21.2158 12.8232 21.3251C12.8899 21.6575 13.0288 22.35 13.177 22.6339C13.538 23.3227 14.2436 23.7492 14.9984 23.7492H15.064C15.5563 23.7328 16.5901 23.3063 16.5901 23.2899C18.3295 22.5683 21.759 20.3213 23.1374 18.8288L23.2359 18.7303Z" fill="white"/>
</svg>
