<svg width="16" height="16" viewBox="0 0 16 16" fill="none" xmlns="http://www.w3.org/2000/svg">
<path fill-rule="evenodd" clip-rule="evenodd" d="M4.88634 1.3335H11.1063C13.373 1.3335 14.6663 2.6135 14.6663 4.88683V11.1135C14.6663 13.3735 13.3797 14.6668 11.113 14.6668H4.88634C2.61301 14.6668 1.33301 13.3735 1.33301 11.1135V4.88683C1.33301 2.6135 2.61301 1.3335 4.88634 1.3335ZM8.54634 8.5535H10.4397C10.7463 8.54683 10.993 8.30016 10.993 7.9935C10.993 7.68683 10.7463 7.44016 10.4397 7.44016H8.54634V5.56016C8.54634 5.2535 8.29967 5.00683 7.99301 5.00683C7.68634 5.00683 7.43967 5.2535 7.43967 5.56016V7.44016H5.55301C5.40634 7.44016 5.26634 7.50016 5.15967 7.60016C5.05967 7.70683 4.99967 7.84616 4.99967 7.9935C4.99967 8.30016 5.24634 8.54683 5.55301 8.5535H7.43967V10.4402C7.43967 10.7468 7.68634 10.9935 7.99301 10.9935C8.29967 10.9935 8.54634 10.7468 8.54634 10.4402V8.5535Z" fill="#AE21F5"/>
</svg>
