<svg width="25" height="25" viewBox="0 0 25 25" fill="none" xmlns="http://www.w3.org/2000/svg">
<path d="M21.9354 3.08198C21.4352 2.5686 20.6949 2.37734 20.0046 2.57866L3.908 7.25952C3.1797 7.46186 2.66349 8.04269 2.52443 8.78055C2.38237 9.5315 2.87858 10.4848 3.52684 10.8834L8.5599 13.9768C9.07611 14.2939 9.74238 14.2144 10.1696 13.7835L15.9329 7.9843C16.223 7.68231 16.7032 7.68231 16.9934 7.9843C17.2835 8.27623 17.2835 8.74935 16.9934 9.05134L11.22 14.8516C10.7918 15.2814 10.7118 15.9508 11.0269 16.4702L14.1022 21.5538C14.4623 22.1577 15.0826 22.5 15.7628 22.5C15.8429 22.5 15.9329 22.5 16.013 22.4899C16.7933 22.3893 17.4135 21.8558 17.6436 21.1008L22.4156 5.02479C22.6257 4.34028 22.4356 3.59537 21.9354 3.08198Z" fill="currentColor"/>
</svg>
