<svg width="34" height="33" viewBox="0 0 34 33" fill="none" xmlns="http://www.w3.org/2000/svg">
<g opacity="0.9">
<g filter="url(#filter0_dd_552_455)">
<path d="M14.1973 3.75C15.5013 3.75014 16.7172 4.6897 17.1562 6.19531C17.3175 6.8247 17.3834 7.45556 17.4463 8.06348L17.5049 8.61621C17.7303 10.4615 17.7303 19.5271 17.5049 21.3857L17.4463 21.958C17.3899 22.5364 17.3325 23.1356 17.166 23.7744C16.7269 25.2758 15.5564 26.2498 14.2275 26.25C14.1856 26.25 14.1429 26.2504 14.0957 26.249C13.3618 26.2489 12.5635 25.7974 12.1113 25.4043L7.70312 21.7285H5.43945C3.69244 21.7283 2.41362 20.4627 2.18164 18.5049C1.91433 16.547 1.96672 13.1886 2.18164 11.4092C2.43459 9.55603 3.77369 8.2717 5.43945 8.27148H7.70312L12.0273 4.64941C12.549 4.19582 13.4698 3.74732 14.1973 3.75ZM24.8623 4.02637C25.3839 3.65604 26.1011 3.79142 26.459 4.32129C28.4199 7.20793 29.5 11.0022 29.5 15C29.5 19.0005 28.4198 22.7931 26.459 25.6797C26.2453 25.995 25.8927 26.1846 25.5166 26.1846C25.2834 26.1846 25.0582 26.1114 24.8643 25.9746C24.3452 25.6029 24.2161 24.8713 24.5752 24.3398C26.2712 21.8411 27.206 18.524 27.2061 15C27.2061 11.4772 26.2713 8.15994 24.5752 5.66113C24.2161 5.1311 24.3447 4.39814 24.8623 4.02637ZM20.9102 7.82324C21.4331 7.45425 22.1473 7.58695 22.5078 8.11816C23.774 9.98353 24.4726 12.4274 24.4727 15C24.4727 17.5726 23.774 20.0165 22.5078 21.8818C22.2928 22.1971 21.9415 22.3867 21.5654 22.3867C21.3323 22.3866 21.106 22.3135 20.9121 22.1768C20.3931 21.8051 20.2647 21.073 20.625 20.543C21.6277 19.0654 22.1797 17.0962 22.1797 15C22.1797 12.9027 21.6275 10.9355 20.625 9.45801C20.2646 8.92801 20.3926 8.19504 20.9102 7.82324Z" fill="white"/>
</g>
</g>
<defs>
<filter id="filter0_dd_552_455" x="-1.25" y="0" width="36" height="36" filterUnits="userSpaceOnUse" color-interpolation-filters="sRGB">
<feFlood flood-opacity="0" result="BackgroundImageFix"/>
<feColorMatrix in="SourceAlpha" type="matrix" values="0 0 0 0 0 0 0 0 0 0 0 0 0 0 0 0 0 0 127 0" result="hardAlpha"/>
<feOffset dx="1" dy="3"/>
<feGaussianBlur stdDeviation="1.5"/>
<feComposite in2="hardAlpha" operator="out"/>
<feColorMatrix type="matrix" values="0 0 0 0 0 0 0 0 0 0 0 0 0 0 0 0 0 0 0.1 0"/>
<feBlend mode="normal" in2="BackgroundImageFix" result="effect1_dropShadow_552_455"/>
<feColorMatrix in="SourceAlpha" type="matrix" values="0 0 0 0 0 0 0 0 0 0 0 0 0 0 0 0 0 0 127 0" result="hardAlpha"/>
<feOffset dx="1" dy="1"/>
<feComposite in2="hardAlpha" operator="out"/>
<feColorMatrix type="matrix" values="0 0 0 0 0 0 0 0 0 0 0 0 0 0 0 0 0 0 0.1 0"/>
<feBlend mode="normal" in2="effect1_dropShadow_552_455" result="effect2_dropShadow_552_455"/>
<feBlend mode="normal" in="SourceGraphic" in2="effect2_dropShadow_552_455" result="shape"/>
</filter>
</defs>
</svg>
