<?xml version="1.0" encoding="UTF-8"?>
<svg id="Layer_1" xmlns="http://www.w3.org/2000/svg" version="1.1" viewBox="0 0 42 17">
  <!-- Generator: Adobe Illustrator 30.2.1, SVG Export Plug-In . SVG Version: 2.1.1 Build 1)  -->
  <defs>
    <style>
      .st0 {
        fill-rule: evenodd;
      }

      .st0, .st1 {
        fill: #fff;
      }
    </style>
  </defs>
  <path class="st0" d="M33.4,8.7c0-1.8-.9-3.2-2.6-3.2s-2.7,1.4-2.7,3.2,1.2,3.1,2.9,3.1,1.5-.2,2-.4v-1.4c-.5.2-1,.4-1.7.4s-1.3-.2-1.3-1h3.4v-.6h0ZM29.9,8c0-.8.5-1.1.9-1.1s.9.3.9,1.1h-1.8Z"/>
  <path class="st0" d="M25.4,5.5c-.7,0-1.2.3-1.3.6v-.4h-1.7v8.1l1.8-.4v-2c.2.2.6.4,1.2.4,1.3,0,2.4-1,2.4-3.2s-1.2-3.1-2.4-3.1h0ZM25,10.3c-.4,0-.7-.1-.9-.3v-2.6c.2-.2.4-.4.9-.4.6,0,1.1.7,1.1,1.6s-.4,1.7-1.1,1.7Z"/>
  <path class="st0" d="M20,5.1l1.8-.4v-1.4l-1.8.4v1.4Z"/>
  <path class="st1" d="M21.7,5.6h-1.8v6.1h1.8v-6.1Z"/>
  <path class="st0" d="M18.1,6.1v-.5h-1.7v6.1h1.8v-4.1c.4-.6,1.1-.4,1.3-.4v-1.6c-.2,0-1-.2-1.5.5Z"/>
  <path class="st0" d="M14.6,4.1l-1.7.4v5.6c0,1,.8,1.8,1.8,1.8s1-.1,1.2-.2v-1.4c-.2,0-1.3.4-1.3-.6v-2.4h1.3v-1.5h-1.3v-1.5Z"/>
  <path class="st0" d="M9.8,7.4c0-.2.2-.4.6-.4.6,0,1.2.2,1.7.4v-1.7c-.6-.2-1.2-.3-1.7-.3-1.4,0-2.4.7-2.4,2,0,1.9,2.7,1.6,2.7,2.4s-.3.4-.7.4c-.6,0-1.3-.2-1.9-.6v1.7c.7.2,1.3.4,1.9.4,1.5,0,2.4-.7,2.4-2,0-2.1-2.7-1.7-2.7-2.5h0Z"/>
</svg>