<svg width="12" height="16" viewBox="0 0 12 16" fill="none" xmlns="http://www.w3.org/2000/svg">
<path d="M4.28033 7.76568C4.5732 7.45328 4.5732 6.94672 4.28033 6.63432L2.56066 4.79999H11.25C11.6642 4.79999 12 4.44183 12 3.99999C12 3.55815 11.6642 3.19999 11.25 3.19999H2.56066L4.28033 1.36566C4.5732 1.05326 4.5732 0.546702 4.28033 0.234301C3.98744 -0.0781005 3.51256 -0.0781005 3.21967 0.234301L0.219668 3.43431C0.0790201 3.58431 0 3.78783 0 3.99999C0 4.21215 0.0790201 4.41567 0.219668 4.56567L3.21967 7.76568C3.51256 8.07808 3.98744 8.07808 4.28033 7.76568Z" fill="white"/>
<path d="M8.78032 15.7657C8.48745 16.0781 8.01255 16.0781 7.71968 15.7657C7.4268 15.4533 7.4268 14.9467 7.71968 14.6343L9.43935 12.8H0.75C0.33579 12.8 0 12.4418 0 12C0 11.5582 0.33579 11.2 0.75 11.2H9.43935L7.71968 9.36566C7.4268 9.05326 7.4268 8.5467 7.71968 8.23429C8.01255 7.92189 8.48745 7.92189 8.78032 8.23429L11.7803 11.4343C12.0732 11.7467 12.0732 12.2533 11.7803 12.5657L8.78032 15.7657Z" fill="white"/>
</svg>
