<svg width="21" height="22" viewBox="0 0 21 22" fill="none" xmlns="http://www.w3.org/2000/svg">
<g filter="url(#filter0_dd_1456_3686)">
<path fill-rule="evenodd" clip-rule="evenodd" d="M13.1109 6.0153C14.0829 6.73608 15.2737 7.16021 16.5597 7.16021V4.59283C16.3163 4.59293 16.0736 4.56657 15.8355 4.5142V6.53512C14.5495 6.53512 13.3589 6.11099 12.3866 5.39021V10.6294C12.3866 13.2504 10.3385 15.3749 7.81221 15.3749C6.86962 15.3749 5.99346 15.0793 5.26562 14.5723C6.09631 15.4534 7.25472 16 8.53631 16C11.0628 16 13.111 13.8755 13.111 11.2544L13.1109 6.0153ZM14.0044 3.42515C13.5076 2.86219 13.1815 2.13459 13.1109 1.3302V1H12.4245C12.5973 2.02231 13.1866 2.89574 14.0044 3.42515ZM6.86349 12.5611C6.58598 12.1836 6.43598 11.7218 6.43665 11.247C6.43665 10.0482 7.37346 9.07633 8.52921 9.07633C8.74457 9.07617 8.95867 9.11047 9.16397 9.17801V6.55328C8.92409 6.51918 8.68201 6.50473 8.43995 6.51005V8.553C8.23456 8.48547 8.02038 8.45117 7.80493 8.45133C6.64918 8.45133 5.71245 9.42321 5.71245 10.6221C5.71245 11.4697 6.18068 12.2036 6.86349 12.5611Z" fill="#EE1D52"/>
<path fill-rule="evenodd" clip-rule="evenodd" d="M12.0642 5.27568C13.0661 5.97766 14.293 6.39073 15.6181 6.39073V4.42252C14.8784 4.2681 14.2236 3.88906 13.7312 3.36188C12.8885 2.84629 12.2813 1.99564 12.1033 1H10.2455V10.9868C10.2413 12.1511 9.27761 13.0937 8.08922 13.0937C7.38891 13.0937 6.76676 12.7665 6.37277 12.2595C5.66916 11.9114 5.18667 11.1966 5.18667 10.371C5.18667 9.20348 6.15193 8.25694 7.34288 8.25694C7.57104 8.25694 7.79096 8.29178 7.99724 8.35597V6.36631C5.43972 6.41811 3.38281 8.46703 3.38281 10.9869C3.38281 12.2448 3.89505 13.3852 4.72632 14.2183C5.47633 14.7121 6.37917 15 7.35047 15C9.95376 15 12.0642 12.9308 12.0642 10.3783V5.27568Z" fill="white"/>
<path fill-rule="evenodd" clip-rule="evenodd" d="M15.6179 4.37323V3.79587C14.9408 3.79694 14.2771 3.59825 13.7027 3.22251C14.2112 3.80589 14.8807 4.20819 15.6179 4.37323ZM12.0503 0.660338C12.033 0.557124 12.0198 0.453215 12.0106 0.348869V0H9.40698V10.8342C9.4028 12.0971 8.42472 13.1198 7.21839 13.1198C6.86419 13.1198 6.52986 13.0317 6.23371 12.8751C6.63362 13.4251 7.26512 13.7801 7.97594 13.7801C9.18208 13.7801 10.1603 12.7575 10.1646 11.4945V0.660338H12.0503ZM7.88268 6.48193V5.86727C7.66512 5.83608 7.44578 5.8205 7.2262 5.82062C4.58354 5.82062 2.44141 8.06538 2.44141 10.8342C2.44141 12.5702 3.28331 14.1001 4.56264 15C3.71889 14.0962 3.19896 12.8591 3.19896 11.4945C3.19896 8.76088 5.28666 6.53813 7.88268 6.48193Z" fill="#69C9D0"/>
</g>
<defs>
<filter id="filter0_dd_1456_3686" x="-0.5" y="0" width="22" height="22" filterUnits="userSpaceOnUse" color-interpolation-filters="sRGB">
<feFlood flood-opacity="0" result="BackgroundImageFix"/>
<feColorMatrix in="SourceAlpha" type="matrix" values="0 0 0 0 0 0 0 0 0 0 0 0 0 0 0 0 0 0 127 0" result="hardAlpha"/>
<feOffset dx="1" dy="3"/>
<feGaussianBlur stdDeviation="1.5"/>
<feComposite in2="hardAlpha" operator="out"/>
<feColorMatrix type="matrix" values="0 0 0 0 0 0 0 0 0 0 0 0 0 0 0 0 0 0 0.1 0"/>
<feBlend mode="normal" in2="BackgroundImageFix" result="effect1_dropShadow_1456_3686"/>
<feColorMatrix in="SourceAlpha" type="matrix" values="0 0 0 0 0 0 0 0 0 0 0 0 0 0 0 0 0 0 127 0" result="hardAlpha"/>
<feOffset dx="1" dy="1"/>
<feComposite in2="hardAlpha" operator="out"/>
<feColorMatrix type="matrix" values="0 0 0 0 0 0 0 0 0 0 0 0 0 0 0 0 0 0 0.1 0"/>
<feBlend mode="normal" in2="effect1_dropShadow_1456_3686" result="effect2_dropShadow_1456_3686"/>
<feBlend mode="normal" in="SourceGraphic" in2="effect2_dropShadow_1456_3686" result="shape"/>
</filter>
</defs>
</svg>
