<svg width="15" height="22" viewBox="0 0 15 22" fill="none" xmlns="http://www.w3.org/2000/svg">
<path d="M12.7127 9.94715V20.8067C12.7127 21.5473 11.8343 21.9434 11.2745 21.4439L7.48534 18.9034L3.69614 21.4439C3.13637 21.9434 2.25797 21.5473 2.25797 20.8067V9.93853C3.75642 11.6178 5.46157 13.0732 6.59833 13.9689L6.71028 14.055C7.18393 14.4253 7.8901 14.4081 8.3293 14.0033C8.34652 13.9861 8.36375 13.9775 8.38097 13.9603C9.69858 12.9182 11.3176 11.5059 12.7127 9.94715ZM14.6848 2.4807C13.617 -0.585111 8.94935 -0.869302 7.48534 1.96399C5.97827 -0.86069 1.37095 -0.585111 0.28586 2.47208C-0.56671 4.28918 0.604498 6.5627 2.25797 8.59509C3.92866 10.6619 6.09884 12.4704 7.12365 13.2885L7.22699 13.366C7.39922 13.4952 7.61452 13.4952 7.76953 13.3402L7.84704 13.2885C9.11298 12.2896 11.1454 10.55 12.7127 8.62093C14.3834 6.57131 15.5288 4.3064 14.6848 2.4807Z" fill="#9E9E9E"/>
</svg>
