<svg width="25" height="25" viewBox="0 0 25 25" fill="none" xmlns="http://www.w3.org/2000/svg">
<path d="M20.0312 10.3262C20.566 10.3262 21 10.7542 21 11.2832C20.9998 15.5868 17.7 19.1408 13.4688 19.6182V21.543C13.4688 22.071 13.0347 22.5 12.5 22.5C11.9645 22.4997 11.5322 22.0709 11.5322 21.543V19.6182C7.30002 19.1408 4.00017 15.5868 4 11.2832C4 10.7542 4.43402 10.3262 4.96875 10.3262C5.50347 10.3262 5.9375 10.7542 5.9375 11.2832C5.93769 14.8558 8.88121 17.7624 12.5 17.7627C16.118 17.7627 19.0623 14.856 19.0625 11.2832C19.0625 10.7542 19.4965 10.3262 20.0312 10.3262ZM12.6748 2.5C15.0781 2.50003 17.0272 4.42364 17.0273 6.79688V11.4199C17.0273 13.7923 15.0782 15.7177 12.6748 15.7178H12.3252C9.92181 15.7178 7.97363 13.7923 7.97363 11.4199V6.79688C7.97374 4.42363 9.92187 2.5 12.3252 2.5H12.6748Z" fill="white"/>
</svg>
