<?xml version="1.0" encoding="UTF-8"?>
<svg id="Layer_1" xmlns="http://www.w3.org/2000/svg" version="1.1" viewBox="0 0 1846.3 1486.1">
  <!-- Generator: Adobe Illustrator 29.6.1, SVG Export Plug-In . SVG Version: 2.1.1 Build 9)  -->
  <defs>
    <style>
      .st0 {
        fill: #ef064e;
      }

      .st1 {
        fill: #fff;
      }
    </style>
  </defs>
  <path class="st0" d="M162.9,1227.5c-40.1-11.2-76.3-35.5-101.8-68.4-12.8-16.5-22.8-34.9-29.6-54.5-7.1-20.3-10.7-41.6-10.6-63.2l1.2-839.7c0-50.9,20.1-98.8,56.3-134.7,17.8-17.7,38.7-31.5,61.9-41.2,24-10,49.5-14.9,75.8-14.7l1425.7,10.2c17.4.1,34.7,2.5,51.3,7.2,40.1,11.2,76.3,35.5,101.8,68.4,12.8,16.5,22.8,34.9,29.6,54.5,7.1,20.3,10.7,41.6,10.6,63.2l-1.2,839.6c0,50.9-20.1,98.8-56.3,134.7-17.8,17.7-38.7,31.5-61.9,41.2-24,10-49.5,14.9-75.8,14.7l-234.8-1.7c-10.3,0-19.8,5.4-24.7,14.3v.2l-120.6,195.1c-10.3,18.4-31.8,27.2-52.3,21.5-8-2.2-15.2-6.6-20.9-12.6l-224.5-212.7-.2-.2c-3.5-3.8-8.1-6.5-13.1-7.9-2.4-.7-4.9-1-7.5-1.1l-727.2-5.2c-17.4,0-34.6-2.5-51.3-7.2h0v.2Z"/>
  <path class="st1" d="M184.3,1150.8c-23.7-6.6-45.2-21-60.3-40.6-15.4-19.9-23.6-43.7-23.6-68.8l1.2-839.7c0-29.6,11.7-57.4,32.8-78.3,21.6-21.4,50.4-33,81.1-32.8l1425.7,10.2c10.4,0,20.6,1.5,30.5,4.2,23.7,6.6,45.2,21,60.3,40.5,15.4,19.9,23.6,43.7,23.6,68.8l-1.2,839.7c0,29.6-11.7,57.4-32.8,78.3-21.6,21.4-50.4,33-81.1,32.8l-234.8-1.7c-39.4-.3-75.8,20.9-94.9,55.3l-71.2,128.5c-13.8,24.9-47.9,29.2-67.4,8.5l-152.3-161.6c-13.5-14.3-30.7-24.7-49.6-30-9.2-2.6-18.7-3.9-28.3-4l-727.2-5.2c-10.4,0-20.6-1.5-30.5-4.2h0Z"/>
  <path class="st0" d="M534.3,1117.4c-13.5-14.3-94.1-5.4-113-10.7-9.2-2.6-18.7-3.9-28.2-4l-129.3-4.6c-10.4,0-20.6-1.5-30.5-4.2-23.7-6.6-45.1-21-60.3-40.5-15.4-19.9-23.6-43.7-23.6-68.7l-11.5-670.2c-2.4,8.1-3.6,16.6-3.6,25.3l-1,684.1c0,20.4,6.6,39.8,19.2,56,12.3,15.9,29.8,27.7,49.1,33,8,2.2,16.4,3.4,24.8,3.5l307.9.9h0Z"/>
  <path class="st0" d="M527.9,234.1c-.6,1.6-1.1,3.2-1.7,4.8.5-1,2.2-3.1,1.7-4.8Z"/>
  <path class="st0" d="M1144.9,329.2c77.8-3.1,152.1,105.7,152.1,105.7-38.8-40.8-100.4-91.8-160-85.8-4.9.5-9.8,1.4-14.6,2.6-4.9,1.2-10.4,2.7-15.3,4.1-13.5,3.8-26.8,8.1-39.9,13.3-15.1,6.1-33.4,13.7-48.4,20.1-6.6,2.9-13.1,5.7-19.8,8.8,0,0,68.1-65.8,145.9-68.9h0Z"/>
  <path class="st0" d="M1338.9,135.7c-3.7-3.9-10.2-1-9.8,4.3,2.6,36.5,1.2,73.7-12.9,107.9-13.9,33.8-38.4,57.4-68.3,77.1,24.9,16.6,47.1,36.8,66.9,59.1,14.2,16,29.2,40.3,43.7,54.1,1.5,1.3,2,2.6,4.4,2.1,58.9-88.1,56.8-197.4-4.4-283.7,0-.3,10.3,14.7-.5-.6-10.9-15.4-19-20.1-19-20.1h0c0-.1,0-.2,0-.2Z"/>
  <path class="st0" d="M1527.1,587.9c-5.5-3.6-23.3-9.5-29.8-12.8-25.8-13-48.8-29.2-69.9-47.3-17.2-15.3-33.4-31.9-49-48.2-90.3-93.9-174.4-230.7-322.1-165.5-68.3,38.6-59.3,45.6-99.8,47-32,1-33.4-3.4-67.5-22.2-6.5-4.1-13.4-8-20.6-11.4-3.7-1.7-7.5-3.4-11.1-4.9-1.2-.6-2.3-1.1-3.6-1.7-4.9-1.8-9.7-3.4-14.5-4.7-19.8-6-38.4-8.4-56-7.5-106.7,3.7-170.1,115.9-239.9,198.9-39.8,47.4-80.2,96.6-140.3,117.8l-3.9,1.5c-.4,4.7,4.7,4.5,7.4,5.5,50.1,20,119.7,26.7,173.3,21.7,63.8-6,113.7-44.9,180.3-46.7,77.9-2.2,119,47.7,204.8,39.5,66.7-6.3,123.4-53.5,190-59.8,78.9-7.5,136.3,29,209.2,34.6,35.6,2.8,133-15.3,163.7-33.3,1.3,0,2,0,2,0l-2.8-.9v.3h.1ZM668.3,394.9c28.7-33.7,76.8-62.1,106.6-63.5,29.7-1.5,52.3,1.7,124.1,40.7-83.8-30.1-135.3-39.6-230.7,22.8h0ZM1130,335.6c-5,.7-9.8,1.7-14.5,3.2-4.9,1.5-10.4,3-15.2,4.6-13.4,4.3-26.5,9-39.4,14.6-14.9,6.7-32.9,14.9-47.7,21.8-6.6,3-12.9,6.1-19.4,9.6,0,0,65.9-68.2,143.5-74,77.7-5.7,155.7,100.4,155.7,100.4-40.2-39.5-103.6-88.3-163-80.2h0Z"/>
  <path class="st0" d="M659.8,346.1l-38.8-34.8c-24.7-27.8-42.1-62.5-48-99.6-2.7-17-1.6-32.5-1.9-49.5.3-1,2.7-3.8,1.3-5.8-3.3-4.1-14.3,9.8-16.8,12.8-58.8,73.4-63.6,175.6-22.9,259,2.5,5,20.4,37,22.7,38.4,2.4,1.5,3-.2,4.3-1.6,4.1-4.6,9-15.5,13.1-21.3,6.7-9.5,14.1-21.1,21.2-29.7,8-9.8,65.8-62.6,65.6-67.9h.2ZM578.2,294.5c-27.7-49.4-13.5-117.1-13.5-117.1,0,0-7,46.7,9.1,91.4,15.9,44.8,73.6,83.4,73.6,83.4,0,0-41.5-8.3-69.1-57.7h0Z"/>
  <path class="st0" d="M1384.4,651.3c-94.6,8.5-131.6-9.7-178.6-5.2-95.7,9.2-146.6,88.1-248,92.2-88.2,3.6-143.4-54.4-226.3-64.3-30.4-3.7-50.5-.3-79.7,2.3-1,0-1.9,0-2.9,0-7.4.7-16.2,0-23.9.7-2.7.3-5.2.9-7.8,1.8-1.5,0-2.9,0-4.4.2-9.7,0-19.7,2.1-28,2.4l-24.5.9c-1.7,0-7.5-1-10.9-1.1-50.2-1.6-99.8-9.5-146-29.8,0,0,178.7,374.2,547.5,375.7,368.7,1.6,471.3-237.1,497.3-279.6,25.9-42.5,55.3-89.7,82.3-140.9,0,0-51.5,36.3-146,44.8h0v-.2ZM1334.6,772c-16.1,30.3-42.1,54.2-70.5,72.9-2.7,1.9-6.4,4-9.3,5.7-29.4,16.1-61.2,22.1-93.8,22.8-4.6,0-9,0-13.7-.3-1.6,0-2.8-1.5-2.7-3.1,0-1.3,1.1-2.4,2.3-2.6,34-7.8,68.7-18.9,96.7-39.9,21.7-17.7,42.2-37.4,58.1-60.4.8-1.2,2.6-3.8,3.4-5.1l3.4-5.2c10.9-15.7,34.2-2,25.9,15.2h.2Z"/>
</svg>