<?xml version="1.0" encoding="UTF-8"?>
<svg id="Layer_1" xmlns="http://www.w3.org/2000/svg" version="1.1" viewBox="0 0 25 25">
  <!-- Generator: Adobe Illustrator 30.0.0, SVG Export Plug-In . SVG Version: 2.1.1 Build 123)  -->
  <defs>
    <style>
      .st0 {
        fill: #fff;
      }
    </style>
  </defs>
  <path class="st0" d="M7.3,0c-1.3,0-2.2.3-3,.6-.8.3-1.5.8-2.2,1.4-.7.7-1.1,1.4-1.4,2.2-.3.8-.5,1.7-.6,3C0,8.7,0,9.1,0,12.5c0,3.4,0,3.8,0,5.2,0,1.3.3,2.2.6,3,.3.8.8,1.5,1.4,2.2.7.7,1.4,1.1,2.2,1.4.8.3,1.7.5,3,.6,1.3,0,1.8,0,5.2,0,3.4,0,3.8,0,5.2,0,1.3,0,2.2-.3,3-.6.8-.3,1.5-.8,2.2-1.4.7-.7,1.1-1.4,1.4-2.2.3-.8.5-1.7.6-3,0-1.3,0-1.8,0-5.2,0-3.4,0-3.8,0-5.2,0-1.3-.3-2.2-.6-3-.3-.8-.8-1.5-1.4-2.2-.7-.7-1.4-1.1-2.2-1.4-.8-.3-1.7-.5-3-.6C16.3,0,15.9,0,12.5,0c-3.4,0-3.8,0-5.2,0ZM7.5,22.7c-1.2,0-1.9-.3-2.3-.4-.6-.2-1-.5-1.4-.9-.4-.4-.7-.9-.9-1.4-.2-.4-.4-1.1-.4-2.3,0-1.3,0-1.7,0-5.1,0-3.3,0-3.7,0-5.1,0-1.2.3-1.9.4-2.3.2-.6.5-1,.9-1.4s.9-.7,1.4-.9c.4-.2,1.1-.4,2.3-.4,1.3,0,1.7,0,5.1,0,3.3,0,3.7,0,5.1,0,1.2,0,1.9.3,2.3.4.6.2,1,.5,1.4.9.4.4.7.9.9,1.4.2.4.4,1.1.4,2.3,0,1.3,0,1.7,0,5.1,0,3.3,0,3.7,0,5.1,0,1.2-.3,1.9-.4,2.3-.2.6-.5,1-.9,1.4-.4.4-.9.7-1.4.9-.4.2-1.1.4-2.3.4-1.3,0-1.7,0-5.1,0-3.3,0-3.7,0-5.1,0M17.7,5.8c0,.3,0,.6.3.8.2.2.4.4.7.6s.6.1.9,0c.3,0,.6-.2.8-.4.2-.2.4-.5.4-.8,0-.3,0-.6,0-.9-.1-.3-.3-.5-.6-.7s-.5-.3-.8-.3c-.4,0-.8.2-1.1.4-.3.3-.4.7-.4,1.1ZM6.1,12.5c0,3.5,2.9,6.4,6.4,6.4,3.5,0,6.4-2.9,6.4-6.4,0-3.5-2.9-6.4-6.4-6.4-3.5,0-6.4,2.9-6.4,6.4ZM8.3,12.5c0-.8.2-1.6.7-2.3.5-.7,1.1-1.2,1.9-1.5.8-.3,1.6-.4,2.4-.2.8.2,1.6.6,2.1,1.1.6.6,1,1.3,1.1,2.1.2.8,0,1.6-.2,2.4-.3.8-.8,1.4-1.5,1.9-.7.5-1.5.7-2.3.7-.5,0-1.1-.1-1.6-.3-.5-.2-1-.5-1.4-.9-.4-.4-.7-.8-.9-1.4-.2-.5-.3-1-.3-1.6Z"/>
</svg>