<?xml version="1.0" encoding="UTF-8"?>
<svg id="Layer_1" xmlns="http://www.w3.org/2000/svg" version="1.1" viewBox="0 0 25 24">
  <!-- Generator: Adobe Illustrator 30.0.0, SVG Export Plug-In . SVG Version: 2.1.1 Build 123)  -->
  <defs>
    <style>
      .st0 {
        fill: #fff;
      }
    </style>
  </defs>
  <path class="st0" d="M17.2,3.1c-.8-.5-1.4-1.4-1.6-2.4,0-.2,0-.4,0-.7h-2.7v10.6c0,1.2-1,2.1-2.2,2.1s-.7,0-1-.3c-.7-.4-1.2-1.1-1.2-2,0-1.2,1-2.2,2.2-2.2s.5,0,.7.1v-2.7c-.2,0-.4,0-.7,0-2.7,0-4.9,2.2-4.9,4.8s.8,3.1,2.1,4c.8.6,1.8.9,2.8.9,2.7,0,4.9-2.2,4.9-4.8v-5.4c1,.7,2.3,1.2,3.7,1.2v-2.6c-.7,0-1.4-.2-2-.6h0Z"/>
  <path class="st0" d="M0,18.3h4.3l-.4,1.2h-1.1s0,4.5,0,4.5h-1.4v-4.5H0s0-1.2,0-1.2h0Z"/>
  <path class="st0" d="M11.3,18.3h4.4l-.4,1.2h-1.2s0,4.5,0,4.5h-1.4v-4.5h-1.4s0-1.2,0-1.2h0Z"/>
  <path class="st0" d="M4.5,20.1h1.4v3.9h-1.4v-3.9Z"/>
  <path class="st0" d="M6.5,18.3h1.4v2.7l1.4-1.3h1.6l-1.7,1.7,1.9,2.7h-1.5l-1.3-1.9-.4.4v1.5h-1.4v-5.7Z"/>
  <path class="st0" d="M20.4,18.3h1.4v2.7l1.4-1.3h1.6l-1.7,1.7,1.9,2.7h-1.5l-1.3-1.9-.4.4v1.5h-1.4v-5.7Z"/>
  <path class="st0" d="M5.2,19.7c.4,0,.7-.3.7-.7s-.3-.7-.7-.7-.7.3-.7.7.3.7.7.7Z"/>
  <path class="st0" d="M17.5,19.3c-1.3,0-2.4,1-2.4,2.3s1.1,2.3,2.4,2.3,2.4-1,2.4-2.3-1.1-2.3-2.4-2.3ZM17.5,22.8c-.6,0-1.1-.5-1.1-1.1s.5-1.1,1.1-1.1,1.1.5,1.1,1.1-.5,1.1-1.1,1.1Z"/>
</svg>