<svg width="36" height="37" viewBox="0 0 36 37" fill="currentColor" xmlns="http://www.w3.org/2000/svg">
<path fill-rule="evenodd" clip-rule="evenodd" d="M11.505 3.49902H24.51C29.595 3.49902 33 7.06902 33 12.379V24.6355C33 29.9305 29.595 33.499 24.51 33.499H11.505C6.42 33.499 3 29.9305 3 24.6355V12.379C3 7.06902 6.42 3.49902 11.505 3.49902ZM22.5152 22.999C23.0252 22.4905 23.0252 21.6655 22.5152 21.1555L19.8452 18.4855L22.5152 15.814C23.0252 15.3055 23.0252 14.4655 22.5152 13.9555C22.0052 13.444 21.1802 13.444 20.6552 13.9555L18.0002 16.624L15.3302 13.9555C14.8052 13.444 13.9802 13.444 13.4702 13.9555C12.9602 14.4655 12.9602 15.3055 13.4702 15.814L16.1402 18.4855L13.4702 21.1405C12.9602 21.6655 12.9602 22.4905 13.4702 22.999C13.7252 23.254 14.0702 23.3905 14.4002 23.3905C14.7452 23.3905 15.0752 23.254 15.3302 22.999L18.0002 20.3455L20.6702 22.999C20.9252 23.2705 21.2552 23.3905 21.5852 23.3905C21.9302 23.3905 22.2602 23.254 22.5152 22.999Z" fill="white"/>
</svg>
