<svg width="54" height="53" viewBox="0 0 54 53" fill="none" xmlns="http://www.w3.org/2000/svg">
<path fill-rule="evenodd" clip-rule="evenodd" d="M43.6895 10.9351C45.2307 11.661 46.6672 12.6033 47.899 13.7834C55.5339 20.961 54.1229 32.3836 47.3364 39.7521C43.7163 43.4459 39.301 46.2935 34.4539 48.0365C27.5858 50.3825 20.5001 51.9992 13.2834 52.8678L12.499 52.949L12.0492 52.2566C8.09188 46.1546 4.79661 39.6482 2.19901 32.8138C0.478009 27.9771 -0.152285 22.7826 0.365754 17.6277C1.67848 7.68088 9.58669 -0.681353 20.1047 0.628844C20.9281 0.718236 21.739 0.89126 22.5166 1.14116L22.8097 1.27922C23.5433 1.50237 24.2466 1.77695 24.9305 2.0991L25.1992 2.22565C26.7162 2.99689 28.0796 3.96739 29.2919 5.1383L29.436 5.20618C29.5118 5.29861 29.5609 5.38442 29.5879 5.45384C30.0461 5.88152 30.4645 6.31739 30.8265 6.81617L31.5591 7.66861C31.727 7.89387 31.8927 8.19522 32.0358 8.45566C32.1265 8.62067 32.2082 8.76926 32.2757 8.87168C32.3045 8.91397 32.3339 8.9567 32.3635 8.99979C32.5153 9.22069 32.6735 9.4508 32.791 9.67848C36.4815 8.88296 40.3058 9.31142 43.6895 10.9351ZM41.903 31.5819C42.9171 32.0268 44.1505 31.6259 44.7082 30.6321L44.8451 30.3414C46.5302 26.9539 45.9165 22.8774 43.3269 20.1953C42.4876 19.3792 41.1342 19.4012 40.2846 20.2545C39.4594 21.1193 39.4676 22.496 40.322 23.3432C41.6116 24.6669 41.9335 26.7017 41.1293 28.4091L41.0936 28.4848C40.7837 29.0223 40.698 29.6415 40.8444 30.2178C40.9907 30.7941 41.3898 31.2775 41.903 31.5819Z" fill="#EA1E61"/>
</svg>
