<svg width="54" height="52" viewBox="0 0 54 52" fill="currentColor" xmlns="http://www.w3.org/2000/svg">
<path fill-rule="evenodd" clip-rule="evenodd" d="M37.3947 0.000307133C39.0984 0.000307133 40.7994 0.240605 42.4167 0.783299C52.3822 4.02326 55.9732 14.9582 52.9735 24.5161C51.2726 29.4003 48.4916 33.858 44.8493 37.5002C39.6357 42.5492 33.9144 47.0311 27.7558 50.8921L27.0808 51.2998L26.3788 50.8651C20.1986 47.0311 14.4449 42.5492 9.1827 37.4732C5.56474 33.831 2.78107 29.4003 1.05309 24.5161C-1.99788 14.9582 1.59308 4.02326 11.6667 0.7266C12.4497 0.456602 13.257 0.267604 14.0669 0.162305L14.3909 0.162305C15.1496 0.0516066 15.9029 0.000307133 16.6589 0.000307133L16.9559 0.000307133C18.6569 0.0516066 20.3039 0.348603 21.8996 0.891298L22.0589 0.891298C22.1669 0.942597 22.2479 0.999297 22.3019 1.0506C22.8986 1.24229 23.4629 1.45829 24.0028 1.75529L25.0288 2.21428C25.2768 2.34651 25.555 2.54854 25.7955 2.72315C25.9479 2.83378 26.0851 2.9334 26.1898 2.99728C26.2339 3.02327 26.2787 3.04942 26.3238 3.07577C26.5553 3.21091 26.7965 3.35168 26.9998 3.50757C29.9995 1.21529 33.6417 -0.0266926 37.3947 0.000307133ZM44.5766 19.4401C45.6836 19.4104 46.6286 18.5221 46.7096 17.3854V17.0641C46.7906 13.2815 44.4983 9.8552 41.0127 8.53221C39.9057 8.15152 38.6907 8.74821 38.2857 9.8822C37.9077 11.0162 38.5017 12.2582 39.6357 12.6605C41.3663 13.3085 42.5246 15.0121 42.5246 16.8994V16.9831C42.4733 17.6014 42.6596 18.1981 43.0376 18.6571C43.4156 19.1161 43.9826 19.3834 44.5766 19.4401Z" fill="currentColor"/>
</svg>
