<svg width="17" height="16" viewBox="0 0 17 16" fill="none" xmlns="http://www.w3.org/2000/svg">
<g style="mix-blend-mode:overlay">
<path d="M0.815918 6.39941C0.816229 6.42483 0.816541 6.4501 0.81732 6.47552C0.819189 6.45823 0.83274 6.42092 0.815918 6.39941Z" fill="white"/>
</g>
<path d="M16.8651 6.64774C16.7697 6.62187 16.4877 6.62096 16.3789 6.60412C15.9483 6.53794 15.5458 6.41309 15.1591 6.25425C14.8414 6.11527 14.5329 5.95402 14.2339 5.79458C12.506 4.87299 10.6681 3.30747 8.85949 4.92744C8.06275 5.79654 8.22414 5.85475 7.65152 6.06262C7.19892 6.22688 7.15801 6.16867 6.58388 6.06022C6.47092 6.03134 6.35586 6.00712 6.23688 5.99238C6.17491 5.98471 6.11414 5.97869 6.05458 5.97433C6.03548 5.97177 6.01622 5.96907 5.99652 5.96651C5.9183 5.9638 5.8422 5.9638 5.76819 5.96621C5.45714 5.97162 5.18068 6.02562 4.93325 6.11933C3.42445 6.66789 3.0403 8.56854 2.42902 10.0787C2.07946 10.9425 1.73245 11.8324 0.971662 12.4165L0.921875 12.4556C0.93842 12.5242 1.00942 12.4971 1.05334 12.4999C1.86316 12.552 2.88853 12.325 3.63127 12.0037C4.51525 11.6215 5.04861 10.8341 5.99095 10.4984C7.09529 10.1049 7.91278 10.6256 9.1027 10.1104C10.0265 9.71049 10.6169 8.77175 11.5409 8.37105C12.635 7.89664 13.6244 8.15129 14.6925 7.89318C15.2137 7.76728 16.5236 7.05476 16.8788 6.65481C16.8979 6.64954 16.9078 6.64654 16.9078 6.64654C16.8934 6.64714 16.8791 6.64729 16.8648 6.64759L16.8651 6.64774ZM3.69083 7.88475C3.94503 7.26895 4.50036 6.63992 4.91911 6.48063C5.33786 6.32134 5.67403 6.26237 6.88215 6.48559C5.54423 6.44528 4.76478 6.54952 3.69083 7.8849V7.88475ZM10.0154 4.89029C9.94818 4.92278 9.88365 4.96038 9.82243 5.00295C9.75896 5.04612 9.68886 5.09425 9.62704 5.13907C9.45587 5.26241 9.28952 5.39237 9.13173 5.53226C8.94973 5.69711 8.73058 5.89792 8.55159 6.06593C8.47247 6.14039 8.39501 6.21364 8.31785 6.29231C8.31785 6.29231 8.94146 5.01152 10.0252 4.5675C11.1091 4.12347 12.7182 5.27851 12.7182 5.27851C11.9598 4.90097 10.8264 4.49846 10.0153 4.89029H10.0154Z" fill="#212121"/>
<path d="M15.1209 8.21856C13.8083 8.7796 13.1941 8.69251 12.5439 8.97499C11.2181 9.55123 10.8582 10.9161 9.42777 11.4468C8.184 11.9082 7.12479 11.3376 5.89321 11.5808C5.44122 11.67 5.17032 11.8109 4.76556 11.9833C4.75232 11.989 4.73803 11.9925 4.7248 11.998C4.62282 12.0415 4.49271 12.0749 4.38712 12.1197C4.34937 12.1358 4.31597 12.1567 4.28363 12.1812C4.26303 12.1874 4.24302 12.1967 4.22242 12.2035C4.08434 12.2489 3.95062 12.3252 3.83224 12.3682L3.48569 12.494C3.46148 12.5027 3.37378 12.515 3.32535 12.529C2.59991 12.74 1.85506 12.8569 1.09863 12.7837C1.09863 12.7837 5.39459 17.3002 10.672 15.6077C15.9495 13.9152 16.3059 10.0259 16.4793 9.29733C16.6526 8.56872 16.8516 7.75798 17 6.89941C17 6.89941 16.4336 7.65736 15.1209 8.21841V8.21856Z" fill="#212121"/>
<path d="M13.7366 0.361215C13.5 -0.367096 10.2361 0.0406799 6.44662 1.27198C2.65711 2.50328 -0.223006 4.09181 0.013594 4.82012C0.250194 5.54843 3.51401 5.14066 7.30353 3.90936C11.093 2.67806 13.9732 1.08953 13.7366 0.361215ZM7.09836 3.27762C4.28969 4.19018 1.89015 4.55208 1.73868 4.0858C1.58722 3.61951 3.74114 2.50177 6.54981 1.5892C9.35847 0.676635 11.758 0.314736 11.9095 0.781024C12.0609 1.24731 9.90688 2.36505 7.09836 3.27762Z" fill="#212121"/>
</svg>
