<svg width="13" height="16" viewBox="0 0 13 16" fill="none" xmlns="http://www.w3.org/2000/svg">
<path d="M0.237999 10.1514C0.237999 10.1514 5.81334 15.7181 5.86014 15.7638C6.17747 16.0787 6.79029 16.0787 7.10749 15.7638L12.762 10.1514C13.0793 9.83641 13.0793 9.32492 12.762 9.01099C12.4452 8.69602 11.9305 8.69602 11.6131 9.01099L7.3125 13.2795L7.3125 0.806454C7.3125 0.360647 6.94889 1.28917e-06 6.5 1.2697e-06C6.05137 1.25023e-06 5.6875 0.360647 5.6875 0.806454L5.6875 13.2795L1.38694 9.01099C1.06961 8.69602 0.555461 8.69602 0.237999 9.01099C-0.0793323 9.32505 -0.0793323 9.83641 0.237999 10.1514Z" fill="currentColor"/>
</svg>
