<svg width="16" height="16" viewBox="0 0 16 16" fill="none" xmlns="http://www.w3.org/2000/svg">
<path fill-rule="evenodd" clip-rule="evenodd" d="M7.60568 8.3978C10.9649 11.7561 11.727 7.87092 13.8658 10.0083C15.9278 12.0697 17.1129 12.4827 14.5004 15.0945C14.1732 15.3575 12.094 18.5215 4.78703 11.2166C-2.52082 3.91074 0.641335 1.82943 0.904396 1.50227C3.52326 -1.11676 3.92915 0.0752698 5.99115 2.1367C8.12999 4.27494 4.24645 5.03951 7.60568 8.3978Z" fill="#5E5E5E"/>
<path d="M11.4502 1.5498H13.2002C14.7416 1.54991 15.9998 2.80825 16 4.34961V7.5H14.5996V4.34961C14.5994 3.58145 13.9684 2.9503 13.2002 2.9502H11.4502V4L9 2.25L11.4502 0.5V1.5498Z" fill="#5E5E5E"/>
</svg>
