<svg width="18" height="18" viewBox="0 0 18 18" fill="none" xmlns="http://www.w3.org/2000/svg">
<path d="M9.0075 1.11328C7.446 1.11328 6.192 1.12828 6.20025 1.14853C6.20775 1.16353 7.48125 3.39928 9.03075 6.11353L11.8507 11.044H14.6708C16.2315 11.044 17.4855 11.029 17.4772 11.0088C17.4735 10.9938 16.1962 8.75803 14.646 6.04378L11.826 1.11328H9.0075ZM5.4375 2.41078C4.52272 3.98634 3.61521 5.5661 2.715 7.15003L0 11.9005L1.4175 14.374L2.83125 16.8468L5.54625 12.0955L8.25975 7.34803L6.84975 4.88278C6.075 3.52753 5.44125 2.41528 5.4375 2.41078ZM7.13175 11.9005L6.9795 12.1615C6.894 12.31 6.2595 13.4155 5.5695 14.6268C5.148 15.371 4.72349 16.1135 4.296 16.8543C4.2885 16.8738 6.726 16.8858 9.7125 16.8858H15.1455L16.4925 14.518C17.2365 13.2175 17.88 12.0955 17.922 12.0258L18 11.9005H12.5632H7.13175Z" fill="white"/>
</svg>
