<svg width="212" height="47" viewBox="0 0 212 47" fill="none" xmlns="http://www.w3.org/2000/svg">
<path opacity="0.5" d="M2.4658 23.1617C2.45516 22.7495 1.89445 22.4206 1.21363 22.4271C0.532821 22.4335 -0.010479 22.773 0.000164933 23.1852L0.00304636 23.2935C0.0136903 23.7057 0.574399 24.0346 1.25521 24.0282C1.93602 24.0218 2.47931 23.6823 2.46866 23.2701L2.4658 23.1617ZM6.27339 23.0912C6.27071 22.679 5.71654 22.3461 5.03573 22.3478C4.35491 22.3494 3.8051 22.6849 3.80777 23.0971L3.81063 23.3641C3.81331 23.7763 4.36748 24.1091 5.0483 24.1075C5.72911 24.1059 6.27892 23.7704 6.27625 23.3582L6.27339 23.0912ZM10.081 22.9989C10.081 22.5867 9.52902 22.2525 8.84821 22.2525C8.16739 22.2525 7.6154 22.5867 7.6154 22.9989L7.61828 23.4564C7.61828 23.8686 8.17027 24.2028 8.85109 24.2028C9.5319 24.2028 10.0839 23.8686 10.0839 23.4564L10.081 22.9989ZM13.8886 22.8721C13.8886 22.4599 13.3366 22.1257 12.6558 22.1257C11.975 22.1257 11.423 22.4599 11.423 22.8721L11.4259 23.5832C11.4259 23.9954 11.9779 24.3295 12.6587 24.3295C13.3395 24.3295 13.8915 23.9954 13.8915 23.5832L13.8886 22.8721ZM17.6962 22.7135C17.6962 22.3013 17.1443 21.9671 16.4634 21.9671C15.7826 21.9671 15.2306 22.3013 15.2306 22.7135L15.2335 23.7418C15.2335 24.154 15.7855 24.4882 16.4663 24.4882C17.1471 24.4882 17.6991 24.154 17.6991 23.7418L17.6962 22.7135ZM21.5039 22.5072C21.5039 22.095 20.9519 21.7608 20.271 21.7608C19.5902 21.7608 19.0382 22.095 19.0382 22.5072L19.0411 23.9481C19.0411 24.3603 19.5931 24.6945 20.2739 24.6945C20.9547 24.6945 21.5067 24.3603 21.5067 23.9481L21.5039 22.5072ZM25.3138 21.8093C25.3138 21.3971 24.7618 21.0629 24.081 21.0629C23.4002 21.0629 22.8482 21.3971 22.8482 21.8093L22.8463 24.6459C22.8463 25.0581 23.3983 25.3923 24.0791 25.3923C24.7599 25.3923 25.3119 25.0581 25.3119 24.6459L25.3138 21.8093ZM29.1191 21.023C29.1191 20.6108 28.5671 20.2766 27.8863 20.2766C27.2054 20.2766 26.6535 20.6108 26.6535 21.023L26.6563 25.4322C26.6563 25.8444 27.2083 26.1786 27.8891 26.1786C28.57 26.1786 29.1219 25.8444 29.1219 25.4322L29.1191 21.023ZM32.9267 18.6689C32.9267 18.2567 32.3747 17.9225 31.6939 17.9225C31.0131 17.9225 30.461 18.2567 30.461 18.6689L30.4639 27.8043C30.4639 28.2165 31.0159 28.5507 31.6967 28.5507C32.3775 28.5507 32.9295 28.2165 32.9295 27.8043L32.9267 18.6689ZM36.7343 14.0376C36.7343 13.6255 36.1823 13.2913 35.5015 13.2913C34.8206 13.2913 34.2686 13.6255 34.2686 14.0376L34.2715 32.4355C34.2715 32.8477 34.8235 33.1819 35.5043 33.1819C36.1851 33.1819 36.7371 32.8477 36.7371 32.4355L36.7343 14.0376ZM71.0028 12.6101C71.0028 12.1979 70.4508 11.8637 69.77 11.8637C69.0892 11.8637 68.5372 12.1979 68.5372 12.6101L68.54 33.863C68.54 34.2752 69.092 34.6094 69.7728 34.6094C70.4537 34.6094 71.0056 34.2752 71.0056 33.863L71.0028 12.6101ZM74.8104 5.06046C74.8104 4.64828 74.2584 4.31408 73.5776 4.31408C72.8968 4.31408 72.3448 4.64828 72.3448 5.06046L72.3476 41.4126C72.3476 41.8247 72.8996 42.1589 73.5804 42.1589C74.2612 42.1589 74.8132 41.8247 74.8132 41.4126L74.8104 5.06046ZM78.618 7.09062C78.618 6.67844 78.066 6.34424 77.3852 6.34424C76.7044 6.34424 76.1524 6.67844 76.1524 7.09062L76.1553 39.3824C76.1553 39.7946 76.7073 40.1288 77.3881 40.1288C78.0689 40.1288 78.6209 39.7946 78.6209 39.3824L78.618 7.09062ZM82.4256 16.7338C82.4256 16.3216 81.8736 15.9874 81.1928 15.9874C80.512 15.9874 79.96 16.3216 79.96 16.7338L79.9629 29.7394C79.9629 30.1516 80.5148 30.4858 81.1957 30.4858C81.8765 30.4858 82.4285 30.1516 82.4285 29.7394L82.4256 16.7338ZM86.2332 13.2762C86.2332 12.864 85.6812 12.5298 85.0004 12.5298C84.3196 12.5298 83.7676 12.864 83.7676 13.2762L83.7704 33.1969C83.7704 33.6091 84.3224 33.9433 85.0032 33.9433C85.6841 33.9433 86.2361 33.6091 86.2361 33.1969L86.2332 13.2762ZM116.694 7.59811C116.694 7.18593 116.142 6.85174 115.461 6.85174C114.78 6.85174 114.228 7.18593 114.228 7.59811L114.231 38.777C114.231 39.1892 114.783 39.5233 115.464 39.5233C116.145 39.5233 116.697 39.1892 116.697 38.777L116.694 7.59811ZM120.502 3.66472C120.502 3.25254 119.95 2.91834 119.269 2.91834C118.588 2.91834 118.036 3.25254 118.036 3.66472L118.039 42.7103C118.039 43.1225 118.591 43.4567 119.272 43.4567C119.953 43.4567 120.505 43.1225 120.505 42.7103L120.502 3.66472ZM124.309 0.746376C124.309 0.334193 123.757 0 123.076 0C122.396 0 121.844 0.334193 121.844 0.746376L121.847 45.6286C121.847 46.0408 122.399 46.375 123.079 46.375C123.76 46.375 124.312 46.0408 124.312 45.6286L124.309 0.746376ZM128.117 4.23564C128.117 3.82346 127.565 3.48926 126.884 3.48926C126.203 3.48926 125.651 3.82346 125.651 4.23564L125.654 42.1394C125.654 42.5516 126.206 42.8858 126.887 42.8858C127.568 42.8858 128.12 42.5516 128.12 42.1394L128.117 4.23564ZM139.54 8.67659C139.54 8.26441 138.988 7.93021 138.307 7.93021C137.626 7.93021 137.074 8.26441 137.074 8.67659L137.077 37.6985C137.077 38.1107 137.629 38.4449 138.31 38.4449C138.991 38.4449 139.543 38.1107 139.543 37.6985L139.54 8.67659ZM143.347 16.131C143.347 15.7188 142.795 15.3846 142.115 15.3846C141.434 15.3846 140.882 15.7188 140.882 16.131L140.885 30.2443C140.885 30.6564 141.437 30.9906 142.117 30.9906C142.798 30.9906 143.35 30.6564 143.35 30.2443L143.347 16.131ZM147.155 13.5616C147.155 13.1494 146.603 12.8152 145.922 12.8152C145.241 12.8152 144.689 13.1494 144.689 13.5616L144.692 32.8136C144.692 33.2258 145.244 33.56 145.925 33.56C146.606 33.56 147.158 33.2258 147.158 32.8136L147.155 13.5616ZM150.963 20.983C150.963 20.5708 150.411 20.2366 149.73 20.2366C149.049 20.2366 148.497 20.5708 148.497 20.983L148.5 25.3923C148.5 25.8044 149.052 26.1386 149.733 26.1386C150.413 26.1386 150.965 25.8044 150.965 25.3923L150.963 20.983ZM154.77 17.3681C154.77 16.9559 154.218 16.6217 153.537 16.6217C152.857 16.6217 152.305 16.9559 152.305 17.3681L152.307 29.0251C152.307 29.4373 152.859 29.7715 153.54 29.7715C154.221 29.7715 154.773 29.4373 154.773 29.0251L154.77 17.3681ZM158.578 10.326C158.578 9.91386 158.026 9.57967 157.345 9.57967C156.664 9.57967 156.112 9.91386 156.112 10.326L156.115 36.0671C156.115 36.4792 156.667 36.8134 157.348 36.8134C158.029 36.8134 158.581 36.4792 158.581 36.0671L158.578 10.326ZM162.385 12.4196C162.385 12.0074 161.833 11.6733 161.153 11.6733C160.472 11.6733 159.92 12.0074 159.92 12.4196L159.923 33.9735C159.923 34.3857 160.475 34.7199 161.155 34.7199C161.836 34.7199 162.388 34.3857 162.388 33.9735L162.385 12.4196ZM166.193 9.05721C166.193 8.64503 165.641 8.31084 164.96 8.31084C164.279 8.31084 163.727 8.64503 163.727 9.05721L163.73 37.3359C163.73 37.7481 164.282 38.0823 164.963 38.0823C165.644 38.0823 166.196 37.7481 166.196 37.3359L166.193 9.05721ZM170.001 5.18724C170.001 4.77506 169.449 4.44086 168.768 4.44086C168.087 4.44086 167.535 4.77506 167.535 5.18724L167.538 41.2058C167.538 41.618 168.09 41.9522 168.771 41.9522C169.452 41.9522 170.004 41.618 170.004 41.2058L170.001 5.18724ZM173.808 15.8455C173.808 15.4333 173.256 15.0991 172.575 15.0991C171.895 15.0991 171.343 15.4333 171.343 15.8455L171.345 30.5477C171.345 30.9599 171.897 31.2941 172.578 31.2941C173.259 31.2941 173.811 30.9599 173.811 30.5477L173.808 15.8455ZM177.616 11.5315C177.616 11.1193 177.064 10.7851 176.383 10.7851C175.702 10.7851 175.15 11.1193 175.15 11.5315L175.153 34.8617C175.153 35.2739 175.705 35.6081 176.386 35.6081C177.067 35.6081 177.619 35.2739 177.619 34.8617L177.616 11.5315ZM181.423 16.1944C181.423 15.7822 180.871 15.448 180.191 15.448C179.51 15.448 178.958 15.7822 178.958 16.1944L178.961 30.1988C178.961 30.611 179.513 30.9452 180.194 30.9452C180.874 30.9452 181.426 30.611 181.426 30.1988L181.423 16.1944ZM185.231 22.4117C185.231 21.9996 184.679 21.6654 183.998 21.6654C183.317 21.6654 182.765 21.9996 182.765 22.4117L182.768 23.9815C182.768 24.3937 183.32 24.7279 184.001 24.7279C184.682 24.7279 185.234 24.3937 185.234 23.9815L185.231 22.4117ZM189.039 20.992C189.039 20.5798 188.487 20.2456 187.806 20.2456C187.125 20.2456 186.573 20.5798 186.573 20.992L186.576 25.4012C186.576 25.8134 187.128 26.1476 187.809 26.1476C188.49 26.1476 189.042 25.8134 189.042 25.4012L189.039 20.992ZM192.846 18.0977C192.846 17.6855 192.294 17.3514 191.613 17.3514C190.933 17.3514 190.381 17.6855 190.381 18.0977L190.384 28.2955C190.384 28.7077 190.936 29.0419 191.616 29.0419C192.297 29.0419 192.849 28.7077 192.849 28.2955L192.846 18.0977ZM196.658 16.3531C196.658 15.9409 196.106 15.6067 195.425 15.6067C194.744 15.6067 194.192 15.9409 194.192 16.3531L194.187 30.0402C194.187 30.4524 194.739 30.7865 195.42 30.7865C196.101 30.7865 196.653 30.4524 196.653 30.0402L196.658 16.3531ZM200.462 18.1294C200.462 17.7173 199.91 17.3831 199.229 17.3831C198.548 17.3831 197.996 17.7173 197.996 18.1294L197.999 28.2638C197.999 28.676 198.551 29.0102 199.232 29.0102C199.912 29.0102 200.464 28.676 200.464 28.2638L200.462 18.1294ZM204.269 14.4498C204.269 14.0376 203.717 13.7034 203.036 13.7034C202.355 13.7034 201.803 14.0376 201.803 14.4498L201.806 31.9434C201.806 32.3555 202.358 32.6897 203.039 32.6897C203.72 32.6897 204.272 32.3555 204.272 31.9434L204.269 14.4498ZM208.077 16.9875C208.077 16.5753 207.525 16.2411 206.844 16.2411C206.163 16.2411 205.611 16.5753 205.611 16.9875L205.614 29.4057C205.614 29.8179 206.166 30.1521 206.847 30.1521C207.528 30.1521 208.08 29.8179 208.08 29.4057L208.077 16.9875ZM211.884 20.992C211.884 20.5798 211.332 20.2456 210.652 20.2456C209.971 20.2456 209.419 20.5798 209.419 20.992L209.422 25.4012C209.422 25.8134 209.974 26.1476 210.654 26.1476C211.335 26.1476 211.887 25.8134 211.887 25.4012L211.884 20.992ZM112.886 11.1509C112.886 10.7387 112.334 10.4045 111.654 10.4045C110.973 10.4045 110.421 10.7387 110.421 11.1509L110.424 35.2243C110.424 35.6364 110.976 35.9706 111.657 35.9706C112.337 35.9706 112.889 35.6364 112.889 35.2243L112.886 11.1509ZM101.464 16.9875C101.464 16.5754 100.912 16.2412 100.231 16.2412C99.55 16.2412 98.998 16.5754 98.998 16.9875L99.0009 29.3877C99.0009 29.7998 99.5529 30.134 100.234 30.134C100.915 30.134 101.467 29.7998 101.467 29.3877L101.464 16.9875ZM67.1951 19.5887C67.1951 19.1765 66.6431 18.8423 65.9623 18.8423C65.2815 18.8423 64.7295 19.1765 64.7295 19.5887L64.7324 26.8845C64.7324 27.2967 65.2844 27.6309 65.9652 27.6309C66.646 27.6309 67.198 27.2967 67.198 26.8845L67.1951 19.5887ZM59.5799 18.0978C59.5799 17.6856 59.0279 17.3514 58.3471 17.3514C57.6663 17.3514 57.1143 17.6856 57.1143 18.0978L57.1172 28.3754C57.1172 28.7876 57.6692 29.1218 58.35 29.1218C59.0308 29.1218 59.5828 28.7876 59.5828 28.3754L59.5799 18.0978ZM40.5419 15.8775C40.5419 15.4653 39.9899 15.1311 39.3091 15.1311C38.6283 15.1311 38.0763 15.4653 38.0763 15.8775L38.0792 30.5957C38.0792 31.0079 38.6312 31.3421 39.312 31.3421C39.9928 31.3421 40.5448 31.0079 40.5448 30.5957L40.5419 15.8775ZM44.3495 12.3564C44.3495 11.9442 43.7975 11.61 43.1167 11.61C42.4359 11.61 41.8839 11.9442 41.8839 12.3564L41.8867 34.1167C41.8867 34.5289 42.4387 34.8631 43.1196 34.8631C43.8004 34.8631 44.3524 34.5289 44.3524 34.1167L44.3495 12.3564ZM48.1571 16.9877C48.1571 16.5755 47.6051 16.2413 46.9243 16.2413C46.2435 16.2413 45.6915 16.5755 45.6915 16.9877L45.6944 29.4855C45.6944 29.8976 46.2464 30.2318 46.9272 30.2318C47.608 30.2318 48.16 29.8976 48.16 29.4855L48.1571 16.9877ZM55.7723 20.0963C55.7723 19.6841 55.2203 19.3499 54.5395 19.3499C53.8587 19.3499 53.3067 19.6841 53.3067 20.0963L53.3096 26.3769C53.3096 26.7891 53.8616 27.1233 54.5424 27.1233C55.2232 27.1233 55.7752 26.7891 55.7752 26.3769L55.7723 20.0963ZM63.3876 18.2247C63.3876 17.8125 62.8356 17.4783 62.1547 17.4783C61.4739 17.4783 60.9219 17.8125 60.9219 18.2247L60.9248 28.2485C60.9248 28.6607 61.4768 28.9949 62.1576 28.9949C62.8384 28.9949 63.3904 28.6607 63.3904 28.2485L63.3876 18.2247ZM51.9647 21.8409C51.9647 21.4287 51.4127 21.0945 50.7319 21.0945C50.0511 21.0945 49.4991 21.4287 49.4991 21.8409L49.502 24.6323C49.502 25.0445 50.054 25.3787 50.7348 25.3787C51.4156 25.3787 51.9676 25.0445 51.9676 24.6323L51.9647 21.8409ZM90.0408 21.8567C90.0408 21.4446 89.4888 21.1104 88.808 21.1104C88.1272 21.1104 87.5752 21.4446 87.5752 21.8567L87.5781 24.6165C87.5781 25.0287 88.1301 25.3628 88.8109 25.3628C89.4917 25.3628 90.0437 25.0287 90.0437 24.6165L90.0408 21.8567ZM93.8484 20.983C93.8484 20.5708 93.2964 20.2366 92.6156 20.2366C91.9348 20.2366 91.3828 20.5708 91.3828 20.983L91.3857 25.3923C91.3857 25.8044 91.9377 26.1386 92.6185 26.1386C93.2993 26.1386 93.8513 25.8044 93.8513 25.3923L93.8484 20.983ZM97.6561 19.208C97.6561 18.7959 97.1041 18.4617 96.4232 18.4617C95.7424 18.4617 95.1904 18.7959 95.1904 19.208L95.1933 27.1672C95.1933 27.5794 95.7453 27.9136 96.4261 27.9136C97.1069 27.9136 97.6589 27.5794 97.6589 27.1672L97.6561 19.208ZM105.271 12.2928C105.271 11.8807 104.719 11.5465 104.038 11.5465C103.358 11.5465 102.806 11.8807 102.806 12.2928L102.808 34.0823C102.808 34.4945 103.36 34.8287 104.041 34.8287C104.722 34.8287 105.274 34.4945 105.274 34.0823L105.271 12.2928ZM109.079 8.74007C109.079 8.32789 108.527 7.99369 107.846 7.99369C107.165 7.99369 106.613 8.32789 106.613 8.74007L106.616 37.635C106.616 38.0472 107.168 38.3814 107.849 38.3814C108.53 38.3814 109.082 38.0472 109.082 37.635L109.079 8.74007ZM131.925 6.96366C131.925 6.55147 131.373 6.21728 130.692 6.21728C130.011 6.21728 129.459 6.55147 129.459 6.96366L129.462 39.4114C129.462 39.8236 130.014 40.1578 130.695 40.1578C131.375 40.1578 131.927 39.8236 131.927 39.4114L131.925 6.96366ZM135.732 4.55284C135.732 4.14066 135.18 3.80646 134.499 3.80646C133.819 3.80646 133.267 4.14066 133.267 4.55284L133.269 41.8222C133.269 42.2344 133.821 42.5686 134.502 42.5686C135.183 42.5686 135.735 42.2344 135.735 41.8222L135.732 4.55284Z" fill="#5E5E5E"/>
</svg>
