<?xml version="1.0" encoding="UTF-8"?>
<svg id="Layer_1" xmlns="http://www.w3.org/2000/svg" xmlns:serif="http://www.serif.com/" version="1.1" viewBox="0 0 91 91">
  <!-- Generator: Adobe Illustrator 30.0.0, SVG Export Plug-In . SVG Version: 2.1.1 Build 123)  -->
  <defs>
    <style>
      .st0 {
        fill: #ff6767;
      }
    </style>
  </defs>
  <path class="st0" d="M26.7.3c-4.8.2-8.1,1-11,2.1-3,1.2-5.5,2.7-8,5.3-2.5,2.5-4.1,5.1-5.2,8.1-1.1,2.9-1.9,6.2-2.1,11C0,31.7,0,33.2,0,45.6c0,12.4,0,13.9.3,18.8.2,4.8,1,8.1,2.1,11,1.2,3,2.7,5.5,5.3,8,2.5,2.5,5.1,4.1,8.1,5.2,2.9,1.1,6.2,1.9,11,2.1,4.8.2,6.4.3,18.8.2,12.4,0,13.9,0,18.8-.3,4.9-.2,8.1-1,11-2.1,3-1.2,5.5-2.7,8.1-5.3,2.5-2.5,4.1-5.1,5.2-8.1,1.1-2.9,1.9-6.2,2.1-11,.2-4.9.3-6.4.2-18.8,0-12.4,0-13.9-.3-18.8-.2-4.9-1-8.1-2.1-11-1.2-3-2.7-5.5-5.3-8.1-2.5-2.5-5.1-4.1-8.1-5.2-2.9-1.1-6.2-1.9-11-2.1C59.3,0,57.8,0,45.4,0c-12.4,0-13.9,0-18.8.3ZM27.2,82.6c-4.4-.2-6.8-.9-8.4-1.5-2.1-.8-3.6-1.8-5.2-3.4-1.6-1.6-2.6-3.1-3.4-5.2-.6-1.6-1.4-4-1.6-8.4-.2-4.8-.3-6.2-.3-18.4s0-13.6.2-18.4c.2-4.4.9-6.8,1.5-8.4.8-2.1,1.8-3.6,3.4-5.2,1.6-1.6,3.1-2.6,5.2-3.4,1.6-.6,4-1.4,8.4-1.6,4.8-.2,6.2-.3,18.4-.3,12.1,0,13.6,0,18.4.2,4.4.2,6.8.9,8.4,1.5,2.1.8,3.6,1.8,5.2,3.4,1.6,1.6,2.6,3.1,3.4,5.2.6,1.6,1.4,4,1.6,8.4.2,4.8.3,6.2.3,18.4,0,12.1,0,13.6-.2,18.4-.2,4.4-.9,6.8-1.5,8.5-.8,2.1-1.8,3.6-3.4,5.2-1.6,1.6-3.1,2.6-5.2,3.4-1.6.6-4,1.4-8.4,1.6-4.8.2-6.2.3-18.4.3-12.2,0-13.6,0-18.4-.2M64.3,21.2c0,1.1.3,2.1.9,3,.6.9,1.5,1.6,2.5,2,1,.4,2.1.5,3.2.3,1.1-.2,2-.7,2.8-1.5.8-.8,1.3-1.7,1.5-2.8.2-1.1,0-2.2-.3-3.2-.4-1-1.1-1.8-2-2.4s-2-.9-3-.9c-1.4,0-2.8.6-3.9,1.6-1,1-1.6,2.4-1.6,3.9ZM22.1,45.5c0,12.9,10.5,23.3,23.4,23.3s23.3-10.5,23.3-23.4c0-12.9-10.5-23.3-23.4-23.3-12.9,0-23.3,10.5-23.3,23.4ZM30.3,45.5c0-3,.9-5.9,2.5-8.4,1.7-2.5,4-4.4,6.8-5.6,2.8-1.2,5.8-1.5,8.8-.9,2.9.6,5.6,2,7.8,4.1,2.1,2.1,3.6,4.8,4.2,7.8.6,2.9.3,6-.8,8.8-1.1,2.8-3.1,5.1-5.6,6.8-2.5,1.7-5.4,2.6-8.4,2.6-2,0-4-.4-5.8-1.1-1.8-.8-3.5-1.9-4.9-3.3-1.4-1.4-2.5-3.1-3.3-4.9-.8-1.8-1.2-3.8-1.2-5.8Z"/>
</svg>