<svg width="25" height="17" viewBox="0 0 25 17" fill="none" xmlns="http://www.w3.org/2000/svg">
<path d="M8.14551 0.5C9.88851 0.500013 11.4938 1.08907 12.7803 2.0791C12.0253 3.14969 11.3775 4.64326 10.6777 6.69922C10.1659 5.82869 9.22643 5.24123 8.14551 5.24121C6.51664 5.24121 5.2023 6.57045 5.20215 8.20215C5.20215 9.83398 6.51655 11.1631 8.14551 11.1631H8.15234C8.5749 11.1626 8.97552 11.0708 9.33789 10.9092L7.78027 15.8945C3.73011 15.7026 0.5 12.3361 0.5 8.20215C0.500149 3.94476 3.92613 0.5 8.14551 0.5Z" stroke="white"/>
<path d="M20.9092 0.761719H24.3457C23.5472 3.27639 21.4115 5.21207 17.7686 5.92285L17.7256 6.89355C18.8445 7.21778 20.0421 7.21407 20.9395 7.13672C21.2144 7.11301 21.4645 7.07943 21.6797 7.04785C21.3037 8.16943 20.6969 9.084 19.9014 9.76758C18.9363 10.5968 17.6691 11.1097 16.1416 11.2217L15.8379 11.2441L15.7188 11.5234C14.6037 14.1297 12.1648 15.8833 9.39844 16.1338L11.6299 8.99414C12.2562 6.98977 12.7988 5.47674 13.3496 4.3291C13.8996 3.18315 14.4441 2.43196 15.0576 1.9248C16.278 0.916179 17.8987 0.761732 20.9092 0.761719Z" stroke="white"/>
</svg>
