<svg width="14" height="11" viewBox="0 0 14 11" fill="none" xmlns="http://www.w3.org/2000/svg">
<path d="M3.54889 5.95602C3.64118 5.95602 3.71776 6.03273 3.71783 6.12595V6.53317C3.71802 7.24374 4.28985 7.82206 4.99323 7.82224H8.72076C9.42416 7.82208 9.99596 7.24375 9.99615 6.53317V6.12595C9.99623 6.03273 10.0728 5.95602 10.1651 5.95602H13.5059V9.32809C13.5057 10.1432 12.848 10.8076 12.0411 10.8076H1.67291C0.865999 10.8076 0.208303 10.1432 0.208069 9.32809V5.95602H3.54889ZM10.4053 0.359344C11.0517 0.359344 11.622 0.789943 11.8067 1.41306L13.3126 4.83688H10.1651C9.46156 4.83702 8.88873 5.41519 8.88873 6.12595V6.5322C8.88873 6.62548 8.81311 6.70212 8.72076 6.70212H4.99615C4.90381 6.70212 4.82819 6.62548 4.82819 6.5322V6.12595C4.82819 5.41511 4.25546 4.83689 3.55182 4.83688H0.404358L1.91022 1.41306C2.09489 0.789953 2.6634 0.359405 3.31158 0.359344H10.4053Z" fill="currentColor"/>
</svg>
