<svg width="32" height="34" viewBox="0 0 32 34" fill="none" xmlns="http://www.w3.org/2000/svg">
<g filter="url(#filter0_dd_1907_1534)">
<path d="M7.88741 24.3938L5.63738 22.1438C5.25709 21.7635 5.25709 21.1614 5.63738 20.7811L12.3875 14.031C10.803 13.2704 8.83813 13.5239 7.53882 14.8549L3.73594 18.5944C2.08802 20.2424 2.08802 22.9361 3.73594 24.584L5.41554 26.2636C7.06346 27.9115 9.75716 27.9115 11.4051 26.2636L15.1763 22.4924C16.4756 21.1931 16.7608 19.2283 16.0002 17.6437L9.25011 24.3938C8.86982 24.7741 8.2677 24.7741 7.88741 24.3938Z" fill="white"/>
<path d="M18.5662 3.76369L14.795 7.53488C13.4957 8.8342 13.2105 10.799 13.9711 12.3836L20.7212 5.63344C21.1015 5.25315 21.7036 5.25315 22.0839 5.63344L24.3339 7.88348C24.7142 8.26377 24.7142 8.86589 24.3339 9.24618L17.6155 15.9963C19.2 16.7569 21.1649 16.5033 22.4642 15.1723L26.2354 11.4011C27.8833 9.75323 27.8833 7.05952 26.2354 5.41161L24.5558 3.732C22.9078 2.08409 20.2458 2.08409 18.5662 3.76369Z" fill="white"/>
<path d="M10.1368 19.8629C10.7072 20.4333 11.6263 20.4333 12.2284 19.8629L19.8658 12.2255C20.4363 11.655 20.4363 10.736 19.8658 10.1339C19.2954 9.56345 18.3764 9.56345 17.7743 10.1339L10.1368 17.803C9.56638 18.3735 9.56638 19.2925 10.1368 19.8629Z" fill="white"/>
</g>
<defs>
<filter id="filter0_dd_1907_1534" x="-2" y="0" width="36" height="36" filterUnits="userSpaceOnUse" color-interpolation-filters="sRGB">
<feFlood flood-opacity="0" result="BackgroundImageFix"/>
<feColorMatrix in="SourceAlpha" type="matrix" values="0 0 0 0 0 0 0 0 0 0 0 0 0 0 0 0 0 0 127 0" result="hardAlpha"/>
<feOffset dx="1" dy="3"/>
<feGaussianBlur stdDeviation="1.5"/>
<feComposite in2="hardAlpha" operator="out"/>
<feColorMatrix type="matrix" values="0 0 0 0 0 0 0 0 0 0 0 0 0 0 0 0 0 0 0.1 0"/>
<feBlend mode="normal" in2="BackgroundImageFix" result="effect1_dropShadow_1907_1534"/>
<feColorMatrix in="SourceAlpha" type="matrix" values="0 0 0 0 0 0 0 0 0 0 0 0 0 0 0 0 0 0 127 0" result="hardAlpha"/>
<feOffset dx="1" dy="1"/>
<feComposite in2="hardAlpha" operator="out"/>
<feColorMatrix type="matrix" values="0 0 0 0 0 0 0 0 0 0 0 0 0 0 0 0 0 0 0.1 0"/>
<feBlend mode="normal" in2="effect1_dropShadow_1907_1534" result="effect2_dropShadow_1907_1534"/>
<feBlend mode="normal" in="SourceGraphic" in2="effect2_dropShadow_1907_1534" result="shape"/>
</filter>
</defs>
</svg>
