<svg width="16" height="12" viewBox="0 0 16 12" fill="none" xmlns="http://www.w3.org/2000/svg">
<path opacity="0.8" d="M5.33333 0C2.38811 0 0 2.53737 0 5.66667C0 8.79596 2.38811 11.3333 5.33333 11.3333C8.27855 11.3333 10.6667 8.79596 10.6667 5.66667C10.6654 2.53737 8.27855 0.00129524 5.33333 0ZM5.33333 7.36667C4.44952 7.36667 3.73333 6.60571 3.73333 5.66667C3.73333 4.72762 4.44952 3.96667 5.33333 3.96667C6.21714 3.96667 6.93333 4.72762 6.93333 5.66667C6.93455 6.60442 6.2208 7.36537 5.33821 7.36667C5.33638 7.36667 5.33516 7.36667 5.33333 7.36667Z" fill="#00A9F1"/>
<path d="M11.3287 4.24968C12.6836 4.66415 14.2836 4.24968 14.2836 4.24968C13.8192 6.40301 12.3472 7.75135 10.2248 7.91585C9.38305 9.99082 7.46061 11.3346 5.33398 11.3333L6.93398 5.93025C8.5797 0.376266 9.42145 0 13.3224 0H16.0007C15.5527 2.09634 14.0087 3.69855 11.3287 4.24968Z" fill="#00A9F1"/>
</svg>
