<svg xmlns="http://www.w3.org/2000/svg" width="32" height="34" viewBox="0 0 32 34" fill="none">
  <g filter="url(#filter0_dd_5934_10407)">
    <path fill-rule="evenodd" clip-rule="evenodd" d="M9.1625 2.50024H20.825C25.075 2.50024 27.5 4.90024 27.5 9.16274V20.8377C27.5 25.0752 25.0875 27.5002 20.8375 27.5002H9.1625C4.9 27.5002 2.5 25.0752 2.5 20.8377V9.16274C2.5 4.90024 4.9 2.50024 9.1625 2.50024ZM16.025 16.0377H19.575C20.15 16.0252 20.6125 15.5627 20.6125 14.9877C20.6125 14.4127 20.15 13.9502 19.575 13.9502H16.025V10.4252C16.025 9.85024 15.5625 9.38774 14.9875 9.38774C14.4125 9.38774 13.95 9.85024 13.95 10.4252V13.9502H10.4125C10.1375 13.9502 9.875 14.0627 9.675 14.2502C9.4875 14.4502 9.375 14.7115 9.375 14.9877C9.375 15.5627 9.8375 16.0252 10.4125 16.0377H13.95V19.5752C13.95 20.1502 14.4125 20.6127 14.9875 20.6127C15.5625 20.6127 16.025 20.1502 16.025 19.5752V16.0377Z" fill="#FF2A71"/>
  </g>
  <defs>
    <filter id="filter0_dd_5934_10407" x="-2" y="0" width="36" height="36" filterUnits="userSpaceOnUse" color-interpolation-filters="sRGB">
      <feFlood flood-opacity="0" result="BackgroundImageFix"/>
      <feColorMatrix in="SourceAlpha" type="matrix" values="0 0 0 0 0 0 0 0 0 0 0 0 0 0 0 0 0 0 127 0" result="hardAlpha"/>
      <feOffset dx="1" dy="3"/>
      <feGaussianBlur stdDeviation="1.5"/>
      <feComposite in2="hardAlpha" operator="out"/>
      <feColorMatrix type="matrix" values="0 0 0 0 0 0 0 0 0 0 0 0 0 0 0 0 0 0 0.1 0"/>
      <feBlend mode="normal" in2="BackgroundImageFix" result="effect1_dropShadow_5934_10407"/>
      <feColorMatrix in="SourceAlpha" type="matrix" values="0 0 0 0 0 0 0 0 0 0 0 0 0 0 0 0 0 0 127 0" result="hardAlpha"/>
      <feOffset dx="1" dy="1"/>
      <feComposite in2="hardAlpha" operator="out"/>
      <feColorMatrix type="matrix" values="0 0 0 0 0 0 0 0 0 0 0 0 0 0 0 0 0 0 0.1 0"/>
      <feBlend mode="normal" in2="effect1_dropShadow_5934_10407" result="effect2_dropShadow_5934_10407"/>
      <feBlend mode="normal" in="SourceGraphic" in2="effect2_dropShadow_5934_10407" result="shape"/>
    </filter>
  </defs>
</svg>
