<svg width="26" height="26" viewBox="0 0 26 26" fill="none" xmlns="http://www.w3.org/2000/svg">
<path fill-rule="evenodd" clip-rule="evenodd" d="M23.3841 11.3198C23.2439 11.4559 23.0538 11.5337 22.8536 11.5337C22.113 11.5337 21.5125 12.1171 21.5125 12.8268C21.5125 13.5415 22.106 14.1219 22.8396 14.1297C23.2529 14.1336 23.6042 14.4136 23.6042 14.8151V17.3091C23.6042 19.4082 21.8528 21.1107 19.6909 21.1107H16.4282C16.0909 21.1107 15.8177 20.8453 15.8177 20.5176V18.4175C15.8177 18.0091 15.4874 17.6882 15.067 17.6882C14.6567 17.6882 14.3164 18.0091 14.3164 18.4175V20.5176C14.3164 20.8453 14.0432 21.1107 13.7069 21.1107H6.82005C4.66823 21.1107 2.90674 19.4092 2.90674 17.3091V14.8151C2.90674 14.4136 3.25804 14.1336 3.67139 14.1297C4.40601 14.1219 4.99851 13.5415 4.99851 12.8268C4.99851 12.1365 4.41802 11.6115 3.65738 11.6115C3.45721 11.6115 3.26705 11.5337 3.12693 11.3976C2.98681 11.2614 2.90674 11.0767 2.90674 10.8823V8.36404C2.90674 6.2678 4.67224 4.55269 6.83006 4.55269H13.7069C14.0432 4.55269 14.3164 4.81812 14.3164 5.14578V7.63483C14.3164 8.03347 14.6567 8.36404 15.067 8.36404C15.4874 8.36404 15.8177 8.03347 15.8177 7.63483V5.14578C15.8177 4.81812 16.0909 4.55269 16.4282 4.55269H19.6909C21.8528 4.55269 23.6042 6.25419 23.6042 8.35432V10.8045C23.6042 10.9989 23.5242 11.1837 23.3841 11.3198ZM15.067 15.802C15.4874 15.802 15.8177 15.4714 15.8177 15.0728V11.1837C15.8177 10.785 15.4874 10.4544 15.067 10.4544C14.6567 10.4544 14.3164 10.785 14.3164 11.1837V15.0728C14.3164 15.4714 14.6567 15.802 15.067 15.802Z" fill="currentColor"/>
</svg>
