<svg width="15" height="16" viewBox="0 0 15 16" fill="none" xmlns="http://www.w3.org/2000/svg">
<path fill-rule="evenodd" clip-rule="evenodd" d="M10.6695 6.0153C11.6415 6.73608 12.8323 7.16021 14.1183 7.16021V4.59283C13.8749 4.59293 13.6322 4.56657 13.3941 4.5142V6.53512C12.1081 6.53512 10.9175 6.11099 9.9452 5.39021V10.6294C9.9452 13.2504 7.89714 15.3749 5.3708 15.3749C4.42821 15.3749 3.55205 15.0793 2.82422 14.5723C3.6549 15.4534 4.81331 16 6.09491 16C8.62142 16 10.6696 13.8755 10.6696 11.2544L10.6695 6.0153ZM11.563 3.42515C11.0662 2.86219 10.7401 2.13459 10.6695 1.3302V1H9.98312C10.1559 2.02231 10.7452 2.89574 11.563 3.42515ZM4.42208 12.5611C4.14458 12.1836 3.99457 11.7218 3.99524 11.247C3.99524 10.0482 4.93206 9.07633 6.0878 9.07633C6.30317 9.07617 6.51726 9.11047 6.72256 9.17801V6.55328C6.48269 6.51918 6.2406 6.50473 5.99854 6.51005V8.553C5.79316 8.48547 5.57897 8.45117 5.36352 8.45133C4.20777 8.45133 3.27105 9.42321 3.27105 10.6221C3.27105 11.4697 3.73928 12.2036 4.42208 12.5611Z" fill="#EE1D52"/>
<path fill-rule="evenodd" clip-rule="evenodd" d="M9.6228 5.27568C10.6247 5.97766 11.8516 6.39073 13.1767 6.39073V4.42252C12.437 4.2681 11.7822 3.88906 11.2898 3.36188C10.4471 2.84629 9.83988 1.99564 9.66188 1H7.80412V10.9868C7.79991 12.1511 6.8362 13.0937 5.64782 13.0937C4.94751 13.0937 4.32535 12.7665 3.93136 12.2595C3.22776 11.9114 2.74526 11.1966 2.74526 10.371C2.74526 9.20348 3.71052 8.25694 4.90147 8.25694C5.12963 8.25694 5.34955 8.29178 5.55584 8.35597V6.36631C2.99832 6.41811 0.941406 8.46703 0.941406 10.9869C0.941406 12.2448 1.45364 13.3852 2.28492 14.2183C3.03492 14.7121 3.93777 15 4.90907 15C7.51235 15 9.6228 12.9308 9.6228 10.3783V5.27568Z" fill="white"/>
<path fill-rule="evenodd" clip-rule="evenodd" d="M13.1765 4.37323V3.79587C12.4994 3.79694 11.8357 3.59825 11.2613 3.22251C11.7698 3.80589 12.4393 4.20819 13.1765 4.37323ZM9.60887 0.660338C9.59161 0.557124 9.57838 0.453215 9.56921 0.348869V0H6.96557V10.8342C6.96139 12.0971 5.98331 13.1198 4.77699 13.1198C4.42278 13.1198 4.08845 13.0317 3.79231 12.8751C4.19222 13.4251 4.82371 13.7801 5.53454 13.7801C6.74067 13.7801 7.71894 12.7575 7.72322 11.4945V0.660338H9.60887ZM5.44127 6.48193V5.86727C5.22371 5.83608 5.00437 5.8205 4.78479 5.82062C2.14214 5.82062 0 8.06538 0 10.8342C0 12.5702 0.841899 14.1001 2.12124 15C1.27748 14.0962 0.757551 12.8591 0.757551 11.4945C0.757551 8.76088 2.84525 6.53813 5.44127 6.48193Z" fill="#69C9D0"/>
</svg>
