<svg width="31" height="34" viewBox="0 0 31 34" fill="none" xmlns="http://www.w3.org/2000/svg">
<g filter="url(#filter0_dd_1433_3568)">
<path d="M24.9141 12.7832C25.5825 12.7832 26.125 13.3173 26.125 13.9785C26.125 19.3581 22.0009 23.8006 16.7119 24.3975V26.8047C16.7117 27.4644 16.1691 27.9998 15.501 28C14.8315 28 14.2903 27.4645 14.29 26.8047V24.3975C8.99964 23.8008 4.875 19.3582 4.875 13.9785C4.87504 13.3173 5.41755 12.7832 6.08594 12.7832C6.75431 12.7832 7.29684 13.3173 7.29688 13.9785C7.29688 18.4447 10.9771 22.0791 15.501 22.0791C20.0235 22.0789 23.7031 18.4445 23.7031 13.9785C23.7032 13.3173 24.2457 12.7832 24.9141 12.7832ZM15.7188 3C18.7228 3.00016 21.159 5.40464 21.1592 8.37109V14.1504C21.1592 17.1158 18.7228 19.5213 15.7188 19.5215H15.2812C12.277 19.5215 9.8418 17.1158 9.8418 14.1504V8.37109C9.84193 5.40456 12.2771 3.00003 15.2812 3H15.7188Z" fill="currentColor"/>
</g>
<defs>
<filter id="filter0_dd_1433_3568" x="-1.5" y="0.5" width="36" height="36" filterUnits="userSpaceOnUse" color-interpolation-filters="sRGB">
<feFlood flood-opacity="0" result="BackgroundImageFix"/>
<feColorMatrix in="SourceAlpha" type="matrix" values="0 0 0 0 0 0 0 0 0 0 0 0 0 0 0 0 0 0 127 0" result="hardAlpha"/>
<feOffset dx="1" dy="3"/>
<feGaussianBlur stdDeviation="1.5"/>
<feComposite in2="hardAlpha" operator="out"/>
<feColorMatrix type="matrix" values="0 0 0 0 0 0 0 0 0 0 0 0 0 0 0 0 0 0 0.1 0"/>
<feBlend mode="normal" in2="BackgroundImageFix" result="effect1_dropShadow_1433_3568"/>
<feColorMatrix in="SourceAlpha" type="matrix" values="0 0 0 0 0 0 0 0 0 0 0 0 0 0 0 0 0 0 127 0" result="hardAlpha"/>
<feOffset dx="1" dy="1"/>
<feComposite in2="hardAlpha" operator="out"/>
<feColorMatrix type="matrix" values="0 0 0 0 0 0 0 0 0 0 0 0 0 0 0 0 0 0 0.1 0"/>
<feBlend mode="normal" in2="effect1_dropShadow_1433_3568" result="effect2_dropShadow_1433_3568"/>
<feBlend mode="normal" in="SourceGraphic" in2="effect2_dropShadow_1433_3568" result="shape"/>
</filter>
</defs>
</svg>
